<svg width="55" height="55" viewBox="0 0 55 55" fill="none" xmlns="http://www.w3.org/2000/svg">
<circle cx="17.5" cy="18.5" r="8.5" fill="url(#paint0_linear_568_365)"/>
<path d="M21.7842 36.9614L21.3171 37.0197L20.9843 36.6868L17.7164 33.4175C17.7158 33.4169 17.7151 33.4163 17.7145 33.4156C17.4066 33.1122 17.0176 32.9046 16.5943 32.8177C16.1709 32.7308 15.7315 32.7685 15.3291 32.9263C15.3283 32.9265 15.3276 32.9268 15.3269 32.9271L11.3488 34.5161C11.348 34.5164 11.3472 34.5167 11.3464 34.517C10.941 34.6822 10.5933 34.9636 10.347 35.3259C10.1011 35.6877 9.96732 36.1141 9.9625 36.5517V43.8498C9.96532 44.1467 10.0279 44.4399 10.1466 44.712C10.2657 44.9852 10.4388 45.2314 10.6555 45.4359C10.8722 45.6403 11.128 45.7987 11.4075 45.9016C11.6855 46.004 11.9812 46.0493 12.277 46.0349C25.9324 45.1834 34.065 38.998 38.9439 31.9564C43.8523 24.8721 45.4997 16.867 46.0243 12.4128C46.0582 12.1037 46.0266 11.791 45.9315 11.495C45.8361 11.1981 45.6789 10.9248 45.4704 10.6931C45.2618 10.4614 45.0066 10.2766 44.7216 10.1506C44.4365 10.0247 44.1281 9.96063 43.8165 9.96254L43.8165 9.96256H43.8106H36.7566C36.3196 9.96411 35.8929 10.0963 35.5315 10.3422C35.1696 10.5883 34.8896 10.9372 34.7275 11.3439L34.7274 11.3443L33.1351 15.3339L33.1351 15.3339L33.1325 15.3403C32.9698 15.7397 32.9282 16.1781 33.0131 16.6009C33.0979 17.0234 33.3052 17.4114 33.6089 17.7167C33.6092 17.717 33.6095 17.7173 33.6097 17.7175L36.8806 20.9898L37.2228 21.3321L37.1521 21.8109L36.1999 21.6702C37.1521 21.8109 37.152 21.8114 37.1519 21.8119L37.1517 21.8132L37.1512 21.8167L37.1496 21.8273L37.144 21.8621C37.1393 21.8912 37.1323 21.9322 37.1229 21.9844C37.1042 22.0887 37.0756 22.2376 37.0349 22.4253C36.9537 22.8003 36.824 23.3313 36.628 23.9705C36.2367 25.2465 35.5768 26.9677 34.4995 28.7453C32.3353 32.3165 28.4715 36.1271 21.7842 36.9614Z" fill="url(#paint1_linear_568_365)" stroke="url(#paint2_linear_568_365)" stroke-width="1.925"/>
<defs>
<linearGradient id="paint0_linear_568_365" x1="9.02326" y1="9.23481" x2="14.9171" y2="31.9985" gradientUnits="userSpaceOnUse">
<stop stop-color="#AFB5FE"/>
<stop offset="1" stop-color="#6B5EFF"/>
</linearGradient>
<linearGradient id="paint1_linear_568_365" x1="42.9144" y1="19.3829" x2="16.6174" y2="68.7532" gradientUnits="userSpaceOnUse">
<stop stop-color="#FFB45C"/>
<stop offset="1" stop-color="#F7931E"/>
</linearGradient>
<linearGradient id="paint2_linear_568_365" x1="40.951" y1="13.427" x2="-19.1134" y2="33.8946" gradientUnits="userSpaceOnUse">
<stop stop-color="white" stop-opacity="0.25"/>
<stop offset="1" stop-color="white" stop-opacity="0"/>
</linearGradient>
</defs>
</svg>
