<svg width="27" height="27" viewBox="0 0 27 27" fill="none" xmlns="http://www.w3.org/2000/svg">
<path d="M11.25 24.75H15.75H11.25ZM5.625 10.125C5.625 8.03642 6.45469 6.03338 7.93154 4.55653C9.40838 3.07969 11.4114 2.25 13.5 2.25C15.5886 2.25 17.5916 3.07969 19.0685 4.55653C20.5453 6.03338 21.375 8.03642 21.375 10.125C21.3757 11.393 21.0691 12.6422 20.4813 13.7657C19.8935 14.8892 19.0421 15.8534 18 16.5758L17.3903 19.4625C17.3095 19.9946 17.0407 20.4801 16.6327 20.831C16.2246 21.1819 15.7043 21.3749 15.1661 21.375H11.8339C11.2957 21.3749 10.7754 21.1819 10.3673 20.831C9.95925 20.4801 9.69048 19.9946 9.60975 19.4625L9 16.5881C7.95758 15.8632 7.10614 14.8967 6.51842 13.7712C5.9307 12.6457 5.62416 11.3947 5.625 10.125V10.125Z" stroke="#03011C" stroke-width="2" stroke-linecap="round" stroke-linejoin="round"/>
<path d="M9 16.875H18" stroke="#03011C" stroke-width="2" stroke-linecap="round" stroke-linejoin="round"/>
</svg>
