<svg width="60" height="61" viewBox="0 0 60 61" fill="none" xmlns="http://www.w3.org/2000/svg">
<g filter="url(#filter0_b_1218_1302)">
<path d="M27.5425 47.7647C27.3606 47.4873 27.1022 47.2099 26.7672 47.0342C26.4992 46.9047 26.3269 46.692 26.1738 46.4424C25.6856 45.6471 25.9728 44.6022 26.7863 44.1306C27.7435 43.6035 28.0498 42.4291 27.4946 41.5137L26.8533 40.4225C26.3078 39.507 25.1113 39.1834 24.1637 39.7197C23.3214 40.1636 22.2398 39.8677 21.7517 39.0817C21.5986 38.8228 21.5124 38.5454 21.5316 38.2679C21.5603 37.9073 21.4454 37.5652 21.2731 37.2877C20.919 36.7144 20.2777 36.326 19.5694 36.326H18.2198C17.5211 36.3445 16.8798 36.7144 16.5256 37.2877C16.3438 37.5652 16.2385 37.9073 16.2576 38.2679C16.2768 38.5454 16.1906 38.8228 16.0375 39.0817C15.5493 39.8677 14.4677 40.1636 13.635 39.7197C12.6778 39.1834 11.491 39.507 10.9358 40.4225L10.2945 41.5137C9.74894 42.4291 10.0552 43.6035 11.0028 44.1306C11.8164 44.6022 12.1035 45.6471 11.625 46.4424C11.4623 46.692 11.29 46.9047 11.022 47.0342C10.6965 47.2099 10.4094 47.4873 10.2562 47.7647C9.90209 48.338 9.92123 49.0593 10.2754 49.6604L10.9358 50.77C11.29 51.3618 11.9504 51.7317 12.6396 51.7317C12.965 51.7317 13.3479 51.6392 13.6541 51.4543C13.8934 51.2971 14.1806 51.2416 14.4964 51.2416C15.444 51.2416 16.2385 52.0091 16.2576 52.9246C16.2576 53.988 17.1382 54.8202 18.2485 54.8202H19.5502C20.651 54.8202 21.5316 53.988 21.5316 52.9246C21.5603 52.0091 22.3547 51.2416 23.3023 51.2416C23.6086 51.2416 23.8957 51.2971 24.1446 51.4543C24.4509 51.6392 24.8242 51.7317 25.1592 51.7317C25.8388 51.7317 26.4992 51.3618 26.8533 50.77L27.5234 49.6604C27.8679 49.0408 27.8967 48.338 27.5425 47.7647Z" fill="url(#paint0_linear_1218_1302)"/>
</g>
<g filter="url(#filter1_b_1218_1302)">
<path d="M18.9113 48.118C17.4085 48.118 16.1929 46.9622 16.1929 45.5104C16.1929 44.0586 17.4085 42.8934 18.9113 42.8934C20.414 42.8934 21.6009 44.0586 21.6009 45.5104C21.6009 46.9622 20.414 48.118 18.9113 48.118Z" fill="white"/>
<path d="M18.9113 47.9411C17.4988 47.9411 16.3698 46.8572 16.3698 45.5104C16.3698 44.1628 17.4996 43.0703 18.9113 43.0703C20.3204 43.0703 21.424 44.1604 21.424 45.5104C21.424 46.8596 20.3213 47.9411 18.9113 47.9411Z" stroke="url(#paint1_linear_1218_1302)" stroke-width="0.353795"/>
</g>
<g filter="url(#filter2_b_1218_1302)">
<mask id="path-4-outside-1_1218_1302" maskUnits="userSpaceOnUse" x="15.0952" y="14.785" width="33" height="43" fill="black">
<rect fill="white" x="15.0952" y="14.785" width="33" height="43"/>
<path fill-rule="evenodd" clip-rule="evenodd" d="M36.6362 44.5184C41.9962 42.4381 45.7961 37.2305 45.7961 31.1355C45.7961 23.2099 39.3712 16.785 31.4457 16.785C23.5201 16.785 17.0952 23.2099 17.0952 31.1355C17.0952 36.7565 20.327 41.6226 25.0337 43.9773V48.6369C25.0337 49.7961 25.8748 50.7588 26.98 50.9481C26.9053 51.2524 26.8657 51.5705 26.8657 51.8978C26.8657 54.09 28.6428 55.8671 30.835 55.8671C33.0271 55.8671 34.8042 54.09 34.8042 51.8978C34.8042 51.5705 34.7646 51.2524 34.6899 50.9481C35.7951 50.7588 36.6362 49.7961 36.6362 48.6369V44.5184Z"/>
</mask>
<path fill-rule="evenodd" clip-rule="evenodd" d="M36.6362 44.5184C41.9962 42.4381 45.7961 37.2305 45.7961 31.1355C45.7961 23.2099 39.3712 16.785 31.4457 16.785C23.5201 16.785 17.0952 23.2099 17.0952 31.1355C17.0952 36.7565 20.327 41.6226 25.0337 43.9773V48.6369C25.0337 49.7961 25.8748 50.7588 26.98 50.9481C26.9053 51.2524 26.8657 51.5705 26.8657 51.8978C26.8657 54.09 28.6428 55.8671 30.835 55.8671C33.0271 55.8671 34.8042 54.09 34.8042 51.8978C34.8042 51.5705 34.7646 51.2524 34.6899 50.9481C35.7951 50.7588 36.6362 49.7961 36.6362 48.6369V44.5184Z" fill="url(#paint2_linear_1218_1302)"/>
<path d="M36.6362 44.5184L36.0706 43.0611L35.0729 43.4483V44.5184H36.6362ZM25.0337 43.9773H26.597V43.0114L25.7332 42.5792L25.0337 43.9773ZM26.98 50.9481L28.4982 51.3208L28.8985 49.6906L27.2439 49.4072L26.98 50.9481ZM34.6899 50.9481L34.426 49.4072L32.7714 49.6906L33.1717 51.3208L34.6899 50.9481ZM37.2019 45.9758C43.1431 43.6699 47.3594 37.897 47.3594 31.1355H44.2328C44.2328 36.5641 40.8493 41.2063 36.0706 43.0611L37.2019 45.9758ZM47.3594 31.1355C47.3594 22.3466 40.2346 15.2218 31.4457 15.2218V18.3483C38.5078 18.3483 44.2328 24.0733 44.2328 31.1355H47.3594ZM31.4457 15.2218C22.6567 15.2218 15.5319 22.3466 15.5319 31.1355H18.6585C18.6585 24.0733 24.3835 18.3483 31.4457 18.3483V15.2218ZM15.5319 31.1355C15.5319 37.3711 19.1186 42.7661 24.3343 45.3754L25.7332 42.5792C21.5353 40.4792 18.6585 36.1419 18.6585 31.1355H15.5319ZM26.597 48.6369V43.9773H23.4705V48.6369H26.597ZM27.2439 49.4072C26.8767 49.3443 26.597 49.0217 26.597 48.6369H23.4705C23.4705 50.5704 24.873 52.1733 26.7162 52.4889L27.2439 49.4072ZM25.4619 50.5753C25.3574 51.0006 25.3024 51.4439 25.3024 51.8978H28.429C28.429 51.697 28.4532 51.5041 28.4982 51.3208L25.4619 50.5753ZM25.3024 51.8978C25.3024 54.9533 27.7794 57.4303 30.835 57.4303V54.3038C29.5062 54.3038 28.429 53.2266 28.429 51.8978H25.3024ZM30.835 57.4303C33.8905 57.4303 36.3675 54.9533 36.3675 51.8978H33.241C33.241 53.2266 32.1638 54.3038 30.835 54.3038V57.4303ZM36.3675 51.8978C36.3675 51.4439 36.3125 51.0006 36.2081 50.5753L33.1717 51.3208C33.2167 51.5041 33.241 51.697 33.241 51.8978H36.3675ZM35.0729 48.6369C35.0729 49.0217 34.7933 49.3443 34.426 49.4072L34.9538 52.4889C36.7969 52.1733 38.1995 50.5704 38.1995 48.6369H35.0729ZM35.0729 44.5184V48.6369H38.1995V44.5184H35.0729Z" fill="#F7931E" fill-opacity="0.4" mask="url(#path-4-outside-1_1218_1302)"/>
</g>
<path d="M31.1043 3.49707V10.5318" stroke="url(#paint3_linear_1218_1302)" stroke-width="2.34492" stroke-linecap="round"/>
<path d="M19.3797 5.84198L22.5063 12.0951" stroke="url(#paint4_linear_1218_1302)" stroke-width="2.34492" stroke-linecap="round"/>
<path d="M42.8492 5.84204L39.3116 12.0952" stroke="url(#paint5_linear_1218_1302)" stroke-width="2.34492" stroke-linecap="round"/>
<defs>
<filter id="filter0_b_1218_1302" x="-11.2277" y="15.0983" width="60.2507" height="60.9496" filterUnits="userSpaceOnUse" color-interpolation-filters="sRGB">
<feFlood flood-opacity="0" result="BackgroundImageFix"/>
<feGaussianBlur in="BackgroundImage" stdDeviation="10.6139"/>
<feComposite in2="SourceAlpha" operator="in" result="effect1_backgroundBlur_1218_1302"/>
<feBlend mode="normal" in="SourceGraphic" in2="effect1_backgroundBlur_1218_1302" result="shape"/>
</filter>
<filter id="filter1_b_1218_1302" x="2.92561" y="29.6261" width="31.9426" height="31.7593" filterUnits="userSpaceOnUse" color-interpolation-filters="sRGB">
<feFlood flood-opacity="0" result="BackgroundImageFix"/>
<feGaussianBlur in="BackgroundImage" stdDeviation="6.63366"/>
<feComposite in2="SourceAlpha" operator="in" result="effect1_backgroundBlur_1218_1302"/>
<feBlend mode="normal" in="SourceGraphic" in2="effect1_backgroundBlur_1218_1302" result="shape"/>
</filter>
<filter id="filter2_b_1218_1302" x="3.80731" y="3.49719" width="55.2767" height="65.6577" filterUnits="userSpaceOnUse" color-interpolation-filters="sRGB">
<feFlood flood-opacity="0" result="BackgroundImageFix"/>
<feGaussianBlur in="BackgroundImage" stdDeviation="5.86231"/>
<feComposite in2="SourceAlpha" operator="in" result="effect1_backgroundBlur_1218_1302"/>
<feBlend mode="normal" in="SourceGraphic" in2="effect1_backgroundBlur_1218_1302" result="shape"/>
</filter>
<linearGradient id="paint0_linear_1218_1302" x1="10.0243" y1="35.4936" x2="16.6547" y2="60.134" gradientUnits="userSpaceOnUse">
<stop stop-color="#AFB5FE"/>
<stop offset="1" stop-color="#6B5EFF"/>
</linearGradient>
<linearGradient id="paint1_linear_1218_1302" x1="17.0538" y1="43.5021" x2="20.3605" y2="47.7413" gradientUnits="userSpaceOnUse">
<stop stop-color="white" stop-opacity="0.25"/>
<stop offset="1" stop-color="white" stop-opacity="0"/>
</linearGradient>
<linearGradient id="paint2_linear_1218_1302" x1="20.181" y1="27.4636" x2="51.1606" y2="70.1759" gradientUnits="userSpaceOnUse">
<stop stop-color="#FFB45C"/>
<stop offset="1" stop-color="#F7931E"/>
</linearGradient>
<linearGradient id="paint3_linear_1218_1302" x1="31.2118" y1="5.41922" x2="34.1348" y2="6.1993" gradientUnits="userSpaceOnUse">
<stop stop-color="#FFB45C"/>
<stop offset="1" stop-color="#F7931E"/>
</linearGradient>
<linearGradient id="paint4_linear_1218_1302" x1="20.0991" y1="7.62407" x2="23.3964" y2="12.9164" gradientUnits="userSpaceOnUse">
<stop stop-color="#FFB45C"/>
<stop offset="0.898047" stop-color="#F7931E"/>
</linearGradient>
<linearGradient id="paint5_linear_1218_1302" x1="44.7831" y1="8.9686" x2="44.5367" y2="8.64538" gradientUnits="userSpaceOnUse">
<stop stop-color="#FFB45C"/>
<stop offset="1" stop-color="#F7931E"/>
</linearGradient>
</defs>
</svg>
