<svg width="50" height="51" viewBox="0 0 50 51" fill="none" xmlns="http://www.w3.org/2000/svg">
<circle cx="29.6083" cy="15.687" r="10.1899" fill="url(#paint0_linear_1218_1327)"/>
<path fill-rule="evenodd" clip-rule="evenodd" d="M29.6083 9.75867C30.0686 9.75867 30.4417 10.1318 30.4417 10.592V14.4932C30.8179 14.7564 31.064 15.1929 31.064 15.6869C31.064 15.7591 31.0587 15.8301 31.0486 15.8995L35.9155 19.376C36.29 19.6435 36.3767 20.1639 36.1092 20.5385C35.8417 20.913 35.3212 20.9997 34.9467 20.7322L29.8848 17.1164C29.7953 17.1336 29.7028 17.1426 29.6083 17.1426C28.8043 17.1426 28.1526 16.4909 28.1526 15.6869C28.1526 15.1929 28.3987 14.7563 28.775 14.4932V10.592C28.775 10.1318 29.1481 9.75867 29.6083 9.75867Z" fill="white"/>
<path d="M22.3977 28.7512C16.7171 26.9511 10.7783 31.2157 8.51898 33.573L13.0376 43.2165L16.9107 42.2521C16.9107 42.2521 31.6931 42.5093 34.017 42.2521C36.9218 41.9307 47.5729 28.1083 46.6046 25.8581C45.6364 23.608 39.5039 28.7512 35.9536 32.93C33.1133 36.2731 27.4542 35.3945 24.9797 34.5373C28.3149 34.6444 34.9207 34.2801 34.6625 31.9657C34.3398 29.0726 29.4984 31.0014 22.3977 28.7512Z" fill="url(#paint1_linear_1218_1327)"/>
<path d="M8.21817 33.2846L8.02042 33.491L8.14168 33.7497L12.6603 43.3933L12.8057 43.7036L13.1383 43.6208L16.9583 42.6697L17.0703 42.6716L17.5438 42.6793C17.9528 42.6858 18.5395 42.6949 19.2509 42.7049C20.6736 42.725 22.5949 42.7491 24.5891 42.7652C28.558 42.7972 32.8693 42.7983 34.0628 42.6663C34.543 42.6131 35.1038 42.3018 35.6769 41.8845C36.2675 41.4544 36.9346 40.8636 37.6384 40.1677C39.0473 38.7746 40.6332 36.9312 42.0935 35.0324C43.5535 33.134 44.8975 31.168 45.8182 29.5277C46.2777 28.709 46.6391 27.9586 46.8549 27.3309C46.9628 27.0172 47.0386 26.722 47.0688 26.4565C47.0983 26.1965 47.0884 25.9281 46.9874 25.6934C46.8161 25.2954 46.5118 25.039 46.1153 24.9402C45.7444 24.8479 45.3278 24.9016 44.9109 25.0272C44.0753 25.2791 43.061 25.8757 42.0022 26.6463C39.8725 28.1963 37.4281 30.551 35.636 32.6603C34.3214 34.2076 32.332 34.804 30.3112 34.8925C29.7989 34.9149 29.2889 34.9044 28.7935 34.8695C29.6271 34.8062 30.4658 34.7097 31.2426 34.5696C32.2754 34.3835 33.2359 34.1144 33.9321 33.722C34.6239 33.3321 35.1689 32.7463 35.0766 31.9195C35.0294 31.496 34.8956 31.1335 34.6634 30.834C34.4324 30.5359 34.1248 30.3271 33.7725 30.1763C33.0884 29.8835 32.1612 29.7814 31.1031 29.7019C30.8434 29.6823 30.5724 29.664 30.2906 29.645C28.2338 29.506 25.5965 29.3278 22.5235 28.354C19.5486 27.4113 16.5319 28.0642 14.0017 29.2243C11.4707 30.3848 9.37916 32.0733 8.21817 33.2846Z" stroke="#F7931E" stroke-opacity="0.4" stroke-width="0.833333" stroke-linecap="round"/>
<path d="M10.8546 44.6131L6.31318 34.6526L3.06934 36.3699L7.61072 46.3304L10.8546 44.6131Z" fill="url(#paint2_linear_1218_1327)"/>
<path d="M11.0495 44.9814L11.3966 44.7976L11.2337 44.4403L6.6923 34.4797L6.50892 34.0775L6.11823 34.2843L2.87438 36.0017L2.52729 36.1854L2.69022 36.5428L7.2316 46.5033L7.41499 46.9055L7.80568 46.6987L11.0495 44.9814Z" stroke="#F7931E" stroke-opacity="0.4" stroke-width="0.833333" stroke-linecap="round"/>
<defs>
<linearGradient id="paint0_linear_1218_1327" x1="19.4462" y1="4.57974" x2="26.5119" y2="31.8691" gradientUnits="userSpaceOnUse">
<stop stop-color="#AFB5FE"/>
<stop offset="1" stop-color="#6B5EFF"/>
</linearGradient>
<linearGradient id="paint1_linear_1218_1327" x1="12.6205" y1="30.203" x2="19.6478" y2="58.3102" gradientUnits="userSpaceOnUse">
<stop stop-color="#FFB45C"/>
<stop offset="1" stop-color="#F7931E"/>
</linearGradient>
<linearGradient id="paint2_linear_1218_1327" x1="3.90638" y1="37.8434" x2="13.4045" y2="49.7313" gradientUnits="userSpaceOnUse">
<stop stop-color="#FFB45C"/>
<stop offset="1" stop-color="#F7931E"/>
</linearGradient>
</defs>
</svg>
