<svg width="50" height="51" viewBox="0 0 50 51" fill="none" xmlns="http://www.w3.org/2000/svg">
<g clip-path="url(#clip0_1218_1360)">
<g filter="url(#filter0_b_1218_1360)">
<mask id="path-1-outside-1_1218_1360" maskUnits="userSpaceOnUse" x="8.505" y="12.4509" width="36" height="34" fill="black">
<rect fill="white" x="8.505" y="12.4509" width="36" height="34"/>
<path d="M33.1478 15.4509H19.3703C14.3496 15.4509 11.505 18.1943 11.505 23.0364V36.3109C11.505 41.1529 14.3496 43.8963 19.3703 43.8963H33.1478C38.1685 43.8963 41 41.1529 41 36.3109V23.0364C41 18.1943 38.1685 15.4509 33.1478 15.4509Z"/>
</mask>
<path d="M33.1478 15.4509H19.3703C14.3496 15.4509 11.505 18.1943 11.505 23.0364V36.3109C11.505 41.1529 14.3496 43.8963 19.3703 43.8963H33.1478C38.1685 43.8963 41 41.1529 41 36.3109V23.0364C41 18.1943 38.1685 15.4509 33.1478 15.4509Z" fill="url(#paint0_linear_1218_1360)"/>
<path d="M33.1478 17.9939C34.5522 17.9939 35.6908 16.8554 35.6908 15.4509C35.6908 14.0465 34.5522 12.908 33.1478 12.908V17.9939ZM33.1478 12.908C31.7434 12.908 30.6048 14.0465 30.6048 15.4509C30.6048 16.8554 31.7434 17.9939 33.1478 17.9939V12.908ZM33.1478 12.908H19.3703V17.9939H33.1478V12.908ZM19.3703 12.908C16.4118 12.908 13.7348 13.7215 11.7896 15.5975C9.83101 17.4864 8.96204 20.1167 8.96204 23.0364H14.048C14.048 21.114 14.6013 19.9516 15.3202 19.2583C16.0525 18.552 17.3081 17.9939 19.3703 17.9939V12.908ZM8.96204 23.0364V36.3109H14.048V23.0364H8.96204ZM8.96204 36.3109C8.96204 39.2305 9.83101 41.8609 11.7896 43.7498C13.7348 45.6257 16.4118 46.4393 19.3703 46.4393V41.3533C17.3081 41.3533 16.0525 40.7952 15.3202 40.0889C14.6013 39.3956 14.048 38.2332 14.048 36.3109H8.96204ZM19.3703 46.4393H33.1478V41.3533H19.3703V46.4393ZM33.1478 46.4393C36.1064 46.4393 38.7817 45.6256 40.7242 43.7476C42.6793 41.8575 43.543 39.2273 43.543 36.3109H38.4571C38.4571 38.2365 37.905 39.399 37.1892 40.0911C36.4607 40.7953 35.2099 41.3533 33.1478 41.3533V46.4393ZM43.543 36.3109V23.0364H38.4571V36.3109H43.543ZM43.543 23.0364C43.543 20.12 42.6793 17.4897 40.7242 15.5996C38.7817 13.7217 36.1064 12.908 33.1478 12.908V17.9939C35.2099 17.9939 36.4607 18.5519 37.1892 19.2561C37.905 19.9483 38.4571 21.1107 38.4571 23.0364H43.543Z" fill="#F7931E" fill-opacity="0.4" mask="url(#path-1-outside-1_1218_1360)"/>
</g>
<rect x="16.8763" y="24.8986" width="2.68565" height="12.0854" rx="1.34283" fill="white"/>
<rect x="22.2476" y="28.927" width="2.68565" height="8.05696" rx="1.34283" fill="white"/>
<rect x="27.6189" y="22.2129" width="2.68565" height="14.7711" rx="1.34283" fill="white"/>
<rect x="32.9902" y="32.9556" width="2.68565" height="4.02848" rx="1.34283" fill="white"/>
<path fill-rule="evenodd" clip-rule="evenodd" d="M23.7698 23.236C23.9889 23.215 24.196 23.1261 24.3621 22.9817C24.5282 22.8373 24.645 22.6446 24.6963 22.4306L27.5006 10.7201C27.5553 10.4917 27.5323 10.2516 27.4353 10.0377C27.3382 9.82381 27.1726 9.64838 26.9647 9.53915L16.3049 3.93854C16.1101 3.83633 15.8882 3.79751 15.6703 3.82749C15.4524 3.85747 15.2492 3.95476 15.0893 4.10577C14.9293 4.25679 14.8205 4.45399 14.778 4.66984C14.7355 4.88569 14.7615 5.10941 14.8523 5.30978L16.5936 9.14705C11.3717 11.3868 8.44098 11.5326 6.70824 11.0315C5.06106 10.5554 4.30212 9.46058 3.50878 8.31289L3.30392 8.01734C3.15615 7.80639 2.93639 7.65671 2.68598 7.59646C2.43557 7.53621 2.17177 7.56954 1.94422 7.69019C1.71666 7.81083 1.54104 8.01047 1.45039 8.25155C1.35974 8.49262 1.36031 8.75852 1.45199 8.9992C2.48583 11.7171 4.47176 15.4341 7.79215 17.7905C11.015 20.0775 15.3621 20.9881 20.9525 18.7527L22.7078 22.6208C22.7987 22.8212 22.9499 22.9882 23.1403 23.0985C23.3307 23.2088 23.5507 23.2569 23.7698 23.236Z" fill="url(#paint1_linear_1218_1360)"/>
</g>
<defs>
<filter id="filter0_b_1218_1360" x="3.89228" y="7.8382" width="44.7205" height="43.6708" filterUnits="userSpaceOnUse" color-interpolation-filters="sRGB">
<feFlood flood-opacity="0" result="BackgroundImageFix"/>
<feGaussianBlur in="BackgroundImage" stdDeviation="2.53488"/>
<feComposite in2="SourceAlpha" operator="in" result="effect1_backgroundBlur_1218_1360"/>
<feBlend mode="normal" in="SourceGraphic" in2="effect1_backgroundBlur_1218_1360" result="shape"/>
</filter>
<linearGradient id="paint0_linear_1218_1360" x1="14.6762" y1="23.2232" x2="33.9585" y2="60.7599" gradientUnits="userSpaceOnUse">
<stop stop-color="#FFB45C"/>
<stop offset="1" stop-color="#F7931E"/>
</linearGradient>
<linearGradient id="paint1_linear_1218_1360" x1="11.0622" y1="30.2137" x2="5.52611" y2="-1.44765" gradientUnits="userSpaceOnUse">
<stop stop-color="#AFB5FE"/>
<stop offset="1" stop-color="#6B5EFF"/>
</linearGradient>
<clipPath id="clip0_1218_1360">
<rect width="50" height="50" fill="white" transform="translate(0 0.49707)"/>
</clipPath>
</defs>
</svg>
