<svg width="50" height="51" viewBox="0 0 50 51" fill="none" xmlns="http://www.w3.org/2000/svg">
<g clip-path="url(#clip0_848_1405)">
<g filter="url(#filter0_b_848_1405)">
<path d="M29.8174 24.6193C29.5556 24.2161 29.1835 23.813 28.7012 23.5577C28.3154 23.3696 28.0673 23.0605 27.8469 22.6977C27.1441 21.5421 27.5575 20.0236 28.7288 19.3383C30.1067 18.5724 30.5477 16.8658 29.7485 15.5355L28.8252 13.9499C28.0398 12.6196 26.3173 12.1493 24.9531 12.9286C23.7405 13.5736 22.1833 13.1436 21.4806 12.0014C21.2601 11.6252 21.1361 11.2221 21.1636 10.8189C21.205 10.2949 21.0396 9.7977 20.7916 9.39457C20.2817 8.56145 19.3585 7.99707 18.3388 7.99707H16.3958C15.3899 8.02395 14.4666 8.56145 13.9568 9.39457C13.6949 9.7977 13.5434 10.2949 13.5709 10.8189C13.5985 11.2221 13.4745 11.6252 13.254 12.0014C12.5512 13.1436 10.9941 13.5736 9.79525 12.9286C8.41726 12.1493 6.70856 12.6196 5.90933 13.9499L4.98608 15.5355C4.20063 16.8658 4.64159 18.5724 6.00579 19.3383C7.17708 20.0236 7.59047 21.5421 6.90148 22.6977C6.66722 23.0605 6.41919 23.3696 6.03335 23.5577C5.56484 23.813 5.15144 24.2161 4.93096 24.6193C4.42111 25.4524 4.44867 26.5005 4.95852 27.3739L5.90933 28.9864C6.41919 29.8464 7.37 30.3839 8.36215 30.3839C8.83066 30.3839 9.38185 30.2496 9.82281 29.9808C10.1673 29.7524 10.5807 29.6718 11.0354 29.6718C12.3996 29.6718 13.5434 30.7871 13.5709 32.1174C13.5709 33.6627 14.8387 34.8721 16.4371 34.8721H18.3112C19.8959 34.8721 21.1636 33.6627 21.1636 32.1174C21.205 30.7871 22.3487 29.6718 23.7129 29.6718C24.1539 29.6718 24.5672 29.7524 24.9255 29.9808C25.3665 30.2496 25.9039 30.3839 26.3862 30.3839C27.3646 30.3839 28.3154 29.8464 28.8252 28.9864L29.7898 27.3739C30.2859 26.4736 30.3272 25.4524 29.8174 24.6193Z" fill="url(#paint0_linear_848_1405)"/>
</g>
<g opacity="0.5" filter="url(#filter1_f_848_1405)">
<path d="M23.8762 23.1493C23.7412 22.9418 23.5494 22.7343 23.3007 22.6029C23.1017 22.5061 22.9738 22.347 22.8602 22.1602C22.4978 21.5654 22.7109 20.7839 23.3149 20.4312C24.0254 20.0369 24.2528 19.1585 23.8407 18.4738L23.3646 17.6577C22.9596 16.973 22.0715 16.7309 21.3681 17.1321C20.7428 17.464 19.9399 17.2427 19.5775 16.6548C19.4639 16.4612 19.3999 16.2537 19.4141 16.0462C19.4354 15.7764 19.3502 15.5205 19.2223 15.3131C18.9594 14.8842 18.4833 14.5938 17.9575 14.5938H16.9557C16.437 14.6076 15.961 14.8842 15.6981 15.3131C15.5631 15.5205 15.4849 15.7764 15.4991 16.0462C15.5133 16.2537 15.4494 16.4612 15.3357 16.6548C14.9733 17.2427 14.1705 17.464 13.5523 17.1321C12.8418 16.7309 11.9607 16.973 11.5486 17.6577L11.0726 18.4738C10.6676 19.1585 10.8949 20.0369 11.5984 20.4312C12.2023 20.7839 12.4155 21.5654 12.0602 22.1602C11.9394 22.347 11.8115 22.5061 11.6126 22.6029C11.371 22.7343 11.1578 22.9418 11.0442 23.1493C10.7813 23.5781 10.7955 24.1176 11.0584 24.5671L11.5486 25.3971C11.8115 25.8397 12.3018 26.1164 12.8134 26.1164C13.0549 26.1164 13.3391 26.0472 13.5665 25.9089C13.7441 25.7913 13.9573 25.7498 14.1918 25.7498C14.8952 25.7498 15.4849 26.3239 15.4991 27.0086C15.4991 27.804 16.1528 28.4265 16.977 28.4265H17.9433C18.7604 28.4265 19.4141 27.804 19.4141 27.0086C19.4354 26.3239 20.0252 25.7498 20.7286 25.7498C20.956 25.7498 21.1691 25.7913 21.3538 25.9089C21.5812 26.0472 21.8583 26.1164 22.107 26.1164C22.6115 26.1164 23.1017 25.8397 23.3646 25.3971L23.862 24.5671C24.1178 24.1037 24.1391 23.5781 23.8762 23.1493Z" fill="url(#paint1_linear_848_1405)"/>
</g>
<g filter="url(#filter2_b_848_1405)">
<mask id="path-3-outside-1_848_1405" maskUnits="userSpaceOnUse" x="10.1677" y="9.55408" width="35" height="37" fill="black">
<rect fill="white" x="10.1677" y="9.55408" width="35" height="37"/>
<path d="M42.7832 31.517C42.4658 31.0329 42.0148 30.5487 41.4301 30.2421C40.9624 30.0162 40.6617 29.645 40.3945 29.2092C39.5425 27.8214 40.0437 25.9977 41.4635 25.1747C43.134 24.2548 43.6685 22.2053 42.6997 20.6076L41.5805 18.7033C40.6283 17.1056 38.5403 16.5408 36.8865 17.4768C35.4165 18.2514 33.5289 17.735 32.677 16.3633C32.4097 15.9114 32.2594 15.4272 32.2928 14.9431C32.3429 14.3137 32.1424 13.7166 31.8418 13.2324C31.2237 12.2319 30.1045 11.5541 28.8684 11.5541H26.513C25.2936 11.5864 24.1744 12.2319 23.5563 13.2324C23.239 13.7166 23.0552 14.3137 23.0886 14.9431C23.122 15.4272 22.9717 15.9114 22.7044 16.3633C21.8525 17.735 19.9649 18.2514 18.5116 17.4768C16.8411 16.5408 14.7698 17.1056 13.8009 18.7033L12.6817 20.6076C11.7296 22.2053 12.2641 24.2548 13.9179 25.1747C15.3377 25.9977 15.8389 27.8214 15.0036 29.2092C14.7197 29.645 14.419 30.0162 13.9513 30.2421C13.3833 30.5487 12.8822 31.0329 12.6149 31.517C11.9968 32.5176 12.0303 33.7763 12.6483 34.8253L13.8009 36.7619C14.419 37.7948 15.5716 38.4403 16.7743 38.4403C17.3423 38.4403 18.0105 38.2789 18.545 37.9561C18.9626 37.6818 19.4637 37.585 20.015 37.585C21.6687 37.585 23.0552 38.9244 23.0886 40.5221C23.0886 42.378 24.6254 43.8304 26.5631 43.8304H28.835C30.756 43.8304 32.2928 42.378 32.2928 40.5221C32.3429 38.9244 33.7294 37.585 35.3831 37.585C35.9177 37.585 36.4188 37.6818 36.8531 37.9561C37.3876 38.2789 38.0391 38.4403 38.6238 38.4403C39.8098 38.4403 40.9624 37.7948 41.5805 36.7619L42.7498 34.8253C43.3511 33.7441 43.4013 32.5176 42.7832 31.517Z"/>
</mask>
<path d="M42.7832 31.517C42.4658 31.0329 42.0148 30.5487 41.4301 30.2421C40.9624 30.0162 40.6617 29.645 40.3945 29.2092C39.5425 27.8214 40.0437 25.9977 41.4635 25.1747C43.134 24.2548 43.6685 22.2053 42.6997 20.6076L41.5805 18.7033C40.6283 17.1056 38.5403 16.5408 36.8865 17.4768C35.4165 18.2514 33.5289 17.735 32.677 16.3633C32.4097 15.9114 32.2594 15.4272 32.2928 14.9431C32.3429 14.3137 32.1424 13.7166 31.8418 13.2324C31.2237 12.2319 30.1045 11.5541 28.8684 11.5541H26.513C25.2936 11.5864 24.1744 12.2319 23.5563 13.2324C23.239 13.7166 23.0552 14.3137 23.0886 14.9431C23.122 15.4272 22.9717 15.9114 22.7044 16.3633C21.8525 17.735 19.9649 18.2514 18.5116 17.4768C16.8411 16.5408 14.7698 17.1056 13.8009 18.7033L12.6817 20.6076C11.7296 22.2053 12.2641 24.2548 13.9179 25.1747C15.3377 25.9977 15.8389 27.8214 15.0036 29.2092C14.7197 29.645 14.419 30.0162 13.9513 30.2421C13.3833 30.5487 12.8822 31.0329 12.6149 31.517C11.9968 32.5176 12.0303 33.7763 12.6483 34.8253L13.8009 36.7619C14.419 37.7948 15.5716 38.4403 16.7743 38.4403C17.3423 38.4403 18.0105 38.2789 18.545 37.9561C18.9626 37.6818 19.4637 37.585 20.015 37.585C21.6687 37.585 23.0552 38.9244 23.0886 40.5221C23.0886 42.378 24.6254 43.8304 26.5631 43.8304H28.835C30.756 43.8304 32.2928 42.378 32.2928 40.5221C32.3429 38.9244 33.7294 37.585 35.3831 37.585C35.9177 37.585 36.4188 37.6818 36.8531 37.9561C37.3876 38.2789 38.0391 38.4403 38.6238 38.4403C39.8098 38.4403 40.9624 37.7948 41.5805 36.7619L42.7498 34.8253C43.3511 33.7441 43.4013 32.5176 42.7832 31.517Z" fill="url(#paint2_linear_848_1405)"/>
<path d="M41.2059 32.551C41.777 33.4221 42.9461 33.6653 43.8172 33.0943C44.6883 32.5232 44.9315 31.3541 44.3605 30.483L41.2059 32.551ZM41.4301 30.2421L42.3061 28.5719C42.2877 28.5622 42.2691 28.5529 42.2505 28.5439L41.4301 30.2421ZM40.3945 29.2092L42.0021 28.2231L42.0018 28.2226L40.3945 29.2092ZM41.4635 25.1747L40.5538 23.5227C40.5417 23.5293 40.5297 23.5361 40.5177 23.543L41.4635 25.1747ZM42.6997 20.6076L41.0737 21.5632C41.0781 21.5707 41.0826 21.5781 41.0871 21.5855L42.6997 20.6076ZM41.5805 18.7033L43.2064 17.7477L43.2006 17.7378L41.5805 18.7033ZM36.8865 17.4768L37.7657 19.1453C37.7825 19.1365 37.799 19.1274 37.8155 19.1181L36.8865 17.4768ZM32.677 16.3633L31.0537 17.3234C31.0606 17.3351 31.0677 17.3467 31.0749 17.3583L32.677 16.3633ZM32.2928 14.9431L30.4128 14.7934C30.4122 14.8 30.4118 14.8066 30.4113 14.8133L32.2928 14.9431ZM31.8418 13.2324L30.2372 14.2236L30.2396 14.2275L31.8418 13.2324ZM26.513 11.5541V9.66811C26.4964 9.66811 26.4798 9.66833 26.4631 9.66877L26.513 11.5541ZM23.5563 13.2324L25.1336 14.2664C25.1429 14.2523 25.152 14.238 25.1609 14.2236L23.5563 13.2324ZM23.0886 14.9431L21.2053 15.0431C21.2058 15.053 21.2064 15.063 21.2071 15.0729L23.0886 14.9431ZM22.7044 16.3633L24.3065 17.3583C24.3137 17.3467 24.3208 17.3351 24.3277 17.3234L22.7044 16.3633ZM18.5116 17.4768L17.5897 19.1221C17.6012 19.1285 17.6128 19.1349 17.6245 19.1411L18.5116 17.4768ZM13.8009 18.7033L12.1883 17.7254C12.1838 17.7328 12.1794 17.7402 12.175 17.7477L13.8009 18.7033ZM12.6817 20.6076L14.3018 21.5731L14.3077 21.5632L12.6817 20.6076ZM13.9179 25.1747L14.8637 23.543C14.854 23.5375 14.8444 23.532 14.8346 23.5265L13.9179 25.1747ZM15.0036 29.2092L16.5837 30.239C16.596 30.2201 16.6079 30.201 16.6196 30.1817L15.0036 29.2092ZM13.9513 30.2421L13.1309 28.5439C13.1054 28.5562 13.0802 28.5691 13.0553 28.5825L13.9513 30.2421ZM12.6149 31.517L14.2194 32.5081C14.2356 32.482 14.2511 32.4554 14.266 32.4285L12.6149 31.517ZM12.6483 34.8253L11.0234 35.7827L11.0277 35.7899L12.6483 34.8253ZM13.8009 36.7619L12.1803 37.7265L12.1826 37.7303L13.8009 36.7619ZM18.545 37.9561L19.5198 39.5706C19.5403 39.5583 19.5605 39.5455 19.5805 39.5324L18.545 37.9561ZM23.0886 40.5221H24.9746C24.9746 40.509 24.9744 40.4958 24.9742 40.4827L23.0886 40.5221ZM32.2928 40.5221L30.4077 40.463C30.4071 40.4827 30.4068 40.5024 30.4068 40.5221H32.2928ZM36.8531 37.9561L35.8459 39.5506C35.8566 39.5574 35.8674 39.5641 35.8783 39.5706L36.8531 37.9561ZM41.5805 36.7619L39.966 35.7871L39.9621 35.7935L41.5805 36.7619ZM42.7498 34.8253L44.3643 35.8002C44.3759 35.781 44.3871 35.7616 44.398 35.742L42.7498 34.8253ZM44.3877 30.5259C43.8403 29.6397 42.6782 29.3651 41.7921 29.9125C40.9059 30.4599 40.6313 31.622 41.1787 32.5081L44.3877 30.5259ZM44.3605 30.483C43.922 29.8142 43.2518 29.0679 42.3061 28.5719L40.5542 31.9123C40.7777 32.0295 41.0096 32.2515 41.2059 32.551L44.3605 30.483ZM42.2505 28.5439C42.2477 28.5425 42.2356 28.5381 42.2032 28.5041C42.1625 28.4613 42.0993 28.3816 42.0021 28.2231L38.7868 30.1953C39.1275 30.7507 39.6631 31.483 40.6098 31.9403L42.2505 28.5439ZM42.0018 28.2226C41.7314 27.7822 41.8615 27.1239 42.4093 26.8064L40.5177 23.543C38.2258 24.8716 37.3536 27.8605 38.7871 30.1959L42.0018 28.2226ZM42.3733 26.8267C44.9821 25.3901 45.8379 22.1454 44.3123 19.6297L41.0871 21.5855C41.4992 22.2651 41.2858 23.1195 40.5538 23.5227L42.3733 26.8267ZM44.3256 19.652L43.2064 17.7477L39.9545 19.6589L41.0737 21.5632L44.3256 19.652ZM43.2006 17.7378C41.7219 15.2567 38.5006 14.3961 35.9575 15.8355L37.8155 19.1181C38.5799 18.6854 39.5347 18.9545 39.9604 19.6688L43.2006 17.7378ZM36.0073 15.8083C35.4014 16.1276 34.6019 15.888 34.2791 15.3682L31.0749 17.3583C32.4559 19.582 35.4316 20.3753 37.7657 19.1453L36.0073 15.8083ZM34.3003 15.4031C34.1688 15.1809 34.1741 15.0753 34.1743 15.0729L30.4113 14.8133C30.3446 15.7792 30.6506 16.6419 31.0537 17.3234L34.3003 15.4031ZM34.1728 15.0928C34.2622 13.9699 33.9025 12.9759 33.4439 12.2374L30.2396 14.2275C30.3824 14.4573 30.4236 14.6575 30.4128 14.7934L34.1728 15.0928ZM33.4463 12.2413C32.5055 10.7184 30.7971 9.66811 28.8684 9.66811V13.44C29.4119 13.44 29.9419 13.7454 30.2372 14.2236L33.4463 12.2413ZM28.8684 9.66811H26.513V13.44H28.8684V9.66811ZM26.4631 9.66877C24.6187 9.71759 22.9098 10.6905 21.9518 12.2413L25.1609 14.2236C25.439 13.7733 25.9685 13.4551 26.5629 13.4394L26.4631 9.66877ZM21.9791 12.1985C21.4586 12.9924 21.149 13.9828 21.2053 15.0431L24.9719 14.8431C24.9614 14.6446 25.0193 14.4407 25.1336 14.2664L21.9791 12.1985ZM21.2071 15.0729C21.2073 15.0753 21.2126 15.1809 21.0811 15.4031L24.3277 17.3234C24.7308 16.6419 25.0368 15.7792 24.9701 14.8133L21.2071 15.0729ZM21.1023 15.3682C20.7758 15.894 19.9777 16.1211 19.3987 15.8125L17.6245 19.1411C19.952 20.3817 22.9292 19.576 24.3065 17.3583L21.1023 15.3682ZM19.4335 15.8315C16.8741 14.3974 13.6828 15.2609 12.1883 17.7254L15.4135 19.6812C15.8568 18.9503 16.8082 18.6842 17.5897 19.1221L19.4335 15.8315ZM12.175 17.7477L11.0558 19.652L14.3077 21.5632L15.4269 19.6589L12.175 17.7477ZM11.0616 19.6421C9.56753 22.1491 10.4135 25.3835 13.0011 26.8229L14.8346 23.5265C14.1147 23.1261 13.8916 22.2614 14.3018 21.5731L11.0616 19.6421ZM12.9721 26.8064C13.5199 27.1239 13.6563 27.7904 13.3877 28.2368L16.6196 30.1817C18.0214 27.8523 17.1556 24.8716 14.8637 23.543L12.9721 26.8064ZM13.4236 28.1795C13.3092 28.355 13.238 28.4441 13.1884 28.4956C13.1486 28.5369 13.1334 28.5427 13.1309 28.5439L14.7716 31.9403C15.7133 31.4854 16.2465 30.7563 16.5837 30.239L13.4236 28.1795ZM13.0553 28.5825C12.2098 29.039 11.4269 29.7667 10.9638 30.6055L14.266 32.4285C14.3374 32.2991 14.5569 32.0584 14.8472 31.9016L13.0553 28.5825ZM11.0104 30.5259C9.98662 32.1832 10.0882 34.1955 11.0234 35.7827L14.2732 33.8679C13.9723 33.3572 14.0071 32.8519 14.2194 32.5081L11.0104 30.5259ZM11.0277 35.7899L12.1803 37.7265L15.4216 35.7973L14.269 33.8608L11.0277 35.7899ZM12.1826 37.7303C13.1454 39.3393 14.9165 40.3262 16.7743 40.3262V36.5543C16.2267 36.5543 15.6926 36.2502 15.4193 35.7935L12.1826 37.7303ZM16.7743 40.3262C17.6515 40.3262 18.6631 40.0879 19.5198 39.5706L17.5702 36.3417C17.3578 36.4699 17.033 36.5543 16.7743 36.5543V40.3262ZM19.5805 39.5324C19.5808 39.5322 19.6013 39.5179 19.6656 39.5026C19.7348 39.4862 19.8459 39.4709 20.015 39.4709V35.699C19.2611 35.699 18.3486 35.8286 17.5095 36.3799L19.5805 39.5324ZM20.015 39.4709C20.6798 39.4709 21.1919 40.0268 21.2031 40.5615L24.9742 40.4827C24.9185 37.8221 22.6577 35.699 20.015 35.699V39.4709ZM21.2027 40.5221C21.2027 43.5096 23.6762 45.7164 26.5631 45.7164V41.9445C25.5747 41.9445 24.9746 41.2464 24.9746 40.5221H21.2027ZM26.5631 45.7164H28.835V41.9445H26.5631V45.7164ZM28.835 45.7164C31.7113 45.7164 34.1787 43.5038 34.1787 40.5221H30.4068C30.4068 41.2522 29.8006 41.9445 28.835 41.9445V45.7164ZM34.1778 40.5812C34.1952 40.0267 34.7227 39.4709 35.3831 39.4709V35.699C32.7361 35.699 30.4906 37.8222 30.4077 40.463L34.1778 40.5812ZM35.3831 39.4709C35.6989 39.4709 35.8115 39.5289 35.8459 39.5506L37.8603 36.3616C37.0261 35.8347 36.1364 35.699 35.3831 35.699V39.4709ZM35.8783 39.5706C36.7314 40.0857 37.7252 40.3262 38.6238 40.3262V36.5543C38.353 36.5543 38.0439 36.4721 37.8279 36.3417L35.8783 39.5706ZM38.6238 40.3262C40.4699 40.3262 42.2385 39.335 43.1988 37.7303L39.9621 35.7935C39.6863 36.2545 39.1497 36.5543 38.6238 36.5543V40.3262ZM43.195 37.7367L44.3643 35.8002L41.1353 33.8505L39.966 35.7871L43.195 37.7367ZM44.398 35.742C45.2708 34.1727 45.4258 32.2063 44.3877 30.5259L41.1787 32.5081C41.3767 32.8288 41.4315 33.3154 41.1016 33.9087L44.398 35.742Z" fill="url(#paint3_linear_848_1405)" mask="url(#path-3-outside-1_848_1405)"/>
</g>
<g filter="url(#filter3_b_848_1405)">
<path d="M27.7198 32.1336C25.0972 32.1336 22.9758 30.1163 22.9758 27.5826C22.9758 25.0489 25.0972 23.0155 27.7198 23.0155C30.3424 23.0155 32.4138 25.0489 32.4138 27.5826C32.4138 30.1163 30.3424 32.1336 27.7198 32.1336Z" fill="#F9FBFF"/>
<path d="M27.7198 31.945C25.1934 31.945 23.1644 30.0044 23.1644 27.5826C23.1644 25.16 25.1943 23.2041 27.7198 23.2041C30.2427 23.2041 32.2252 25.1574 32.2252 27.5826C32.2252 30.0069 30.2436 31.945 27.7198 31.945Z" stroke="url(#paint4_linear_848_1405)" stroke-width="0.377193"/>
</g>
</g>
<defs>
<filter id="filter0_b_848_1405" x="-7.6967" y="-4.2617" width="50.1367" height="51.3925" filterUnits="userSpaceOnUse" color-interpolation-filters="sRGB">
<feFlood flood-opacity="0" result="BackgroundImageFix"/>
<feGaussianBlur in="BackgroundImage" stdDeviation="6.12939"/>
<feComposite in2="SourceAlpha" operator="in" result="effect1_backgroundBlur_848_1405"/>
<feBlend mode="normal" in="SourceGraphic" in2="effect1_backgroundBlur_848_1405" result="shape"/>
</filter>
<filter id="filter1_f_848_1405" x="-4.23378" y="-0.49397" width="43.3853" height="44.0082" filterUnits="userSpaceOnUse" color-interpolation-filters="sRGB">
<feFlood flood-opacity="0" result="BackgroundImageFix"/>
<feBlend mode="normal" in="SourceGraphic" in2="BackgroundImageFix" result="shape"/>
<feGaussianBlur stdDeviation="7.54386" result="effect1_foregroundBlur_848_1405"/>
</filter>
<filter id="filter2_b_848_1405" x="-12.3499" y="-12.9635" width="80.092" height="81.3115" filterUnits="userSpaceOnUse" color-interpolation-filters="sRGB">
<feFlood flood-opacity="0" result="BackgroundImageFix"/>
<feGaussianBlur in="BackgroundImage" stdDeviation="11.3158"/>
<feComposite in2="SourceAlpha" operator="in" result="effect1_backgroundBlur_848_1405"/>
<feBlend mode="normal" in="SourceGraphic" in2="effect1_backgroundBlur_848_1405" result="shape"/>
</filter>
<filter id="filter3_b_848_1405" x="8.83103" y="8.87077" width="37.7275" height="37.4075" filterUnits="userSpaceOnUse" color-interpolation-filters="sRGB">
<feFlood flood-opacity="0" result="BackgroundImageFix"/>
<feGaussianBlur in="BackgroundImage" stdDeviation="7.07237"/>
<feComposite in2="SourceAlpha" operator="in" result="effect1_backgroundBlur_848_1405"/>
<feBlend mode="normal" in="SourceGraphic" in2="effect1_backgroundBlur_848_1405" result="shape"/>
</filter>
<linearGradient id="paint0_linear_848_1405" x1="4.59712" y1="6.78739" x2="14.3101" y2="42.5484" gradientUnits="userSpaceOnUse">
<stop stop-color="#AFB5FE"/>
<stop offset="1" stop-color="#6B5EFF"/>
</linearGradient>
<linearGradient id="paint1_linear_848_1405" x1="10.872" y1="13.9711" x2="15.8637" y2="32.382" gradientUnits="userSpaceOnUse">
<stop stop-color="#AFB5FE"/>
<stop offset="1" stop-color="#6B5EFF"/>
</linearGradient>
<linearGradient id="paint2_linear_848_1405" x1="18.0101" y1="1.89886" x2="34.0217" y2="51.5647" gradientUnits="userSpaceOnUse">
<stop stop-color="#FFE95D"/>
<stop offset="1" stop-color="#FF595D"/>
</linearGradient>
<linearGradient id="paint3_linear_848_1405" x1="17.1114" y1="15.3143" x2="66.5824" y2="31.5349" gradientUnits="userSpaceOnUse">
<stop stop-color="white" stop-opacity="0.25"/>
<stop offset="1" stop-color="white" stop-opacity="0"/>
</linearGradient>
<linearGradient id="paint4_linear_848_1405" x1="24.4781" y1="24.0778" x2="30.2491" y2="31.4761" gradientUnits="userSpaceOnUse">
<stop stop-color="white" stop-opacity="0.25"/>
<stop offset="1" stop-color="white" stop-opacity="0"/>
</linearGradient>
<clipPath id="clip0_848_1405">
<rect width="50" height="50" fill="white" transform="translate(0 0.49707)"/>
</clipPath>
</defs>
</svg>
