<svg width="25" height="25" viewBox="0 0 25 25" fill="none" xmlns="http://www.w3.org/2000/svg">
<path d="M24.6282 5.14281C23.7584 5.52822 22.824 5.78864 21.8417 5.90635C22.8552 5.29988 23.6135 4.34538 23.975 3.22093C23.0228 3.78655 21.9806 4.18468 20.8938 4.39802C20.1629 3.61767 19.1949 3.10044 18.14 2.92664C17.085 2.75283 16.0022 2.93218 15.0597 3.43682C14.1171 3.94147 13.3675 4.74319 12.9273 5.7175C12.487 6.69181 12.3808 7.78421 12.625 8.8251C10.6955 8.72822 8.80798 8.22671 7.08485 7.35313C5.36172 6.47954 3.84153 5.25339 2.62295 3.75427C2.20628 4.47302 1.9667 5.30635 1.9667 6.19385C1.96623 6.9928 2.16298 7.77952 2.53949 8.4842C2.916 9.18887 3.46062 9.78972 4.12503 10.2334C3.35449 10.2089 2.60094 10.0007 1.92712 9.62614V9.68864C1.92704 10.8092 2.31465 11.8953 3.02418 12.7626C3.73371 13.6299 4.72146 14.225 5.81982 14.447C5.10502 14.6404 4.35559 14.6689 3.62816 14.5303C3.93805 15.4945 4.54169 16.3376 5.35458 16.9417C6.16747 17.5457 7.1489 17.8805 8.16149 17.8991C6.44257 19.2484 4.31971 19.9804 2.13441 19.9772C1.7473 19.9773 1.36053 19.9547 0.976074 19.9095C3.19428 21.3357 5.77643 22.0926 8.41357 22.0897C17.3407 22.0897 22.2209 14.6959 22.2209 8.28343C22.2209 8.0751 22.2157 7.86468 22.2063 7.65635C23.1555 6.96986 23.9749 6.11978 24.6261 5.14593L24.6282 5.14281Z" fill="white"/>
</svg>
