<svg width="25" height="25" viewBox="0 0 25 25" fill="none" xmlns="http://www.w3.org/2000/svg">
<path d="M4.90278 0.00634766C2.20986 0.00634766 0.00585938 2.2103 0.00585938 4.90327V20.0993C0.00585938 22.7922 2.20981 24.9954 4.90278 24.9954H20.0988C22.7918 24.9954 24.9949 22.7922 24.9949 20.0993V4.90327C24.9949 2.21035 22.7918 0.00634766 20.0988 0.00634766H4.90278ZM6.13443 4.13005C7.42563 4.13005 8.22096 4.9777 8.24551 6.09192C8.24551 7.18155 7.42558 8.05302 6.10946 8.05302H6.08523C4.81861 8.05302 3.99993 7.1816 3.99993 6.09192C3.99993 4.97772 4.84338 4.13005 6.13441 4.13005H6.13443ZM17.2614 9.3378C19.7447 9.3378 21.6062 10.9608 21.6062 14.4487V20.9599H17.8324V14.8852C17.8324 13.3587 17.2862 12.3173 15.9205 12.3173C14.8779 12.3173 14.2564 13.0192 13.9836 13.6973C13.8839 13.9399 13.8594 14.2788 13.8594 14.6181V20.9599H10.0856C10.0856 20.9599 10.1351 10.6696 10.0856 9.6041H13.8602V11.2122C14.3617 10.4384 15.2587 9.33777 17.2614 9.33777V9.3378ZM4.22253 9.60492H7.99636V20.96H4.22253V9.60492Z" fill="#03011C"/>
</svg>
