<svg width="50" height="51" viewBox="0 0 50 51" fill="none" xmlns="http://www.w3.org/2000/svg">
<path d="M25.9233 33.5006C25.4954 33.4855 25.0738 33.314 24.7569 32.9838L20.6798 28.7318C20.0504 28.0715 20.0854 27.0425 20.7596 26.4307C21.4339 25.8168 22.4926 25.8531 23.1243 26.5113L26.058 29.5692L33.809 22.5226C34.4855 21.9087 35.5442 21.9451 36.1737 22.6032C36.8053 23.2636 36.7702 24.2947 36.0961 24.9043L27.1216 33.0644C26.7833 33.3724 26.3512 33.5158 25.9233 33.5006Z" fill="#FFFDFA"/>
<path d="M20.8269 26.5047L20.8268 26.5048C20.1945 27.0785 20.1613 28.0428 20.752 28.6626C20.752 28.6627 20.7521 28.6627 20.7521 28.6628L24.829 32.9146C24.829 32.9146 24.8291 32.9146 24.8291 32.9146C25.1268 33.2249 25.5232 33.3864 25.9268 33.4007C26.3301 33.415 26.7363 33.2799 27.0543 32.9905L27.0543 32.9904L36.0288 24.8303L36.029 24.8302C36.661 24.2586 36.6944 23.2923 36.1014 22.6723C35.5096 22.0536 34.5128 22.0191 33.8762 22.5966L20.8269 26.5047ZM20.8269 26.5047C21.4611 25.9273 22.4579 25.9614 23.0522 26.5806L25.9858 29.6385L26.0532 29.7087L26.1253 29.6432L33.8762 22.5967L20.8269 26.5047Z" stroke="url(#paint0_linear_1218_1340)" stroke-opacity="0.5" stroke-width="0.2"/>
<rect x="14.4545" y="3.49707" width="20.7273" height="15.5455" rx="1.72727" fill="url(#paint1_linear_1218_1340)"/>
<mask id="path-4-inside-1_1218_1340" fill="white">
<path fill-rule="evenodd" clip-rule="evenodd" d="M15.4545 11.2698C12.9944 11.2698 11 13.2641 11 15.7243V23.3607C11 25.3786 12.3418 27.0832 14.1819 27.6308V41.8152C14.1819 44.9782 16.7461 47.5424 19.9091 47.5424H30.091C33.254 47.5424 35.8182 44.9782 35.8182 41.8152V27.6307C37.6582 27.0831 39 25.3786 39 23.3607V15.7243C39 13.2641 37.0056 11.2698 34.5455 11.2698H15.4545Z"/>
</mask>
<path fill-rule="evenodd" clip-rule="evenodd" d="M15.4545 11.2698C12.9944 11.2698 11 13.2641 11 15.7243V23.3607C11 25.3786 12.3418 27.0832 14.1819 27.6308V41.8152C14.1819 44.9782 16.7461 47.5424 19.9091 47.5424H30.091C33.254 47.5424 35.8182 44.9782 35.8182 41.8152V27.6307C37.6582 27.0831 39 25.3786 39 23.3607V15.7243C39 13.2641 37.0056 11.2698 34.5455 11.2698H15.4545Z" fill="url(#paint2_linear_1218_1340)"/>
<path d="M14.1819 27.6308H15.9091V26.3427L14.6746 25.9753L14.1819 27.6308ZM35.8182 27.6307L35.3255 25.9752L34.091 26.3427V27.6307H35.8182ZM12.7273 15.7243C12.7273 14.2181 13.9483 12.997 15.4545 12.997V9.5425C12.0404 9.5425 9.27273 12.3102 9.27273 15.7243H12.7273ZM12.7273 23.3607V15.7243H9.27273V23.3607H12.7273ZM14.6746 25.9753C13.5468 25.6396 12.7273 24.5936 12.7273 23.3607H9.27273C9.27273 26.1636 11.1368 28.5267 13.6892 29.2863L14.6746 25.9753ZM15.9091 41.8152V27.6308H12.4546V41.8152H15.9091ZM19.9091 45.8152C17.7 45.8152 15.9091 44.0243 15.9091 41.8152H12.4546C12.4546 45.9322 15.7921 49.2697 19.9091 49.2697V45.8152ZM30.091 45.8152H19.9091V49.2697H30.091V45.8152ZM34.091 41.8152C34.091 44.0243 32.3001 45.8152 30.091 45.8152V49.2697C34.208 49.2697 37.5455 45.9322 37.5455 41.8152H34.091ZM34.091 27.6307V41.8152H37.5455V27.6307H34.091ZM37.2727 23.3607C37.2727 24.5936 36.4533 25.6396 35.3255 25.9752L36.311 29.2863C38.8632 28.5266 40.7273 26.1636 40.7273 23.3607H37.2727ZM37.2727 15.7243V23.3607H40.7273V15.7243H37.2727ZM34.5455 12.997C36.0517 12.997 37.2727 14.2181 37.2727 15.7243H40.7273C40.7273 12.3102 37.9596 9.5425 34.5455 9.5425V12.997ZM15.4545 12.997H34.5455V9.5425H15.4545V12.997Z" fill="url(#paint3_linear_1218_1340)" mask="url(#path-4-inside-1_1218_1340)"/>
<rect x="16.1818" y="16.4515" width="17.2727" height="7.77273" rx="1.72727" fill="white"/>
<rect x="18.7727" y="29.406" width="3.45455" height="2.59091" rx="1.29545" fill="white"/>
<rect x="23.9545" y="29.406" width="2.59091" height="2.59091" rx="1.29545" fill="white"/>
<rect x="28.2727" y="29.406" width="3.45455" height="2.59091" rx="1.29545" fill="white"/>
<rect x="18.7727" y="33.7242" width="3.45455" height="2.59091" rx="1.29545" fill="white"/>
<rect x="23.9545" y="33.7242" width="2.59091" height="2.59091" rx="1.29545" fill="white"/>
<rect x="28.2727" y="33.7242" width="3.45455" height="2.59091" rx="1.29545" fill="white"/>
<rect x="18.7727" y="38.0425" width="3.45455" height="2.59091" rx="1.29545" fill="white"/>
<rect x="23.9545" y="38.0425" width="2.59091" height="2.59091" rx="1.29545" fill="white"/>
<rect x="28.2727" y="38.0425" width="3.45455" height="2.59091" rx="1.29545" fill="white"/>
<defs>
<linearGradient id="paint0_linear_1218_1340" x1="22.0632" y1="25.514" x2="35.8262" y2="26.1765" gradientUnits="userSpaceOnUse">
<stop stop-color="white"/>
<stop offset="1" stop-color="white" stop-opacity="0"/>
</linearGradient>
<linearGradient id="paint1_linear_1218_1340" x1="14.4828" y1="2.79735" x2="18.6393" y2="24.2016" gradientUnits="userSpaceOnUse">
<stop stop-color="#AFB5FE"/>
<stop offset="1" stop-color="#6B5EFF"/>
</linearGradient>
<linearGradient id="paint2_linear_1218_1340" x1="14.0105" y1="21.1808" x2="42.2897" y2="62.164" gradientUnits="userSpaceOnUse">
<stop stop-color="#FFB45C"/>
<stop offset="1" stop-color="#F7931E"/>
</linearGradient>
<linearGradient id="paint3_linear_1218_1340" x1="15.4571" y1="15.4956" x2="61.6576" y2="27.6483" gradientUnits="userSpaceOnUse">
<stop stop-color="white" stop-opacity="0.25"/>
<stop offset="1" stop-color="white" stop-opacity="0"/>
</linearGradient>
</defs>
</svg>
