<svg width="50" height="50" viewBox="0 0 50 50" fill="none" xmlns="http://www.w3.org/2000/svg">
<path d="M18.3857 11.6976L8.47886 14.298C4.60526 15.3147 2.72869 18.6626 3.81255 22.625L6.31399 31.77C7.39478 35.7212 10.7287 37.7014 14.6023 36.6847L24.5092 34.0843C28.3828 33.0676 30.2479 29.7227 29.1671 25.7715L26.6657 16.6265C25.5818 12.664 22.2593 10.6809 18.3857 11.6976Z" fill="url(#paint0_linear_568_376)"/>
<path d="M44.3412 41.1825L44.3411 41.1825L39.4219 38.634L39.0769 38.4552L38.7319 38.634L33.8127 41.1825L33.8127 41.1825C33.7262 41.2273 33.6324 41.2499 33.5385 41.2499C33.4445 41.2499 33.3507 41.2273 33.2643 41.1825L33.2642 41.1825L28.345 38.634L28 38.4552L27.655 38.634L22.7358 41.1825L22.7356 41.1826C22.6492 41.2274 22.5555 41.25 22.4615 41.25C22.3676 41.25 22.2739 41.2274 22.1875 41.1826L22.1873 41.1825L17.2681 38.634L16.9231 38.4552L16.5781 38.634L11.6589 41.1825L11.6588 41.1825C11.564 41.2317 11.4603 41.2541 11.3573 41.2493C11.2543 41.2445 11.1524 41.2125 11.0612 41.1541C10.9698 41.0955 10.8913 41.0118 10.8357 40.9085C10.7801 40.805 10.75 40.6868 10.75 40.5652V11.87C10.7507 11.2996 10.97 10.7578 11.3517 10.3622C11.7325 9.9676 12.243 9.75073 12.7697 9.75H43.2303C43.757 9.75073 44.2675 9.9676 44.6483 10.3622C45.0301 10.7579 45.2494 11.2998 45.25 11.8704V40.5652C45.25 40.6868 45.2199 40.805 45.1643 40.9085C45.1087 41.0118 45.0302 41.0955 44.9388 41.1541C44.8476 41.2125 44.7457 41.2445 44.6427 41.2493C44.5397 41.2541 44.436 41.2317 44.3412 41.1825ZM19.0577 21.2282H23.0962V28.3369H19.0577V21.2282ZM27.3654 19.0435C27.3654 18.4725 27.1467 17.9197 26.7495 17.5081C26.3514 17.0956 25.8057 16.8587 25.2308 16.8587H16.9231C16.3482 16.8587 15.8024 17.0956 15.4043 17.5081C15.0071 17.9197 14.7885 18.4725 14.7885 19.0435V30.5217C14.7885 31.0927 15.0071 31.6455 15.4043 32.0571C15.8024 32.4696 16.3482 32.7065 16.9231 32.7065H25.2308C25.8057 32.7065 26.3514 32.4696 26.7495 32.0571C27.1467 31.6455 27.3654 31.0927 27.3654 30.5217V19.0435ZM41.2115 27.6522C41.2115 27.0812 40.9929 26.5284 40.5957 26.1168C40.1976 25.7043 39.6518 25.4674 39.0769 25.4674H30.7692C30.1943 25.4674 29.6486 25.7043 29.2505 26.1168C28.8533 26.5284 28.6346 27.0812 28.6346 27.6522C28.6346 28.2231 28.8533 28.7759 29.2505 29.1875C29.6486 29.6 30.1943 29.8369 30.7692 29.8369H39.0769C39.6518 29.8369 40.1976 29.6 40.5957 29.1875C40.9929 28.7759 41.2115 28.2232 41.2115 27.6522ZM41.2115 21.913C41.2115 21.342 40.9929 20.7893 40.5957 20.3777C40.1976 19.9652 39.6518 19.7282 39.0769 19.7282H30.7692C30.1943 19.7282 29.6486 19.9652 29.2505 20.3777C28.8533 20.7893 28.6346 21.342 28.6346 21.913C28.6346 22.484 28.8533 23.0368 29.2505 23.4484C29.6486 23.8609 30.1943 24.0978 30.7692 24.0978H39.0769C39.6518 24.0978 40.1976 23.8609 40.5957 23.4484C40.9929 23.0368 41.2115 22.484 41.2115 21.913Z" fill="url(#paint1_linear_568_376)" stroke="url(#paint2_linear_568_376)" stroke-width="1.5"/>
<defs>
<linearGradient id="paint0_linear_568_376" x1="1.75564" y1="14.9827" x2="17.3802" y2="43.156" gradientUnits="userSpaceOnUse">
<stop stop-color="#AFB5FE"/>
<stop offset="1" stop-color="#6B5EFF"/>
</linearGradient>
<linearGradient id="paint1_linear_568_376" x1="13.8706" y1="18.0168" x2="35.5704" y2="62.4598" gradientUnits="userSpaceOnUse">
<stop stop-color="#FFB45C"/>
<stop offset="1" stop-color="#F7931E"/>
</linearGradient>
<linearGradient id="paint2_linear_568_376" x1="15.7306" y1="12.8445" x2="71.5303" y2="33.5874" gradientUnits="userSpaceOnUse">
<stop stop-color="white" stop-opacity="0.25"/>
<stop offset="1" stop-color="white" stop-opacity="0"/>
</linearGradient>
</defs>
</svg>
