<svg width="25" height="25" viewBox="0 0 25 25" fill="none" xmlns="http://www.w3.org/2000/svg">
<path d="M4.90254 0.00634766C2.20961 0.00634766 0.00561523 2.2103 0.00561523 4.90327V20.0993C0.00561523 22.7922 2.20956 24.9954 4.90254 24.9954H20.0986C22.7915 24.9954 24.9947 22.7922 24.9947 20.0993V4.90327C24.9947 2.21035 22.7915 0.00634766 20.0986 0.00634766H4.90254ZM6.13419 4.13005C7.42539 4.13005 8.22071 4.9777 8.24527 6.09192C8.24527 7.18155 7.42534 8.05302 6.10921 8.05302H6.08499C4.81837 8.05302 3.99969 7.1816 3.99969 6.09192C3.99969 4.97772 4.84314 4.13005 6.13416 4.13005H6.13419ZM17.2612 9.3378C19.7444 9.3378 21.6059 10.9608 21.6059 14.4487V20.9599H17.8321V14.8852C17.8321 13.3587 17.2859 12.3173 15.9202 12.3173C14.8776 12.3173 14.2562 13.0192 13.9833 13.6973C13.8836 13.9399 13.8591 14.2788 13.8591 14.6181V20.9599H10.0853C10.0853 20.9599 10.1348 10.6696 10.0853 9.6041H13.8599V11.2122C14.3614 10.4384 15.2585 9.33777 17.2612 9.33777V9.3378ZM4.22229 9.60492H7.99611V20.96H4.22229V9.60492Z" fill="white"/>
</svg>
