<svg width="25" height="25" viewBox="0 0 25 25" fill="none" xmlns="http://www.w3.org/2000/svg">
<g clip-path="url(#clip0_977_1250)">
<path d="M24.4788 6.77824C24.3373 6.27328 24.0615 5.8161 23.6809 5.45533C23.2895 5.08346 22.8099 4.81745 22.2872 4.68241C20.3309 4.16679 12.4934 4.16679 12.4934 4.16679C9.22605 4.12961 5.95949 4.29311 2.71217 4.65637C2.18945 4.80138 1.71067 5.07334 1.31842 5.44804C0.933 5.81887 0.653833 6.27616 0.508 6.7772C0.15768 8.66444 -0.0125295 10.5807 -0.000333663 12.5001C-0.0128337 14.4178 0.156958 16.3335 0.508 18.223C0.650708 18.722 0.928833 19.1772 1.31529 19.5449C1.70175 19.9126 2.183 20.1782 2.71217 20.3189C4.69446 20.8335 12.4934 20.8335 12.4934 20.8335C15.7649 20.8707 19.0357 20.7072 22.2872 20.3439C22.8099 20.2088 23.2895 19.9428 23.6809 19.571C24.0663 19.2032 24.3403 18.746 24.4778 18.248C24.8373 16.3615 25.012 14.4445 24.9997 12.5241C25.0267 10.5955 24.8521 8.66946 24.4788 6.7772V6.77824ZM10.0018 16.0668V8.93449L16.5226 12.5012L10.0018 16.0668Z" fill="#03011C"/>
</g>
<defs>
<clipPath id="clip0_977_1250">
<rect width="25" height="25" fill="white"/>
</clipPath>
</defs>
</svg>
