<svg width="50" height="51" viewBox="0 0 50 51" fill="none" xmlns="http://www.w3.org/2000/svg">
<path d="M27.0349 30.3049C27.0349 36.6213 21.9157 41.7394 15.6005 41.7394C9.28522 41.7394 4.16602 36.6213 4.16602 30.3049C4.16602 23.9908 9.28522 18.8705 15.6005 18.8705C21.9157 18.8705 27.0349 23.9908 27.0349 30.3049Z" fill="url(#paint0_linear_1218_1283)"/>
<g filter="url(#filter0_b_1218_1283)">
<path d="M46.2782 25.9124C46.2782 35.3485 38.6306 42.9944 29.1963 42.9944C19.7619 42.9944 12.1143 35.3485 12.1143 25.9124C12.1143 16.4797 19.7619 8.83044 29.1963 8.83044C38.6306 8.83044 46.2782 16.4797 46.2782 25.9124Z" fill="url(#paint1_linear_1218_1283)"/>
<path d="M29.1963 43.7889C39.0694 43.7889 47.0728 35.7874 47.0728 25.9124C47.0728 16.041 39.0695 8.03587 29.1963 8.03587C19.323 8.03587 11.3197 16.041 11.3197 25.9124C11.3197 35.7874 19.3231 43.7889 29.1963 43.7889Z" stroke="#F7931E" stroke-opacity="0.4" stroke-width="1.58914" stroke-linecap="round" stroke-linejoin="round"/>
</g>
<path d="M32.5322 23.1327C32.374 22.684 32.0852 22.2928 31.7028 22.0096C31.3205 21.7264 30.8622 21.5641 30.3868 21.5436H27.2085C26.5763 21.5436 25.97 21.7947 25.523 22.2418C25.076 22.6888 24.8248 23.2951 24.8248 23.9273C24.8248 24.5595 25.076 25.1658 25.523 25.6128C25.97 26.0599 26.5763 26.311 27.2085 26.311H30.3868C31.019 26.311 31.6253 26.5621 32.0724 27.0092C32.5194 27.4562 32.7705 28.0625 32.7705 28.6947C32.7705 29.3269 32.5194 29.9332 32.0724 30.3803C31.6253 30.8273 31.019 31.0784 30.3868 31.0784H27.2085C26.7332 31.0579 26.2748 30.8956 25.8925 30.6124C25.5102 30.3292 25.2214 29.938 25.0632 29.4893" stroke="white" stroke-width="1.58914" stroke-linecap="round" stroke-linejoin="round"/>
<path d="M28.7977 31.0785V33.4622M28.7977 19.1599V21.5436V19.1599Z" stroke="white" stroke-width="1.58914" stroke-linecap="round" stroke-linejoin="round"/>
<defs>
<filter id="filter0_b_1218_1283" x="0.485202" y="-2.79867" width="57.4222" height="57.4222" filterUnits="userSpaceOnUse" color-interpolation-filters="sRGB">
<feFlood flood-opacity="0" result="BackgroundImageFix"/>
<feGaussianBlur in="BackgroundImage" stdDeviation="5.02"/>
<feComposite in2="SourceAlpha" operator="in" result="effect1_backgroundBlur_1218_1283"/>
<feBlend mode="normal" in="SourceGraphic" in2="effect1_backgroundBlur_1218_1283" result="shape"/>
</filter>
<linearGradient id="paint0_linear_1218_1283" x1="4.1973" y1="17.8411" x2="12.1259" y2="48.4635" gradientUnits="userSpaceOnUse">
<stop stop-color="#AFB5FE"/>
<stop offset="1" stop-color="#6B5EFF"/>
</linearGradient>
<linearGradient id="paint1_linear_1218_1283" x1="15.7875" y1="18.1652" x2="39.4298" y2="62.5516" gradientUnits="userSpaceOnUse">
<stop stop-color="#FFB45C"/>
<stop offset="1" stop-color="#F7931E"/>
</linearGradient>
</defs>
</svg>
