<svg width="45" height="38" viewBox="0 0 45 38" fill="none" xmlns="http://www.w3.org/2000/svg">
<g filter="url(#filter0_b_977_998)">
<mask id="path-1-inside-1_977_998" fill="white">
<path fill-rule="evenodd" clip-rule="evenodd" d="M43.567 17.0089C43.9723 17.0089 44.3672 17.0466 44.7471 17.118V26.106C44.3672 26.1774 43.9723 26.2151 43.567 26.2151C40.5685 26.2151 38.1377 24.1542 38.1377 21.612C38.1377 19.0698 40.5685 17.0089 43.567 17.0089ZM41.8555 22.7923C42.5399 22.7923 43.0948 22.2374 43.0948 21.553C43.0948 20.8685 42.5399 20.3137 41.8555 20.3137C41.171 20.3137 40.6162 20.8685 40.6162 21.553C40.6162 22.2374 41.171 22.7923 41.8555 22.7923Z"/>
</mask>
<path fill-rule="evenodd" clip-rule="evenodd" d="M43.567 17.0089C43.9723 17.0089 44.3672 17.0466 44.7471 17.118V26.106C44.3672 26.1774 43.9723 26.2151 43.567 26.2151C40.5685 26.2151 38.1377 24.1542 38.1377 21.612C38.1377 19.0698 40.5685 17.0089 43.567 17.0089ZM41.8555 22.7923C42.5399 22.7923 43.0948 22.2374 43.0948 21.553C43.0948 20.8685 42.5399 20.3137 41.8555 20.3137C41.171 20.3137 40.6162 20.8685 40.6162 21.553C40.6162 22.2374 41.171 22.7923 41.8555 22.7923Z" fill="url(#paint0_linear_977_998)"/>
<path d="M44.7471 17.118H46.4138V15.7353L45.055 15.48L44.7471 17.118ZM44.7471 26.106L45.055 27.744L46.4138 27.4886V26.106H44.7471ZM45.055 15.48C44.5735 15.3895 44.0755 15.3422 43.567 15.3422V18.6756C43.869 18.6756 44.1609 18.7036 44.4393 18.756L45.055 15.48ZM46.4138 26.106V17.118H43.0805V26.106H46.4138ZM43.567 27.8817C44.0755 27.8817 44.5735 27.8345 45.055 27.744L44.4393 24.468C44.1609 24.5203 43.869 24.5484 43.567 24.5484V27.8817ZM36.471 21.612C36.471 25.322 39.9165 27.8817 43.567 27.8817V24.5484C41.2204 24.5484 39.8044 22.9864 39.8044 21.612H36.471ZM43.567 15.3422C39.9165 15.3422 36.471 17.902 36.471 21.612H39.8044C39.8044 20.2376 41.2204 18.6756 43.567 18.6756V15.3422ZM41.4281 21.553C41.4281 21.3169 41.6195 21.1256 41.8555 21.1256V24.4589C43.4604 24.4589 44.7614 23.1579 44.7614 21.553H41.4281ZM41.8555 21.9803C41.6195 21.9803 41.4281 21.789 41.4281 21.553H44.7614C44.7614 19.9481 43.4604 18.647 41.8555 18.647V21.9803ZM42.2829 21.553C42.2829 21.789 42.0915 21.9803 41.8555 21.9803V18.647C40.2506 18.647 38.9495 19.9481 38.9495 21.553H42.2829ZM41.8555 21.1256C42.0915 21.1256 42.2829 21.3169 42.2829 21.553H38.9495C38.9495 23.1579 40.2506 24.4589 41.8555 24.4589V21.1256Z" fill="url(#paint1_linear_977_998)" mask="url(#path-1-inside-1_977_998)"/>
</g>
<path d="M16.8857 1.8613L6.97886 4.46165C3.10526 5.4784 1.22869 8.82625 2.31255 12.7887L4.81399 21.9337C5.89478 25.8849 9.22873 27.8651 13.1023 26.8484L23.0092 24.248C26.8828 23.2313 28.7479 19.8864 27.6671 15.9352L25.1657 6.7902C24.0818 2.82775 20.7593 0.844555 16.8857 1.8613Z" fill="url(#paint2_linear_977_998)"/>
<g filter="url(#filter1_b_977_998)">
<mask id="path-4-inside-2_977_998" fill="white">
<path fill-rule="evenodd" clip-rule="evenodd" d="M9.2207 14.6016C9.2207 9.99928 12.9517 6.26831 17.554 6.26831H36.4137C41.0161 6.26831 44.747 9.99927 44.747 14.6016V14.839C44.094 14.6383 43.4003 14.5303 42.6814 14.5303C38.8029 14.5303 35.6588 17.6744 35.6588 21.5529C35.6588 25.4314 38.8029 28.5756 42.6814 28.5756C43.4003 28.5756 44.094 28.4676 44.747 28.2669V29.3303C44.747 33.9327 41.0161 37.6637 36.4137 37.6637H17.554C12.9517 37.6637 9.2207 33.9327 9.2207 29.3303V14.6016ZM16.6335 11.5009C15.911 11.5009 15.3253 12.0866 15.3253 12.8091C15.3253 13.5315 15.911 14.1172 16.6335 14.1172H22.7381C23.4606 14.1172 24.0463 13.5315 24.0463 12.8091C24.0463 12.0866 23.4606 11.5009 22.7381 11.5009H16.6335Z"/>
</mask>
<path fill-rule="evenodd" clip-rule="evenodd" d="M9.2207 14.6016C9.2207 9.99928 12.9517 6.26831 17.554 6.26831H36.4137C41.0161 6.26831 44.747 9.99927 44.747 14.6016V14.839C44.094 14.6383 43.4003 14.5303 42.6814 14.5303C38.8029 14.5303 35.6588 17.6744 35.6588 21.5529C35.6588 25.4314 38.8029 28.5756 42.6814 28.5756C43.4003 28.5756 44.094 28.4676 44.747 28.2669V29.3303C44.747 33.9327 41.0161 37.6637 36.4137 37.6637H17.554C12.9517 37.6637 9.2207 33.9327 9.2207 29.3303V14.6016ZM16.6335 11.5009C15.911 11.5009 15.3253 12.0866 15.3253 12.8091C15.3253 13.5315 15.911 14.1172 16.6335 14.1172H22.7381C23.4606 14.1172 24.0463 13.5315 24.0463 12.8091C24.0463 12.0866 23.4606 11.5009 22.7381 11.5009H16.6335Z" fill="url(#paint3_linear_977_998)"/>
<path d="M44.747 14.839L44.2575 16.4321L46.4137 17.0947V14.839H44.747ZM44.747 28.2669H46.4137V26.0112L44.2575 26.6737L44.747 28.2669ZM17.554 4.60164C12.0312 4.60164 7.55404 9.0788 7.55404 14.6016H10.8874C10.8874 10.9197 13.8721 7.93498 17.554 7.93498V4.60164ZM36.4137 4.60164H17.554V7.93498H36.4137V4.60164ZM46.4137 14.6016C46.4137 9.0788 41.9365 4.60164 36.4137 4.60164V7.93498C40.0956 7.93498 43.0804 10.9197 43.0804 14.6016H46.4137ZM46.4137 14.839V14.6016H43.0804V14.839H46.4137ZM42.6814 16.197C43.2325 16.197 43.7612 16.2796 44.2575 16.4321L45.2366 13.2458C44.4267 12.997 43.5681 12.8636 42.6814 12.8636V16.197ZM37.3255 21.5529C37.3255 18.5949 39.7234 16.197 42.6814 16.197V12.8636C37.8825 12.8636 33.9921 16.754 33.9921 21.5529H37.3255ZM42.6814 26.9089C39.7234 26.9089 37.3255 24.511 37.3255 21.5529H33.9921C33.9921 26.3519 37.8825 30.2422 42.6814 30.2422V26.9089ZM44.2575 26.6737C43.7612 26.8262 43.2325 26.9089 42.6814 26.9089V30.2422C43.5681 30.2422 44.4267 30.1089 45.2366 29.86L44.2575 26.6737ZM46.4137 29.3303V28.2669H43.0804V29.3303H46.4137ZM36.4137 39.3303C41.9365 39.3303 46.4137 34.8532 46.4137 29.3303H43.0804C43.0804 33.0122 40.0956 35.997 36.4137 35.997V39.3303ZM17.554 39.3303H36.4137V35.997H17.554V39.3303ZM7.55404 29.3303C7.55404 34.8532 12.0312 39.3303 17.554 39.3303V35.997C13.8721 35.997 10.8874 33.0122 10.8874 29.3303H7.55404ZM7.55404 14.6016V29.3303H10.8874V14.6016H7.55404ZM16.992 12.8091C16.992 13.0071 16.8315 13.1676 16.6335 13.1676V9.83425C14.9905 9.83425 13.6587 11.1661 13.6587 12.8091H16.992ZM16.6335 12.4505C16.8315 12.4505 16.992 12.611 16.992 12.8091H13.6587C13.6587 14.452 14.9905 15.7839 16.6335 15.7839V12.4505ZM22.7381 12.4505H16.6335V15.7839H22.7381V12.4505ZM22.3796 12.8091C22.3796 12.611 22.5401 12.4505 22.7381 12.4505V15.7839C24.3811 15.7839 25.7129 14.452 25.7129 12.8091H22.3796ZM22.7381 13.1676C22.5401 13.1676 22.3796 13.0071 22.3796 12.8091H25.7129C25.7129 11.1661 24.381 9.83425 22.7381 9.83425V13.1676ZM16.6335 13.1676H22.7381V9.83425H16.6335V13.1676Z" fill="url(#paint4_linear_977_998)" mask="url(#path-4-inside-2_977_998)"/>
</g>
<defs>
<filter id="filter0_b_977_998" x="18.1377" y="-2.99109" width="46.6094" height="49.2062" filterUnits="userSpaceOnUse" color-interpolation-filters="sRGB">
<feFlood flood-opacity="0" result="BackgroundImageFix"/>
<feGaussianBlur in="BackgroundImage" stdDeviation="10"/>
<feComposite in2="SourceAlpha" operator="in" result="effect1_backgroundBlur_977_998"/>
<feBlend mode="normal" in="SourceGraphic" in2="effect1_backgroundBlur_977_998" result="shape"/>
</filter>
<filter id="filter1_b_977_998" x="-10.7793" y="-13.7317" width="75.5264" height="71.3954" filterUnits="userSpaceOnUse" color-interpolation-filters="sRGB">
<feFlood flood-opacity="0" result="BackgroundImageFix"/>
<feGaussianBlur in="BackgroundImage" stdDeviation="10"/>
<feComposite in2="SourceAlpha" operator="in" result="effect1_backgroundBlur_977_998"/>
<feBlend mode="normal" in="SourceGraphic" in2="effect1_backgroundBlur_977_998" result="shape"/>
</filter>
<linearGradient id="paint0_linear_977_998" x1="38.8483" y1="19.5244" x2="46.1956" y2="29.4275" gradientUnits="userSpaceOnUse">
<stop stop-color="#FFB45C"/>
<stop offset="1" stop-color="#F7931E"/>
</linearGradient>
<linearGradient id="paint1_linear_977_998" x1="39.1898" y1="18.0814" x2="50.1916" y2="20.773" gradientUnits="userSpaceOnUse">
<stop stop-color="white" stop-opacity="0.25"/>
<stop offset="1" stop-color="white" stop-opacity="0"/>
</linearGradient>
<linearGradient id="paint2_linear_977_998" x1="0.255636" y1="5.14637" x2="15.8802" y2="33.3197" gradientUnits="userSpaceOnUse">
<stop stop-color="#AFB5FE"/>
<stop offset="1" stop-color="#6B5EFF"/>
</linearGradient>
<linearGradient id="paint3_linear_977_998" x1="15.9039" y1="-3.12336" x2="29.5019" y2="46.4802" gradientUnits="userSpaceOnUse">
<stop stop-color="#FFE95D"/>
<stop offset="1" stop-color="#FF595D"/>
</linearGradient>
<linearGradient id="paint4_linear_977_998" x1="14.8759" y1="9.92591" x2="69.4382" y2="30.9649" gradientUnits="userSpaceOnUse">
<stop stop-color="white" stop-opacity="0.25"/>
<stop offset="1" stop-color="white" stop-opacity="0"/>
</linearGradient>
</defs>
</svg>
