<svg width="50" height="51" viewBox="0 0 50 51" fill="none" xmlns="http://www.w3.org/2000/svg">
<g filter="url(#filter0_b_848_1370)">
<path d="M46.383 16.1885C46.383 22.5537 41.2234 27.7133 34.8582 27.7133C28.493 27.7133 23.3334 22.5537 23.3334 16.1885C23.3334 9.82451 28.493 4.6637 34.8582 4.6637C41.2234 4.6637 46.383 9.82451 46.383 16.1885Z" fill="url(#paint0_linear_848_1370)"/>
</g>
<g filter="url(#filter1_b_848_1370)">
<path fill-rule="evenodd" clip-rule="evenodd" d="M5.59816 12.6125C4.86515 12.8867 4.35313 13.5734 4.3035 14.3544C2.77441 38.4214 14.4446 45.0372 20.2829 45.3152C26.1248 45.037 36.3977 38.413 34.8037 14.3086C34.7537 13.5515 34.2702 12.8799 33.5685 12.5909L21.0158 7.42214C20.5446 7.22813 20.0175 7.21951 19.5402 7.39801L5.59816 12.6125ZM17.1891 19.0031H21.7159V23.5485L26.2611 23.5858L26.2239 28.1125L21.7159 28.0754V32.5835H17.1891V28.0382L12.644 28.0008L12.6812 23.4742L17.1891 23.5112V19.0031Z" fill="url(#paint1_linear_848_1370)"/>
<path d="M4.3035 14.3544L5.18825 14.4106L4.3035 14.3544ZM5.59816 12.6125L5.2876 11.7822H5.2876L5.59816 12.6125ZM20.2829 45.3152L20.2407 46.2008L20.2829 46.2028L20.325 46.2008L20.2829 45.3152ZM34.8037 14.3086L33.9192 14.3671V14.3671L34.8037 14.3086ZM33.5685 12.5909L33.9061 11.7712V11.7712L33.5685 12.5909ZM21.0158 7.42214L21.3533 6.60239V6.60239L21.0158 7.42214ZM19.5402 7.39801L19.8508 8.22836V8.22836L19.5402 7.39801ZM21.7159 19.0031H22.6025V18.1166H21.7159V19.0031ZM17.1891 19.0031V18.1166H16.3026V19.0031H17.1891ZM21.7159 23.5485H20.8294V24.4277L21.7086 24.4349L21.7159 23.5485ZM26.2611 23.5858L27.1476 23.5931L27.1549 22.7066L26.2684 22.6993L26.2611 23.5858ZM26.2239 28.1125L26.2166 28.999L27.1031 29.0063L27.1104 28.1198L26.2239 28.1125ZM21.7159 28.0754L21.7232 27.1889L20.8294 27.1816V28.0754H21.7159ZM21.7159 32.5835V33.47H22.6025V32.5835H21.7159ZM17.1891 32.5835H16.3026V33.47H17.1891V32.5835ZM17.1891 28.0382H18.0756V27.1589L17.1964 27.1517L17.1891 28.0382ZM12.644 28.0008L11.7575 27.9936L11.7502 28.88L12.6367 28.8873L12.644 28.0008ZM12.6812 23.4742L12.6885 22.5877L11.802 22.5804L11.7947 23.4669L12.6812 23.4742ZM17.1891 23.5112L17.1818 24.3977L18.0756 24.4051V23.5112H17.1891ZM5.18825 14.4106C5.21559 13.9802 5.50104 13.5953 5.90872 13.4429L5.2876 11.7822C4.22925 12.178 3.49066 13.1666 3.41876 14.2982L5.18825 14.4106ZM20.325 44.4297C17.6842 44.304 13.5494 42.7217 10.2445 38.2303C6.94517 33.7464 4.43283 26.3004 5.18825 14.4106L3.41876 14.2982C2.64509 26.4754 5.20332 34.3708 8.81639 39.2811C12.4239 44.1838 17.0433 46.0485 20.2407 46.2008L20.325 44.4297ZM33.9192 14.3671C34.7082 26.2994 32.5501 33.7686 29.5915 38.259C26.6373 42.7426 22.8598 44.305 20.2407 44.4297L20.325 46.2008C23.5478 46.0473 27.8278 44.1585 31.0721 39.2345C34.312 34.3172 36.4933 26.4222 35.6883 14.2501L33.9192 14.3671ZM33.231 13.4107C33.6207 13.5711 33.8914 13.9479 33.9192 14.3671L35.6883 14.2501C35.6159 13.155 34.9197 12.1886 33.9061 11.7712L33.231 13.4107ZM20.6783 8.24189L33.231 13.4107L33.9061 11.7712L21.3533 6.60239L20.6783 8.24189ZM19.8508 8.22836C20.1184 8.12826 20.414 8.13309 20.6783 8.24189L21.3533 6.60239C20.6752 6.32316 19.9166 6.31076 19.2297 6.56766L19.8508 8.22836ZM5.90872 13.4429L19.8508 8.22836L19.2297 6.56766L5.2876 11.7822L5.90872 13.4429ZM21.7159 18.1166H17.1891V19.8896H21.7159V18.1166ZM22.6025 23.5485V19.0031H20.8294V23.5485H22.6025ZM26.2684 22.6993L21.7232 22.662L21.7086 24.4349L26.2538 24.4723L26.2684 22.6993ZM27.1104 28.1198L27.1476 23.5931L25.3746 23.5785L25.3374 28.1052L27.1104 28.1198ZM21.7086 28.9619L26.2166 28.999L26.2312 27.226L21.7232 27.1889L21.7086 28.9619ZM22.6025 32.5835V28.0754H20.8294V32.5835H22.6025ZM17.1891 33.47H21.7159V31.697H17.1891V33.47ZM16.3026 28.0382V32.5835H18.0756V28.0382H16.3026ZM12.6367 28.8873L17.1818 28.9247L17.1964 27.1517L12.6512 27.1143L12.6367 28.8873ZM11.7947 23.4669L11.7575 27.9936L13.5305 28.0081L13.5677 23.4815L11.7947 23.4669ZM17.1964 22.6247L12.6885 22.5877L12.6739 24.3607L17.1818 24.3977L17.1964 22.6247ZM16.3026 19.0031V23.5112H18.0756V19.0031H16.3026Z" fill="url(#paint2_linear_848_1370)"/>
</g>
<defs>
<filter id="filter0_b_848_1370" x="19.6642" y="0.994568" width="30.3879" height="30.3879" filterUnits="userSpaceOnUse" color-interpolation-filters="sRGB">
<feFlood flood-opacity="0" result="BackgroundImageFix"/>
<feGaussianBlur in="BackgroundImage" stdDeviation="1.83456"/>
<feComposite in2="SourceAlpha" operator="in" result="effect1_backgroundBlur_848_1370"/>
<feBlend mode="normal" in="SourceGraphic" in2="effect1_backgroundBlur_848_1370" result="shape"/>
</filter>
<filter id="filter1_b_848_1370" x="-17.9964" y="-14.893" width="75.1291" height="82.3724" filterUnits="userSpaceOnUse" color-interpolation-filters="sRGB">
<feFlood flood-opacity="0" result="BackgroundImageFix"/>
<feGaussianBlur in="BackgroundImage" stdDeviation="10.6383"/>
<feComposite in2="SourceAlpha" operator="in" result="effect1_backgroundBlur_848_1370"/>
<feBlend mode="normal" in="SourceGraphic" in2="effect1_backgroundBlur_848_1370" result="shape"/>
</filter>
<linearGradient id="paint0_linear_848_1370" x1="23.3649" y1="3.6262" x2="31.3562" y2="34.4906" gradientUnits="userSpaceOnUse">
<stop stop-color="#AFB5FE"/>
<stop offset="1" stop-color="#6B5EFF"/>
</linearGradient>
<linearGradient id="paint1_linear_848_1370" x1="9.96136" y1="-4.11075" x2="31.5529" y2="52.2439" gradientUnits="userSpaceOnUse">
<stop stop-color="#FFE95D"/>
<stop offset="1" stop-color="#FF595D"/>
</linearGradient>
<linearGradient id="paint2_linear_848_1370" x1="9.07002" y1="11.7024" x2="59.5683" y2="25.6346" gradientUnits="userSpaceOnUse">
<stop stop-color="white" stop-opacity="0.25"/>
<stop offset="1" stop-color="white" stop-opacity="0"/>
</linearGradient>
</defs>
</svg>
