<svg width="25" height="25" viewBox="0 0 25 25" fill="none" xmlns="http://www.w3.org/2000/svg">
<path d="M24.6277 5.14281C23.7579 5.52822 22.8235 5.78864 21.8412 5.90635C22.8548 5.29988 23.613 4.34538 23.9745 3.22093C23.0223 3.78655 21.9801 4.18468 20.8933 4.39802C20.1624 3.61767 19.1944 3.10044 18.1395 2.92664C17.0845 2.75283 16.0017 2.93218 15.0592 3.43682C14.1166 3.94147 13.367 4.74319 12.9268 5.7175C12.4866 6.69181 12.3803 7.78421 12.6245 8.8251C10.6951 8.72822 8.80749 8.22671 7.08436 7.35313C5.36123 6.47954 3.84105 5.25339 2.62246 3.75427C2.20579 4.47302 1.96621 5.30635 1.96621 6.19385C1.96575 6.9928 2.16249 7.77952 2.539 8.4842C2.91551 9.18887 3.46013 9.78972 4.12454 10.2334C3.354 10.2089 2.60045 10.0007 1.92663 9.62614V9.68864C1.92655 10.8092 2.31416 11.8953 3.02369 12.7626C3.73322 13.6299 4.72097 14.225 5.81934 14.447C5.10453 14.6404 4.3551 14.6689 3.62767 14.5303C3.93756 15.4945 4.54121 16.3376 5.35409 16.9417C6.16698 17.5457 7.14842 17.8805 8.161 17.8991C6.44208 19.2484 4.31922 19.9804 2.13392 19.9772C1.74682 19.9773 1.36004 19.9547 0.975586 19.9095C3.19379 21.3357 5.77594 22.0926 8.41309 22.0897C17.3402 22.0897 22.2204 14.6959 22.2204 8.28343C22.2204 8.0751 22.2152 7.86468 22.2058 7.65635C23.1551 6.96986 23.9745 6.11978 24.6256 5.14593L24.6277 5.14281Z" fill="#03011C"/>
</svg>
