<svg width="50" height="50" viewBox="0 0 50 50" fill="none" xmlns="http://www.w3.org/2000/svg">
<path d="M21.5513 22.2102C17.7087 25.6891 11.7756 25.3936 8.29735 21.5517C4.81912 17.7098 5.11324 11.7766 8.95587 8.29772C12.7971 4.82012 18.7316 5.11431 22.2098 8.95624C25.6881 12.7982 25.3925 18.7326 21.5513 22.2102Z" fill="url(#paint0_linear_570_414)"/>
<path d="M10.0723 26.2775L10.0715 26.2766C9.96955 26.1748 9.8887 26.0539 9.83355 25.9208C9.77839 25.7877 9.75 25.6451 9.75 25.501C9.75 25.3569 9.77839 25.2143 9.83355 25.0812C9.8887 24.9481 9.96955 24.8272 10.0715 24.7254L10.0723 24.7245L26.6821 8.07397L26.6827 8.07342C26.7845 7.9711 26.9056 7.88987 27.0389 7.83437C27.1721 7.77888 27.3151 7.75021 27.4594 7.75C27.6038 7.7498 27.7468 7.77806 27.8802 7.83318C28.0137 7.8883 28.135 7.96919 28.2371 8.07122L28.2374 8.07154L44.9268 24.7221L44.9268 24.7221C45.0293 24.8243 45.1105 24.9457 45.166 25.0794C45.2215 25.213 45.25 25.3563 45.25 25.501C45.25 25.6457 45.2215 25.789 45.166 25.9226C45.1105 26.0563 45.0293 26.1777 44.9268 26.2798L44.9268 26.2799L28.2374 42.9305L28.2368 42.9311C27.8111 43.3568 27.1099 43.3569 26.6822 42.9281L26.6821 42.928L10.0723 26.2775ZM21.9497 21.0509H21.1997V21.8009V32.9012V33.6512H21.9497H25.6498H26.3998V32.9012V26.251H30.4499V29.2011V31.0118L31.7303 29.7315L37.2804 24.1813L37.8108 23.6509L37.2804 23.1206L31.7303 17.5704L30.4499 16.2901V18.1007V21.0509H21.9497Z" fill="url(#paint1_linear_570_414)" stroke="url(#paint2_linear_570_414)" stroke-width="1.5"/>
<defs>
<linearGradient id="paint0_linear_570_414" x1="16.5556" y1="1.45209" x2="2.29305" y2="23.1413" gradientUnits="userSpaceOnUse">
<stop stop-color="#AFB5FE"/>
<stop offset="1" stop-color="#6B5EFF"/>
</linearGradient>
<linearGradient id="paint1_linear_570_414" x1="12.9781" y1="17.1097" x2="38.583" y2="65.1808" gradientUnits="userSpaceOnUse">
<stop stop-color="#FFB45C"/>
<stop offset="1" stop-color="#F7931E"/>
</linearGradient>
<linearGradient id="paint2_linear_570_414" x1="14.8898" y1="11.3105" x2="73.3735" y2="31.2394" gradientUnits="userSpaceOnUse">
<stop stop-color="white" stop-opacity="0.25"/>
<stop offset="1" stop-color="white" stop-opacity="0"/>
</linearGradient>
</defs>
</svg>
