<svg width="27" height="28" viewBox="0 0 27 28" fill="none" xmlns="http://www.w3.org/2000/svg">
<path d="M11.25 25.25H15.75H11.25ZM5.625 10.625C5.625 8.53642 6.45469 6.53338 7.93154 5.05653C9.40838 3.57969 11.4114 2.75 13.5 2.75C15.5886 2.75 17.5916 3.57969 19.0685 5.05653C20.5453 6.53338 21.375 8.53642 21.375 10.625C21.3757 11.893 21.0691 13.1422 20.4813 14.2657C19.8935 15.3892 19.0421 16.3534 18 17.0758L17.3903 19.9625C17.3095 20.4946 17.0407 20.9801 16.6327 21.331C16.2246 21.6819 15.7043 21.8749 15.1661 21.875H11.8339C11.2957 21.8749 10.7754 21.6819 10.3673 21.331C9.95925 20.9801 9.69048 20.4946 9.60975 19.9625L9 17.0881C7.95758 16.3632 7.10614 15.3967 6.51842 14.2712C5.9307 13.1457 5.62416 11.8947 5.625 10.625Z" fill="white" stroke="white" stroke-width="2" stroke-linecap="round" stroke-linejoin="round"/>
<path d="M9 17.375H18H9Z" fill="white"/>
<path d="M9 17.375H18" stroke="white" stroke-width="2" stroke-linecap="round" stroke-linejoin="round"/>
</svg>
