<svg width="25" height="25" viewBox="0 0 25 25" fill="none" xmlns="http://www.w3.org/2000/svg">
<g clip-path="url(#clip0_356_1702)">
<path d="M24.4791 6.77824C24.3375 6.27328 24.0618 5.8161 23.6812 5.45533C23.2898 5.08346 22.8101 4.81745 22.2874 4.68241C20.3312 4.16679 12.4937 4.16679 12.4937 4.16679C9.2263 4.12961 5.95973 4.29311 2.71241 4.65637C2.18969 4.80138 1.71091 5.07334 1.31866 5.44804C0.933244 5.81887 0.654077 6.27616 0.508244 6.7772C0.157924 8.66444 -0.0122853 10.5807 -8.95226e-05 12.5001C-0.0125895 14.4178 0.157202 16.3335 0.508244 18.223C0.650952 18.722 0.929077 19.1772 1.31554 19.5449C1.70199 19.9126 2.18324 20.1782 2.71241 20.3189C4.6947 20.8335 12.4937 20.8335 12.4937 20.8335C15.7652 20.8707 19.0359 20.7072 22.2874 20.3439C22.8101 20.2088 23.2898 19.9428 23.6812 19.571C24.0666 19.2032 24.3405 18.746 24.478 18.248C24.8375 16.3615 25.0123 14.4445 24.9999 12.5241C25.0269 10.5955 24.8524 8.66946 24.4791 6.7772V6.77824ZM10.002 16.0668V8.93449L16.5228 12.5012L10.002 16.0668Z" fill="white"/>
</g>
<defs>
<clipPath id="clip0_356_1702">
<rect width="25" height="25" fill="white"/>
</clipPath>
</defs>
</svg>
