<svg width="60" height="60" viewBox="0 0 60 60" fill="none" xmlns="http://www.w3.org/2000/svg">
<circle cx="29.7466" cy="29.7466" r="28.125" fill="#F79A1F"/>
<path fill-rule="evenodd" clip-rule="evenodd" d="M30.1488 20.3716C30.3264 20.3716 30.4967 20.4421 30.6223 20.5677C30.7479 20.6933 30.8184 20.8636 30.8184 21.0412V36.8344L35.0316 32.6199C35.1573 32.4942 35.3278 32.4235 35.5056 32.4235C35.6834 32.4235 35.854 32.4942 35.9797 32.6199C36.1054 32.7456 36.1761 32.9162 36.1761 33.094C36.1761 33.2718 36.1054 33.4423 35.9797 33.5681L30.6229 38.9249C30.5607 38.9872 30.4868 39.0367 30.4055 39.0704C30.3241 39.1042 30.2369 39.1216 30.1488 39.1216C30.0608 39.1216 29.9735 39.1042 29.8922 39.0704C29.8108 39.0367 29.737 38.9872 29.6748 38.9249L24.318 33.5681C24.1922 33.4423 24.1216 33.2718 24.1216 33.094C24.1216 32.9162 24.1922 32.7456 24.318 32.6199C24.4437 32.4942 24.6142 32.4235 24.792 32.4235C24.9698 32.4235 25.1404 32.4942 25.2661 32.6199L29.4792 36.8344V21.0412C29.4792 20.8636 29.5498 20.6933 29.6754 20.5677C29.8009 20.4421 29.9712 20.3716 30.1488 20.3716Z" fill="white"/>
</svg>
