<svg width="40" height="40" viewBox="0 0 40 40" fill="none" xmlns="http://www.w3.org/2000/svg">
<g clip-path="url(#clip0_1286_4966)">
<g filter="url(#filter0_b_1286_4966)">
<mask id="path-1-outside-1_1286_4966" maskUnits="userSpaceOnUse" x="7.00391" y="9.76318" width="29" height="28" fill="black">
<rect fill="white" x="7.00391" y="9.76318" width="29" height="28"/>
<path d="M27.3181 12.7632H16.2962C12.2796 12.7632 10.0039 14.9579 10.0039 18.8315V29.4511C10.0039 33.3248 12.2796 35.5195 16.2962 35.5195H27.3181C31.3347 35.5195 33.5999 33.3248 33.5999 29.4511V18.8315C33.5999 14.9579 31.3347 12.7632 27.3181 12.7632Z"/>
</mask>
<path d="M27.3181 12.7632H16.2962C12.2796 12.7632 10.0039 14.9579 10.0039 18.8315V29.4511C10.0039 33.3248 12.2796 35.5195 16.2962 35.5195H27.3181C31.3347 35.5195 33.5999 33.3248 33.5999 29.4511V18.8315C33.5999 14.9579 31.3347 12.7632 27.3181 12.7632Z" fill="url(#paint0_linear_1286_4966)"/>
<path d="M27.3181 14.7976C28.4417 14.7976 29.3525 13.8867 29.3525 12.7632C29.3525 11.6396 28.4417 10.7288 27.3181 10.7288V14.7976ZM27.3181 10.7288C26.1946 10.7288 25.2838 11.6396 25.2838 12.7632C25.2838 13.8867 26.1946 14.7976 27.3181 14.7976V10.7288ZM27.3181 10.7288H16.2962V14.7976H27.3181V10.7288ZM16.2962 10.7288C13.9294 10.7288 11.7877 11.3797 10.2316 12.8804C8.66471 14.3915 7.96953 16.4958 7.96953 18.8315H12.0383C12.0383 17.2936 12.481 16.3637 13.0561 15.8091C13.6419 15.2441 14.6464 14.7976 16.2962 14.7976V10.7288ZM7.96953 18.8315V29.4511H12.0383V18.8315H7.96953ZM7.96953 29.4511C7.96953 31.7869 8.66471 33.8911 10.2316 35.4023C11.7877 36.903 13.9294 37.5539 16.2962 37.5539V33.4851C14.6464 33.4851 13.6419 33.0386 13.0561 32.4736C12.481 31.9189 12.0383 30.989 12.0383 29.4511H7.96953ZM16.2962 37.5539H27.3181V33.4851H16.2962V37.5539ZM27.3181 37.5539C29.685 37.5539 31.8253 36.9029 33.3793 35.4005C34.9433 33.8884 35.6343 31.7843 35.6343 29.4511H31.5656C31.5656 30.9916 31.1239 31.9216 30.5512 32.4753C29.9685 33.0387 28.9678 33.4851 27.3181 33.4851V37.5539ZM35.6343 29.4511V18.8315H31.5656V29.4511H35.6343ZM35.6343 18.8315C35.6343 16.4984 34.9433 14.3942 33.3793 12.8821C31.8253 11.3798 29.685 10.7288 27.3181 10.7288V14.7976C28.9678 14.7976 29.9685 15.244 30.5512 15.8074C31.1239 16.361 31.5656 17.291 31.5656 18.8315H35.6343Z" fill="#F7931E" fill-opacity="0.4" mask="url(#path-1-outside-1_1286_4966)"/>
</g>
<path d="M25.8158 21.4876C25.6892 21.1286 25.4582 20.8157 25.1523 20.5891C24.8465 20.3626 24.4798 20.2327 24.0995 20.2163H21.5569C21.0511 20.2163 20.5661 20.4172 20.2084 20.7748C19.8508 21.1325 19.6499 21.6175 19.6499 22.1233C19.6499 22.629 19.8508 23.1141 20.2084 23.4717C20.5661 23.8293 21.0511 24.0302 21.5569 24.0302H24.0995C24.6053 24.0302 25.0903 24.2312 25.4479 24.5888C25.8056 24.9464 26.0065 25.4315 26.0065 25.9372C26.0065 26.443 25.8056 26.928 25.4479 27.2856C25.0903 27.6433 24.6053 27.8442 24.0995 27.8442H21.5569C21.1766 27.8278 20.8099 27.6979 20.5041 27.4714C20.1982 27.2448 19.9671 26.9319 19.8406 26.5729" stroke="white" stroke-width="1.27131" stroke-linecap="round" stroke-linejoin="round"/>
<path d="M22.8281 27.8439V29.7509M22.8281 18.3091V20.2161V18.3091Z" stroke="white" stroke-width="1.27131" stroke-linecap="round" stroke-linejoin="round"/>
<path fill-rule="evenodd" clip-rule="evenodd" d="M16.8636 19.1788C16.9874 19.167 17.1044 19.1167 17.1982 19.0352C17.2921 18.9536 17.3581 18.8447 17.387 18.7238L18.9713 12.1079C19.0023 11.9789 18.9893 11.8432 18.9344 11.7223C18.8796 11.6015 18.786 11.5024 18.6686 11.4407L12.6463 8.27658C12.5362 8.21884 12.4109 8.1969 12.2877 8.21384C12.1646 8.23078 12.0498 8.28574 11.9595 8.37106C11.8691 8.45638 11.8076 8.56779 11.7836 8.68973C11.7596 8.81168 11.7743 8.93808 11.8256 9.05127L12.8094 11.2192C9.85917 12.4845 8.20347 12.5669 7.22455 12.2838C6.29396 12.0149 5.86519 11.3963 5.41699 10.7479L5.30125 10.5809C5.21777 10.4618 5.09361 10.3772 4.95214 10.3432C4.81067 10.3091 4.66163 10.3279 4.53308 10.3961C4.40452 10.4643 4.3053 10.577 4.25408 10.7132C4.20287 10.8494 4.20319 10.9997 4.25499 11.1356C4.83907 12.6711 5.96103 14.7711 7.83691 16.1023C9.65766 17.3944 12.1136 17.9088 15.272 16.646L16.2636 18.8313C16.3149 18.9445 16.4004 19.0388 16.5079 19.1011C16.6155 19.1635 16.7398 19.1906 16.8636 19.1788Z" fill="url(#paint1_linear_1286_4966)"/>
<path fill-rule="evenodd" clip-rule="evenodd" d="M5.32479 1.35317C5.21854 1.37661 5.12227 1.43266 5.04944 1.51348C4.9766 1.5943 4.93084 1.69587 4.91854 1.80397L4.24525 7.71809C4.23211 7.83345 4.25779 7.9499 4.31825 8.04902C4.37871 8.14814 4.47049 8.22428 4.57907 8.2654L10.1455 10.3738C10.2472 10.4122 10.3584 10.418 10.4635 10.3902C10.5687 10.3624 10.6625 10.3025 10.7319 10.2188C10.8013 10.1351 10.8429 10.0318 10.8508 9.92332C10.8587 9.81486 10.8325 9.70664 10.7759 9.61378L9.69127 7.83547C12.1191 6.42316 13.5483 6.17577 14.4286 6.31764C15.2654 6.4524 15.7034 6.94407 16.1616 7.45959L16.2798 7.59231C16.365 7.68695 16.4818 7.74721 16.6083 7.76174C16.7348 7.77628 16.8622 7.74409 16.9666 7.67124C17.071 7.59839 17.1452 7.4899 17.1752 7.36617C17.2052 7.24245 17.189 7.11202 17.1296 6.99942C16.4592 5.7279 15.2618 4.02329 13.4912 3.06632C11.7726 2.13755 9.58504 1.95163 6.97613 3.38388L5.88279 1.5913C5.82618 1.49843 5.74198 1.42555 5.64193 1.38286C5.54189 1.34017 5.43102 1.32979 5.32479 1.35317Z" fill="url(#paint2_linear_1286_4966)"/>
</g>
<defs>
<filter id="filter0_b_1286_4966" x="3.91392" y="6.6732" width="35.7762" height="34.9363" filterUnits="userSpaceOnUse" color-interpolation-filters="sRGB">
<feFlood flood-opacity="0" result="BackgroundImageFix"/>
<feGaussianBlur in="BackgroundImage" stdDeviation="2.0279"/>
<feComposite in2="SourceAlpha" operator="in" result="effect1_backgroundBlur_1286_4966"/>
<feBlend mode="normal" in="SourceGraphic" in2="effect1_backgroundBlur_1286_4966" result="shape"/>
</filter>
<linearGradient id="paint0_linear_1286_4966" x1="12.5409" y1="18.981" x2="27.9667" y2="49.0104" gradientUnits="userSpaceOnUse">
<stop stop-color="#FFB45C"/>
<stop offset="1" stop-color="#F7931E"/>
</linearGradient>
<linearGradient id="paint1_linear_1286_4966" x1="9.68436" y1="23.1209" x2="6.55669" y2="5.23362" gradientUnits="userSpaceOnUse">
<stop stop-color="#AFB5FE"/>
<stop offset="1" stop-color="#6B5EFF"/>
</linearGradient>
<linearGradient id="paint2_linear_1286_4966" x1="11.1412" y1="-2.83306" x2="15.7574" y2="12.3698" gradientUnits="userSpaceOnUse">
<stop stop-color="#AFB5FE"/>
<stop offset="1" stop-color="#6B5EFF"/>
</linearGradient>
<clipPath id="clip0_1286_4966">
<rect width="40" height="40" fill="white"/>
</clipPath>
</defs>
</svg>
