<svg width="40" height="40" viewBox="0 0 40 40" fill="none" xmlns="http://www.w3.org/2000/svg">
<path d="M14.1086 16.3581L6.18309 18.4384C3.0842 19.2518 1.58295 21.93 2.45004 25.1L4.45119 32.416C5.31583 35.577 7.98299 37.1612 11.0819 36.3478L19.0073 34.2675C22.1062 33.4541 23.5983 30.7782 22.7337 27.6172L20.7325 20.3012C19.8655 17.1312 17.2074 15.5447 14.1086 16.3581Z" fill="url(#paint0_linear_1286_4930)"/>
<path d="M8.03571 7.665H34.9643C35.1921 7.665 35.335 7.83595 35.335 8V12.335H7.665V8C7.665 7.83595 7.80792 7.665 8.03571 7.665ZM8.03571 28.335C7.80792 28.335 7.665 28.1641 7.665 28V16.415H35.335V28C35.335 28.1641 35.1921 28.335 34.9643 28.335H8.03571ZM25.9989 21.335C25.5114 21.335 25.075 21.7234 25.075 22.25V24.5C25.075 25.0266 25.5114 25.415 25.9989 25.415H31.3393C31.8268 25.415 32.2632 25.0266 32.2632 24.5V22.25C32.2632 21.7234 31.8268 21.335 31.3393 21.335H25.9989Z" fill="url(#paint1_linear_1286_4930)" stroke="url(#paint2_linear_1286_4930)" stroke-width="1.33"/>
<defs>
<linearGradient id="paint0_linear_1286_4930" x1="0.804509" y1="18.9861" x2="13.3042" y2="41.5248" gradientUnits="userSpaceOnUse">
<stop stop-color="#AFB5FE"/>
<stop offset="1" stop-color="#6B5EFF"/>
</linearGradient>
<linearGradient id="paint1_linear_1286_4930" x1="10.118" y1="13.0112" x2="22.8634" y2="44.5532" gradientUnits="userSpaceOnUse">
<stop stop-color="#FFB45C"/>
<stop offset="1" stop-color="#F7931E"/>
</linearGradient>
<linearGradient id="paint2_linear_1286_4930" x1="11.6163" y1="9.56303" x2="54.1881" y2="28.6855" gradientUnits="userSpaceOnUse">
<stop stop-color="white" stop-opacity="0.25"/>
<stop offset="1" stop-color="white" stop-opacity="0"/>
</linearGradient>
</defs>
</svg>
