<svg width="490" height="413" viewBox="0 0 490 413" fill="none" xmlns="http://www.w3.org/2000/svg">
<g filter="url(#filter0_d_792_1340)">
<rect x="59.8496" width="430.15" height="316" rx="25.6839" fill="url(#paint0_linear_792_1340)"/>
</g>
<rect x="324.343" y="178.186" width="9.74449" height="9.74449" rx="4.87225" fill="#00FE9C"/>
<path d="M338.264 180.97C338.264 179.432 339.51 178.186 341.048 178.186H412.043C413.581 178.186 414.828 179.432 414.828 180.97V185.146C414.828 186.684 413.581 187.93 412.043 187.93H341.048C339.51 187.93 338.264 186.684 338.264 185.146V180.97Z" fill="#B59BFF"/>
<rect x="324.343" y="208.811" width="9.74449" height="9.74449" rx="4.87225" fill="#00FE9C"/>
<rect x="338.264" y="208.811" width="76.5639" height="9.74449" rx="2.78414" fill="#B59BFF"/>
<rect x="324.343" y="239.436" width="9.74449" height="9.74449" rx="4.87225" fill="#00FE9C"/>
<rect x="338.264" y="239.436" width="76.5639" height="9.74449" rx="2.78414" fill="#B59BFF"/>
<path d="M224.25 32.4771C224.25 33.3625 224.042 34.1977 223.624 34.9829C223.206 35.768 222.538 36.4111 221.619 36.9123C220.701 37.3967 219.523 37.6389 218.086 37.6389H214.929V44.7051H212.073V27.2903H218.086C219.423 27.2903 220.55 27.5241 221.469 27.9919C222.405 28.4429 223.098 29.061 223.549 29.8461C224.017 30.6312 224.25 31.5082 224.25 32.4771ZM218.086 35.3086C219.172 35.3086 219.982 35.0664 220.517 34.5819C221.052 34.0808 221.319 33.3792 221.319 32.4771C221.319 30.5728 220.241 29.6206 218.086 29.6206H214.929V35.3086H218.086ZM229.831 32.9031C230.249 32.2015 230.8 31.6586 231.485 31.2744C232.187 30.8735 233.014 30.673 233.966 30.673V33.6298H233.239C232.12 33.6298 231.268 33.9137 230.683 34.4817C230.115 35.0497 229.831 36.0353 229.831 37.4385V44.7051H226.975V30.8985H229.831V32.9031ZM242.58 44.9306C241.277 44.9306 240.1 44.6383 239.047 44.0536C237.995 43.4522 237.168 42.617 236.567 41.5479C235.965 40.462 235.664 39.2092 235.664 37.7893C235.664 36.3861 235.974 35.1416 236.592 34.0557C237.21 32.9699 238.053 32.1347 239.122 31.55C240.191 30.9653 241.386 30.673 242.706 30.673C244.025 30.673 245.22 30.9653 246.289 31.55C247.358 32.1347 248.201 32.9699 248.82 34.0557C249.438 35.1416 249.747 36.3861 249.747 37.7893C249.747 39.1925 249.429 40.437 248.794 41.5228C248.16 42.6086 247.291 43.4522 246.189 44.0536C245.103 44.6383 243.9 44.9306 242.58 44.9306ZM242.58 42.4499C243.315 42.4499 244 42.2745 244.635 41.9237C245.286 41.5729 245.813 41.0467 246.214 40.3451C246.614 39.6435 246.815 38.7916 246.815 37.7893C246.815 36.787 246.623 35.9434 246.239 35.2585C245.854 34.5569 245.345 34.0307 244.71 33.6799C244.075 33.3291 243.39 33.1537 242.655 33.1537C241.92 33.1537 241.236 33.3291 240.601 33.6799C239.983 34.0307 239.49 34.5569 239.122 35.2585C238.755 35.9434 238.571 36.787 238.571 37.7893C238.571 39.276 238.947 40.4286 239.699 41.2472C240.467 42.049 241.428 42.4499 242.58 42.4499ZM258.359 33.2288H255.803V44.7051H252.921V33.2288H251.293V30.8985H252.921V29.9213C252.921 28.3343 253.339 27.1817 254.174 26.4634C255.026 25.7284 256.354 25.3609 258.158 25.3609V27.7413C257.29 27.7413 256.68 27.9084 256.329 28.2425C255.978 28.5598 255.803 29.1195 255.803 29.9213V30.8985H258.359V33.2288ZM262.344 29.0693C261.826 29.0693 261.391 28.8939 261.041 28.5431C260.69 28.1923 260.514 27.758 260.514 27.2402C260.514 26.7223 260.69 26.288 261.041 25.9372C261.391 25.5864 261.826 25.411 262.344 25.411C262.845 25.411 263.271 25.5864 263.622 25.9372C263.972 26.288 264.148 26.7223 264.148 27.2402C264.148 27.758 263.972 28.1923 263.622 28.5431C263.271 28.8939 262.845 29.0693 262.344 29.0693ZM263.747 30.8985V44.7051H260.89V30.8985H263.747ZM270.83 33.2288V40.8713C270.83 41.3892 270.947 41.765 271.181 41.9989C271.431 42.2161 271.849 42.3246 272.433 42.3246H274.187V44.7051H271.932C270.646 44.7051 269.66 44.4044 268.976 43.803C268.291 43.2016 267.948 42.2244 267.948 40.8713V33.2288H266.319V30.8985H267.948V27.4657H270.83V30.8985H274.187V33.2288H270.83ZM298.339 27.2903L291.799 44.7051H288.491L281.926 27.2903H284.983L290.145 41.7734L295.332 27.2903H298.339ZM299.775 37.7392C299.775 36.3527 300.059 35.1248 300.627 34.0557C301.212 32.9866 301.997 32.1597 302.983 31.5751C303.985 30.9737 305.087 30.673 306.29 30.673C307.376 30.673 308.32 30.8902 309.122 31.3245C309.94 31.7421 310.592 32.2683 311.076 32.9031V30.8985H313.958V44.7051H311.076V42.6504C310.592 43.3019 309.932 43.8448 309.097 44.2791C308.261 44.7134 307.309 44.9306 306.24 44.9306C305.054 44.9306 303.968 44.6299 302.983 44.0285C301.997 43.4105 301.212 42.5585 300.627 41.4727C300.059 40.3702 299.775 39.1257 299.775 37.7392ZM311.076 37.7893C311.076 36.8371 310.876 36.0102 310.475 35.3086C310.09 34.607 309.581 34.0724 308.946 33.7049C308.311 33.3374 307.627 33.1537 306.892 33.1537C306.156 33.1537 305.472 33.3374 304.837 33.7049C304.202 34.0557 303.684 34.5819 303.283 35.2835C302.899 35.9684 302.707 36.787 302.707 37.7392C302.707 38.6913 302.899 39.5266 303.283 40.2449C303.684 40.9632 304.202 41.5145 304.837 41.8987C305.488 42.2662 306.173 42.4499 306.892 42.4499C307.627 42.4499 308.311 42.2662 308.946 41.8987C309.581 41.5312 310.09 40.9966 310.475 40.295C310.876 39.5767 311.076 38.7414 311.076 37.7893ZM320.566 26.1627V44.7051H317.71V26.1627H320.566ZM336.82 30.8985V44.7051H333.964V43.0764C333.513 43.6443 332.919 44.0954 332.184 44.4294C331.466 44.7468 330.698 44.9055 329.879 44.9055C328.793 44.9055 327.816 44.68 326.948 44.229C326.096 43.778 325.419 43.1098 324.918 42.2244C324.433 41.3391 324.191 40.2699 324.191 39.0171V30.8985H327.023V38.5911C327.023 39.8273 327.332 40.7794 327.95 41.4476C328.568 42.0991 329.411 42.4249 330.481 42.4249C331.55 42.4249 332.393 42.0991 333.011 41.4476C333.646 40.7794 333.964 39.8273 333.964 38.5911V30.8985H336.82ZM353.243 37.4635C353.243 37.9814 353.21 38.4491 353.143 38.8667H342.594C342.677 39.9693 343.086 40.8546 343.821 41.5228C344.556 42.191 345.458 42.5251 346.528 42.5251C348.064 42.5251 349.15 41.882 349.785 40.5957H352.867C352.449 41.8653 351.689 42.9093 350.587 43.7278C349.501 44.5297 348.148 44.9306 346.528 44.9306C345.208 44.9306 344.022 44.6383 342.969 44.0536C341.934 43.4522 341.115 42.617 340.514 41.5479C339.929 40.462 339.637 39.2092 339.637 37.7893C339.637 36.3694 339.921 35.1248 340.489 34.0557C341.073 32.9699 341.884 32.1347 342.919 31.55C343.972 30.9653 345.175 30.673 346.528 30.673C347.831 30.673 348.992 30.957 350.011 31.525C351.03 32.0929 351.823 32.8948 352.391 33.9305C352.959 34.9494 353.243 36.1271 353.243 37.4635ZM350.261 36.5615C350.244 35.5091 349.869 34.6655 349.134 34.0307C348.399 33.3959 347.488 33.0785 346.402 33.0785C345.417 33.0785 344.573 33.3959 343.872 34.0307C343.17 34.6488 342.752 35.4924 342.619 36.5615H350.261Z" fill="white"/>
<g clip-path="url(#clip0_792_1340)">
<path d="M125.489 171.289C125.489 151.258 135.918 133.692 151.64 123.522L144.557 103.413C120.585 116.742 104.396 142.167 104.396 171.289C104.396 181.767 106.498 191.706 110.234 200.797L131.326 196.329C127.59 188.778 125.489 180.304 125.489 171.289Z" fill="#2D9EEC"/>
<path d="M183.084 93.3965C169.074 93.3965 155.921 97.0176 144.558 103.412L151.64 123.521C160.668 117.666 171.487 114.276 183.084 114.276C187.442 114.276 191.645 114.738 195.77 115.662L200.44 95.3226C194.836 94.0128 189.077 93.3965 183.084 93.3965Z" fill="#F78373"/>
<path d="M235.695 147.944C238.653 154.493 240.443 161.735 240.676 169.285L261.768 170.364C261.613 159.424 259.2 149.022 254.997 139.623L235.695 147.944Z" fill="#F6F8FC"/>
<path d="M202.463 86.3086L200.361 95.2458L195.691 115.586C213.515 119.515 228.302 131.688 235.618 147.867L254.92 139.546L263.015 136.079C252.196 111.194 229.781 92.3951 202.463 86.3086Z" fill="#70FEC7"/>
<path d="M183.083 228.379C160.357 228.379 140.666 215.358 131.248 196.328L110.156 200.797C121.909 229.226 150.083 249.181 183.005 249.181C199.895 249.181 215.616 243.865 228.381 234.927L217.951 216.591C208.378 223.987 196.237 228.379 183.083 228.379Z" fill="#C244FF"/>
<path d="M240.678 169.286C240.678 169.98 240.756 170.673 240.756 171.366C240.756 189.857 231.883 206.268 218.107 216.669L228.537 235.005C248.695 220.906 261.848 197.639 261.848 171.366C261.848 171.058 261.848 170.673 261.848 170.365L240.678 169.286Z" fill="#7D3BFF"/>
</g>
<defs>
<filter id="filter0_d_792_1340" x="0.455681" y="0" width="489.543" height="412.314" filterUnits="userSpaceOnUse" color-interpolation-filters="sRGB">
<feFlood flood-opacity="0" result="BackgroundImageFix"/>
<feColorMatrix in="SourceAlpha" type="matrix" values="0 0 0 0 0 0 0 0 0 0 0 0 0 0 0 0 0 0 127 0" result="hardAlpha"/>
<feMorphology radius="30.4996" operator="erode" in="SourceAlpha" result="effect1_dropShadow_792_1340"/>
<feOffset dx="-33.7101" dy="70.6306"/>
<feGaussianBlur stdDeviation="28.0917"/>
<feComposite in2="hardAlpha" operator="out"/>
<feColorMatrix type="matrix" values="0 0 0 0 0 0 0 0 0 0 0 0 0 0 0 0 0 0 0.22 0"/>
<feBlend mode="normal" in2="BackgroundImageFix" result="effect1_dropShadow_792_1340"/>
<feBlend mode="normal" in="SourceGraphic" in2="effect1_dropShadow_792_1340" result="shape"/>
</filter>
<linearGradient id="paint0_linear_792_1340" x1="60.438" y1="-14.2236" x2="143.319" y2="421.514" gradientUnits="userSpaceOnUse">
<stop stop-color="#AFB5FE"/>
<stop offset="1" stop-color="#6B5EFF"/>
</linearGradient>
<clipPath id="clip0_792_1340">
<rect width="158.696" height="162.872" fill="white" transform="translate(104.396 86.3086)"/>
</clipPath>
</defs>
</svg>
