<svg width="639" height="665" viewBox="0 0 639 665" fill="none" xmlns="http://www.w3.org/2000/svg">
<g filter="url(#filter0_d_1295_2247)">
<path d="M364.022 606.806C368.298 606.806 371.764 603.607 371.764 599.662C371.764 595.717 368.298 592.519 364.022 592.519C359.747 592.519 356.281 595.717 356.281 599.662C356.281 603.607 359.747 606.806 364.022 606.806Z" fill="url(#paint0_linear_1295_2247)"/>
<g filter="url(#filter1_b_1295_2247)">
<path d="M217.845 574.913V70.7115C217.845 52.6414 232.664 38 250.952 38H471.261C489.55 38 504.369 52.6414 504.369 70.7115V574.913C504.369 592.983 489.55 607.624 471.261 607.624H251.046C232.664 607.624 217.845 592.983 217.845 574.913Z" fill="#FAFAFA"/>
</g>
<g opacity="0.1" filter="url(#filter2_f_1295_2247)">
<rect x="256.577" y="206.137" width="225.101" height="54.2048" rx="16.1712" fill="#652FBF"/>
</g>
<rect x="226.694" y="46.8486" width="268.774" height="553.033" rx="27.6516" fill="url(#paint1_linear_1295_2247)"/>
<path d="M339.888 235.896C339.38 235.896 338.922 235.808 338.517 235.631C338.119 235.446 337.805 235.196 337.577 234.879C337.348 234.554 337.23 234.182 337.223 233.762H338.296C338.332 234.123 338.48 234.429 338.738 234.68C339.004 234.923 339.387 235.045 339.888 235.045C340.368 235.045 340.744 234.927 341.017 234.691C341.297 234.447 341.437 234.138 341.437 233.762C341.437 233.467 341.356 233.227 341.194 233.043C341.031 232.858 340.829 232.718 340.585 232.622C340.342 232.526 340.014 232.423 339.601 232.313C339.092 232.18 338.683 232.047 338.373 231.914C338.071 231.782 337.809 231.575 337.588 231.295C337.374 231.007 337.267 230.624 337.267 230.145C337.267 229.724 337.374 229.352 337.588 229.028C337.802 228.703 338.1 228.452 338.484 228.275C338.874 228.099 339.321 228.01 339.822 228.01C340.545 228.01 341.135 228.191 341.592 228.552C342.056 228.913 342.318 229.393 342.377 229.99H341.271C341.234 229.695 341.079 229.437 340.806 229.216C340.534 228.987 340.172 228.873 339.722 228.873C339.302 228.873 338.959 228.983 338.694 229.205C338.428 229.418 338.296 229.721 338.296 230.112C338.296 230.392 338.373 230.62 338.528 230.797C338.69 230.974 338.886 231.111 339.114 231.207C339.35 231.295 339.678 231.398 340.099 231.516C340.607 231.656 341.017 231.796 341.326 231.937C341.636 232.069 341.901 232.279 342.123 232.567C342.344 232.847 342.454 233.231 342.454 233.717C342.454 234.093 342.355 234.447 342.156 234.779C341.957 235.111 341.662 235.38 341.271 235.587C340.88 235.793 340.419 235.896 339.888 235.896ZM349.466 232.556C349.466 232.748 349.455 232.95 349.433 233.164H344.588C344.625 233.762 344.828 234.23 345.197 234.569C345.573 234.901 346.026 235.067 346.557 235.067C346.992 235.067 347.353 234.967 347.641 234.768C347.936 234.562 348.142 234.289 348.26 233.95H349.344C349.182 234.532 348.858 235.008 348.371 235.376C347.884 235.738 347.28 235.918 346.557 235.918C345.982 235.918 345.466 235.789 345.008 235.531C344.559 235.273 344.205 234.908 343.947 234.436C343.689 233.957 343.56 233.404 343.56 232.777C343.56 232.15 343.685 231.601 343.936 231.129C344.186 230.657 344.537 230.296 344.986 230.045C345.444 229.787 345.967 229.658 346.557 229.658C347.132 229.658 347.641 229.783 348.083 230.034C348.526 230.285 348.865 230.631 349.101 231.074C349.344 231.509 349.466 232.003 349.466 232.556ZM348.426 232.346C348.426 231.962 348.341 231.634 348.172 231.361C348.002 231.081 347.77 230.871 347.475 230.731C347.187 230.583 346.867 230.51 346.513 230.51C346.004 230.51 345.569 230.672 345.208 230.996C344.854 231.321 344.651 231.771 344.599 232.346H348.426ZM353.748 229.647C354.485 229.647 355.082 229.872 355.54 230.322C355.997 230.764 356.225 231.406 356.225 232.246V235.819H355.23V232.39C355.23 231.785 355.079 231.325 354.776 231.007C354.474 230.683 354.061 230.521 353.538 230.521C353.007 230.521 352.583 230.687 352.266 231.019C351.956 231.35 351.801 231.833 351.801 232.467V235.819H350.795V229.758H351.801V230.62C352 230.311 352.269 230.071 352.608 229.901C352.955 229.732 353.335 229.647 353.748 229.647ZM357.493 232.766C357.493 232.147 357.619 231.605 357.869 231.14C358.12 230.668 358.463 230.303 358.898 230.045C359.341 229.787 359.835 229.658 360.38 229.658C360.852 229.658 361.291 229.769 361.696 229.99C362.102 230.204 362.412 230.488 362.626 230.842V227.634H363.643V235.819H362.626V234.68C362.426 235.041 362.131 235.34 361.741 235.576C361.35 235.804 360.893 235.918 360.369 235.918C359.831 235.918 359.341 235.786 358.898 235.52C358.463 235.255 358.12 234.882 357.869 234.403C357.619 233.924 357.493 233.378 357.493 232.766ZM362.626 232.777C362.626 232.32 362.533 231.922 362.349 231.583C362.165 231.243 361.914 230.985 361.597 230.808C361.287 230.624 360.944 230.532 360.568 230.532C360.192 230.532 359.849 230.62 359.54 230.797C359.23 230.974 358.983 231.232 358.799 231.572C358.614 231.911 358.522 232.309 358.522 232.766C358.522 233.231 358.614 233.636 358.799 233.983C358.983 234.322 359.23 234.584 359.54 234.768C359.849 234.945 360.192 235.034 360.568 235.034C360.944 235.034 361.287 234.945 361.597 234.768C361.914 234.584 362.165 234.322 362.349 233.983C362.533 233.636 362.626 233.234 362.626 232.777ZM365.864 228.773C365.672 228.773 365.51 228.707 365.377 228.574C365.244 228.441 365.178 228.279 365.178 228.087C365.178 227.896 365.244 227.734 365.377 227.601C365.51 227.468 365.672 227.402 365.864 227.402C366.048 227.402 366.203 227.468 366.328 227.601C366.461 227.734 366.528 227.896 366.528 228.087C366.528 228.279 366.461 228.441 366.328 228.574C366.203 228.707 366.048 228.773 365.864 228.773ZM366.351 229.758V235.819H365.344V229.758H366.351ZM371.019 229.647C371.757 229.647 372.354 229.872 372.811 230.322C373.268 230.764 373.497 231.406 373.497 232.246V235.819H372.501V232.39C372.501 231.785 372.35 231.325 372.048 231.007C371.746 230.683 371.333 230.521 370.809 230.521C370.278 230.521 369.854 230.687 369.537 231.019C369.227 231.35 369.073 231.833 369.073 232.467V235.819H368.066V229.758H369.073V230.62C369.272 230.311 369.541 230.071 369.88 229.901C370.227 229.732 370.606 229.647 371.019 229.647ZM377.641 229.658C378.164 229.658 378.621 229.772 379.012 230.001C379.41 230.23 379.705 230.517 379.897 230.864V229.758H380.915V235.952C380.915 236.505 380.797 236.995 380.561 237.423C380.325 237.858 379.986 238.197 379.543 238.44C379.108 238.684 378.599 238.805 378.017 238.805C377.22 238.805 376.557 238.617 376.026 238.241C375.495 237.865 375.181 237.353 375.086 236.704H376.081C376.192 237.072 376.42 237.367 376.767 237.589C377.113 237.817 377.53 237.931 378.017 237.931C378.57 237.931 379.02 237.758 379.366 237.412C379.72 237.065 379.897 236.578 379.897 235.952V234.68C379.698 235.034 379.403 235.328 379.012 235.564C378.621 235.8 378.164 235.918 377.641 235.918C377.102 235.918 376.612 235.786 376.17 235.52C375.735 235.255 375.392 234.882 375.141 234.403C374.89 233.924 374.765 233.378 374.765 232.766C374.765 232.147 374.89 231.605 375.141 231.14C375.392 230.668 375.735 230.303 376.17 230.045C376.612 229.787 377.102 229.658 377.641 229.658ZM379.897 232.777C379.897 232.32 379.805 231.922 379.62 231.583C379.436 231.243 379.185 230.985 378.868 230.808C378.559 230.624 378.216 230.532 377.84 230.532C377.464 230.532 377.121 230.62 376.811 230.797C376.501 230.974 376.254 231.232 376.07 231.572C375.886 231.911 375.794 232.309 375.794 232.766C375.794 233.231 375.886 233.636 376.07 233.983C376.254 234.322 376.501 234.584 376.811 234.768C377.121 234.945 377.464 235.034 377.84 235.034C378.216 235.034 378.559 234.945 378.868 234.768C379.185 234.584 379.436 234.322 379.62 233.983C379.805 233.636 379.897 233.234 379.897 232.777Z" fill="white"/>
<path opacity="0.5" d="M338.838 289.01C338.838 289.364 338.75 289.703 338.573 290.028C338.396 290.345 338.134 290.61 337.787 290.824C337.448 291.038 337.039 291.159 336.56 291.189V292.085H335.962V291.189C335.291 291.13 334.746 290.916 334.325 290.547C333.905 290.171 333.691 289.696 333.684 289.121H334.757C334.786 289.43 334.901 289.699 335.1 289.928C335.306 290.157 335.594 290.3 335.962 290.359V287.594C335.468 287.469 335.07 287.34 334.768 287.207C334.466 287.074 334.208 286.868 333.994 286.588C333.78 286.307 333.673 285.931 333.673 285.46C333.673 284.862 333.879 284.368 334.292 283.977C334.713 283.587 335.269 283.369 335.962 283.325V282.407H336.56V283.325C337.187 283.376 337.692 283.579 338.075 283.933C338.458 284.28 338.68 284.733 338.739 285.294H337.666C337.629 285.036 337.515 284.803 337.323 284.597C337.131 284.383 336.877 284.243 336.56 284.176V286.875C337.046 287.001 337.441 287.13 337.743 287.262C338.053 287.388 338.311 287.591 338.517 287.871C338.731 288.151 338.838 288.531 338.838 289.01ZM334.702 285.404C334.702 285.766 334.808 286.042 335.022 286.234C335.236 286.425 335.55 286.584 335.962 286.709V284.154C335.579 284.191 335.273 284.317 335.044 284.53C334.816 284.737 334.702 285.028 334.702 285.404ZM336.56 290.37C336.958 290.326 337.268 290.182 337.489 289.939C337.717 289.696 337.832 289.404 337.832 289.065C337.832 288.704 337.721 288.427 337.5 288.236C337.279 288.037 336.965 287.878 336.56 287.76V290.37ZM341.87 288.977C341.943 289.397 342.113 289.722 342.378 289.95C342.651 290.179 343.016 290.293 343.473 290.293C344.085 290.293 344.535 290.053 344.823 289.574C345.118 289.095 345.258 288.287 345.243 287.152C345.088 287.484 344.83 287.745 344.469 287.937C344.108 288.121 343.706 288.214 343.263 288.214C342.769 288.214 342.327 288.114 341.936 287.915C341.553 287.709 341.25 287.41 341.029 287.019C340.808 286.628 340.697 286.156 340.697 285.603C340.697 284.814 340.926 284.18 341.383 283.701C341.84 283.214 342.489 282.971 343.33 282.971C344.362 282.971 345.085 283.306 345.498 283.977C345.918 284.648 346.128 285.648 346.128 286.975C346.128 287.904 346.043 288.671 345.874 289.275C345.711 289.88 345.431 290.341 345.033 290.658C344.642 290.975 344.104 291.134 343.418 291.134C342.666 291.134 342.08 290.931 341.659 290.525C341.239 290.12 341 289.604 340.941 288.977H341.87ZM343.429 287.362C343.923 287.362 344.329 287.211 344.646 286.908C344.963 286.599 345.121 286.182 345.121 285.659C345.121 285.106 344.967 284.659 344.657 284.32C344.347 283.981 343.912 283.811 343.352 283.811C342.836 283.811 342.423 283.974 342.113 284.298C341.811 284.623 341.659 285.05 341.659 285.581C341.659 286.119 341.811 286.551 342.113 286.875C342.415 287.2 342.854 287.362 343.429 287.362ZM349.002 286.964C348.59 286.802 348.272 286.566 348.051 286.256C347.83 285.946 347.719 285.57 347.719 285.128C347.719 284.729 347.819 284.372 348.018 284.055C348.217 283.73 348.512 283.476 348.903 283.292C349.301 283.1 349.78 283.004 350.341 283.004C350.901 283.004 351.377 283.1 351.768 283.292C352.166 283.476 352.464 283.73 352.664 284.055C352.87 284.372 352.973 284.729 352.973 285.128C352.973 285.555 352.859 285.931 352.63 286.256C352.402 286.573 352.088 286.809 351.69 286.964C352.147 287.104 352.509 287.351 352.774 287.705C353.047 288.051 353.183 288.472 353.183 288.966C353.183 289.445 353.065 289.865 352.829 290.227C352.594 290.581 352.258 290.857 351.823 291.056C351.395 291.248 350.901 291.344 350.341 291.344C349.78 291.344 349.286 291.248 348.859 291.056C348.438 290.857 348.11 290.581 347.874 290.227C347.638 289.865 347.52 289.445 347.52 288.966C347.52 288.472 347.653 288.048 347.919 287.694C348.184 287.34 348.545 287.096 349.002 286.964ZM352 285.249C352 284.8 351.852 284.453 351.557 284.21C351.263 283.966 350.857 283.845 350.341 283.845C349.832 283.845 349.43 283.966 349.135 284.21C348.84 284.453 348.693 284.803 348.693 285.26C348.693 285.673 348.844 286.005 349.146 286.256C349.456 286.507 349.854 286.632 350.341 286.632C350.835 286.632 351.233 286.507 351.535 286.256C351.845 285.998 352 285.662 352 285.249ZM350.341 287.406C349.795 287.406 349.349 287.535 349.002 287.793C348.656 288.044 348.483 288.424 348.483 288.933C348.483 289.404 348.649 289.784 348.98 290.072C349.32 290.359 349.773 290.503 350.341 290.503C350.909 290.503 351.358 290.359 351.69 290.072C352.022 289.784 352.188 289.404 352.188 288.933C352.188 288.439 352.018 288.062 351.679 287.804C351.34 287.539 350.894 287.406 350.341 287.406ZM354.52 287.041C354.52 285.773 354.727 284.785 355.14 284.077C355.553 283.362 356.275 283.004 357.307 283.004C358.332 283.004 359.051 283.362 359.464 284.077C359.877 284.785 360.084 285.773 360.084 287.041C360.084 288.332 359.877 289.334 359.464 290.05C359.051 290.765 358.332 291.123 357.307 291.123C356.275 291.123 355.553 290.765 355.14 290.05C354.727 289.334 354.52 288.332 354.52 287.041ZM359.088 287.041C359.088 286.4 359.044 285.858 358.956 285.415C358.874 284.965 358.701 284.604 358.436 284.331C358.178 284.058 357.802 283.922 357.307 283.922C356.806 283.922 356.423 284.058 356.157 284.331C355.899 284.604 355.726 284.965 355.637 285.415C355.556 285.858 355.516 286.4 355.516 287.041C355.516 287.705 355.556 288.262 355.637 288.711C355.726 289.161 355.899 289.522 356.157 289.795C356.423 290.068 356.806 290.205 357.307 290.205C357.802 290.205 358.178 290.068 358.436 289.795C358.701 289.522 358.874 289.161 358.956 288.711C359.044 288.262 359.088 287.705 359.088 287.041ZM361.466 287.041C361.466 285.773 361.672 284.785 362.085 284.077C362.498 283.362 363.22 283.004 364.253 283.004C365.278 283.004 365.997 283.362 366.41 284.077C366.823 284.785 367.029 285.773 367.029 287.041C367.029 288.332 366.823 289.334 366.41 290.05C365.997 290.765 365.278 291.123 364.253 291.123C363.22 291.123 362.498 290.765 362.085 290.05C361.672 289.334 361.466 288.332 361.466 287.041ZM366.034 287.041C366.034 286.4 365.989 285.858 365.901 285.415C365.82 284.965 365.646 284.604 365.381 284.331C365.123 284.058 364.747 283.922 364.253 283.922C363.751 283.922 363.368 284.058 363.102 284.331C362.844 284.604 362.671 284.965 362.583 285.415C362.502 285.858 362.461 286.4 362.461 287.041C362.461 287.705 362.502 288.262 362.583 288.711C362.671 289.161 362.844 289.522 363.102 289.795C363.368 290.068 363.751 290.205 364.253 290.205C364.747 290.205 365.123 290.068 365.381 289.795C365.646 289.522 365.82 289.161 365.901 288.711C365.989 288.262 366.034 287.705 366.034 287.041ZM368.897 291.189C368.706 291.189 368.544 291.123 368.411 290.99C368.278 290.857 368.212 290.695 368.212 290.503C368.212 290.311 368.278 290.149 368.411 290.016C368.544 289.884 368.706 289.817 368.897 289.817C369.082 289.817 369.237 289.884 369.362 290.016C369.495 290.149 369.561 290.311 369.561 290.503C369.561 290.695 369.495 290.857 369.362 290.99C369.237 291.123 369.082 291.189 368.897 291.189ZM372.027 288.977C372.101 289.397 372.271 289.722 372.536 289.95C372.809 290.179 373.174 290.293 373.631 290.293C374.243 290.293 374.693 290.053 374.98 289.574C375.275 289.095 375.415 288.287 375.401 287.152C375.246 287.484 374.988 287.745 374.626 287.937C374.265 288.121 373.863 288.214 373.421 288.214C372.927 288.214 372.484 288.114 372.094 287.915C371.71 287.709 371.408 287.41 371.187 287.019C370.965 286.628 370.855 286.156 370.855 285.603C370.855 284.814 371.083 284.18 371.541 283.701C371.998 283.214 372.647 282.971 373.487 282.971C374.52 282.971 375.242 283.306 375.655 283.977C376.075 284.648 376.286 285.648 376.286 286.975C376.286 287.904 376.201 288.671 376.031 289.275C375.869 289.88 375.589 290.341 375.191 290.658C374.8 290.975 374.261 291.134 373.576 291.134C372.824 291.134 372.237 290.931 371.817 290.525C371.397 290.12 371.157 289.604 371.098 288.977H372.027ZM373.587 287.362C374.081 287.362 374.486 287.211 374.803 286.908C375.121 286.599 375.279 286.182 375.279 285.659C375.279 285.106 375.124 284.659 374.815 284.32C374.505 283.981 374.07 283.811 373.509 283.811C372.993 283.811 372.58 283.974 372.271 284.298C371.968 284.623 371.817 285.05 371.817 285.581C371.817 286.119 371.968 286.551 372.271 286.875C372.573 287.2 373.012 287.362 373.587 287.362ZM377.7 287.041C377.7 285.773 377.907 284.785 378.319 284.077C378.732 283.362 379.455 283.004 380.487 283.004C381.512 283.004 382.231 283.362 382.644 284.077C383.057 284.785 383.264 285.773 383.264 287.041C383.264 288.332 383.057 289.334 382.644 290.05C382.231 290.765 381.512 291.123 380.487 291.123C379.455 291.123 378.732 290.765 378.319 290.05C377.907 289.334 377.7 288.332 377.7 287.041ZM382.268 287.041C382.268 286.4 382.224 285.858 382.135 285.415C382.054 284.965 381.881 284.604 381.616 284.331C381.357 284.058 380.981 283.922 380.487 283.922C379.986 283.922 379.602 284.058 379.337 284.331C379.079 284.604 378.906 284.965 378.817 285.415C378.736 285.858 378.696 286.4 378.696 287.041C378.696 287.705 378.736 288.262 378.817 288.711C378.906 289.161 379.079 289.522 379.337 289.795C379.602 290.068 379.986 290.205 380.487 290.205C380.981 290.205 381.357 290.068 381.616 289.795C381.881 289.522 382.054 289.161 382.135 288.711C382.224 288.262 382.268 287.705 382.268 287.041Z" fill="white"/>
<path d="M323.327 261.727C323.327 259.175 323.755 257.184 324.61 255.754C325.48 254.309 326.97 253.586 329.079 253.586C331.188 253.586 332.67 254.309 333.525 255.754C334.395 257.184 334.83 259.175 334.83 261.727C334.83 264.307 334.395 266.328 333.525 267.788C332.67 269.233 331.188 269.956 329.079 269.956C326.97 269.956 325.48 269.233 324.61 267.788C323.755 266.328 323.327 264.307 323.327 261.727ZM332.353 261.727C332.353 260.532 332.272 259.522 332.109 258.696C331.962 257.87 331.652 257.199 331.18 256.683C330.708 256.152 330.008 255.887 329.079 255.887C328.15 255.887 327.449 256.152 326.977 256.683C326.505 257.199 326.188 257.87 326.026 258.696C325.879 259.522 325.805 260.532 325.805 261.727C325.805 262.965 325.879 264.005 326.026 264.846C326.174 265.686 326.483 266.365 326.955 266.881C327.442 267.397 328.15 267.655 329.079 267.655C330.008 267.655 330.708 267.397 331.18 266.881C331.667 266.365 331.984 265.686 332.132 264.846C332.279 264.005 332.353 262.965 332.353 261.727ZM338.848 270.155C338.391 270.155 338.008 270 337.698 269.69C337.388 269.381 337.233 268.997 337.233 268.54C337.233 268.083 337.388 267.699 337.698 267.39C338.008 267.08 338.391 266.925 338.848 266.925C339.291 266.925 339.667 267.08 339.976 267.39C340.286 267.699 340.441 268.083 340.441 268.54C340.441 268.997 340.286 269.381 339.976 269.69C339.667 270 339.291 270.155 338.848 270.155ZM342.835 261.727C342.835 259.175 343.262 257.184 344.118 255.754C344.988 254.309 346.477 253.586 348.586 253.586C350.695 253.586 352.177 254.309 353.033 255.754C353.903 257.184 354.338 259.175 354.338 261.727C354.338 264.307 353.903 266.328 353.033 267.788C352.177 269.233 350.695 269.956 348.586 269.956C346.477 269.956 344.988 269.233 344.118 267.788C343.262 266.328 342.835 264.307 342.835 261.727ZM351.86 261.727C351.86 260.532 351.779 259.522 351.617 258.696C351.469 257.87 351.16 257.199 350.688 256.683C350.216 256.152 349.515 255.887 348.586 255.887C347.657 255.887 346.957 256.152 346.485 256.683C346.013 257.199 345.696 257.87 345.533 258.696C345.386 259.522 345.312 260.532 345.312 261.727C345.312 262.965 345.386 264.005 345.533 264.846C345.681 265.686 345.991 266.365 346.463 266.881C346.949 267.397 347.657 267.655 348.586 267.655C349.515 267.655 350.216 267.397 350.688 266.881C351.174 266.365 351.491 265.686 351.639 264.846C351.786 264.005 351.86 262.965 351.86 261.727ZM357.006 261.727C357.006 259.175 357.434 257.184 358.289 255.754C359.159 254.309 360.649 253.586 362.758 253.586C364.867 253.586 366.349 254.309 367.204 255.754C368.074 257.184 368.509 259.175 368.509 261.727C368.509 264.307 368.074 266.328 367.204 267.788C366.349 269.233 364.867 269.956 362.758 269.956C360.649 269.956 359.159 269.233 358.289 267.788C357.434 266.328 357.006 264.307 357.006 261.727ZM366.032 261.727C366.032 260.532 365.951 259.522 365.788 258.696C365.641 257.87 365.331 257.199 364.859 256.683C364.387 256.152 363.687 255.887 362.758 255.887C361.829 255.887 361.128 256.152 360.656 256.683C360.184 257.199 359.867 257.87 359.705 258.696C359.557 259.522 359.484 260.532 359.484 261.727C359.484 262.965 359.557 264.005 359.705 264.846C359.852 265.686 360.162 266.365 360.634 266.881C361.121 267.397 361.829 267.655 362.758 267.655C363.687 267.655 364.387 267.397 364.859 266.881C365.346 266.365 365.663 265.686 365.81 264.846C365.958 264.005 366.032 262.965 366.032 261.727ZM374.319 265.62C374.466 266.357 374.783 266.918 375.27 267.301C375.757 267.685 376.413 267.876 377.239 267.876C378.286 267.876 379.053 267.463 379.539 266.638C380.026 265.812 380.269 264.403 380.269 262.412C379.916 262.914 379.414 263.305 378.765 263.585C378.131 263.85 377.438 263.983 376.686 263.983C375.727 263.983 374.857 263.791 374.075 263.408C373.294 263.01 372.674 262.427 372.217 261.66C371.775 260.879 371.554 259.935 371.554 258.829C371.554 257.207 372.026 255.916 372.969 254.958C373.928 253.984 375.241 253.497 376.907 253.497C378.913 253.497 380.336 254.169 381.176 255.511C382.032 256.838 382.459 258.88 382.459 261.638C382.459 263.541 382.297 265.096 381.973 266.306C381.663 267.515 381.117 268.429 380.336 269.049C379.554 269.668 378.47 269.978 377.084 269.978C375.506 269.978 374.289 269.565 373.434 268.739C372.579 267.913 372.099 266.874 371.996 265.62H374.319ZM377.128 261.859C378.013 261.859 378.706 261.587 379.208 261.041C379.724 260.48 379.982 259.743 379.982 258.829C379.982 257.811 379.709 257.022 379.163 256.462C378.632 255.887 377.902 255.599 376.973 255.599C376.044 255.599 375.307 255.894 374.761 256.484C374.23 257.059 373.965 257.819 373.965 258.762C373.965 259.662 374.223 260.407 374.739 260.997C375.27 261.572 376.066 261.859 377.128 261.859Z" fill="white"/>
<path opacity="0.5" d="M400.592 264.868C400.592 265.576 400.452 266.247 400.172 266.881C399.891 267.515 399.449 268.142 398.844 268.761H406.941V270.044H397.362L397.141 269.137C397.819 268.415 398.321 267.751 398.645 267.146C398.97 266.527 399.132 265.79 399.132 264.934C399.132 264.433 399.014 263.799 398.778 263.032H396.168V261.948H398.402C398.151 261.269 397.952 260.643 397.805 260.068C397.672 259.492 397.605 258.895 397.605 258.276C397.605 257.435 397.79 256.69 398.159 256.041C398.542 255.378 399.073 254.862 399.751 254.493C400.444 254.124 401.241 253.94 402.14 253.94C403.556 253.94 404.692 254.36 405.547 255.201C406.402 256.041 406.896 257.111 407.029 258.408H405.569C405.466 257.479 405.112 256.72 404.507 256.13C403.903 255.525 403.128 255.223 402.185 255.223C401.3 255.223 400.562 255.496 399.972 256.041C399.397 256.587 399.11 257.376 399.11 258.408C399.11 258.954 399.176 259.463 399.309 259.935C399.442 260.407 399.655 261.078 399.95 261.948H404.087V263.032H400.304C400.496 263.681 400.592 264.293 400.592 264.868Z" fill="white"/>
<g filter="url(#filter3_d_1295_2247)">
<circle cx="306.331" cy="523.563" r="27.6517" fill="#E66F65"/>
</g>
<path fill-rule="evenodd" clip-rule="evenodd" d="M306.332 526.843L311.344 532.017C311.847 532.54 312.174 532.545 312.686 532.017L313.692 530.979C314.184 530.47 314.218 530.136 313.692 529.593L308.386 524.116L313.692 518.639C314.189 518.124 314.199 517.777 313.692 517.253L312.687 516.215C312.165 515.676 311.843 515.701 311.345 516.215L306.332 521.389L301.32 516.216C300.822 515.702 300.5 515.677 299.979 516.216L298.973 517.253C298.466 517.777 298.475 518.124 298.973 518.639L304.279 524.116L298.973 529.593C298.447 530.136 298.475 530.47 298.973 530.979L299.978 532.017C300.486 532.545 300.813 532.54 301.32 532.017L306.332 526.843Z" fill="white"/>
<path d="M291.174 564.763C291.174 564.161 291.312 563.621 291.589 563.144C291.873 562.666 292.253 562.294 292.731 562.029C293.215 561.757 293.743 561.622 294.315 561.622C294.97 561.622 295.551 561.784 296.058 562.108C296.571 562.427 296.943 562.881 297.173 563.471H295.961C295.801 563.147 295.58 562.905 295.297 562.745C295.014 562.586 294.686 562.507 294.315 562.507C293.908 562.507 293.545 562.598 293.226 562.781C292.908 562.964 292.657 563.226 292.474 563.568C292.297 563.911 292.209 564.309 292.209 564.763C292.209 565.217 292.297 565.615 292.474 565.957C292.657 566.3 292.908 566.565 293.226 566.754C293.545 566.937 293.908 567.028 294.315 567.028C294.686 567.028 295.014 566.949 295.297 566.789C295.58 566.63 295.801 566.388 295.961 566.064H297.173C296.943 566.654 296.571 567.108 296.058 567.426C295.551 567.745 294.97 567.904 294.315 567.904C293.737 567.904 293.209 567.771 292.731 567.506C292.253 567.235 291.873 566.86 291.589 566.382C291.312 565.904 291.174 565.365 291.174 564.763ZM298.017 565.391C298.017 564.902 298.118 564.468 298.318 564.09C298.525 563.713 298.802 563.421 299.15 563.214C299.504 563.002 299.893 562.896 300.318 562.896C300.701 562.896 301.035 562.973 301.318 563.126C301.607 563.273 301.837 563.459 302.008 563.683V562.976H303.026V567.851H302.008V567.125C301.837 567.356 301.604 567.547 301.309 567.701C301.014 567.854 300.678 567.931 300.3 567.931C299.881 567.931 299.498 567.825 299.15 567.612C298.802 567.394 298.525 567.093 298.318 566.71C298.118 566.32 298.017 565.881 298.017 565.391ZM302.008 565.409C302.008 565.073 301.937 564.781 301.796 564.533C301.66 564.285 301.48 564.096 301.256 563.967C301.032 563.837 300.79 563.772 300.53 563.772C300.271 563.772 300.029 563.837 299.805 563.967C299.581 564.09 299.398 564.276 299.256 564.524C299.12 564.766 299.053 565.055 299.053 565.391C299.053 565.727 299.12 566.022 299.256 566.276C299.398 566.53 299.581 566.724 299.805 566.86C300.035 566.99 300.277 567.055 300.53 567.055C300.79 567.055 301.032 566.99 301.256 566.86C301.48 566.73 301.66 566.541 301.796 566.294C301.937 566.04 302.008 565.745 302.008 565.409ZM306.81 562.896C307.194 562.896 307.536 562.976 307.837 563.135C308.144 563.294 308.383 563.53 308.554 563.843C308.725 564.155 308.81 564.533 308.81 564.975V567.851H307.81V565.126C307.81 564.689 307.701 564.356 307.483 564.126C307.265 563.89 306.967 563.772 306.589 563.772C306.212 563.772 305.911 563.89 305.687 564.126C305.468 564.356 305.359 564.689 305.359 565.126V567.851H304.351V562.976H305.359V563.533C305.524 563.332 305.734 563.176 305.988 563.064C306.247 562.952 306.521 562.896 306.81 562.896ZM309.761 565.409C309.761 564.907 309.861 564.468 310.062 564.09C310.268 563.707 310.551 563.412 310.911 563.206C311.271 562.999 311.684 562.896 312.15 562.896C312.74 562.896 313.226 563.037 313.61 563.321C313.999 563.598 314.262 563.996 314.397 564.515H313.309C313.22 564.273 313.079 564.085 312.884 563.949C312.69 563.813 312.445 563.745 312.15 563.745C311.737 563.745 311.407 563.893 311.159 564.188C310.917 564.477 310.796 564.884 310.796 565.409C310.796 565.934 310.917 566.344 311.159 566.639C311.407 566.934 311.737 567.081 312.15 567.081C312.734 567.081 313.12 566.825 313.309 566.311H314.397C314.256 566.807 313.99 567.202 313.601 567.497C313.212 567.786 312.728 567.931 312.15 567.931C311.684 567.931 311.271 567.827 310.911 567.621C310.551 567.409 310.268 567.114 310.062 566.736C309.861 566.353 309.761 565.91 309.761 565.409ZM319.871 565.294C319.871 565.477 319.859 565.642 319.836 565.789H316.11C316.14 566.179 316.284 566.491 316.544 566.727C316.804 566.963 317.122 567.081 317.5 567.081C318.042 567.081 318.426 566.854 318.65 566.4H319.738C319.591 566.848 319.322 567.217 318.933 567.506C318.55 567.789 318.072 567.931 317.5 567.931C317.034 567.931 316.615 567.827 316.243 567.621C315.877 567.409 315.588 567.114 315.376 566.736C315.17 566.353 315.066 565.91 315.066 565.409C315.066 564.907 315.167 564.468 315.367 564.09C315.574 563.707 315.86 563.412 316.225 563.206C316.597 562.999 317.022 562.896 317.5 562.896C317.96 562.896 318.37 562.996 318.73 563.197C319.089 563.397 319.37 563.68 319.57 564.046C319.771 564.406 319.871 564.822 319.871 565.294ZM318.818 564.975C318.812 564.604 318.679 564.306 318.42 564.082C318.16 563.857 317.839 563.745 317.455 563.745C317.107 563.745 316.81 563.857 316.562 564.082C316.314 564.3 316.167 564.598 316.119 564.975H318.818ZM321.873 561.303V567.851H320.864V561.303H321.873Z" fill="white"/>
<g filter="url(#filter4_d_1295_2247)">
<circle cx="425.786" cy="523.563" r="27.6517" fill="#67C556"/>
</g>
<path d="M434.975 513.869C434.79 513.753 434.583 513.674 434.366 513.635C434.15 513.597 433.927 513.6 433.711 513.644C433.495 513.688 433.291 513.773 433.109 513.893C432.928 514.013 432.772 514.167 432.652 514.345L423.241 528.306L418.651 524.222C418.489 524.078 418.299 523.966 418.092 523.892C417.886 523.819 417.666 523.785 417.445 523.794C417 523.81 416.58 523.997 416.278 524.311C415.975 524.626 415.815 525.043 415.833 525.472C415.85 525.9 416.044 526.304 416.371 526.595L422.397 531.957C422.397 531.957 422.57 532.101 422.65 532.151C422.835 532.266 423.042 532.346 423.259 532.385C423.476 532.423 423.699 532.42 423.915 532.376C424.13 532.332 424.335 532.247 424.517 532.127C424.698 532.006 424.854 531.853 424.974 531.675L435.47 516.104C435.59 515.926 435.673 515.727 435.713 515.518C435.753 515.31 435.75 515.096 435.704 514.888C435.658 514.68 435.57 514.483 435.445 514.309C435.32 514.134 435.16 513.984 434.975 513.869Z" fill="white"/>
<path d="M408.416 564.763C408.416 564.161 408.555 563.621 408.832 563.144C409.115 562.666 409.496 562.294 409.974 562.029C410.457 561.757 410.985 561.622 411.557 561.622C412.212 561.622 412.793 561.784 413.301 562.108C413.814 562.427 414.186 562.881 414.416 563.471H413.203C413.044 563.147 412.823 562.905 412.54 562.745C412.257 562.586 411.929 562.507 411.557 562.507C411.15 562.507 410.788 562.598 410.469 562.781C410.151 562.964 409.9 563.226 409.717 563.568C409.54 563.911 409.452 564.309 409.452 564.763C409.452 565.217 409.54 565.615 409.717 565.957C409.9 566.3 410.151 566.565 410.469 566.754C410.788 566.937 411.15 567.028 411.557 567.028C411.929 567.028 412.257 566.949 412.54 566.789C412.823 566.63 413.044 566.388 413.203 566.064H414.416C414.186 566.654 413.814 567.108 413.301 567.426C412.793 567.745 412.212 567.904 411.557 567.904C410.979 567.904 410.451 567.771 409.974 567.506C409.496 567.235 409.115 566.86 408.832 566.382C408.555 565.904 408.416 565.365 408.416 564.763ZM417.711 567.931C417.251 567.931 416.835 567.827 416.463 567.621C416.092 567.409 415.8 567.114 415.587 566.736C415.375 566.353 415.269 565.91 415.269 565.409C415.269 564.913 415.378 564.474 415.596 564.09C415.815 563.707 416.112 563.412 416.49 563.206C416.868 562.999 417.289 562.896 417.755 562.896C418.221 562.896 418.643 562.999 419.021 563.206C419.398 563.412 419.696 563.707 419.914 564.09C420.133 564.474 420.242 564.913 420.242 565.409C420.242 565.904 420.13 566.344 419.906 566.727C419.681 567.111 419.375 567.409 418.985 567.621C418.602 567.827 418.177 567.931 417.711 567.931ZM417.711 567.055C417.971 567.055 418.213 566.993 418.437 566.869C418.667 566.745 418.853 566.559 418.994 566.311C419.136 566.064 419.206 565.763 419.206 565.409C419.206 565.055 419.139 564.757 419.003 564.515C418.867 564.267 418.687 564.082 418.463 563.958C418.239 563.834 417.997 563.772 417.738 563.772C417.478 563.772 417.236 563.834 417.012 563.958C416.794 564.082 416.62 564.267 416.49 564.515C416.36 564.757 416.295 565.055 416.295 565.409C416.295 565.934 416.428 566.341 416.694 566.63C416.965 566.913 417.304 567.055 417.711 567.055ZM423.699 562.896C424.082 562.896 424.424 562.976 424.725 563.135C425.032 563.294 425.271 563.53 425.442 563.843C425.613 564.155 425.699 564.533 425.699 564.975V567.851H424.699V565.126C424.699 564.689 424.59 564.356 424.371 564.126C424.153 563.89 423.855 563.772 423.478 563.772C423.1 563.772 422.799 563.89 422.575 564.126C422.357 564.356 422.248 564.689 422.248 565.126V567.851H421.239V562.976H422.248V563.533C422.413 563.332 422.622 563.176 422.876 563.064C423.135 562.952 423.41 562.896 423.699 562.896ZM429.029 563.798H428.127V567.851H427.109V563.798H426.534V562.976H427.109V562.63C427.109 562.07 427.257 561.663 427.552 561.409C427.852 561.15 428.321 561.02 428.959 561.02V561.861C428.652 561.861 428.436 561.92 428.313 562.038C428.189 562.15 428.127 562.347 428.127 562.63V562.976H429.029V563.798ZM430.437 562.33C430.254 562.33 430.1 562.268 429.976 562.144C429.853 562.02 429.791 561.867 429.791 561.684C429.791 561.501 429.853 561.347 429.976 561.224C430.1 561.1 430.254 561.038 430.437 561.038C430.613 561.038 430.764 561.1 430.888 561.224C431.012 561.347 431.074 561.501 431.074 561.684C431.074 561.867 431.012 562.02 430.888 562.144C430.764 562.268 430.613 562.33 430.437 562.33ZM430.932 562.976V567.851H429.923V562.976H430.932ZM433.265 563.683C433.413 563.436 433.607 563.244 433.849 563.108C434.097 562.967 434.389 562.896 434.725 562.896V563.94H434.469C434.073 563.94 433.772 564.04 433.566 564.241C433.365 564.441 433.265 564.789 433.265 565.285V567.851H432.256V562.976H433.265V563.683ZM441.554 562.896C441.938 562.896 442.28 562.976 442.581 563.135C442.888 563.294 443.126 563.53 443.298 563.843C443.474 564.155 443.563 564.533 443.563 564.975V567.851H442.563V565.126C442.563 564.689 442.454 564.356 442.236 564.126C442.017 563.89 441.72 563.772 441.342 563.772C440.964 563.772 440.664 563.89 440.439 564.126C440.221 564.356 440.112 564.689 440.112 565.126V567.851H439.112V565.126C439.112 564.689 439.003 564.356 438.785 564.126C438.566 563.89 438.269 563.772 437.891 563.772C437.514 563.772 437.213 563.89 436.989 564.126C436.77 564.356 436.661 564.689 436.661 565.126V567.851H435.652V562.976H436.661V563.533C436.826 563.332 437.036 563.176 437.289 563.064C437.543 562.952 437.814 562.896 438.103 562.896C438.493 562.896 438.841 562.978 439.148 563.144C439.454 563.309 439.69 563.548 439.855 563.86C440.003 563.565 440.233 563.332 440.546 563.161C440.858 562.984 441.195 562.896 441.554 562.896Z" fill="white"/>
</g>
<g filter="url(#filter5_d_1295_2247)">
<rect x="465.604" y="366.501" width="120.561" height="107.915" rx="13.9324" fill="white" fill-opacity="0.95" shape-rendering="crispEdges"/>
</g>
<path d="M530.064 384.236C530.064 381.449 527.796 379.158 525.031 379.502C520.638 380.05 516.352 381.311 512.347 383.248C506.822 385.918 501.973 389.803 498.161 394.612C494.349 399.421 491.674 405.029 490.335 411.018C488.996 417.006 489.028 423.22 490.429 429.194C491.83 435.168 494.563 440.748 498.424 445.517C502.286 450.286 507.175 454.121 512.727 456.734C518.279 459.347 524.35 460.672 530.486 460.608C534.935 460.562 539.335 459.787 543.513 458.325C546.143 457.404 547.156 454.344 545.917 451.847C544.679 449.35 541.656 448.375 538.99 449.188C536.206 450.036 533.308 450.486 530.381 450.516C525.767 450.564 521.201 449.568 517.025 447.602C512.85 445.637 509.172 442.753 506.268 439.166C503.364 435.58 501.309 431.383 500.255 426.89C499.202 422.397 499.178 417.724 500.185 413.22C501.192 408.716 503.204 404.498 506.07 400.881C508.937 397.265 512.584 394.343 516.739 392.335C519.374 391.061 522.17 390.175 525.041 389.698C527.79 389.24 530.064 387.023 530.064 384.236Z" fill="url(#paint2_linear_1295_2247)"/>
<circle opacity="0.7" cx="530.064" cy="419.901" r="30.7918" transform="rotate(-60 530.064 419.901)" fill="#E1F3FD"/>
<path d="M525.4 415.647H519.189V418.394C519.454 418.102 519.826 417.863 520.303 417.677C520.781 417.492 521.299 417.399 521.856 417.399C522.852 417.399 523.675 417.624 524.325 418.076C524.989 418.527 525.473 419.111 525.779 419.828C526.084 420.544 526.236 421.321 526.236 422.157C526.236 423.71 525.798 424.944 524.922 425.86C524.046 426.763 522.812 427.214 521.219 427.214C520.157 427.214 519.235 427.035 518.452 426.676C517.669 426.305 517.065 425.794 516.64 425.143C516.215 424.493 515.983 423.743 515.943 422.894H519.268C519.348 423.305 519.54 423.65 519.846 423.929C520.151 424.194 520.569 424.327 521.1 424.327C521.724 424.327 522.188 424.128 522.493 423.73C522.799 423.332 522.951 422.801 522.951 422.137C522.951 421.487 522.792 420.989 522.474 420.644C522.155 420.299 521.69 420.126 521.08 420.126C520.629 420.126 520.257 420.239 519.965 420.465C519.673 420.677 519.481 420.962 519.388 421.321H516.103V412.66H525.4V415.647ZM531.779 422.953C531.978 424.002 532.589 424.526 533.611 424.526C534.314 424.526 534.812 424.214 535.104 423.59C535.396 422.967 535.542 421.951 535.542 420.544C535.25 420.956 534.852 421.274 534.347 421.5C533.843 421.726 533.279 421.838 532.655 421.838C531.805 421.838 531.049 421.666 530.385 421.321C529.722 420.962 529.197 420.438 528.812 419.748C528.441 419.044 528.255 418.195 528.255 417.2C528.255 416.217 528.454 415.361 528.852 414.631C529.264 413.901 529.841 413.337 530.584 412.939C531.341 412.541 532.23 412.342 533.252 412.342C535.217 412.342 536.59 412.952 537.373 414.173C538.157 415.394 538.548 417.193 538.548 419.569C538.548 421.294 538.389 422.721 538.07 423.849C537.765 424.964 537.241 425.814 536.497 426.398C535.767 426.982 534.765 427.274 533.491 427.274C532.482 427.274 531.62 427.075 530.903 426.676C530.199 426.278 529.655 425.754 529.27 425.103C528.899 424.453 528.686 423.736 528.633 422.953H531.779ZM533.431 419.151C533.989 419.151 534.434 418.985 534.765 418.653C535.097 418.308 535.263 417.843 535.263 417.259C535.263 416.622 535.091 416.131 534.745 415.786C534.4 415.441 533.936 415.268 533.352 415.268C532.768 415.268 532.303 415.448 531.958 415.806C531.626 416.151 531.46 416.629 531.46 417.239C531.46 417.81 531.626 418.275 531.958 418.633C532.303 418.978 532.794 419.151 533.431 419.151ZM540.086 416.343C540.086 415.268 540.391 414.439 541.002 413.855C541.625 413.271 542.428 412.979 543.411 412.979C544.393 412.979 545.189 413.271 545.8 413.855C546.41 414.439 546.716 415.268 546.716 416.343C546.716 417.419 546.41 418.248 545.8 418.832C545.189 419.416 544.393 419.708 543.411 419.708C542.428 419.708 541.625 419.416 541.002 418.832C540.391 418.248 540.086 417.419 540.086 416.343ZM553.604 413.198L545.939 427.214H542.654L550.319 413.198H553.604ZM543.391 414.97C542.754 414.97 542.435 415.428 542.435 416.343C542.435 417.246 542.754 417.697 543.391 417.697C543.696 417.697 543.935 417.584 544.107 417.359C544.28 417.133 544.366 416.795 544.366 416.343C544.366 415.428 544.041 414.97 543.391 414.97ZM549.563 424.068C549.563 422.993 549.868 422.164 550.478 421.58C551.089 420.996 551.885 420.704 552.867 420.704C553.85 420.704 554.646 420.996 555.257 421.58C555.867 422.164 556.172 422.993 556.172 424.068C556.172 425.143 555.867 425.973 555.257 426.557C554.646 427.141 553.85 427.433 552.867 427.433C551.885 427.433 551.089 427.141 550.478 426.557C549.868 425.973 549.563 425.143 549.563 424.068ZM552.848 422.694C552.542 422.694 552.303 422.807 552.131 423.033C551.972 423.259 551.892 423.604 551.892 424.068C551.892 424.971 552.21 425.422 552.848 425.422C553.153 425.422 553.392 425.309 553.564 425.084C553.737 424.858 553.823 424.519 553.823 424.068C553.823 423.617 553.737 423.278 553.564 423.053C553.392 422.814 553.153 422.694 552.848 422.694Z" fill="url(#paint3_linear_1295_2247)"/>
<g filter="url(#filter6_d_1295_2247)">
<rect x="398.361" y="97.9048" width="240.016" height="94.0156" rx="16.591" fill="url(#paint4_linear_1295_2247)"/>
</g>
<g filter="url(#filter7_d_1295_2247)">
<rect width="84.061" height="7.74246" rx="3.87123" transform="matrix(1 0 0 -1 435.968 166.481)" fill="white"/>
</g>
<g filter="url(#filter8_d_1295_2247)">
<circle cx="585.84" cy="143.807" r="21.5683" fill="#00FE9C"/>
</g>
<path d="M584.181 153.208C584.181 153.819 584.676 154.315 585.287 154.315C585.897 154.315 586.393 153.819 586.393 153.208L584.181 153.208ZM586.069 134.729C585.637 134.297 584.936 134.297 584.505 134.729L577.466 141.768C577.034 142.2 577.034 142.901 577.466 143.333C577.897 143.764 578.598 143.764 579.03 143.333L585.287 137.076L591.543 143.333C591.975 143.764 592.676 143.764 593.108 143.333C593.54 142.901 593.54 142.2 593.108 141.768L586.069 134.729ZM586.393 153.208L586.393 135.511L584.181 135.511L584.181 153.208L586.393 153.208Z" fill="white"/>
<path d="M437.295 134.647C437.295 132.096 437.723 130.105 438.578 128.674C439.448 127.229 440.938 126.506 443.047 126.506C445.155 126.506 446.638 127.229 447.493 128.674C448.363 130.105 448.798 132.096 448.798 134.647C448.798 137.228 448.363 139.248 447.493 140.708C446.638 142.154 445.155 142.876 443.047 142.876C440.938 142.876 439.448 142.154 438.578 140.708C437.723 139.248 437.295 137.228 437.295 134.647ZM446.321 134.647C446.321 133.452 446.239 132.442 446.077 131.616C445.93 130.791 445.62 130.12 445.148 129.603C444.676 129.072 443.976 128.807 443.047 128.807C442.118 128.807 441.417 129.072 440.945 129.603C440.473 130.12 440.156 130.791 439.994 131.616C439.846 132.442 439.773 133.452 439.773 134.647C439.773 135.886 439.846 136.926 439.994 137.766C440.141 138.607 440.451 139.285 440.923 139.801C441.41 140.317 442.118 140.576 443.047 140.576C443.976 140.576 444.676 140.317 445.148 139.801C445.635 139.285 445.952 138.607 446.099 137.766C446.247 136.926 446.321 135.886 446.321 134.647ZM452.816 143.075C452.359 143.075 451.975 142.92 451.666 142.611C451.356 142.301 451.201 141.918 451.201 141.46C451.201 141.003 451.356 140.62 451.666 140.31C451.975 140 452.359 139.846 452.816 139.846C453.258 139.846 453.634 140 453.944 140.31C454.254 140.62 454.409 141.003 454.409 141.46C454.409 141.918 454.254 142.301 453.944 142.611C453.634 142.92 453.258 143.075 452.816 143.075ZM456.802 134.647C456.802 132.096 457.23 130.105 458.085 128.674C458.956 127.229 460.445 126.506 462.554 126.506C464.663 126.506 466.145 127.229 467 128.674C467.87 130.105 468.306 132.096 468.306 134.647C468.306 137.228 467.87 139.248 467 140.708C466.145 142.154 464.663 142.876 462.554 142.876C460.445 142.876 458.956 142.154 458.085 140.708C457.23 139.248 456.802 137.228 456.802 134.647ZM465.828 134.647C465.828 133.452 465.747 132.442 465.585 131.616C465.437 130.791 465.127 130.12 464.655 129.603C464.184 129.072 463.483 128.807 462.554 128.807C461.625 128.807 460.924 129.072 460.452 129.603C459.981 130.12 459.663 130.791 459.501 131.616C459.354 132.442 459.28 133.452 459.28 134.647C459.28 135.886 459.354 136.926 459.501 137.766C459.649 138.607 459.958 139.285 460.43 139.801C460.917 140.317 461.625 140.576 462.554 140.576C463.483 140.576 464.184 140.317 464.655 139.801C465.142 139.285 465.459 138.607 465.607 137.766C465.754 136.926 465.828 135.886 465.828 134.647ZM470.974 134.647C470.974 132.096 471.402 130.105 472.257 128.674C473.127 127.229 474.617 126.506 476.725 126.506C478.834 126.506 480.316 127.229 481.172 128.674C482.042 130.105 482.477 132.096 482.477 134.647C482.477 137.228 482.042 139.248 481.172 140.708C480.316 142.154 478.834 142.876 476.725 142.876C474.617 142.876 473.127 142.154 472.257 140.708C471.402 139.248 470.974 137.228 470.974 134.647ZM479.999 134.647C479.999 133.452 479.918 132.442 479.756 131.616C479.609 130.791 479.299 130.12 478.827 129.603C478.355 129.072 477.655 128.807 476.725 128.807C475.796 128.807 475.096 129.072 474.624 129.603C474.152 130.12 473.835 130.791 473.673 131.616C473.525 132.442 473.451 133.452 473.451 134.647C473.451 135.886 473.525 136.926 473.673 137.766C473.82 138.607 474.13 139.285 474.602 139.801C475.088 140.317 475.796 140.576 476.725 140.576C477.655 140.576 478.355 140.317 478.827 139.801C479.314 139.285 479.631 138.607 479.778 137.766C479.926 136.926 479.999 135.886 479.999 134.647ZM488.287 138.54C488.434 139.278 488.751 139.838 489.238 140.222C489.724 140.605 490.381 140.797 491.207 140.797C492.254 140.797 493.021 140.384 493.507 139.558C493.994 138.732 494.237 137.324 494.237 135.333C493.883 135.834 493.382 136.225 492.733 136.505C492.099 136.771 491.406 136.903 490.654 136.903C489.695 136.903 488.825 136.712 488.043 136.328C487.262 135.93 486.642 135.348 486.185 134.581C485.743 133.799 485.521 132.855 485.521 131.749C485.521 130.127 485.993 128.837 486.937 127.878C487.896 126.905 489.208 126.418 490.875 126.418C492.88 126.418 494.304 127.089 495.144 128.431C496 129.758 496.427 131.801 496.427 134.559C496.427 136.461 496.265 138.017 495.941 139.226C495.631 140.435 495.085 141.35 494.304 141.969C493.522 142.589 492.438 142.898 491.052 142.898C489.474 142.898 488.257 142.485 487.402 141.659C486.546 140.834 486.067 139.794 485.964 138.54H488.287ZM491.096 134.78C491.981 134.78 492.674 134.507 493.175 133.961C493.692 133.401 493.95 132.663 493.95 131.749C493.95 130.732 493.677 129.943 493.131 129.382C492.6 128.807 491.87 128.519 490.941 128.519C490.012 128.519 489.275 128.814 488.729 129.404C488.198 129.979 487.933 130.739 487.933 131.683C487.933 132.582 488.191 133.327 488.707 133.917C489.238 134.492 490.034 134.78 491.096 134.78Z" fill="white"/>
<path opacity="0.5" d="M514.56 137.788C514.56 138.496 514.42 139.167 514.139 139.801C513.859 140.435 513.417 141.062 512.812 141.682H520.908V142.965H511.33L511.109 142.058C511.787 141.335 512.289 140.671 512.613 140.067C512.937 139.447 513.1 138.71 513.1 137.855C513.1 137.353 512.982 136.719 512.746 135.952H510.135V134.868H512.37C512.119 134.19 511.92 133.563 511.772 132.988C511.64 132.413 511.573 131.816 511.573 131.196C511.573 130.356 511.758 129.611 512.126 128.962C512.51 128.298 513.041 127.782 513.719 127.413C514.412 127.045 515.209 126.86 516.108 126.86C517.524 126.86 518.659 127.281 519.515 128.121C520.37 128.962 520.864 130.031 520.997 131.329H519.537C519.434 130.4 519.08 129.64 518.475 129.05C517.87 128.446 517.096 128.143 516.152 128.143C515.268 128.143 514.53 128.416 513.94 128.962C513.365 129.508 513.078 130.297 513.078 131.329C513.078 131.874 513.144 132.383 513.277 132.855C513.409 133.327 513.623 133.998 513.918 134.868H518.055V135.952H514.272C514.464 136.601 514.56 137.213 514.56 137.788Z" fill="white"/>
<g filter="url(#filter9_d_1295_2247)">
<rect x="61" y="292.334" width="222.802" height="175.599" rx="21.6853" fill="white" fill-opacity="0.95" shape-rendering="crispEdges"/>
</g>
<ellipse cx="85.7455" cy="317.095" rx="4.7504" ry="4.76668" fill="#E66F65"/>
<ellipse cx="102.371" cy="317.095" rx="4.7504" ry="4.76668" fill="#F2BD4F"/>
<ellipse cx="120.185" cy="317.095" rx="4.7504" ry="4.76668" fill="#67C556"/>
<g filter="url(#filter10_d_1295_2247)">
<rect x="80.9951" y="340.895" width="182.551" height="24.8544" rx="3.42819" fill="url(#paint5_linear_1295_2247)"/>
</g>
<circle cx="97.7348" cy="353.328" r="7.80705" fill="#F7FAFD"/>
<g filter="url(#filter11_d_1295_2247)">
<rect width="49.1555" height="3.4698" rx="1.7141" transform="matrix(1 0 0 -1 111.324 352.46)" fill="#F9FCFF"/>
</g>
<g filter="url(#filter12_d_1295_2247)">
<rect width="26.6018" height="3.4698" rx="1.7141" transform="matrix(1 0 0 -1 111.324 359.4)" fill="#F9FCFF"/>
</g>
<path d="M223.589 355.031C223.589 355.414 223.493 355.782 223.301 356.134C223.109 356.478 222.825 356.766 222.449 356.998C222.081 357.23 221.637 357.362 221.117 357.394V358.366H220.469V357.394C219.741 357.33 219.149 357.098 218.693 356.698C218.238 356.29 218.006 355.774 217.998 355.151H219.161C219.193 355.486 219.317 355.778 219.533 356.026C219.757 356.274 220.069 356.43 220.469 356.494V353.495C219.933 353.359 219.501 353.219 219.173 353.075C218.845 352.931 218.565 352.707 218.334 352.403C218.102 352.099 217.986 351.691 217.986 351.179C217.986 350.531 218.21 349.995 218.657 349.571C219.113 349.147 219.717 348.911 220.469 348.863V347.867H221.117V348.863C221.797 348.919 222.345 349.139 222.761 349.523C223.177 349.899 223.417 350.391 223.481 350.999H222.317C222.277 350.719 222.153 350.467 221.945 350.243C221.737 350.011 221.461 349.859 221.117 349.787V352.715C221.645 352.851 222.073 352.991 222.401 353.135C222.737 353.271 223.017 353.491 223.241 353.795C223.473 354.099 223.589 354.511 223.589 355.031ZM219.101 351.119C219.101 351.511 219.217 351.811 219.449 352.019C219.681 352.227 220.021 352.399 220.469 352.535V349.763C220.053 349.803 219.721 349.939 219.473 350.171C219.225 350.395 219.101 350.711 219.101 351.119ZM221.117 356.506C221.549 356.458 221.885 356.302 222.125 356.038C222.373 355.774 222.497 355.458 222.497 355.091C222.497 354.699 222.377 354.399 222.137 354.191C221.897 353.975 221.557 353.803 221.117 353.675V356.506ZM225.186 349.643V348.647H227.441V357.322H226.337V349.643H225.186ZM234.656 349.499L231.321 357.322H230.217L233.6 349.607H228.969V348.671H234.656V349.499ZM237.175 355.81L235.831 359.038H235.099L235.975 355.81H237.175ZM239.649 354.995C239.729 355.45 239.913 355.802 240.201 356.05C240.497 356.298 240.893 356.422 241.389 356.422C242.053 356.422 242.541 356.162 242.853 355.642C243.173 355.123 243.325 354.247 243.309 353.015C243.141 353.375 242.861 353.659 242.469 353.867C242.077 354.067 241.641 354.167 241.161 354.167C240.625 354.167 240.145 354.059 239.721 353.843C239.305 353.619 238.978 353.295 238.738 352.871C238.498 352.447 238.378 351.935 238.378 351.335C238.378 350.479 238.626 349.791 239.122 349.271C239.617 348.743 240.321 348.479 241.233 348.479C242.353 348.479 243.137 348.843 243.585 349.571C244.041 350.299 244.269 351.383 244.269 352.823C244.269 353.831 244.177 354.663 243.993 355.318C243.817 355.974 243.513 356.474 243.081 356.818C242.657 357.162 242.073 357.334 241.329 357.334C240.513 357.334 239.877 357.114 239.421 356.674C238.966 356.234 238.706 355.674 238.642 354.995H239.649ZM241.341 353.243C241.877 353.243 242.317 353.079 242.661 352.751C243.005 352.415 243.177 351.963 243.177 351.395C243.177 350.795 243.009 350.311 242.673 349.943C242.337 349.575 241.865 349.391 241.257 349.391C240.697 349.391 240.249 349.567 239.913 349.919C239.585 350.271 239.421 350.735 239.421 351.311C239.421 351.895 239.585 352.363 239.913 352.715C240.241 353.067 240.717 353.243 241.341 353.243ZM245.779 350.831C245.835 350.095 246.119 349.519 246.631 349.103C247.143 348.687 247.807 348.479 248.623 348.479C249.167 348.479 249.635 348.579 250.027 348.779C250.427 348.971 250.727 349.235 250.927 349.571C251.135 349.907 251.239 350.287 251.239 350.711C251.239 351.207 251.095 351.635 250.807 351.995C250.527 352.355 250.159 352.587 249.703 352.691V352.751C250.223 352.879 250.635 353.131 250.939 353.507C251.243 353.883 251.395 354.375 251.395 354.983C251.395 355.438 251.291 355.85 251.083 356.218C250.875 356.578 250.563 356.862 250.147 357.07C249.731 357.278 249.231 357.382 248.647 357.382C247.799 357.382 247.103 357.162 246.559 356.722C246.015 356.274 245.711 355.642 245.647 354.827H246.703C246.759 355.306 246.955 355.698 247.291 356.002C247.627 356.306 248.075 356.458 248.635 356.458C249.195 356.458 249.619 356.314 249.907 356.026C250.203 355.73 250.351 355.35 250.351 354.887C250.351 354.287 250.151 353.855 249.751 353.591C249.351 353.327 248.747 353.195 247.939 353.195H247.663V352.283H247.951C248.687 352.275 249.243 352.155 249.619 351.923C249.995 351.683 250.183 351.315 250.183 350.819C250.183 350.395 250.043 350.055 249.763 349.799C249.491 349.543 249.099 349.415 248.587 349.415C248.091 349.415 247.691 349.543 247.387 349.799C247.083 350.055 246.903 350.399 246.847 350.831H245.779ZM258.208 349.499L254.873 357.322H253.769L257.153 349.607H252.521V348.671H258.208V349.499Z" fill="white"/>
<g filter="url(#filter13_d_1295_2247)">
<rect x="80.9951" y="377.749" width="182.551" height="24.8544" rx="3.42819" fill="url(#paint6_linear_1295_2247)" fill-opacity="0.1" shape-rendering="crispEdges"/>
</g>
<g filter="url(#filter14_d_1295_2247)">
<rect x="80.9951" y="414.602" width="182.551" height="24.8544" rx="3.42819" fill="url(#paint7_linear_1295_2247)" fill-opacity="0.1" shape-rendering="crispEdges"/>
</g>
<defs>
<filter id="filter0_d_1295_2247" x="170.435" y="0.0715609" width="381.345" height="664.445" filterUnits="userSpaceOnUse" color-interpolation-filters="sRGB">
<feFlood flood-opacity="0" result="BackgroundImageFix"/>
<feColorMatrix in="SourceAlpha" type="matrix" values="0 0 0 0 0 0 0 0 0 0 0 0 0 0 0 0 0 0 127 0" result="hardAlpha"/>
<feOffset dy="9.48211"/>
<feGaussianBlur stdDeviation="23.7053"/>
<feColorMatrix type="matrix" values="0 0 0 0 0 0 0 0 0 0 0 0 0 0 0 0 0 0 0.05 0"/>
<feBlend mode="normal" in2="BackgroundImageFix" result="effect1_dropShadow_1295_2247"/>
<feBlend mode="normal" in="SourceGraphic" in2="effect1_dropShadow_1295_2247" result="shape"/>
</filter>
<filter id="filter1_b_1295_2247" x="190.013" y="10.1682" width="342.187" height="625.288" filterUnits="userSpaceOnUse" color-interpolation-filters="sRGB">
<feFlood flood-opacity="0" result="BackgroundImageFix"/>
<feGaussianBlur in="BackgroundImage" stdDeviation="13.9159"/>
<feComposite in2="SourceAlpha" operator="in" result="effect1_backgroundBlur_1295_2247"/>
<feBlend mode="normal" in="SourceGraphic" in2="effect1_backgroundBlur_1295_2247" result="shape"/>
</filter>
<filter id="filter2_f_1295_2247" x="191.892" y="141.452" width="354.47" height="183.574" filterUnits="userSpaceOnUse" color-interpolation-filters="sRGB">
<feFlood flood-opacity="0" result="BackgroundImageFix"/>
<feBlend mode="normal" in="SourceGraphic" in2="BackgroundImageFix" result="shape"/>
<feGaussianBlur stdDeviation="32.3425" result="effect1_foregroundBlur_1295_2247"/>
</filter>
<filter id="filter3_d_1295_2247" x="256.558" y="481.532" width="99.5459" height="99.5459" filterUnits="userSpaceOnUse" color-interpolation-filters="sRGB">
<feFlood flood-opacity="0" result="BackgroundImageFix"/>
<feColorMatrix in="SourceAlpha" type="matrix" values="0 0 0 0 0 0 0 0 0 0 0 0 0 0 0 0 0 0 127 0" result="hardAlpha"/>
<feOffset dy="7.74246"/>
<feGaussianBlur stdDeviation="11.0607"/>
<feColorMatrix type="matrix" values="0 0 0 0 0 0 0 0 0 0 0 0 0 0 0 0 0 0 0.05 0"/>
<feBlend mode="normal" in2="BackgroundImageFix" result="effect1_dropShadow_1295_2247"/>
<feBlend mode="normal" in="SourceGraphic" in2="effect1_dropShadow_1295_2247" result="shape"/>
</filter>
<filter id="filter4_d_1295_2247" x="376.013" y="481.532" width="99.5459" height="99.5459" filterUnits="userSpaceOnUse" color-interpolation-filters="sRGB">
<feFlood flood-opacity="0" result="BackgroundImageFix"/>
<feColorMatrix in="SourceAlpha" type="matrix" values="0 0 0 0 0 0 0 0 0 0 0 0 0 0 0 0 0 0 127 0" result="hardAlpha"/>
<feOffset dy="7.74246"/>
<feGaussianBlur stdDeviation="11.0607"/>
<feColorMatrix type="matrix" values="0 0 0 0 0 0 0 0 0 0 0 0 0 0 0 0 0 0 0.05 0"/>
<feBlend mode="normal" in2="BackgroundImageFix" result="effect1_dropShadow_1295_2247"/>
<feBlend mode="normal" in="SourceGraphic" in2="effect1_dropShadow_1295_2247" result="shape"/>
</filter>
<filter id="filter5_d_1295_2247" x="418.413" y="366.501" width="167.752" height="184.441" filterUnits="userSpaceOnUse" color-interpolation-filters="sRGB">
<feFlood flood-opacity="0" result="BackgroundImageFix"/>
<feColorMatrix in="SourceAlpha" type="matrix" values="0 0 0 0 0 0 0 0 0 0 0 0 0 0 0 0 0 0 127 0" result="hardAlpha"/>
<feMorphology radius="24.2334" operator="erode" in="SourceAlpha" result="effect1_dropShadow_1295_2247"/>
<feOffset dx="-26.7842" dy="56.1194"/>
<feGaussianBlur stdDeviation="22.3202"/>
<feComposite in2="hardAlpha" operator="out"/>
<feColorMatrix type="matrix" values="0 0 0 0 0 0 0 0 0 0 0 0 0 0 0 0 0 0 0.1 0"/>
<feBlend mode="normal" in2="BackgroundImageFix" result="effect1_dropShadow_1295_2247"/>
<feBlend mode="normal" in="SourceGraphic" in2="effect1_dropShadow_1295_2247" result="shape"/>
</filter>
<filter id="filter6_d_1295_2247" x="351.17" y="97.9048" width="287.207" height="170.542" filterUnits="userSpaceOnUse" color-interpolation-filters="sRGB">
<feFlood flood-opacity="0" result="BackgroundImageFix"/>
<feColorMatrix in="SourceAlpha" type="matrix" values="0 0 0 0 0 0 0 0 0 0 0 0 0 0 0 0 0 0 127 0" result="hardAlpha"/>
<feMorphology radius="24.2334" operator="erode" in="SourceAlpha" result="effect1_dropShadow_1295_2247"/>
<feOffset dx="-26.7842" dy="56.1194"/>
<feGaussianBlur stdDeviation="22.3202"/>
<feComposite in2="hardAlpha" operator="out"/>
<feColorMatrix type="matrix" values="0 0 0 0 0 0 0 0 0 0 0 0 0 0 0 0 0 0 0.1 0"/>
<feBlend mode="normal" in2="BackgroundImageFix" result="effect1_dropShadow_1295_2247"/>
<feBlend mode="normal" in="SourceGraphic" in2="effect1_dropShadow_1295_2247" result="shape"/>
</filter>
<filter id="filter7_d_1295_2247" x="435.968" y="158.738" width="84.061" height="26.8743" filterUnits="userSpaceOnUse" color-interpolation-filters="sRGB">
<feFlood flood-opacity="0" result="BackgroundImageFix"/>
<feColorMatrix in="SourceAlpha" type="matrix" values="0 0 0 0 0 0 0 0 0 0 0 0 0 0 0 0 0 0 127 0" result="hardAlpha"/>
<feMorphology radius="24.2334" operator="erode" in="SourceAlpha" result="effect1_dropShadow_1295_2247"/>
<feOffset dy="21.6825"/>
<feGaussianBlur stdDeviation="10.8412"/>
<feComposite in2="hardAlpha" operator="out"/>
<feColorMatrix type="matrix" values="0 0 0 0 0 0 0 0 0 0 0 0 0 0 0 0 0 0 0.08 0"/>
<feBlend mode="normal" in2="BackgroundImageFix" result="effect1_dropShadow_1295_2247"/>
<feBlend mode="normal" in="SourceGraphic" in2="effect1_dropShadow_1295_2247" result="shape"/>
</filter>
<filter id="filter8_d_1295_2247" x="531.09" y="104.541" width="87.3794" height="87.3794" filterUnits="userSpaceOnUse" color-interpolation-filters="sRGB">
<feFlood flood-opacity="0" result="BackgroundImageFix"/>
<feColorMatrix in="SourceAlpha" type="matrix" values="0 0 0 0 0 0 0 0 0 0 0 0 0 0 0 0 0 0 127 0" result="hardAlpha"/>
<feOffset dx="-11.0607" dy="4.42426"/>
<feGaussianBlur stdDeviation="11.0607"/>
<feComposite in2="hardAlpha" operator="out"/>
<feColorMatrix type="matrix" values="0 0 0 0 0 0 0 0 0 0 0 0 0 0 0 0 0 0 0.05 0"/>
<feBlend mode="normal" in2="BackgroundImageFix" result="effect1_dropShadow_1295_2247"/>
<feBlend mode="normal" in="SourceGraphic" in2="effect1_dropShadow_1295_2247" result="shape"/>
</filter>
<filter id="filter9_d_1295_2247" x="0.0637245" y="292.334" width="283.739" height="274.415" filterUnits="userSpaceOnUse" color-interpolation-filters="sRGB">
<feFlood flood-opacity="0" result="BackgroundImageFix"/>
<feColorMatrix in="SourceAlpha" type="matrix" values="0 0 0 0 0 0 0 0 0 0 0 0 0 0 0 0 0 0 127 0" result="hardAlpha"/>
<feMorphology radius="31.2916" operator="erode" in="SourceAlpha" result="effect1_dropShadow_1295_2247"/>
<feOffset dx="-34.5855" dy="72.4648"/>
<feGaussianBlur stdDeviation="28.8212"/>
<feComposite in2="hardAlpha" operator="out"/>
<feColorMatrix type="matrix" values="0 0 0 0 0 0 0 0 0 0 0 0 0 0 0 0 0 0 0.1 0"/>
<feBlend mode="normal" in2="BackgroundImageFix" result="effect1_dropShadow_1295_2247"/>
<feBlend mode="normal" in="SourceGraphic" in2="effect1_dropShadow_1295_2247" result="shape"/>
</filter>
<filter id="filter10_d_1295_2247" x="53.3071" y="340.895" width="210.239" height="75.2732" filterUnits="userSpaceOnUse" color-interpolation-filters="sRGB">
<feFlood flood-opacity="0" result="BackgroundImageFix"/>
<feColorMatrix in="SourceAlpha" type="matrix" values="0 0 0 0 0 0 0 0 0 0 0 0 0 0 0 0 0 0 127 0" result="hardAlpha"/>
<feMorphology radius="18.7775" operator="erode" in="SourceAlpha" result="effect1_dropShadow_1295_2247"/>
<feOffset dx="-20.7541" dy="43.4848"/>
<feGaussianBlur stdDeviation="12.8557"/>
<feComposite in2="hardAlpha" operator="out"/>
<feColorMatrix type="matrix" values="0 0 0 0 0.394434 0 0 0 0 0.226042 0 0 0 0 0.775 0 0 0 0.16 0"/>
<feBlend mode="normal" in2="BackgroundImageFix" result="effect1_dropShadow_1295_2247"/>
<feBlend mode="normal" in="SourceGraphic" in2="effect1_dropShadow_1295_2247" result="shape"/>
</filter>
<filter id="filter11_d_1295_2247" x="111.324" y="348.991" width="49.1553" height="3.46973" filterUnits="userSpaceOnUse" color-interpolation-filters="sRGB">
<feFlood flood-opacity="0" result="BackgroundImageFix"/>
<feColorMatrix in="SourceAlpha" type="matrix" values="0 0 0 0 0 0 0 0 0 0 0 0 0 0 0 0 0 0 127 0" result="hardAlpha"/>
<feMorphology radius="18.7775" operator="erode" in="SourceAlpha" result="effect1_dropShadow_1295_2247"/>
<feOffset dy="16.8009"/>
<feGaussianBlur stdDeviation="8.40047"/>
<feComposite in2="hardAlpha" operator="out"/>
<feColorMatrix type="matrix" values="0 0 0 0 0 0 0 0 0 0 0 0 0 0 0 0 0 0 0.08 0"/>
<feBlend mode="normal" in2="BackgroundImageFix" result="effect1_dropShadow_1295_2247"/>
<feBlend mode="normal" in="SourceGraphic" in2="effect1_dropShadow_1295_2247" result="shape"/>
</filter>
<filter id="filter12_d_1295_2247" x="111.324" y="355.93" width="26.6016" height="3.46973" filterUnits="userSpaceOnUse" color-interpolation-filters="sRGB">
<feFlood flood-opacity="0" result="BackgroundImageFix"/>
<feColorMatrix in="SourceAlpha" type="matrix" values="0 0 0 0 0 0 0 0 0 0 0 0 0 0 0 0 0 0 127 0" result="hardAlpha"/>
<feMorphology radius="18.7775" operator="erode" in="SourceAlpha" result="effect1_dropShadow_1295_2247"/>
<feOffset dy="16.8009"/>
<feGaussianBlur stdDeviation="8.40047"/>
<feComposite in2="hardAlpha" operator="out"/>
<feColorMatrix type="matrix" values="0 0 0 0 0 0 0 0 0 0 0 0 0 0 0 0 0 0 0.08 0"/>
<feBlend mode="normal" in2="BackgroundImageFix" result="effect1_dropShadow_1295_2247"/>
<feBlend mode="normal" in="SourceGraphic" in2="effect1_dropShadow_1295_2247" result="shape"/>
</filter>
<filter id="filter13_d_1295_2247" x="53.3071" y="377.749" width="210.239" height="75.2732" filterUnits="userSpaceOnUse" color-interpolation-filters="sRGB">
<feFlood flood-opacity="0" result="BackgroundImageFix"/>
<feColorMatrix in="SourceAlpha" type="matrix" values="0 0 0 0 0 0 0 0 0 0 0 0 0 0 0 0 0 0 127 0" result="hardAlpha"/>
<feMorphology radius="18.7775" operator="erode" in="SourceAlpha" result="effect1_dropShadow_1295_2247"/>
<feOffset dx="-20.7541" dy="43.4848"/>
<feGaussianBlur stdDeviation="12.8557"/>
<feComposite in2="hardAlpha" operator="out"/>
<feColorMatrix type="matrix" values="0 0 0 0 0.394434 0 0 0 0 0.226042 0 0 0 0 0.775 0 0 0 0.16 0"/>
<feBlend mode="normal" in2="BackgroundImageFix" result="effect1_dropShadow_1295_2247"/>
<feBlend mode="normal" in="SourceGraphic" in2="effect1_dropShadow_1295_2247" result="shape"/>
</filter>
<filter id="filter14_d_1295_2247" x="53.3071" y="414.602" width="210.239" height="75.2732" filterUnits="userSpaceOnUse" color-interpolation-filters="sRGB">
<feFlood flood-opacity="0" result="BackgroundImageFix"/>
<feColorMatrix in="SourceAlpha" type="matrix" values="0 0 0 0 0 0 0 0 0 0 0 0 0 0 0 0 0 0 127 0" result="hardAlpha"/>
<feMorphology radius="18.7775" operator="erode" in="SourceAlpha" result="effect1_dropShadow_1295_2247"/>
<feOffset dx="-20.7541" dy="43.4848"/>
<feGaussianBlur stdDeviation="12.8557"/>
<feComposite in2="hardAlpha" operator="out"/>
<feColorMatrix type="matrix" values="0 0 0 0 0.394434 0 0 0 0 0.226042 0 0 0 0 0.775 0 0 0 0.16 0"/>
<feBlend mode="normal" in2="BackgroundImageFix" result="effect1_dropShadow_1295_2247"/>
<feBlend mode="normal" in="SourceGraphic" in2="effect1_dropShadow_1295_2247" result="shape"/>
</filter>
<linearGradient id="paint0_linear_1295_2247" x1="359.556" y1="582.278" x2="367.107" y2="616.898" gradientUnits="userSpaceOnUse">
<stop stop-color="#64FFFF"/>
<stop offset="1" stop-color="#8155FF"/>
</linearGradient>
<linearGradient id="paint1_linear_1295_2247" x1="227.062" y1="21.9558" x2="554.962" y2="637.443" gradientUnits="userSpaceOnUse">
<stop stop-color="#AFB5FE"/>
<stop offset="1" stop-color="#6B5EFF"/>
</linearGradient>
<linearGradient id="paint2_linear_1295_2247" x1="471.596" y1="433.032" x2="571.049" y2="461.046" gradientUnits="userSpaceOnUse">
<stop stop-color="#AFB5FE"/>
<stop offset="1" stop-color="#6B5EFF"/>
</linearGradient>
<linearGradient id="paint3_linear_1295_2247" x1="514.33" y1="403.87" x2="521.74" y2="445.211" gradientUnits="userSpaceOnUse">
<stop stop-color="#AFB5FE"/>
<stop offset="1" stop-color="#6B5EFF"/>
</linearGradient>
<linearGradient id="paint4_linear_1295_2247" x1="424.167" y1="123.593" x2="455.518" y2="273.854" gradientUnits="userSpaceOnUse">
<stop stop-color="#FFB45C"/>
<stop offset="1" stop-color="#F7931E"/>
</linearGradient>
<linearGradient id="paint5_linear_1295_2247" x1="81.2448" y1="339.776" x2="82.4951" y2="375.244" gradientUnits="userSpaceOnUse">
<stop stop-color="#AFB5FE"/>
<stop offset="1" stop-color="#6B5EFF"/>
</linearGradient>
<linearGradient id="paint6_linear_1295_2247" x1="81.2448" y1="376.63" x2="82.4951" y2="412.098" gradientUnits="userSpaceOnUse">
<stop stop-color="#5FCAE1"/>
<stop offset="1" stop-color="#0094FF"/>
</linearGradient>
<linearGradient id="paint7_linear_1295_2247" x1="81.2448" y1="413.483" x2="82.4951" y2="448.951" gradientUnits="userSpaceOnUse">
<stop stop-color="#5FCAE1"/>
<stop offset="1" stop-color="#0094FF"/>
</linearGradient>
</defs>
</svg>
