<svg width="619" height="546" viewBox="0 0 619 546" fill="none" xmlns="http://www.w3.org/2000/svg">
<g filter="url(#filter0_bd_1941_1231)">
<g clip-path="url(#clip0_1941_1231)">
<rect x="57" y="6" width="508" height="561" rx="20.5118" fill="#F1EDF5"/>
<rect x="57" y="-11" width="99" height="578" rx="11.721" fill="#6936F2"/>
<rect opacity="0.7" x="190.834" y="36.459" width="103.376" height="19.383" rx="9.69148" fill="white"/>
<rect opacity="0.7" x="307.133" y="36.459" width="59.9949" height="19.383" rx="9.69148" fill="white"/>
<g filter="url(#filter1_d_1941_1231)">
<rect x="78" y="103" width="90.2099" height="21.5995" rx="10.7998" fill="#67C456"/>
</g>
<g filter="url(#filter2_d_1941_1231)">
<rect x="78" y="146.6" width="53" height="7" rx="3.5" fill="white"/>
</g>
<g filter="url(#filter3_d_1941_1231)">
<rect x="78" y="175.6" width="53" height="7" rx="3.5" fill="white"/>
</g>
<rect x="82" y="500" width="52.093" height="18.4231" rx="9.21157" fill="#E66F65"/>
<path d="M84.7214 57.11V59.8415C84.7214 60.2845 84.3656 60.6435 83.9267 60.6435H83.6607C83.1486 60.6435 82.7363 60.2274 82.7363 59.7107V49.8483C82.7363 49.3013 83.1752 48.855 83.7205 48.855H84.1561C84.4687 48.855 84.7214 49.11 84.7214 49.4255C85.2201 48.9422 85.8286 48.6973 86.5568 48.6973C89.2667 48.6973 90.6233 50.1838 90.6233 53.157C90.6233 54.5429 90.2475 55.61 89.4994 56.3583C88.7513 57.1066 87.7272 57.4825 86.4304 57.4825C85.802 57.4791 85.2334 57.355 84.7214 57.11ZM84.7214 50.7946V55.3046C85.0805 55.5999 85.5027 55.7442 85.9849 55.7442C86.8992 55.7442 87.5576 55.5228 87.9566 55.0832C88.3556 54.6436 88.5551 53.9456 88.5551 52.9959C88.5551 51.9825 88.3556 51.2677 87.9599 50.8516C87.5642 50.4389 86.9059 50.2308 85.9915 50.2308C85.516 50.2342 85.0904 50.4221 84.7214 50.7946Z" fill="white"/>
<path d="M96.2131 56.3419C96.0336 56.6406 95.721 56.8856 95.2722 57.0735C94.8233 57.2614 94.3578 57.3587 93.8723 57.3587C92.9579 57.3587 92.2364 57.1272 91.7144 56.6641C91.189 56.201 90.9297 55.5466 90.9297 54.6976C90.9297 53.7044 91.2988 52.9258 92.0369 52.3654C92.7751 51.805 93.8258 51.5232 95.1857 51.5232C95.4185 51.5232 95.6944 51.5634 96.0103 51.644C96.0103 50.6339 95.3786 50.1305 94.1117 50.1305C93.6861 50.1305 93.2971 50.1708 92.9513 50.2547C92.539 50.352 92.1267 50.1071 92.0136 49.6943C91.8906 49.248 92.15 48.7816 92.5955 48.6608C93.0943 48.5232 93.6429 48.4561 94.2481 48.4561C95.5448 48.4561 96.4958 48.7547 97.0976 49.3487C97.6994 49.946 98.002 51.0735 98.002 52.7346V54.5701C98.002 55.7144 98.2281 56.4325 98.6836 56.7245C98.5207 57.0131 98.3378 57.1909 98.135 57.258C97.9322 57.3252 97.7027 57.3587 97.4434 57.3587C97.1574 57.3587 96.9014 57.2513 96.672 57.0366C96.4459 56.8252 96.2929 56.5903 96.2131 56.3419ZM96.0203 53.1607C95.6811 53.0903 95.4284 53.0567 95.2589 53.0567C93.6928 53.0567 92.9081 53.5735 92.9081 54.6104C92.9081 55.3789 93.3503 55.7648 94.2348 55.7648C95.4251 55.7648 96.0203 55.1641 96.0203 53.9628V53.1607Z" fill="white"/>
<path d="M102.174 58.657C101.961 59.2274 101.509 59.7039 100.814 60.0798C100.362 60.3248 99.8628 60.4892 99.3142 60.5764C98.8254 60.6536 98.3799 60.2711 98.3799 59.7711C98.3799 59.2912 98.7357 58.8885 99.2045 58.8281C100.185 58.704 100.674 58.3315 100.674 57.714C100.674 57.2006 100.461 56.4154 100.039 55.3583L97.7548 49.6402C97.5752 49.1906 97.9044 48.6973 98.3832 48.6973H98.739C99.1579 48.6973 99.5337 48.9557 99.6866 49.3483L101.755 54.6268L103.607 49.3617C103.746 48.9624 104.122 48.6973 104.541 48.6973H105.133C105.502 48.6973 105.758 49.0697 105.628 49.4187L102.174 58.657Z" fill="white"/>
<path d="M106.643 50.3082C106.217 50.3082 105.875 49.9592 105.875 49.533V49.5263C105.875 49.07 106.241 48.6975 106.696 48.6975H106.859V47.6841C106.859 47.2445 107.132 46.8485 107.541 46.6975L108.04 46.5129C108.429 46.3686 108.844 46.6606 108.844 47.08V48.7008H110.36C110.813 48.7008 111.178 49.07 111.178 49.5263C111.178 49.9592 110.829 50.3116 110.4 50.3116H109.4C109.094 50.3116 108.844 50.5632 108.844 50.872V54.0699C108.844 54.684 108.941 55.1169 109.13 55.372C109.32 55.627 109.656 55.7511 110.131 55.7511C110.344 55.7511 110.547 55.7243 110.746 55.674C111.109 55.58 111.464 55.8485 111.464 56.2277V56.486C111.464 56.9391 111.132 57.3183 110.686 57.3753C110.344 57.4189 109.948 57.4424 109.493 57.4424C108.645 57.4424 107.996 57.2008 107.541 56.7176C107.085 56.2344 106.859 55.5465 106.859 54.6538V50.5263C106.859 50.4055 106.763 50.3082 106.643 50.3082Z" fill="white"/>
<path d="M117.338 49.7245C117.151 50.1003 116.732 50.3017 116.33 50.1977C116.16 50.154 115.981 50.1305 115.798 50.1305C115.339 50.1305 114.93 50.342 114.571 50.7648C114.215 51.1876 114.036 51.701 114.036 52.3117V56.5198C114.036 56.8956 113.733 57.201 113.361 57.201H112.819C112.393 57.201 112.051 56.852 112.051 56.4258V49.4493C112.051 48.9896 112.42 48.6171 112.875 48.6171H113.284C113.7 48.6171 114.036 48.9561 114.036 49.3755V49.4024C114.591 48.7715 115.329 48.4561 116.25 48.4561C116.543 48.4561 116.806 48.4762 117.042 48.5131C117.451 48.5802 117.677 49.0299 117.494 49.4057L117.338 49.7245Z" fill="white"/>
<path d="M118.976 56.3687V50.6304C118.976 50.4257 118.81 50.2579 118.607 50.2579C118.208 50.2579 117.889 49.9324 117.889 49.5331V49.3116C117.889 48.9291 118.198 48.617 118.577 48.617H120.273C120.665 48.617 120.984 48.9391 120.984 49.3351V56.4928C120.984 56.8821 120.672 57.2009 120.283 57.2009H119.794C119.342 57.1975 118.976 56.8284 118.976 56.3687ZM120 45.2915C120.319 45.2915 120.589 45.4056 120.815 45.6304C121.041 45.8586 121.151 46.1304 121.151 46.4526C121.151 46.7747 121.037 47.0465 120.815 47.2747C120.589 47.5029 120.319 47.6136 120 47.6136C119.681 47.6136 119.412 47.4996 119.185 47.2747C118.959 47.0465 118.85 46.7747 118.85 46.4526C118.85 46.1304 118.963 45.8586 119.185 45.6304C119.412 45.4056 119.684 45.2915 120 45.2915Z" fill="white"/>
<path d="M121.646 52.8079C121.646 51.4992 122.022 50.432 122.77 49.6099C123.518 48.7878 124.509 48.375 125.736 48.375C127.026 48.375 128.031 48.771 128.745 49.5596C129.46 50.3515 129.816 51.432 129.816 52.8045C129.816 54.1736 129.454 55.2575 128.725 56.0663C127.997 56.8716 127 57.2777 125.736 57.2777C124.446 57.2777 123.442 56.8716 122.724 56.0562C122.006 55.2408 121.646 54.1569 121.646 52.8079ZM123.711 52.8079C123.711 54.6971 124.386 55.6434 125.736 55.6434C126.355 55.6434 126.847 55.3985 127.209 54.9052C127.572 54.4153 127.755 53.7139 127.755 52.8045C127.755 50.9388 127.083 50.0092 125.74 50.0092C125.121 50.0092 124.629 50.2542 124.263 50.7475C123.894 51.2374 123.711 51.9253 123.711 52.8079Z" fill="white"/>
<path d="M130.371 50.3082C129.972 50.3082 129.646 49.9827 129.646 49.5767V49.3451C129.646 48.9861 129.932 48.6975 130.288 48.6975H130.631V47.58C130.631 47.2008 130.863 46.8619 131.219 46.731L131.811 46.5129C132.203 46.3686 132.619 46.6606 132.619 47.08V48.6941H134.198C134.614 48.6941 134.95 49.033 134.95 49.4525V49.6606C134.95 50.0163 134.664 50.3015 134.315 50.3015H133.148C132.855 50.3015 132.616 50.5431 132.616 50.8384V54.0599C132.616 54.674 132.712 55.1069 132.902 55.3619C133.091 55.6169 133.427 55.7411 133.903 55.7411C134.175 55.7411 134.438 55.6975 134.691 55.6102C134.957 55.5196 135.236 55.7176 135.236 56.0028V56.6236C135.236 56.976 134.986 57.278 134.641 57.335C134.258 57.3988 133.803 57.429 133.267 57.429C132.42 57.429 131.771 57.1874 131.316 56.7042C130.86 56.2209 130.634 55.533 130.634 54.6404V50.57C130.634 50.4257 130.518 50.3082 130.371 50.3082Z" fill="white"/>
<path d="M110.262 61.7071V62.697C110.262 62.7675 110.205 62.8245 110.136 62.8245H109.936C109.753 62.8245 109.604 62.6735 109.604 62.4889V59.2205C109.604 59.0259 109.76 58.8681 109.953 58.8681H110.172C110.219 58.8681 110.259 58.9084 110.259 58.9554V58.9621C110.259 58.999 110.298 59.0192 110.328 58.9957C110.481 58.8749 110.661 58.8145 110.867 58.8145C111.765 58.8145 112.214 59.3145 112.214 60.3111C112.214 60.7775 112.091 61.1332 111.841 61.3849C111.592 61.6366 111.253 61.7608 110.824 61.7608C110.641 61.7608 110.471 61.7272 110.318 61.6634C110.292 61.6534 110.262 61.6769 110.262 61.7071ZM110.262 59.5829V61.0359C110.262 61.0493 110.269 61.0628 110.278 61.0695C110.395 61.1567 110.528 61.2037 110.681 61.2037C110.983 61.2037 111.203 61.1299 111.336 60.9856C111.469 60.8413 111.535 60.6098 111.535 60.2943C111.535 59.9587 111.469 59.7205 111.339 59.5829C111.206 59.4453 110.99 59.3782 110.687 59.3782C110.535 59.3782 110.398 59.4353 110.278 59.5494C110.265 59.5594 110.262 59.5695 110.262 59.5829Z" fill="white"/>
<path d="M114.285 61.469C114.271 61.4421 114.235 61.4388 114.215 61.4623C114.152 61.5361 114.062 61.5965 113.946 61.6468C113.796 61.7106 113.643 61.7408 113.48 61.7408C113.178 61.7408 112.938 61.6636 112.765 61.5126C112.592 61.3616 112.506 61.1435 112.506 60.8616C112.506 60.5327 112.629 60.2744 112.872 60.0898C113.114 59.9052 113.463 59.8113 113.916 59.8113C113.979 59.8113 114.052 59.8213 114.135 59.8381C114.165 59.8448 114.192 59.8213 114.188 59.7911C114.165 59.4958 113.956 59.3482 113.563 59.3482C113.357 59.3482 113.178 59.3784 113.028 59.4354C112.981 59.4522 112.931 59.4287 112.918 59.3817L112.868 59.2072C112.828 59.0596 112.912 58.9052 113.058 58.865C113.224 58.818 113.407 58.7979 113.606 58.7979C114.035 58.7979 114.351 58.8952 114.551 59.0932C114.75 59.2911 114.85 59.6636 114.85 60.214V60.8213C114.85 61.1737 114.916 61.4052 115.046 61.5126C115.063 61.526 115.066 61.5529 115.056 61.5697C115.006 61.6435 114.953 61.6905 114.897 61.7106C114.83 61.7341 114.754 61.7442 114.667 61.7442C114.574 61.7442 114.488 61.7072 114.411 61.6368C114.355 61.5797 114.311 61.526 114.285 61.469ZM114.192 60.3817C114.192 60.3616 114.178 60.3448 114.158 60.3381C114.062 60.3213 113.992 60.3113 113.939 60.3113C113.42 60.3113 113.161 60.4824 113.161 60.8247C113.161 61.1066 113.337 61.2307 113.693 61.2039C113.976 61.1804 114.192 60.9388 114.192 60.6502V60.3817Z" fill="white"/>
<path d="M116.584 62.1467C116.514 62.3346 116.364 62.4924 116.131 62.6165C115.952 62.7138 115.752 62.7709 115.526 62.7944C115.417 62.8044 115.323 62.7206 115.323 62.6098V62.4655C115.323 62.3313 115.427 62.2172 115.56 62.2038C115.909 62.1669 116.085 62.0427 116.085 61.8313C116.085 61.6602 116.015 61.4018 115.875 61.0494L115.071 59.0326C115.034 58.942 115.101 58.8447 115.197 58.8447H115.463C115.589 58.8447 115.706 58.9219 115.752 59.0427L116.401 60.7004C116.414 60.7373 116.387 60.7373 116.401 60.7004L117.069 59.0326C117.109 58.9186 117.215 58.8447 117.335 58.8447H117.398C117.601 58.8447 117.744 59.0494 117.671 59.2441L116.584 62.1467Z" fill="white"/>
<path d="M121.354 61.7108C121.281 61.7108 121.225 61.6504 121.225 61.58V59.929C121.225 59.5565 121.058 59.3686 120.726 59.3686C120.626 59.3686 120.533 59.3988 120.443 59.4558C120.377 59.4994 120.327 59.5464 120.287 59.5968C120.264 59.6303 120.25 59.6706 120.25 59.7109V61.5498C120.25 61.637 120.181 61.7108 120.091 61.7108H119.735C119.655 61.7108 119.592 61.6471 119.592 61.5666V59.8283C119.592 59.6874 119.549 59.5766 119.462 59.4961C119.376 59.4122 119.256 59.3719 119.1 59.3719C119.017 59.3719 118.927 59.4021 118.831 59.4659C118.764 59.5095 118.708 59.5565 118.668 59.6035C118.638 59.6404 118.621 59.684 118.621 59.7343V61.5666C118.621 61.6471 118.555 61.7142 118.475 61.7142H118.096C118.023 61.7142 117.963 61.6538 117.963 61.58V59.0699C117.963 58.9592 118.053 58.8686 118.162 58.8686H118.299C118.372 58.8686 118.438 58.9088 118.472 58.9726C118.508 59.0431 118.598 59.0632 118.658 59.0129C118.821 58.882 119.02 58.8149 119.256 58.8149C119.609 58.8149 119.881 58.9055 120.071 59.09C120.088 59.1068 120.114 59.1068 120.131 59.09C120.211 59.0095 120.317 58.9458 120.447 58.8954C120.593 58.8384 120.743 58.8115 120.889 58.8115C121.201 58.8115 121.448 58.9021 121.62 59.0833C121.793 59.2645 121.883 59.5129 121.883 59.8317V61.5397C121.883 61.6303 121.81 61.7075 121.717 61.7075H121.354V61.7108Z" fill="white"/>
<path d="M124.697 60.4659H122.848C122.825 60.4659 122.802 60.4861 122.805 60.5129C122.825 60.7176 122.901 60.8787 123.034 60.9961C123.177 61.1203 123.367 61.1841 123.606 61.1841C123.846 61.1841 124.042 61.1337 124.188 61.033C124.245 60.9928 124.324 61.0163 124.354 61.0767L124.481 61.3283C124.521 61.4055 124.491 61.4995 124.418 61.5431C124.195 61.674 123.889 61.7377 123.51 61.7377C123.081 61.7377 122.742 61.6102 122.489 61.3552C122.24 61.1002 122.113 60.7478 122.113 60.2914C122.113 59.8451 122.25 59.4794 122.526 59.2042C122.802 58.9257 123.131 58.7881 123.513 58.7881C123.922 58.7881 124.248 58.9122 124.497 59.1572C124.743 59.4022 124.87 59.7176 124.87 60.0968C124.87 60.1572 124.86 60.2411 124.84 60.3451C124.826 60.4156 124.767 60.4659 124.697 60.4659ZM122.881 59.9693H124.161C124.188 59.9693 124.208 59.9458 124.205 59.919C124.148 59.5364 123.922 59.3451 123.526 59.3451C123.167 59.3451 122.938 59.5364 122.841 59.9156C122.831 59.9391 122.851 59.9693 122.881 59.9693Z" fill="white"/>
<path d="M126.963 61.7608C126.893 61.7608 126.837 61.7037 126.837 61.6333V60.1165C126.837 59.8749 126.79 59.697 126.697 59.5863C126.604 59.4755 126.455 59.4185 126.245 59.4185C126.149 59.4185 126.046 59.4453 125.936 59.5024C125.833 59.5561 125.75 59.6198 125.69 59.6937C125.683 59.7004 125.68 59.7104 125.68 59.7205V61.5997C125.68 61.6869 125.61 61.7608 125.52 61.7608H125.154C125.081 61.7608 125.021 61.7004 125.021 61.6265V59.0661C125.021 58.9856 125.088 58.9185 125.168 58.9185H125.397C125.457 58.9185 125.51 58.9521 125.537 59.0091L125.59 59.1266C125.603 59.1534 125.637 59.1601 125.66 59.14C125.836 58.9588 126.085 58.8682 126.408 58.8682C126.744 58.8682 127.007 58.9688 127.199 59.1735C127.392 59.3749 127.489 59.6601 127.489 60.0225V61.6265C127.489 61.7037 127.429 61.7641 127.352 61.7641H126.963V61.7608Z" fill="white"/>
<path d="M127.948 59.4355H127.795C127.722 59.4355 127.662 59.3751 127.662 59.3013V59.053C127.662 58.9691 127.729 58.902 127.812 58.902H127.945C127.968 58.902 127.988 58.8819 127.988 58.8584V58.4355C127.988 58.3684 128.028 58.308 128.091 58.2845L128.473 58.1436C128.557 58.1134 128.643 58.1738 128.643 58.2644V58.8617C128.643 58.8852 128.663 58.9053 128.686 58.9053H129.281C129.355 58.9053 129.418 58.9657 129.418 59.0429V59.2812C129.418 59.3684 129.348 59.4389 129.261 59.4389H128.69C128.666 59.4389 128.646 59.459 128.646 59.4825V60.6839C128.646 60.8886 128.676 61.0295 128.739 61.1167C128.823 61.2275 128.989 61.2644 129.238 61.2308C129.315 61.2208 129.351 61.204 129.418 61.1671C129.448 61.1503 129.514 61.157 129.514 61.1906V61.6033C129.514 61.6771 129.461 61.7443 129.391 61.7577C129.251 61.7879 129.075 61.8047 128.862 61.8047C128.583 61.8047 128.367 61.7241 128.214 61.5631C128.064 61.402 127.988 61.1738 127.988 60.8785V59.4825C127.991 59.4557 127.971 59.4355 127.948 59.4355Z" fill="white"/>
<path d="M129.822 61.4018L129.938 61.14C129.968 61.0695 130.055 61.0461 130.118 61.0863C130.284 61.187 130.467 61.2373 130.663 61.2373C130.919 61.2373 131.045 61.1467 131.045 60.9622C131.045 60.8548 131.005 60.7642 130.929 60.6971C130.853 60.6266 130.703 60.5461 130.48 60.4521C129.995 60.2474 129.752 59.9622 129.752 59.5964C129.752 59.3514 129.845 59.1602 130.031 59.0226C130.217 58.885 130.454 58.8179 130.743 58.8179C130.989 58.8179 131.225 58.8649 131.448 58.9588C131.518 58.989 131.551 59.0662 131.524 59.1367L131.441 59.3648C131.411 59.4454 131.321 59.4789 131.245 59.4387C131.119 59.3749 130.966 59.3414 130.779 59.3414C130.55 59.3414 130.434 59.432 130.434 59.6165C130.434 59.6904 130.47 59.7541 130.547 59.8145C130.623 59.8716 130.783 59.9521 131.032 60.0494C131.278 60.1467 131.458 60.2675 131.567 60.4051C131.677 60.5461 131.73 60.7138 131.73 60.9118C131.73 61.1769 131.634 61.3816 131.441 61.5326C131.248 61.6836 130.982 61.7608 130.65 61.7608C130.464 61.7608 130.311 61.744 130.198 61.7138C130.111 61.6903 130.008 61.6501 129.888 61.5897C129.822 61.5595 129.792 61.4722 129.822 61.4018Z" fill="white"/>
<g opacity="0.6" filter="url(#filter4_d_1941_1231)">
<rect x="191" y="325" width="201.436" height="178.805" rx="8.89393" fill="#03011C"/>
</g>
<g filter="url(#filter5_d_1941_1231)">
<rect x="215.732" y="391.997" width="151.077" height="21.6056" rx="2.54112" fill="url(#paint0_linear_1941_1231)"/>
</g>
<g filter="url(#filter6_d_1941_1231)">
<rect width="40.6803" height="3.01625" rx="1.27056" transform="matrix(1 0 0 -1 225 401.016)" fill="#F9FCFF"/>
</g>
<g filter="url(#filter7_d_1941_1231)">
<rect width="22.0152" height="3.01625" rx="1.27056" transform="matrix(1 0 0 -1 225 407.049)" fill="#F9FCFF"/>
</g>
<path d="M333.195 404.278C333.195 404.562 333.124 404.835 332.981 405.096C332.839 405.351 332.629 405.564 332.35 405.736C332.077 405.908 331.748 406.006 331.363 406.03V406.75H330.882V406.03C330.343 405.982 329.904 405.811 329.566 405.514C329.228 405.212 329.056 404.829 329.05 404.367H329.913C329.937 404.616 330.029 404.832 330.189 405.016C330.355 405.2 330.586 405.315 330.882 405.363V403.139C330.485 403.039 330.165 402.935 329.922 402.828C329.679 402.721 329.471 402.555 329.299 402.33C329.127 402.105 329.041 401.802 329.041 401.423C329.041 400.943 329.207 400.545 329.54 400.231C329.877 399.917 330.325 399.742 330.882 399.706V398.968H331.363V399.706C331.867 399.748 332.273 399.911 332.581 400.196C332.89 400.474 333.067 400.839 333.115 401.289H332.252C332.223 401.082 332.131 400.895 331.976 400.729C331.822 400.557 331.618 400.445 331.363 400.391V402.561C331.754 402.662 332.071 402.766 332.314 402.873C332.563 402.973 332.771 403.136 332.937 403.362C333.109 403.587 333.195 403.892 333.195 404.278ZM329.869 401.378C329.869 401.669 329.955 401.891 330.127 402.045C330.298 402.2 330.55 402.327 330.882 402.428V400.373C330.574 400.403 330.328 400.504 330.144 400.676C329.96 400.842 329.869 401.076 329.869 401.378ZM331.363 405.372C331.683 405.336 331.932 405.221 332.11 405.025C332.294 404.829 332.386 404.595 332.386 404.322C332.386 404.032 332.297 403.809 332.119 403.655C331.941 403.495 331.689 403.368 331.363 403.273V405.372ZM335.632 404.251C335.692 404.589 335.828 404.85 336.042 405.034C336.261 405.218 336.554 405.31 336.922 405.31C337.414 405.31 337.776 405.117 338.007 404.731C338.244 404.346 338.357 403.697 338.345 402.784C338.221 403.05 338.013 403.261 337.723 403.415C337.432 403.563 337.109 403.637 336.753 403.637C336.356 403.637 336 403.557 335.686 403.397C335.378 403.231 335.134 402.991 334.957 402.677C334.779 402.363 334.69 401.983 334.69 401.538C334.69 400.904 334.874 400.394 335.241 400.009C335.609 399.617 336.131 399.422 336.806 399.422C337.637 399.422 338.218 399.692 338.55 400.231C338.888 400.771 339.057 401.574 339.057 402.641C339.057 403.388 338.988 404.005 338.852 404.491C338.722 404.977 338.496 405.348 338.176 405.603C337.862 405.858 337.429 405.985 336.878 405.985C336.273 405.985 335.801 405.822 335.463 405.496C335.126 405.17 334.933 404.755 334.885 404.251H335.632ZM336.887 402.953C337.284 402.953 337.61 402.831 337.865 402.588C338.12 402.339 338.247 402.004 338.247 401.583C338.247 401.138 338.123 400.78 337.874 400.507C337.625 400.234 337.275 400.098 336.824 400.098C336.409 400.098 336.077 400.228 335.828 400.489C335.585 400.75 335.463 401.094 335.463 401.521C335.463 401.954 335.585 402.3 335.828 402.561C336.071 402.822 336.424 402.953 336.887 402.953ZM340.585 406.03C340.431 406.03 340.301 405.977 340.194 405.87C340.087 405.763 340.034 405.633 340.034 405.479C340.034 405.324 340.087 405.194 340.194 405.087C340.301 404.98 340.431 404.927 340.585 404.927C340.734 404.927 340.858 404.98 340.959 405.087C341.066 405.194 341.119 405.324 341.119 405.479C341.119 405.633 341.066 405.763 340.959 405.87C340.858 405.977 340.734 406.03 340.585 406.03ZM343.102 404.251C343.161 404.589 343.298 404.85 343.511 405.034C343.73 405.218 344.024 405.31 344.392 405.31C344.884 405.31 345.245 405.117 345.477 404.731C345.714 404.346 345.826 403.697 345.815 402.784C345.69 403.05 345.483 403.261 345.192 403.415C344.902 403.563 344.578 403.637 344.223 403.637C343.825 403.637 343.47 403.557 343.155 403.397C342.847 403.231 342.604 402.991 342.426 402.677C342.248 402.363 342.159 401.983 342.159 401.538C342.159 400.904 342.343 400.394 342.711 400.009C343.078 399.617 343.6 399.422 344.276 399.422C345.106 399.422 345.687 399.692 346.019 400.231C346.357 400.771 346.526 401.574 346.526 402.641C346.526 403.388 346.458 404.005 346.322 404.491C346.191 404.977 345.966 405.348 345.646 405.603C345.331 405.858 344.899 405.985 344.347 405.985C343.742 405.985 343.271 405.822 342.933 405.496C342.595 405.17 342.402 404.755 342.355 404.251H343.102ZM344.356 402.953C344.753 402.953 345.079 402.831 345.334 402.588C345.589 402.339 345.717 402.004 345.717 401.583C345.717 401.138 345.592 400.78 345.343 400.507C345.094 400.234 344.744 400.098 344.294 400.098C343.879 400.098 343.547 400.228 343.298 400.489C343.055 400.75 342.933 401.094 342.933 401.521C342.933 401.954 343.055 402.3 343.298 402.561C343.541 402.822 343.894 402.953 344.356 402.953ZM348.838 402.632C348.505 402.502 348.251 402.312 348.073 402.063C347.895 401.814 347.806 401.512 347.806 401.156C347.806 400.836 347.886 400.548 348.046 400.293C348.206 400.032 348.443 399.828 348.757 399.68C349.078 399.525 349.463 399.448 349.914 399.448C350.364 399.448 350.747 399.525 351.061 399.68C351.381 399.828 351.621 400.032 351.781 400.293C351.947 400.548 352.03 400.836 352.03 401.156C352.03 401.5 351.939 401.802 351.755 402.063C351.571 402.318 351.319 402.508 350.999 402.632C351.366 402.745 351.657 402.944 351.87 403.228C352.09 403.507 352.199 403.845 352.199 404.242C352.199 404.628 352.105 404.966 351.915 405.256C351.725 405.541 351.455 405.763 351.105 405.923C350.762 406.077 350.364 406.154 349.914 406.154C349.463 406.154 349.066 406.077 348.722 405.923C348.384 405.763 348.12 405.541 347.93 405.256C347.741 404.966 347.646 404.628 347.646 404.242C347.646 403.845 347.752 403.504 347.966 403.219C348.179 402.935 348.47 402.739 348.838 402.632ZM351.248 401.254C351.248 400.892 351.129 400.614 350.892 400.418C350.655 400.222 350.329 400.124 349.914 400.124C349.505 400.124 349.181 400.222 348.944 400.418C348.707 400.614 348.588 400.895 348.588 401.263C348.588 401.595 348.71 401.862 348.953 402.063C349.202 402.265 349.522 402.366 349.914 402.366C350.311 402.366 350.631 402.265 350.874 402.063C351.123 401.856 351.248 401.586 351.248 401.254ZM349.914 402.988C349.475 402.988 349.116 403.092 348.838 403.299C348.559 403.501 348.42 403.806 348.42 404.216C348.42 404.595 348.553 404.9 348.82 405.132C349.092 405.363 349.457 405.479 349.914 405.479C350.37 405.479 350.732 405.363 350.999 405.132C351.266 404.9 351.399 404.595 351.399 404.216C351.399 403.818 351.263 403.516 350.99 403.308C350.717 403.095 350.358 402.988 349.914 402.988ZM353.257 401.165C353.298 400.619 353.509 400.193 353.888 399.884C354.268 399.576 354.76 399.422 355.364 399.422C355.768 399.422 356.114 399.496 356.405 399.644C356.701 399.786 356.924 399.982 357.072 400.231C357.226 400.48 357.303 400.762 357.303 401.076C357.303 401.444 357.197 401.761 356.983 402.028C356.776 402.294 356.503 402.466 356.165 402.544V402.588C356.55 402.683 356.856 402.87 357.081 403.148C357.306 403.427 357.419 403.792 357.419 404.242C357.419 404.58 357.342 404.886 357.188 405.158C357.034 405.425 356.802 405.636 356.494 405.79C356.186 405.944 355.815 406.021 355.382 406.021C354.754 406.021 354.238 405.858 353.835 405.532C353.431 405.2 353.206 404.731 353.159 404.127H353.941C353.983 404.482 354.128 404.773 354.377 404.998C354.626 405.224 354.958 405.336 355.373 405.336C355.788 405.336 356.103 405.229 356.316 405.016C356.535 404.797 356.645 404.515 356.645 404.171C356.645 403.726 356.497 403.406 356.2 403.211C355.904 403.015 355.456 402.917 354.857 402.917H354.653V402.241H354.866C355.412 402.235 355.824 402.146 356.103 401.974C356.381 401.796 356.521 401.524 356.521 401.156C356.521 400.842 356.417 400.59 356.209 400.4C356.008 400.21 355.717 400.115 355.338 400.115C354.97 400.115 354.674 400.21 354.448 400.4C354.223 400.59 354.09 400.845 354.048 401.165H353.257Z" fill="white"/>
<g filter="url(#filter8_d_1941_1231)">
<rect x="215.732" y="424.033" width="151.077" height="21.6056" rx="2.54112" fill="white" fill-opacity="0.75" shape-rendering="crispEdges"/>
</g>
<g filter="url(#filter9_d_1941_1231)">
<rect x="215.732" y="456.069" width="151.077" height="21.6056" rx="2.54112" fill="white" fill-opacity="0.5" shape-rendering="crispEdges"/>
</g>
<rect opacity="0.7" x="263" y="360" width="57" height="5" rx="2.5" fill="white"/>
</g>
<rect x="54.5" y="3.5" width="513" height="566" rx="23.0118" stroke="url(#paint1_linear_1941_1231)" stroke-width="5"/>
</g>
<g opacity="0.6" filter="url(#filter10_d_1941_1231)">
<rect x="191" y="103" width="322.55" height="83" rx="8.89393" fill="white"/>
</g>
<path opacity="0.5" d="M223.962 123.105V123.985H222.21V129.686H221.131V123.985H219.369V123.105H223.962ZM227.318 129.771C226.826 129.771 226.381 129.661 225.983 129.44C225.586 129.213 225.273 128.897 225.046 128.493C224.818 128.083 224.705 127.609 224.705 127.072C224.705 126.542 224.822 126.072 225.055 125.662C225.289 125.251 225.608 124.936 226.012 124.715C226.416 124.494 226.867 124.383 227.366 124.383C227.864 124.383 228.316 124.494 228.72 124.715C229.124 124.936 229.443 125.251 229.676 125.662C229.91 126.072 230.027 126.542 230.027 127.072C230.027 127.603 229.907 128.073 229.667 128.483C229.427 128.894 229.099 129.213 228.682 129.44C228.272 129.661 227.817 129.771 227.318 129.771ZM227.318 128.834C227.596 128.834 227.855 128.768 228.095 128.635C228.341 128.502 228.54 128.304 228.691 128.038C228.843 127.773 228.919 127.451 228.919 127.072C228.919 126.694 228.846 126.375 228.701 126.116C228.556 125.851 228.363 125.652 228.123 125.52C227.883 125.387 227.625 125.321 227.347 125.321C227.069 125.321 226.81 125.387 226.57 125.52C226.337 125.652 226.151 125.851 226.012 126.116C225.873 126.375 225.803 126.694 225.803 127.072C225.803 127.634 225.945 128.07 226.229 128.379C226.52 128.682 226.883 128.834 227.318 128.834ZM232.353 125.349V128.237C232.353 128.433 232.397 128.575 232.486 128.663C232.581 128.745 232.738 128.786 232.959 128.786H233.622V129.686H232.77C232.284 129.686 231.911 129.572 231.653 129.345C231.394 129.118 231.264 128.749 231.264 128.237V125.349H230.649V124.468H231.264V123.171H232.353V124.468H233.622V125.349H232.353ZM234.257 127.054C234.257 126.53 234.365 126.066 234.579 125.662C234.8 125.258 235.097 124.945 235.469 124.724C235.848 124.497 236.265 124.383 236.719 124.383C237.13 124.383 237.486 124.465 237.789 124.629C238.099 124.787 238.345 124.986 238.528 125.226V124.468H239.617V129.686H238.528V128.91C238.345 129.156 238.096 129.361 237.78 129.525C237.464 129.689 237.104 129.771 236.7 129.771C236.252 129.771 235.842 129.658 235.469 129.43C235.097 129.197 234.8 128.875 234.579 128.464C234.365 128.048 234.257 127.578 234.257 127.054ZM238.528 127.072C238.528 126.713 238.452 126.4 238.301 126.135C238.155 125.87 237.963 125.668 237.723 125.529C237.483 125.39 237.224 125.321 236.947 125.321C236.669 125.321 236.41 125.39 236.17 125.529C235.93 125.662 235.734 125.86 235.583 126.126C235.438 126.384 235.365 126.694 235.365 127.054C235.365 127.413 235.438 127.729 235.583 128C235.734 128.272 235.93 128.48 236.17 128.625C236.416 128.764 236.675 128.834 236.947 128.834C237.224 128.834 237.483 128.764 237.723 128.625C237.963 128.487 238.155 128.285 238.301 128.019C238.452 127.748 238.528 127.432 238.528 127.072ZM242.114 122.679V129.686H241.035V122.679H242.114Z" fill="#03011C"/>
<path d="M231.752 154.166C231.752 154.945 231.549 155.68 231.144 156.37C230.755 157.044 230.17 157.607 229.39 158.056C228.626 158.491 227.719 158.746 226.669 158.821V160.643H225.23V158.798C223.73 158.664 222.523 158.214 221.609 157.449C220.694 156.669 220.222 155.62 220.192 154.301H223.565C223.655 155.38 224.21 156.032 225.23 156.257V151.962C224.15 151.692 223.281 151.422 222.621 151.152C221.961 150.882 221.391 150.447 220.912 149.848C220.432 149.248 220.192 148.431 220.192 147.396C220.192 146.092 220.657 145.027 221.586 144.203C222.531 143.378 223.745 142.906 225.23 142.786V140.964H226.669V142.786C228.108 142.906 229.255 143.34 230.11 144.09C230.98 144.84 231.467 145.874 231.572 147.194H228.176C228.131 146.759 227.973 146.384 227.704 146.069C227.449 145.739 227.104 145.507 226.669 145.372V149.623C227.794 149.908 228.678 150.185 229.323 150.455C229.983 150.71 230.552 151.137 231.032 151.737C231.512 152.321 231.752 153.131 231.752 154.166ZM223.475 147.239C223.475 147.734 223.625 148.138 223.925 148.453C224.225 148.753 224.66 149 225.23 149.195V145.305C224.69 145.38 224.263 145.582 223.948 145.912C223.633 146.242 223.475 146.684 223.475 147.239ZM226.669 156.302C227.239 156.197 227.681 155.965 227.996 155.605C228.326 155.245 228.491 154.81 228.491 154.301C228.491 153.806 228.333 153.408 228.018 153.109C227.704 152.809 227.254 152.561 226.669 152.366V156.302ZM234.525 145.192V142.291H239.945V158.686H236.706V145.192H234.525ZM242.92 155.492V153.019L250.274 142.493H253.94V152.749H255.919V155.492H253.94V158.686H250.792V155.492H242.92ZM250.994 145.867L246.384 152.749H250.994V145.867ZM259.678 158.843C259.108 158.843 258.636 158.671 258.261 158.326C257.901 157.966 257.721 157.524 257.721 156.999C257.721 156.475 257.901 156.04 258.261 155.695C258.636 155.335 259.108 155.155 259.678 155.155C260.233 155.155 260.69 155.335 261.05 155.695C261.41 156.04 261.59 156.475 261.59 156.999C261.59 157.524 261.41 157.966 261.05 158.326C260.69 158.671 260.233 158.843 259.678 158.843ZM263.766 150.275C263.766 147.681 264.231 145.649 265.16 144.18C266.105 142.711 267.664 141.976 269.838 141.976C272.012 141.976 273.564 142.711 274.494 144.18C275.438 145.649 275.91 147.681 275.91 150.275C275.91 152.884 275.438 154.93 274.494 156.415C273.564 157.899 272.012 158.641 269.838 158.641C267.664 158.641 266.105 157.899 265.16 156.415C264.231 154.93 263.766 152.884 263.766 150.275ZM272.807 150.275C272.807 149.165 272.732 148.236 272.582 147.486C272.447 146.721 272.162 146.099 271.727 145.619C271.308 145.14 270.678 144.9 269.838 144.9C268.999 144.9 268.361 145.14 267.927 145.619C267.507 146.099 267.222 146.721 267.072 147.486C266.937 148.236 266.87 149.165 266.87 150.275C266.87 151.414 266.937 152.374 267.072 153.154C267.207 153.918 267.492 154.54 267.927 155.02C268.361 155.485 268.999 155.717 269.838 155.717C270.678 155.717 271.315 155.485 271.75 155.02C272.185 154.54 272.469 153.918 272.604 153.154C272.739 152.374 272.807 151.414 272.807 150.275ZM289.325 145.012H282.039V148.858C282.353 148.468 282.803 148.153 283.388 147.913C283.973 147.659 284.595 147.531 285.255 147.531C286.454 147.531 287.436 147.793 288.201 148.318C288.965 148.843 289.52 149.518 289.865 150.342C290.21 151.152 290.382 152.022 290.382 152.951C290.382 154.675 289.887 156.062 288.898 157.112C287.923 158.161 286.529 158.686 284.715 158.686C283.006 158.686 281.641 158.259 280.622 157.404C279.602 156.55 279.025 155.433 278.89 154.053H281.949C282.084 154.653 282.383 155.133 282.848 155.492C283.328 155.852 283.935 156.032 284.67 156.032C285.554 156.032 286.222 155.755 286.671 155.2C287.121 154.645 287.346 153.911 287.346 152.996C287.346 152.067 287.114 151.362 286.649 150.882C286.199 150.387 285.532 150.14 284.647 150.14C284.018 150.14 283.493 150.297 283.073 150.612C282.653 150.927 282.353 151.347 282.173 151.872H279.16V142.246H289.325V145.012ZM301.28 146.384C301.13 145.754 300.867 145.282 300.493 144.967C300.133 144.652 299.608 144.495 298.918 144.495C297.884 144.495 297.119 144.915 296.624 145.754C296.145 146.579 295.897 147.928 295.882 149.803C296.242 149.203 296.767 148.738 297.457 148.408C298.146 148.063 298.896 147.891 299.706 147.891C300.68 147.891 301.542 148.101 302.292 148.521C303.042 148.94 303.626 149.555 304.046 150.365C304.466 151.159 304.676 152.119 304.676 153.244C304.676 154.308 304.458 155.26 304.024 156.1C303.604 156.924 302.982 157.569 302.157 158.034C301.332 158.499 300.35 158.731 299.211 158.731C297.651 158.731 296.422 158.386 295.522 157.696C294.638 157.007 294.016 156.047 293.656 154.818C293.311 153.573 293.138 152.044 293.138 150.23C293.138 147.486 293.611 145.417 294.555 144.023C295.5 142.613 296.992 141.909 299.031 141.909C300.605 141.909 301.827 142.336 302.697 143.191C303.566 144.045 304.069 145.11 304.203 146.384H301.28ZM298.986 150.477C298.191 150.477 297.524 150.71 296.984 151.174C296.444 151.639 296.175 152.314 296.175 153.199C296.175 154.083 296.422 154.78 296.917 155.29C297.427 155.8 298.139 156.055 299.053 156.055C299.863 156.055 300.5 155.807 300.965 155.313C301.445 154.818 301.685 154.151 301.685 153.311C301.685 152.441 301.452 151.752 300.987 151.242C300.538 150.732 299.87 150.477 298.986 150.477Z" fill="#03011C"/>
<g filter="url(#filter11_d_1941_1231)">
<rect x="460" y="120" width="38" height="17" rx="8.5" fill="#E66F65"/>
</g>
<g opacity="0.6" filter="url(#filter12_d_1941_1231)">
<rect x="191" y="206" width="322.55" height="83" rx="8.89393" fill="white"/>
</g>
<path opacity="0.5" d="M223.962 226.105V226.985H222.21V232.686H221.131V226.985H219.369V226.105H223.962ZM227.318 232.771C226.826 232.771 226.381 232.661 225.983 232.44C225.586 232.213 225.273 231.897 225.046 231.493C224.818 231.083 224.705 230.609 224.705 230.072C224.705 229.542 224.822 229.072 225.055 228.662C225.289 228.251 225.608 227.936 226.012 227.715C226.416 227.494 226.867 227.383 227.366 227.383C227.864 227.383 228.316 227.494 228.72 227.715C229.124 227.936 229.443 228.251 229.676 228.662C229.91 229.072 230.027 229.542 230.027 230.072C230.027 230.603 229.907 231.073 229.667 231.483C229.427 231.894 229.099 232.213 228.682 232.44C228.272 232.661 227.817 232.771 227.318 232.771ZM227.318 231.834C227.596 231.834 227.855 231.768 228.095 231.635C228.341 231.502 228.54 231.304 228.691 231.038C228.843 230.773 228.919 230.451 228.919 230.072C228.919 229.694 228.846 229.375 228.701 229.116C228.556 228.851 228.363 228.652 228.123 228.52C227.883 228.387 227.625 228.321 227.347 228.321C227.069 228.321 226.81 228.387 226.57 228.52C226.337 228.652 226.151 228.851 226.012 229.116C225.873 229.375 225.803 229.694 225.803 230.072C225.803 230.634 225.945 231.07 226.229 231.379C226.52 231.682 226.883 231.834 227.318 231.834ZM232.353 228.349V231.237C232.353 231.433 232.397 231.575 232.486 231.663C232.581 231.745 232.738 231.786 232.959 231.786H233.622V232.686H232.77C232.284 232.686 231.911 232.572 231.653 232.345C231.394 232.118 231.264 231.749 231.264 231.237V228.349H230.649V227.468H231.264V226.171H232.353V227.468H233.622V228.349H232.353ZM234.257 230.054C234.257 229.53 234.365 229.066 234.579 228.662C234.8 228.258 235.097 227.945 235.469 227.724C235.848 227.497 236.265 227.383 236.719 227.383C237.13 227.383 237.486 227.465 237.789 227.629C238.099 227.787 238.345 227.986 238.528 228.226V227.468H239.617V232.686H238.528V231.91C238.345 232.156 238.096 232.361 237.78 232.525C237.464 232.689 237.104 232.771 236.7 232.771C236.252 232.771 235.842 232.658 235.469 232.43C235.097 232.197 234.8 231.875 234.579 231.464C234.365 231.048 234.257 230.578 234.257 230.054ZM238.528 230.072C238.528 229.713 238.452 229.4 238.301 229.135C238.155 228.87 237.963 228.668 237.723 228.529C237.483 228.39 237.224 228.321 236.947 228.321C236.669 228.321 236.41 228.39 236.17 228.529C235.93 228.662 235.734 228.86 235.583 229.126C235.438 229.384 235.365 229.694 235.365 230.054C235.365 230.413 235.438 230.729 235.583 231C235.734 231.272 235.93 231.48 236.17 231.625C236.416 231.764 236.675 231.834 236.947 231.834C237.224 231.834 237.483 231.764 237.723 231.625C237.963 231.487 238.155 231.285 238.301 231.019C238.452 230.748 238.528 230.432 238.528 230.072ZM242.114 225.679V232.686H241.035V225.679H242.114Z" fill="#03011C"/>
<path d="M231.752 257.166C231.752 257.945 231.549 258.68 231.144 259.37C230.755 260.044 230.17 260.607 229.39 261.056C228.626 261.491 227.719 261.746 226.669 261.821V263.643H225.23V261.798C223.73 261.664 222.523 261.214 221.609 260.449C220.694 259.669 220.222 258.62 220.192 257.301H223.565C223.655 258.38 224.21 259.032 225.23 259.257V254.962C224.15 254.692 223.281 254.422 222.621 254.152C221.961 253.882 221.391 253.447 220.912 252.848C220.432 252.248 220.192 251.431 220.192 250.396C220.192 249.092 220.657 248.027 221.586 247.203C222.531 246.378 223.745 245.906 225.23 245.786V243.964H226.669V245.786C228.108 245.906 229.255 246.34 230.11 247.09C230.98 247.84 231.467 248.874 231.572 250.194H228.176C228.131 249.759 227.973 249.384 227.704 249.069C227.449 248.739 227.104 248.507 226.669 248.372V252.623C227.794 252.908 228.678 253.185 229.323 253.455C229.983 253.71 230.552 254.137 231.032 254.737C231.512 255.321 231.752 256.131 231.752 257.166ZM223.475 250.239C223.475 250.734 223.625 251.138 223.925 251.453C224.225 251.753 224.66 252 225.23 252.195V248.305C224.69 248.38 224.263 248.582 223.948 248.912C223.633 249.242 223.475 249.684 223.475 250.239ZM226.669 259.302C227.239 259.197 227.681 258.965 227.996 258.605C228.326 258.245 228.491 257.81 228.491 257.301C228.491 256.806 228.333 256.408 228.018 256.109C227.704 255.809 227.254 255.561 226.669 255.366V259.302ZM235.897 258.133C237.336 256.933 238.483 255.936 239.337 255.142C240.192 254.332 240.904 253.492 241.474 252.623C242.044 251.753 242.329 250.898 242.329 250.059C242.329 249.294 242.149 248.694 241.789 248.26C241.429 247.825 240.874 247.607 240.125 247.607C239.375 247.607 238.798 247.862 238.393 248.372C237.988 248.867 237.778 249.549 237.763 250.419H234.705C234.765 248.619 235.297 247.255 236.301 246.326C237.321 245.396 238.61 244.931 240.17 244.931C241.879 244.931 243.191 245.388 244.105 246.303C245.02 247.203 245.477 248.395 245.477 249.879C245.477 251.048 245.162 252.165 244.533 253.23C243.903 254.294 243.183 255.224 242.374 256.019C241.564 256.798 240.507 257.743 239.203 258.852H245.837V261.461H234.727V259.122L235.897 258.133ZM247.821 253.275C247.821 250.681 248.286 248.649 249.215 247.18C250.16 245.711 251.719 244.976 253.893 244.976C256.067 244.976 257.619 245.711 258.549 247.18C259.493 248.649 259.966 250.681 259.966 253.275C259.966 255.884 259.493 257.93 258.549 259.415C257.619 260.899 256.067 261.641 253.893 261.641C251.719 261.641 250.16 260.899 249.215 259.415C248.286 257.93 247.821 255.884 247.821 253.275ZM256.862 253.275C256.862 252.165 256.787 251.236 256.637 250.486C256.502 249.721 256.217 249.099 255.782 248.619C255.363 248.14 254.733 247.9 253.893 247.9C253.054 247.9 252.416 248.14 251.982 248.619C251.562 249.099 251.277 249.721 251.127 250.486C250.992 251.236 250.925 252.165 250.925 253.275C250.925 254.414 250.992 255.374 251.127 256.154C251.262 256.918 251.547 257.54 251.982 258.02C252.416 258.485 253.054 258.717 253.893 258.717C254.733 258.717 255.37 258.485 255.805 258.02C256.24 257.54 256.525 256.918 256.66 256.154C256.794 255.374 256.862 254.414 256.862 253.275ZM264.115 261.843C263.545 261.843 263.073 261.671 262.698 261.326C262.338 260.966 262.158 260.524 262.158 259.999C262.158 259.475 262.338 259.04 262.698 258.695C263.073 258.335 263.545 258.155 264.115 258.155C264.669 258.155 265.127 258.335 265.486 258.695C265.846 259.04 266.026 259.475 266.026 259.999C266.026 260.524 265.846 260.966 265.486 261.326C265.127 261.671 264.669 261.843 264.115 261.843ZM268.202 253.275C268.202 250.681 268.667 248.649 269.597 247.18C270.541 245.711 272.101 244.976 274.275 244.976C276.449 244.976 278 245.711 278.93 247.18C279.875 248.649 280.347 250.681 280.347 253.275C280.347 255.884 279.875 257.93 278.93 259.415C278 260.899 276.449 261.641 274.275 261.641C272.101 261.641 270.541 260.899 269.597 259.415C268.667 257.93 268.202 255.884 268.202 253.275ZM277.243 253.275C277.243 252.165 277.168 251.236 277.018 250.486C276.883 249.721 276.599 249.099 276.164 248.619C275.744 248.14 275.114 247.9 274.275 247.9C273.435 247.9 272.798 248.14 272.363 248.619C271.943 249.099 271.658 249.721 271.508 250.486C271.373 251.236 271.306 252.165 271.306 253.275C271.306 254.414 271.373 255.374 271.508 256.154C271.643 256.918 271.928 257.54 272.363 258.02C272.798 258.485 273.435 258.717 274.275 258.717C275.114 258.717 275.751 258.485 276.186 258.02C276.621 257.54 276.906 256.918 277.041 256.154C277.176 255.374 277.243 254.414 277.243 253.275ZM293.762 248.012H286.475V251.858C286.79 251.468 287.24 251.153 287.824 250.913C288.409 250.659 289.031 250.531 289.691 250.531C290.891 250.531 291.873 250.793 292.637 251.318C293.402 251.843 293.957 252.518 294.301 253.342C294.646 254.152 294.819 255.022 294.819 255.951C294.819 257.675 294.324 259.062 293.334 260.112C292.36 261.161 290.965 261.686 289.151 261.686C287.442 261.686 286.078 261.259 285.058 260.404C284.039 259.55 283.461 258.433 283.326 257.053H286.385C286.52 257.653 286.82 258.133 287.285 258.492C287.764 258.852 288.372 259.032 289.106 259.032C289.991 259.032 290.658 258.755 291.108 258.2C291.558 257.645 291.783 256.911 291.783 255.996C291.783 255.067 291.55 254.362 291.085 253.882C290.636 253.387 289.968 253.14 289.084 253.14C288.454 253.14 287.929 253.297 287.51 253.612C287.09 253.927 286.79 254.347 286.61 254.872H283.596V245.246H293.762V248.012ZM305.716 249.384C305.566 248.754 305.304 248.282 304.929 247.967C304.569 247.652 304.045 247.495 303.355 247.495C302.32 247.495 301.556 247.915 301.061 248.754C300.581 249.579 300.334 250.928 300.319 252.803C300.679 252.203 301.203 251.738 301.893 251.408C302.583 251.063 303.332 250.891 304.142 250.891C305.117 250.891 305.979 251.101 306.728 251.521C307.478 251.94 308.063 252.555 308.483 253.365C308.902 254.159 309.112 255.119 309.112 256.244C309.112 257.308 308.895 258.26 308.46 259.1C308.04 259.924 307.418 260.569 306.593 261.034C305.769 261.499 304.787 261.731 303.647 261.731C302.088 261.731 300.858 261.386 299.959 260.696C299.074 260.007 298.452 259.047 298.092 257.818C297.747 256.573 297.575 255.044 297.575 253.23C297.575 250.486 298.047 248.417 298.992 247.023C299.936 245.613 301.428 244.909 303.467 244.909C305.042 244.909 306.264 245.336 307.133 246.191C308.003 247.045 308.505 248.11 308.64 249.384H305.716ZM303.422 253.477C302.628 253.477 301.96 253.71 301.421 254.174C300.881 254.639 300.611 255.314 300.611 256.199C300.611 257.083 300.858 257.78 301.353 258.29C301.863 258.8 302.575 259.055 303.49 259.055C304.299 259.055 304.937 258.807 305.401 258.313C305.881 257.818 306.121 257.151 306.121 256.311C306.121 255.441 305.889 254.752 305.424 254.242C304.974 253.732 304.307 253.477 303.422 253.477Z" fill="#03011C"/>
<g filter="url(#filter13_d_1941_1231)">
<rect x="460" y="223" width="38" height="17" rx="8.5" fill="#67C456"/>
</g>
<path d="M476.464 127.952C475.909 127.675 475.632 127.237 475.632 126.64C475.632 126.352 475.704 126.088 475.848 125.848C475.992 125.608 476.208 125.419 476.496 125.28C476.784 125.136 477.136 125.064 477.552 125.064C477.963 125.064 478.312 125.136 478.6 125.28C478.893 125.419 479.112 125.608 479.256 125.848C479.4 126.088 479.472 126.352 479.472 126.64C479.472 126.939 479.395 127.203 479.24 127.432C479.091 127.656 478.891 127.829 478.64 127.952C478.944 128.064 479.184 128.248 479.36 128.504C479.536 128.755 479.624 129.051 479.624 129.392C479.624 129.739 479.536 130.045 479.36 130.312C479.184 130.579 478.939 130.784 478.624 130.928C478.309 131.072 477.952 131.144 477.552 131.144C477.152 131.144 476.795 131.072 476.48 130.928C476.171 130.784 475.928 130.579 475.752 130.312C475.576 130.045 475.488 129.739 475.488 129.392C475.488 129.045 475.576 128.747 475.752 128.496C475.928 128.245 476.165 128.064 476.464 127.952ZM478.6 126.752C478.6 126.453 478.507 126.224 478.32 126.064C478.133 125.904 477.877 125.824 477.552 125.824C477.232 125.824 476.979 125.904 476.792 126.064C476.605 126.224 476.512 126.456 476.512 126.76C476.512 127.027 476.608 127.245 476.8 127.416C476.997 127.581 477.248 127.664 477.552 127.664C477.856 127.664 478.107 127.579 478.304 127.408C478.501 127.237 478.6 127.019 478.6 126.752ZM477.552 128.352C477.2 128.352 476.912 128.44 476.688 128.616C476.469 128.787 476.36 129.035 476.36 129.36C476.36 129.664 476.467 129.912 476.68 130.104C476.893 130.291 477.184 130.384 477.552 130.384C477.915 130.384 478.2 130.288 478.408 130.096C478.621 129.904 478.728 129.659 478.728 129.36C478.728 129.04 478.619 128.792 478.4 128.616C478.187 128.44 477.904 128.352 477.552 128.352ZM480.438 126.576C480.438 126.187 480.55 125.883 480.774 125.664C481.003 125.44 481.296 125.328 481.654 125.328C482.011 125.328 482.302 125.44 482.526 125.664C482.755 125.883 482.87 126.187 482.87 126.576C482.87 126.965 482.755 127.272 482.526 127.496C482.302 127.72 482.011 127.832 481.654 127.832C481.296 127.832 481.003 127.72 480.774 127.496C480.55 127.272 480.438 126.965 480.438 126.576ZM485.318 125.432L482.126 131H481.23L484.422 125.432H485.318ZM481.654 125.88C481.318 125.88 481.15 126.112 481.15 126.576C481.15 127.045 481.318 127.28 481.654 127.28C481.814 127.28 481.936 127.224 482.022 127.112C482.112 126.995 482.158 126.816 482.158 126.576C482.158 126.112 481.99 125.88 481.654 125.88ZM483.694 129.848C483.694 129.459 483.806 129.155 484.03 128.936C484.259 128.712 484.552 128.6 484.91 128.6C485.262 128.6 485.55 128.712 485.774 128.936C486.003 129.155 486.118 129.459 486.118 129.848C486.118 130.237 486.003 130.544 485.774 130.768C485.55 130.992 485.262 131.104 484.91 131.104C484.552 131.104 484.259 130.992 484.03 130.768C483.806 130.544 483.694 130.237 483.694 129.848ZM484.902 129.152C484.566 129.152 484.398 129.384 484.398 129.848C484.398 130.312 484.566 130.544 484.902 130.544C485.238 130.544 485.406 130.312 485.406 129.848C485.406 129.384 485.238 129.152 484.902 129.152Z" fill="#F9F8FB"/>
<g filter="url(#filter14_d_1941_1231)">
<rect x="419" y="323" width="180" height="179" rx="9.63591" fill="#F9F8FB"/>
</g>
<mask id="mask0_1941_1231" style="mask-type:alpha" maskUnits="userSpaceOnUse" x="431" y="339" width="188" height="148">
<rect x="431" y="339" width="187.607" height="147.355" rx="10.8086" fill="white"/>
</mask>
<g mask="url(#mask0_1941_1231)">
<path d="M423.293 394.723L599 394.723" stroke="black" stroke-opacity="0.25" stroke-width="0.617637" stroke-linecap="round" stroke-linejoin="round" stroke-dasharray="1.54 3.09"/>
<path d="M423.293 421.745L599 421.745" stroke="black" stroke-opacity="0.25" stroke-width="0.617637" stroke-linecap="round" stroke-linejoin="round" stroke-dasharray="1.54 3.09"/>
<path d="M423.293 448.766L599 448.766" stroke="black" stroke-opacity="0.05" stroke-width="0.617637" stroke-linecap="round" stroke-linejoin="round" stroke-dasharray="1.54 3.09"/>
<path d="M563.815 394.794C562.789 394.795 558.252 394.796 552.971 394.794C532.74 394.788 535.951 416.556 517.951 419.556C504.906 421.73 503.701 444.056 489.951 444.056C472.579 444.056 475.036 413.696 458.951 413.696C443.459 413.696 445.398 450.056 423.951 450.056" stroke="#1A1A1A" stroke-width="1.93011" stroke-linecap="round"/>
<path d="M563.807 394.705V449.134" stroke="#1A1A1A" stroke-width="0.772046" stroke-linecap="round" stroke-dasharray="2.32 2.32"/>
<circle cx="563.814" cy="394.795" r="3.83318" fill="#1A1A1A"/>
<path fill-rule="evenodd" clip-rule="evenodd" d="M554.591 363.241C549.517 363.241 545.404 367.354 545.404 372.428C545.404 377.501 549.517 381.614 554.591 381.614H559.732L563.119 386.311C563.422 386.731 564.045 386.739 564.359 386.328L567.957 381.614H573.02C578.094 381.614 582.207 377.501 582.207 372.428C582.207 367.354 578.094 363.241 573.02 363.241H554.591Z" fill="url(#paint2_linear_1941_1231)"/>
<path d="M556.821 372.527H555.093V374.298H554.186V372.527H552.458V371.706H554.186V369.935H555.093V371.706H556.821V372.527ZM562.227 369.807H559.361V371.509C559.481 371.349 559.657 371.215 559.891 371.107C560.131 370.999 560.384 370.944 560.653 370.944C561.132 370.944 561.519 371.047 561.816 371.252C562.118 371.458 562.332 371.717 562.458 372.031C562.589 372.345 562.654 372.675 562.654 373.023C562.654 373.445 562.572 373.822 562.406 374.152C562.247 374.477 562.004 374.734 561.679 374.922C561.36 375.11 560.966 375.205 560.499 375.205C559.877 375.205 559.378 375.051 559.002 374.743C558.625 374.435 558.4 374.027 558.326 373.519H559.275C559.338 373.787 559.478 374.001 559.694 374.161C559.911 374.315 560.182 374.392 560.507 374.392C560.912 374.392 561.214 374.269 561.414 374.024C561.619 373.779 561.722 373.454 561.722 373.049C561.722 372.638 561.619 372.325 561.414 372.108C561.209 371.885 560.906 371.774 560.507 371.774C560.228 371.774 559.991 371.846 559.797 371.988C559.609 372.125 559.472 372.313 559.386 372.553H558.463V368.951H562.227V369.807ZM564.191 375.264C564.014 375.264 563.866 375.205 563.746 375.085C563.627 374.965 563.567 374.817 563.567 374.64C563.567 374.463 563.627 374.315 563.746 374.195C563.866 374.075 564.014 374.016 564.191 374.016C564.362 374.016 564.508 374.075 564.628 374.195C564.747 374.315 564.807 374.463 564.807 374.64C564.807 374.817 564.747 374.965 564.628 375.085C564.508 375.205 564.362 375.264 564.191 375.264ZM565.733 372.005C565.733 371.019 565.898 370.249 566.229 369.696C566.566 369.137 567.142 368.857 567.957 368.857C568.773 368.857 569.346 369.137 569.676 369.696C570.013 370.249 570.181 371.019 570.181 372.005C570.181 373.003 570.013 373.785 569.676 374.349C569.346 374.908 568.773 375.187 567.957 375.187C567.142 375.187 566.566 374.908 566.229 374.349C565.898 373.785 565.733 373.003 565.733 372.005ZM569.223 372.005C569.223 371.543 569.192 371.153 569.129 370.833C569.072 370.514 568.952 370.254 568.77 370.055C568.587 369.849 568.316 369.747 567.957 369.747C567.598 369.747 567.327 369.849 567.144 370.055C566.962 370.254 566.839 370.514 566.777 370.833C566.719 371.153 566.691 371.543 566.691 372.005C566.691 372.484 566.719 372.886 566.777 373.211C566.834 373.536 566.953 373.799 567.136 373.998C567.324 374.198 567.598 374.298 567.957 374.298C568.316 374.298 568.587 374.198 568.77 373.998C568.958 373.799 569.081 373.536 569.138 373.211C569.195 372.886 569.223 372.484 569.223 372.005ZM571.059 370.474C571.059 370.058 571.179 369.733 571.418 369.499C571.664 369.259 571.977 369.139 572.359 369.139C572.741 369.139 573.052 369.259 573.292 369.499C573.537 369.733 573.66 370.058 573.66 370.474C573.66 370.89 573.537 371.218 573.292 371.458C573.052 371.697 572.741 371.817 572.359 371.817C571.977 371.817 571.664 371.697 571.418 371.458C571.179 371.218 571.059 370.89 571.059 370.474ZM576.277 369.251L572.864 375.205H571.906L575.319 369.251H576.277ZM572.359 369.73C572 369.73 571.82 369.978 571.82 370.474C571.82 370.976 572 371.227 572.359 371.227C572.53 371.227 572.662 371.167 572.753 371.047C572.85 370.922 572.898 370.731 572.898 370.474C572.898 369.978 572.719 369.73 572.359 369.73ZM574.541 373.973C574.541 373.556 574.661 373.231 574.9 372.998C575.145 372.758 575.459 372.638 575.841 372.638C576.217 372.638 576.525 372.758 576.765 372.998C577.01 373.231 577.133 373.556 577.133 373.973C577.133 374.389 577.01 374.717 576.765 374.957C576.525 375.196 576.217 375.316 575.841 375.316C575.459 375.316 575.145 375.196 574.9 374.957C574.661 374.717 574.541 374.389 574.541 373.973ZM575.832 373.229C575.473 373.229 575.294 373.477 575.294 373.973C575.294 374.469 575.473 374.717 575.832 374.717C576.192 374.717 576.371 374.469 576.371 373.973C576.371 373.477 576.192 373.229 575.832 373.229Z" fill="white"/>
<path d="M559.028 468.24H556.332L555.869 469.556H554.766L557.073 463.108H558.296L560.603 469.556H559.491L559.028 468.24ZM558.731 467.378L557.684 464.386L556.628 467.378H558.731ZM566.229 464.451V469.556H565.173V468.953C565.006 469.163 564.787 469.33 564.515 469.454C564.249 469.571 563.965 469.63 563.663 469.63C563.261 469.63 562.9 469.546 562.579 469.38C562.264 469.213 562.014 468.966 561.828 468.638C561.649 468.311 561.56 467.916 561.56 467.453V464.451H562.606V467.295C562.606 467.752 562.721 468.104 562.949 468.351C563.178 468.592 563.49 468.713 563.885 468.713C564.28 468.713 564.592 468.592 564.821 468.351C565.055 468.104 565.173 467.752 565.173 467.295V464.451H566.229ZM569.679 464.368C570.074 464.368 570.423 464.448 570.726 464.608C571.035 464.763 571.276 464.957 571.449 465.192V464.451H572.514V469.639C572.514 470.108 572.415 470.525 572.218 470.89C572.02 471.26 571.733 471.551 571.356 471.761C570.985 471.971 570.541 472.076 570.022 472.076C569.33 472.076 568.756 471.912 568.299 471.585C567.842 471.263 567.582 470.825 567.52 470.269H568.567C568.648 470.535 568.818 470.748 569.077 470.908C569.343 471.075 569.658 471.158 570.022 471.158C570.448 471.158 570.791 471.029 571.05 470.769C571.316 470.51 571.449 470.133 571.449 469.639V468.787C571.27 469.028 571.026 469.231 570.717 469.398C570.414 469.559 570.068 469.639 569.679 469.639C569.234 469.639 568.827 469.528 568.456 469.306C568.092 469.077 567.802 468.762 567.585 468.361C567.375 467.953 567.27 467.493 567.27 466.98C567.27 466.467 567.375 466.014 567.585 465.618C567.802 465.223 568.092 464.917 568.456 464.701C568.827 464.479 569.234 464.368 569.679 464.368ZM571.449 466.999C571.449 466.647 571.375 466.341 571.226 466.081C571.084 465.822 570.896 465.624 570.661 465.489C570.426 465.353 570.173 465.285 569.901 465.285C569.63 465.285 569.376 465.353 569.142 465.489C568.907 465.618 568.716 465.813 568.567 466.072C568.425 466.325 568.354 466.628 568.354 466.98C568.354 467.332 568.425 467.641 568.567 467.907C568.716 468.172 568.907 468.376 569.142 468.518C569.383 468.654 569.636 468.722 569.901 468.722C570.173 468.722 570.426 468.654 570.661 468.518C570.896 468.382 571.084 468.185 571.226 467.925C571.375 467.66 571.449 467.351 571.449 466.999ZM574.327 469.621C574.136 469.621 573.975 469.556 573.846 469.426C573.716 469.296 573.651 469.136 573.651 468.944C573.651 468.753 573.716 468.592 573.846 468.462C573.975 468.333 574.136 468.268 574.327 468.268C574.513 468.268 574.67 468.333 574.8 468.462C574.93 468.592 574.995 468.753 574.995 468.944C574.995 469.136 574.93 469.296 574.8 469.426C574.67 469.556 574.513 469.621 574.327 469.621Z" fill="black"/>
<path d="M512.657 463.117V467.758C512.657 468.333 512.481 468.787 512.129 469.12C511.783 469.454 511.326 469.621 510.758 469.621C510.19 469.621 509.73 469.454 509.378 469.12C509.032 468.787 508.859 468.333 508.859 467.758H509.924C509.93 468.042 510.001 468.268 510.137 468.435C510.279 468.601 510.486 468.685 510.758 468.685C511.03 468.685 511.237 468.601 511.379 468.435C511.521 468.262 511.592 468.036 511.592 467.758V463.117H512.657ZM518.998 464.451V469.556H517.942V468.953C517.776 469.163 517.556 469.33 517.284 469.454C517.019 469.571 516.735 469.63 516.432 469.63C516.031 469.63 515.669 469.546 515.348 469.38C515.033 469.213 514.783 468.966 514.598 468.638C514.419 468.311 514.329 467.916 514.329 467.453V464.451H515.376V467.295C515.376 467.752 515.49 468.104 515.719 468.351C515.947 468.592 516.259 468.713 516.654 468.713C517.05 468.713 517.362 468.592 517.59 468.351C517.825 468.104 517.942 467.752 517.942 467.295V464.451H518.998ZM521.448 462.7V469.556H520.392V462.7H521.448ZM523.261 469.621C523.069 469.621 522.909 469.556 522.779 469.426C522.649 469.296 522.585 469.136 522.585 468.944C522.585 468.753 522.649 468.592 522.779 468.462C522.909 468.333 523.069 468.268 523.261 468.268C523.446 468.268 523.604 468.333 523.733 468.462C523.863 468.592 523.928 468.753 523.928 468.944C523.928 469.136 523.863 469.296 523.733 469.426C523.604 469.556 523.446 469.621 523.261 469.621Z" fill="black"/>
<path d="M462.657 463.117V467.758C462.657 468.333 462.481 468.787 462.129 469.12C461.783 469.454 461.326 469.621 460.758 469.621C460.19 469.621 459.73 469.454 459.378 469.12C459.032 468.787 458.859 468.333 458.859 467.758H459.924C459.93 468.042 460.001 468.268 460.137 468.435C460.279 468.601 460.486 468.685 460.758 468.685C461.03 468.685 461.237 468.601 461.379 468.435C461.521 468.262 461.592 468.036 461.592 467.758V463.117H462.657ZM468.998 464.451V469.556H467.942V468.953C467.776 469.163 467.556 469.33 467.284 469.454C467.019 469.571 466.735 469.63 466.432 469.63C466.031 469.63 465.669 469.546 465.348 469.38C465.033 469.213 464.783 468.966 464.598 468.638C464.419 468.311 464.329 467.916 464.329 467.453V464.451H465.376V467.295C465.376 467.752 465.49 468.104 465.719 468.351C465.947 468.592 466.259 468.713 466.654 468.713C467.05 468.713 467.362 468.592 467.59 468.351C467.825 468.104 467.942 467.752 467.942 467.295V464.451H468.998ZM472.967 464.368C473.369 464.368 473.727 464.451 474.042 464.618C474.363 464.784 474.613 465.031 474.793 465.359C474.972 465.686 475.061 466.081 475.061 466.545V469.556H474.014V466.702C474.014 466.245 473.9 465.896 473.672 465.655C473.443 465.408 473.131 465.285 472.736 465.285C472.341 465.285 472.026 465.408 471.791 465.655C471.562 465.896 471.448 466.245 471.448 466.702V469.556H470.392V464.451H471.448V465.035C471.621 464.825 471.84 464.661 472.106 464.544C472.378 464.426 472.665 464.368 472.967 464.368ZM476.835 469.621C476.643 469.621 476.483 469.556 476.353 469.426C476.223 469.296 476.158 469.136 476.158 468.944C476.158 468.753 476.223 468.592 476.353 468.462C476.483 468.333 476.643 468.268 476.835 468.268C477.02 468.268 477.177 468.333 477.307 468.462C477.437 468.592 477.502 468.753 477.502 468.944C477.502 469.136 477.437 469.296 477.307 469.426C477.177 469.556 477.02 469.621 476.835 469.621Z" fill="black"/>
</g>
<defs>
<filter id="filter0_bd_1941_1231" x="0.720619" y="-9.25588" width="620.559" height="683.082" filterUnits="userSpaceOnUse" color-interpolation-filters="sRGB">
<feFlood flood-opacity="0" result="BackgroundImageFix"/>
<feGaussianBlur in="BackgroundImage" stdDeviation="5.12794"/>
<feComposite in2="SourceAlpha" operator="in" result="effect1_backgroundBlur_1941_1231"/>
<feColorMatrix in="SourceAlpha" type="matrix" values="0 0 0 0 0 0 0 0 0 0 0 0 0 0 0 0 0 0 127 0" result="hardAlpha"/>
<feMorphology radius="27.8374" operator="erode" in="SourceAlpha" result="effect2_dropShadow_1941_1231"/>
<feOffset dy="50.5468"/>
<feGaussianBlur stdDeviation="39.5584"/>
<feComposite in2="hardAlpha" operator="out"/>
<feColorMatrix type="matrix" values="0 0 0 0 0 0 0 0 0 0 0 0 0 0 0 0 0 0 0.1 0"/>
<feBlend mode="normal" in2="effect1_backgroundBlur_1941_1231" result="effect2_dropShadow_1941_1231"/>
<feBlend mode="normal" in="SourceGraphic" in2="effect2_dropShadow_1941_1231" result="shape"/>
</filter>
<filter id="filter1_d_1941_1231" x="78" y="103" width="90.209" height="29.223" filterUnits="userSpaceOnUse" color-interpolation-filters="sRGB">
<feFlood flood-opacity="0" result="BackgroundImageFix"/>
<feColorMatrix in="SourceAlpha" type="matrix" values="0 0 0 0 0 0 0 0 0 0 0 0 0 0 0 0 0 0 127 0" result="hardAlpha"/>
<feMorphology radius="5.08225" operator="erode" in="SourceAlpha" result="effect1_dropShadow_1941_1231"/>
<feOffset dy="7.62337"/>
<feGaussianBlur stdDeviation="2.54112"/>
<feComposite in2="hardAlpha" operator="out"/>
<feColorMatrix type="matrix" values="0 0 0 0 0 0 0 0 0 0 0 0 0 0 0 0 0 0 0.34 0"/>
<feBlend mode="normal" in2="BackgroundImageFix" result="effect1_dropShadow_1941_1231"/>
<feBlend mode="normal" in="SourceGraphic" in2="effect1_dropShadow_1941_1231" result="shape"/>
</filter>
<filter id="filter2_d_1941_1231" x="78" y="146.6" width="53" height="17.9884" filterUnits="userSpaceOnUse" color-interpolation-filters="sRGB">
<feFlood flood-opacity="0" result="BackgroundImageFix"/>
<feColorMatrix in="SourceAlpha" type="matrix" values="0 0 0 0 0 0 0 0 0 0 0 0 0 0 0 0 0 0 127 0" result="hardAlpha"/>
<feMorphology radius="13.9187" operator="erode" in="SourceAlpha" result="effect1_dropShadow_1941_1231"/>
<feOffset dy="12.4536"/>
<feGaussianBlur stdDeviation="6.22678"/>
<feComposite in2="hardAlpha" operator="out"/>
<feColorMatrix type="matrix" values="0 0 0 0 0 0 0 0 0 0 0 0 0 0 0 0 0 0 0.08 0"/>
<feBlend mode="normal" in2="BackgroundImageFix" result="effect1_dropShadow_1941_1231"/>
<feBlend mode="normal" in="SourceGraphic" in2="effect1_dropShadow_1941_1231" result="shape"/>
</filter>
<filter id="filter3_d_1941_1231" x="78" y="175.6" width="53" height="17.9884" filterUnits="userSpaceOnUse" color-interpolation-filters="sRGB">
<feFlood flood-opacity="0" result="BackgroundImageFix"/>
<feColorMatrix in="SourceAlpha" type="matrix" values="0 0 0 0 0 0 0 0 0 0 0 0 0 0 0 0 0 0 127 0" result="hardAlpha"/>
<feMorphology radius="13.9187" operator="erode" in="SourceAlpha" result="effect1_dropShadow_1941_1231"/>
<feOffset dy="12.4536"/>
<feGaussianBlur stdDeviation="6.22678"/>
<feComposite in2="hardAlpha" operator="out"/>
<feColorMatrix type="matrix" values="0 0 0 0 0 0 0 0 0 0 0 0 0 0 0 0 0 0 0.08 0"/>
<feBlend mode="normal" in2="BackgroundImageFix" result="effect1_dropShadow_1941_1231"/>
<feBlend mode="normal" in="SourceGraphic" in2="effect1_dropShadow_1941_1231" result="shape"/>
</filter>
<filter id="filter4_d_1941_1231" x="185.77" y="325" width="211.895" height="207.942" filterUnits="userSpaceOnUse" color-interpolation-filters="sRGB">
<feFlood flood-opacity="0" result="BackgroundImageFix"/>
<feColorMatrix in="SourceAlpha" type="matrix" values="0 0 0 0 0 0 0 0 0 0 0 0 0 0 0 0 0 0 127 0" result="hardAlpha"/>
<feMorphology radius="12.7005" operator="erode" in="SourceAlpha" result="effect1_dropShadow_1941_1231"/>
<feOffset dy="23.9069"/>
<feGaussianBlur stdDeviation="8.96508"/>
<feComposite in2="hardAlpha" operator="out"/>
<feColorMatrix type="matrix" values="0 0 0 0 0.396078 0 0 0 0 0.227451 0 0 0 0 0.776471 0 0 0 0.3 0"/>
<feBlend mode="normal" in2="BackgroundImageFix" result="effect1_dropShadow_1941_1231"/>
<feBlend mode="normal" in="SourceGraphic" in2="effect1_dropShadow_1941_1231" result="shape"/>
</filter>
<filter id="filter5_d_1941_1231" x="195.209" y="391.997" width="171.6" height="58.978" filterUnits="userSpaceOnUse" color-interpolation-filters="sRGB">
<feFlood flood-opacity="0" result="BackgroundImageFix"/>
<feColorMatrix in="SourceAlpha" type="matrix" values="0 0 0 0 0 0 0 0 0 0 0 0 0 0 0 0 0 0 127 0" result="hardAlpha"/>
<feMorphology radius="13.9187" operator="erode" in="SourceAlpha" result="effect1_dropShadow_1941_1231"/>
<feOffset dx="-15.3838" dy="32.2328"/>
<feGaussianBlur stdDeviation="9.52921"/>
<feComposite in2="hardAlpha" operator="out"/>
<feColorMatrix type="matrix" values="0 0 0 0 0.394434 0 0 0 0 0.226042 0 0 0 0 0.775 0 0 0 0.16 0"/>
<feBlend mode="normal" in2="BackgroundImageFix" result="effect1_dropShadow_1941_1231"/>
<feBlend mode="normal" in="SourceGraphic" in2="effect1_dropShadow_1941_1231" result="shape"/>
</filter>
<filter id="filter6_d_1941_1231" x="225" y="398" width="40.6797" height="14.0046" filterUnits="userSpaceOnUse" color-interpolation-filters="sRGB">
<feFlood flood-opacity="0" result="BackgroundImageFix"/>
<feColorMatrix in="SourceAlpha" type="matrix" values="0 0 0 0 0 0 0 0 0 0 0 0 0 0 0 0 0 0 127 0" result="hardAlpha"/>
<feMorphology radius="13.9187" operator="erode" in="SourceAlpha" result="effect1_dropShadow_1941_1231"/>
<feOffset dy="12.4536"/>
<feGaussianBlur stdDeviation="6.22678"/>
<feComposite in2="hardAlpha" operator="out"/>
<feColorMatrix type="matrix" values="0 0 0 0 0 0 0 0 0 0 0 0 0 0 0 0 0 0 0.08 0"/>
<feBlend mode="normal" in2="BackgroundImageFix" result="effect1_dropShadow_1941_1231"/>
<feBlend mode="normal" in="SourceGraphic" in2="effect1_dropShadow_1941_1231" result="shape"/>
</filter>
<filter id="filter7_d_1941_1231" x="225" y="404.033" width="22.0156" height="14.0046" filterUnits="userSpaceOnUse" color-interpolation-filters="sRGB">
<feFlood flood-opacity="0" result="BackgroundImageFix"/>
<feColorMatrix in="SourceAlpha" type="matrix" values="0 0 0 0 0 0 0 0 0 0 0 0 0 0 0 0 0 0 127 0" result="hardAlpha"/>
<feMorphology radius="13.9187" operator="erode" in="SourceAlpha" result="effect1_dropShadow_1941_1231"/>
<feOffset dy="12.4536"/>
<feGaussianBlur stdDeviation="6.22678"/>
<feComposite in2="hardAlpha" operator="out"/>
<feColorMatrix type="matrix" values="0 0 0 0 0 0 0 0 0 0 0 0 0 0 0 0 0 0 0.08 0"/>
<feBlend mode="normal" in2="BackgroundImageFix" result="effect1_dropShadow_1941_1231"/>
<feBlend mode="normal" in="SourceGraphic" in2="effect1_dropShadow_1941_1231" result="shape"/>
</filter>
<filter id="filter8_d_1941_1231" x="195.209" y="424.033" width="171.6" height="58.978" filterUnits="userSpaceOnUse" color-interpolation-filters="sRGB">
<feFlood flood-opacity="0" result="BackgroundImageFix"/>
<feColorMatrix in="SourceAlpha" type="matrix" values="0 0 0 0 0 0 0 0 0 0 0 0 0 0 0 0 0 0 127 0" result="hardAlpha"/>
<feMorphology radius="13.9187" operator="erode" in="SourceAlpha" result="effect1_dropShadow_1941_1231"/>
<feOffset dx="-15.3838" dy="32.2328"/>
<feGaussianBlur stdDeviation="9.52921"/>
<feComposite in2="hardAlpha" operator="out"/>
<feColorMatrix type="matrix" values="0 0 0 0 0.394434 0 0 0 0 0.226042 0 0 0 0 0.775 0 0 0 0.16 0"/>
<feBlend mode="normal" in2="BackgroundImageFix" result="effect1_dropShadow_1941_1231"/>
<feBlend mode="normal" in="SourceGraphic" in2="effect1_dropShadow_1941_1231" result="shape"/>
</filter>
<filter id="filter9_d_1941_1231" x="195.209" y="456.069" width="171.6" height="58.978" filterUnits="userSpaceOnUse" color-interpolation-filters="sRGB">
<feFlood flood-opacity="0" result="BackgroundImageFix"/>
<feColorMatrix in="SourceAlpha" type="matrix" values="0 0 0 0 0 0 0 0 0 0 0 0 0 0 0 0 0 0 127 0" result="hardAlpha"/>
<feMorphology radius="13.9187" operator="erode" in="SourceAlpha" result="effect1_dropShadow_1941_1231"/>
<feOffset dx="-15.3838" dy="32.2328"/>
<feGaussianBlur stdDeviation="9.52921"/>
<feComposite in2="hardAlpha" operator="out"/>
<feColorMatrix type="matrix" values="0 0 0 0 0.394434 0 0 0 0 0.226042 0 0 0 0 0.775 0 0 0 0.16 0"/>
<feBlend mode="normal" in2="BackgroundImageFix" result="effect1_dropShadow_1941_1231"/>
<feBlend mode="normal" in="SourceGraphic" in2="effect1_dropShadow_1941_1231" result="shape"/>
</filter>
<filter id="filter10_d_1941_1231" x="185.77" y="103" width="333.01" height="112.137" filterUnits="userSpaceOnUse" color-interpolation-filters="sRGB">
<feFlood flood-opacity="0" result="BackgroundImageFix"/>
<feColorMatrix in="SourceAlpha" type="matrix" values="0 0 0 0 0 0 0 0 0 0 0 0 0 0 0 0 0 0 127 0" result="hardAlpha"/>
<feMorphology radius="12.7005" operator="erode" in="SourceAlpha" result="effect1_dropShadow_1941_1231"/>
<feOffset dy="23.9069"/>
<feGaussianBlur stdDeviation="8.96508"/>
<feComposite in2="hardAlpha" operator="out"/>
<feColorMatrix type="matrix" values="0 0 0 0 0.396078 0 0 0 0 0.227451 0 0 0 0 0.776471 0 0 0 0.3 0"/>
<feBlend mode="normal" in2="BackgroundImageFix" result="effect1_dropShadow_1941_1231"/>
<feBlend mode="normal" in="SourceGraphic" in2="effect1_dropShadow_1941_1231" result="shape"/>
</filter>
<filter id="filter11_d_1941_1231" x="460" y="120" width="38" height="24.6234" filterUnits="userSpaceOnUse" color-interpolation-filters="sRGB">
<feFlood flood-opacity="0" result="BackgroundImageFix"/>
<feColorMatrix in="SourceAlpha" type="matrix" values="0 0 0 0 0 0 0 0 0 0 0 0 0 0 0 0 0 0 127 0" result="hardAlpha"/>
<feMorphology radius="5.08225" operator="erode" in="SourceAlpha" result="effect1_dropShadow_1941_1231"/>
<feOffset dy="7.62337"/>
<feGaussianBlur stdDeviation="2.54112"/>
<feComposite in2="hardAlpha" operator="out"/>
<feColorMatrix type="matrix" values="0 0 0 0 0 0 0 0 0 0 0 0 0 0 0 0 0 0 0.34 0"/>
<feBlend mode="normal" in2="BackgroundImageFix" result="effect1_dropShadow_1941_1231"/>
<feBlend mode="normal" in="SourceGraphic" in2="effect1_dropShadow_1941_1231" result="shape"/>
</filter>
<filter id="filter12_d_1941_1231" x="185.77" y="206" width="333.01" height="112.137" filterUnits="userSpaceOnUse" color-interpolation-filters="sRGB">
<feFlood flood-opacity="0" result="BackgroundImageFix"/>
<feColorMatrix in="SourceAlpha" type="matrix" values="0 0 0 0 0 0 0 0 0 0 0 0 0 0 0 0 0 0 127 0" result="hardAlpha"/>
<feMorphology radius="12.7005" operator="erode" in="SourceAlpha" result="effect1_dropShadow_1941_1231"/>
<feOffset dy="23.9069"/>
<feGaussianBlur stdDeviation="8.96508"/>
<feComposite in2="hardAlpha" operator="out"/>
<feColorMatrix type="matrix" values="0 0 0 0 0.396078 0 0 0 0 0.227451 0 0 0 0 0.776471 0 0 0 0.3 0"/>
<feBlend mode="normal" in2="BackgroundImageFix" result="effect1_dropShadow_1941_1231"/>
<feBlend mode="normal" in="SourceGraphic" in2="effect1_dropShadow_1941_1231" result="shape"/>
</filter>
<filter id="filter13_d_1941_1231" x="460" y="223" width="38" height="24.6234" filterUnits="userSpaceOnUse" color-interpolation-filters="sRGB">
<feFlood flood-opacity="0" result="BackgroundImageFix"/>
<feColorMatrix in="SourceAlpha" type="matrix" values="0 0 0 0 0 0 0 0 0 0 0 0 0 0 0 0 0 0 127 0" result="hardAlpha"/>
<feMorphology radius="5.08225" operator="erode" in="SourceAlpha" result="effect1_dropShadow_1941_1231"/>
<feOffset dy="7.62337"/>
<feGaussianBlur stdDeviation="2.54112"/>
<feComposite in2="hardAlpha" operator="out"/>
<feColorMatrix type="matrix" values="0 0 0 0 0 0 0 0 0 0 0 0 0 0 0 0 0 0 0.34 0"/>
<feBlend mode="normal" in2="BackgroundImageFix" result="effect1_dropShadow_1941_1231"/>
<feBlend mode="normal" in="SourceGraphic" in2="effect1_dropShadow_1941_1231" result="shape"/>
</filter>
<filter id="filter14_d_1941_1231" x="413.334" y="323" width="191.332" height="210.567" filterUnits="userSpaceOnUse" color-interpolation-filters="sRGB">
<feFlood flood-opacity="0" result="BackgroundImageFix"/>
<feColorMatrix in="SourceAlpha" type="matrix" values="0 0 0 0 0 0 0 0 0 0 0 0 0 0 0 0 0 0 127 0" result="hardAlpha"/>
<feMorphology radius="13.7601" operator="erode" in="SourceAlpha" result="effect1_dropShadow_1941_1231"/>
<feOffset dy="25.9013"/>
<feGaussianBlur stdDeviation="9.713"/>
<feComposite in2="hardAlpha" operator="out"/>
<feColorMatrix type="matrix" values="0 0 0 0 0.396078 0 0 0 0 0.227451 0 0 0 0 0.776471 0 0 0 0.3 0"/>
<feBlend mode="normal" in2="BackgroundImageFix" result="effect1_dropShadow_1941_1231"/>
<feBlend mode="normal" in="SourceGraphic" in2="effect1_dropShadow_1941_1231" result="shape"/>
</filter>
<linearGradient id="paint0_linear_1941_1231" x1="220.133" y1="403.051" x2="419.521" y2="397.166" gradientUnits="userSpaceOnUse">
<stop stop-color="#A9ADFF"/>
<stop offset="1" stop-color="#7E76FF"/>
</linearGradient>
<linearGradient id="paint1_linear_1941_1231" x1="28.0966" y1="-27.6016" x2="736.615" y2="260.072" gradientUnits="userSpaceOnUse">
<stop stop-color="white"/>
<stop offset="1" stop-color="white"/>
</linearGradient>
<linearGradient id="paint2_linear_1941_1231" x1="545.455" y1="362.188" x2="550.809" y2="394.727" gradientUnits="userSpaceOnUse">
<stop stop-color="#AFB5FE"/>
<stop offset="1" stop-color="#6B5EFF"/>
</linearGradient>
<clipPath id="clip0_1941_1231">
<rect x="57" y="6" width="508" height="561" rx="20.5118" fill="white"/>
</clipPath>
</defs>
</svg>
