<svg width="102" height="102" viewBox="0 0 102 102" fill="none" xmlns="http://www.w3.org/2000/svg">
<circle cx="51" cy="51" r="51" fill="#FFA200"/>
<path d="M35.1991 39.3893V37.4999H38.4909V46.1748H36.3756V39.3893H35.1991ZM39.8809 41.7185C39.8809 40.3559 40.1424 39.2824 40.6653 38.4981C41.1961 37.7138 42.0477 37.3216 43.2202 37.3216C44.3927 37.3216 45.2404 37.7138 45.7633 38.4981C46.2941 39.2824 46.5595 40.3559 46.5595 41.7185C46.5595 43.097 46.2941 44.1784 45.7633 44.9627C45.2404 45.747 44.3927 46.1392 43.2202 46.1392C42.0477 46.1392 41.1961 45.747 40.6653 44.9627C40.1424 44.1784 39.8809 43.097 39.8809 41.7185ZM44.563 41.7185C44.563 40.9183 44.4759 40.3044 44.3016 39.8766C44.1273 39.4408 43.7668 39.223 43.2202 39.223C42.6736 39.223 42.3131 39.4408 42.1388 39.8766C41.9645 40.3044 41.8774 40.9183 41.8774 41.7185C41.8774 42.2572 41.9091 42.7048 41.9724 43.0613C42.0358 43.4099 42.1626 43.6951 42.3527 43.9169C42.5508 44.1308 42.8399 44.2378 43.2202 44.2378C43.6005 44.2378 43.8857 44.1308 44.0758 43.9169C44.2739 43.6951 44.4046 43.4099 44.468 43.0613C44.5314 42.7048 44.563 42.2572 44.563 41.7185ZM47.6331 41.7185C47.6331 40.3559 47.8945 39.2824 48.4174 38.4981C48.9482 37.7138 49.7998 37.3216 50.9723 37.3216C52.1448 37.3216 52.9925 37.7138 53.5154 38.4981C54.0462 39.2824 54.3116 40.3559 54.3116 41.7185C54.3116 43.097 54.0462 44.1784 53.5154 44.9627C52.9925 45.747 52.1448 46.1392 50.9723 46.1392C49.7998 46.1392 48.9482 45.747 48.4174 44.9627C47.8945 44.1784 47.6331 43.097 47.6331 41.7185ZM52.3152 41.7185C52.3152 40.9183 52.228 40.3044 52.0537 39.8766C51.8794 39.4408 51.519 39.223 50.9723 39.223C50.4257 39.223 50.0652 39.4408 49.8909 39.8766C49.7166 40.3044 49.6295 40.9183 49.6295 41.7185C49.6295 42.2572 49.6612 42.7048 49.7246 43.0613C49.7879 43.4099 49.9147 43.6951 50.1048 43.9169C50.3029 44.1308 50.5921 44.2378 50.9723 44.2378C51.3526 44.2378 51.6378 44.1308 51.8279 43.9169C52.026 43.6951 52.1567 43.4099 52.2201 43.0613C52.2835 42.7048 52.3152 42.2572 52.3152 41.7185ZM61.6121 42.9306H59.5444V45.0459H57.6193V42.9306H55.5516V41.1124H57.6193V38.9853H59.5444V41.1124H61.6121V42.9306ZM14.9188 55.8326V64.1748H12.8867V55.8326H14.9188ZM20.4318 57.4725C21.2082 57.4725 21.8261 57.726 22.2856 58.2331C22.753 58.7322 22.9867 59.4214 22.9867 60.3008V64.1748H20.9666V60.5741C20.9666 60.1305 20.8517 59.7858 20.6219 59.5402C20.3922 59.2946 20.0832 59.1719 19.695 59.1719C19.3068 59.1719 18.9979 59.2946 18.7681 59.5402C18.5384 59.7858 18.4235 60.1305 18.4235 60.5741V64.1748H16.3914V57.5438H18.4235V58.4232C18.6295 58.1301 18.9067 57.9003 19.2553 57.7339C19.6039 57.5597 19.9961 57.4725 20.4318 57.4725ZM28.0946 62.4517V64.1748H27.0607C26.324 64.1748 25.7496 63.9966 25.3376 63.64C24.9257 63.2756 24.7197 62.6854 24.7197 61.8694V59.2313H23.9116V57.5438H24.7197V55.9277H26.7518V57.5438H28.0827V59.2313H26.7518V61.8932C26.7518 62.0912 26.7993 62.2338 26.8944 62.321C26.9894 62.4081 27.1479 62.4517 27.3697 62.4517H28.0946ZM35.4772 60.7524C35.4772 60.9425 35.4653 61.1406 35.4416 61.3465H30.8427C30.8744 61.7585 31.0051 62.0754 31.2348 62.2972C31.4725 62.5111 31.7617 62.6181 32.1023 62.6181C32.6093 62.6181 32.9619 62.4042 33.1599 61.9764H35.3227C35.2118 62.4121 35.0098 62.8042 34.7167 63.1528C34.4315 63.5014 34.071 63.7747 33.6353 63.9728C33.1996 64.1708 32.7123 64.2699 32.1736 64.2699C31.524 64.2699 30.9457 64.1312 30.4386 63.854C29.9316 63.5767 29.5355 63.1806 29.2503 62.6656C28.9651 62.1506 28.8225 61.5486 28.8225 60.8593C28.8225 60.1701 28.9611 59.568 29.2384 59.053C29.5236 58.5381 29.9197 58.1419 30.4267 57.8647C30.9338 57.5874 31.5161 57.4487 32.1736 57.4487C32.8153 57.4487 33.3857 57.5834 33.8848 57.8528C34.3839 58.1221 34.7721 58.5064 35.0494 59.0055C35.3346 59.5046 35.4772 60.0869 35.4772 60.7524ZM33.3976 60.2176C33.3976 59.869 33.2788 59.5917 33.0411 59.3858C32.8034 59.1798 32.5064 59.0768 32.1498 59.0768C31.8092 59.0768 31.52 59.1758 31.2824 59.3739C31.0526 59.5719 30.91 59.8532 30.8545 60.2176H33.3976ZM39.0685 57.4487C39.536 57.4487 39.944 57.5438 40.2925 57.7339C40.6491 57.9241 40.9224 58.1736 41.1125 58.4826V57.5438H43.1446V64.1629C43.1446 64.7729 43.0218 65.3235 42.7762 65.8147C42.5385 66.3138 42.1701 66.71 41.671 67.0031C41.1799 67.2962 40.5659 67.4428 39.8291 67.4428C38.8467 67.4428 38.0505 67.2091 37.4405 66.7416C36.8305 66.2821 36.4819 65.6563 36.3948 64.864H38.4031C38.4665 65.1176 38.617 65.3156 38.8546 65.4582C39.0923 65.6087 39.3854 65.684 39.734 65.684C40.1539 65.684 40.4866 65.5612 40.7322 65.3156C40.9858 65.078 41.1125 64.6937 41.1125 64.1629V63.2241C40.9145 63.5331 40.6411 63.7866 40.2925 63.9847C39.944 64.1748 39.536 64.2699 39.0685 64.2699C38.5219 64.2699 38.0268 64.1312 37.5831 63.854C37.1395 63.5687 36.7869 63.1687 36.5255 62.6537C36.272 62.1308 36.1452 61.5287 36.1452 60.8474C36.1452 60.1661 36.272 59.568 36.5255 59.053C36.7869 58.5381 37.1395 58.1419 37.5831 57.8647C38.0268 57.5874 38.5219 57.4487 39.0685 57.4487ZM41.1125 60.8593C41.1125 60.3523 40.9699 59.9522 40.6847 59.6591C40.4074 59.3659 40.0668 59.2194 39.6627 59.2194C39.2587 59.2194 38.9141 59.3659 38.6289 59.6591C38.3516 59.9443 38.2129 60.3404 38.2129 60.8474C38.2129 61.3545 38.3516 61.7585 38.6289 62.0595C38.9141 62.3527 39.2587 62.4992 39.6627 62.4992C40.0668 62.4992 40.4074 62.3527 40.6847 62.0595C40.9699 61.7664 41.1125 61.3663 41.1125 60.8593ZM46.6468 58.649C46.8845 58.2846 47.1815 57.9993 47.538 57.7934C47.8946 57.5795 48.2907 57.4725 48.7264 57.4725V59.6234H48.1679C47.6608 59.6234 47.2806 59.7343 47.0271 59.9562C46.7735 60.1701 46.6468 60.5503 46.6468 61.097V64.1748H44.6147V57.5438H46.6468V58.649ZM49.2936 60.8474C49.2936 60.1661 49.4204 59.568 49.6739 59.053C49.9354 58.5381 50.2879 58.1419 50.7315 57.8647C51.1752 57.5874 51.6703 57.4487 52.217 57.4487C52.6844 57.4487 53.0924 57.5438 53.441 57.7339C53.7975 57.9241 54.0708 58.1736 54.2609 58.4826V57.5438H56.293V64.1748H54.2609V63.236C54.0629 63.545 53.7856 63.7945 53.4291 63.9847C53.0805 64.1748 52.6725 64.2699 52.2051 64.2699C51.6664 64.2699 51.1752 64.1312 50.7315 63.854C50.2879 63.5687 49.9354 63.1687 49.6739 62.6537C49.4204 62.1308 49.2936 61.5287 49.2936 60.8474ZM54.2609 60.8593C54.2609 60.3523 54.1183 59.9522 53.8331 59.6591C53.5559 59.3659 53.2152 59.2194 52.8112 59.2194C52.4071 59.2194 52.0625 59.3659 51.7773 59.6591C51.5 59.9443 51.3614 60.3404 51.3614 60.8474C51.3614 61.3545 51.5 61.7585 51.7773 62.0595C52.0625 62.3527 52.4071 62.4992 52.8112 62.4992C53.2152 62.4992 53.5559 62.3527 53.8331 62.0595C54.1183 61.7664 54.2609 61.3663 54.2609 60.8593ZM61.4589 62.4517V64.1748H60.425C59.6883 64.1748 59.1139 63.9966 58.7019 63.64C58.29 63.2756 58.084 62.6854 58.084 61.8694V59.2313H57.2759V57.5438H58.084V55.9277H60.1161V57.5438H61.447V59.2313H60.1161V61.8932C60.1161 62.0912 60.1636 62.2338 60.2587 62.321C60.3537 62.4081 60.5122 62.4517 60.734 62.4517H61.4589ZM63.6128 56.8546C63.2563 56.8546 62.9632 56.7516 62.7334 56.5456C62.5116 56.3317 62.4007 56.0703 62.4007 55.7613C62.4007 55.4444 62.5116 55.183 62.7334 54.977C62.9632 54.7631 63.2563 54.6561 63.6128 54.6561C63.9614 54.6561 64.2466 54.7631 64.4684 54.977C64.6982 55.183 64.813 55.4444 64.813 55.7613C64.813 56.0703 64.6982 56.3317 64.4684 56.5456C64.2466 56.7516 63.9614 56.8546 63.6128 56.8546ZM64.6229 57.5438V64.1748H62.5908V57.5438H64.6229ZM69.1139 64.2699C68.4643 64.2699 67.878 64.1312 67.3552 63.854C66.8402 63.5767 66.4322 63.1806 66.1312 62.6656C65.838 62.1506 65.6915 61.5486 65.6915 60.8593C65.6915 60.178 65.842 59.5799 66.1431 59.0649C66.4441 58.542 66.8561 58.1419 67.3789 57.8647C67.9018 57.5874 68.4881 57.4487 69.1377 57.4487C69.7873 57.4487 70.3736 57.5874 70.8965 57.8647C71.4193 58.1419 71.8313 58.542 72.1323 59.0649C72.4334 59.5799 72.5839 60.178 72.5839 60.8593C72.5839 61.5406 72.4294 62.1427 72.1205 62.6656C71.8194 63.1806 71.4035 63.5767 70.8727 63.854C70.3498 64.1312 69.7636 64.2699 69.1139 64.2699ZM69.1139 62.5111C69.5021 62.5111 69.8309 62.3685 70.1003 62.0833C70.3775 61.7981 70.5162 61.3901 70.5162 60.8593C70.5162 60.3285 70.3815 59.9205 70.1121 59.6353C69.8507 59.3501 69.5259 59.2075 69.1377 59.2075C68.7416 59.2075 68.4128 59.3501 68.1514 59.6353C67.8899 59.9126 67.7592 60.3206 67.7592 60.8593C67.7592 61.3901 67.886 61.7981 68.1395 62.0833C68.4009 62.3685 68.7257 62.5111 69.1139 62.5111ZM77.7024 57.4725C78.4787 57.4725 79.0967 57.726 79.5562 58.2331C80.0236 58.7322 80.2573 59.4214 80.2573 60.3008V64.1748H78.2371V60.5741C78.2371 60.1305 78.1222 59.7858 77.8925 59.5402C77.6627 59.2946 77.3538 59.1719 76.9656 59.1719C76.5774 59.1719 76.2684 59.2946 76.0387 59.5402C75.8089 59.7858 75.694 60.1305 75.694 60.5741V64.1748H73.662V57.5438H75.694V58.4232C75.9 58.1301 76.1773 57.9003 76.5259 57.7339C76.8745 57.5597 77.2666 57.4725 77.7024 57.4725ZM84.3669 64.2699C83.7886 64.2699 83.2737 64.1708 82.8221 63.9728C82.3705 63.7747 82.014 63.5054 81.7526 63.1647C81.4911 62.8161 81.3446 62.4279 81.3129 62.0001H83.3212C83.345 62.2299 83.4519 62.416 83.6421 62.5586C83.8322 62.7013 84.0659 62.7726 84.3432 62.7726C84.5967 62.7726 84.7908 62.725 84.9255 62.63C85.0681 62.527 85.1394 62.3962 85.1394 62.2378C85.1394 62.0477 85.0403 61.909 84.8423 61.8219C84.6442 61.7268 84.3234 61.6238 83.8797 61.5129C83.4044 61.402 83.0083 61.2871 82.6914 61.1683C82.3745 61.0415 82.1012 60.8474 81.8714 60.586C81.6417 60.3166 81.5268 59.9562 81.5268 59.5046C81.5268 59.1243 81.6298 58.7797 81.8358 58.4707C82.0497 58.1538 82.3586 57.9043 82.7627 57.7221C83.1746 57.5399 83.6619 57.4487 84.2243 57.4487C85.0562 57.4487 85.7098 57.6547 86.1851 58.0667C86.6684 58.4786 86.9457 59.0253 87.017 59.7066H85.1394C85.1077 59.4769 85.0047 59.2946 84.8304 59.16C84.664 59.0253 84.4422 58.958 84.1649 58.958C83.9273 58.958 83.745 59.0055 83.6183 59.1006C83.4915 59.1877 83.4282 59.3105 83.4282 59.4689C83.4282 59.6591 83.5272 59.8017 83.7252 59.8967C83.9312 59.9918 84.2481 60.0869 84.6759 60.1819C85.1671 60.3087 85.5672 60.4355 85.8762 60.5622C86.1851 60.6811 86.4545 60.8791 86.6842 61.1564C86.9219 61.4258 87.0447 61.7902 87.0526 62.2497C87.0526 62.6379 86.9417 62.9865 86.7199 63.2954C86.506 63.5965 86.193 63.8341 85.7811 64.0084C85.377 64.1827 84.9057 64.2699 84.3669 64.2699Z" fill="white"/>
</svg>
