<svg width="118" height="40" viewBox="0 0 118 40" fill="none" xmlns="http://www.w3.org/2000/svg">
<path d="M4.46171 26.3219V32.4054C4.46171 33.3919 3.66204 34.1916 2.67553 34.1916H2.07765C0.926721 34.1916 0 33.2648 0 32.1139V10.1491C0 8.93093 0.98651 7.93695 2.21217 7.93695H3.19121C3.89372 7.93695 4.46171 8.50494 4.46171 9.20746C5.58275 8.13126 6.95041 7.58569 8.58712 7.58569C14.6781 7.58569 17.7273 10.8965 17.7273 17.5181C17.7273 20.6046 16.8828 22.9812 15.2012 24.6478C13.5197 26.3144 11.2178 27.1515 8.30312 27.1515C6.89062 27.144 5.61264 26.8675 4.46171 26.3219ZM4.46171 12.2567V22.3011C5.26886 22.9588 6.218 23.2802 7.30167 23.2802C9.35689 23.2802 10.8367 22.7869 11.7335 21.8079C12.6303 20.8288 13.0787 19.2743 13.0787 17.1593C13.0787 14.9023 12.6303 13.3104 11.741 12.3837C10.8516 11.4645 9.37184 11.0011 7.31661 11.0011C6.24789 11.0086 5.29128 11.4271 4.46171 12.2567Z" fill="#F7931E"/>
<path d="M30.2903 24.6102C29.8867 25.2754 29.1842 25.8209 28.1753 26.2395C27.1663 26.658 26.12 26.8747 25.0289 26.8747C22.9737 26.8747 21.3519 26.359 20.1786 25.3277C18.9977 24.2963 18.4148 22.839 18.4148 20.9482C18.4148 18.736 19.2444 17.0021 20.9035 15.7541C22.5626 14.506 24.9243 13.8782 27.9809 13.8782C28.5041 13.8782 29.1244 13.9679 29.8344 14.1472C29.8344 11.8977 28.4144 10.7767 25.567 10.7767C24.6104 10.7767 23.736 10.8664 22.9587 11.0532C22.032 11.2699 21.1053 10.7244 20.8512 9.80511C20.5747 8.81112 21.1576 7.7723 22.159 7.50325C23.2801 7.19683 24.5132 7.04736 25.8734 7.04736C28.7881 7.04736 30.9255 7.71251 32.2782 9.03533C33.631 10.3656 34.3111 12.8767 34.3111 16.5761V20.6642C34.3111 23.2127 34.8193 24.812 35.8431 25.4622C35.4769 26.1049 35.0659 26.501 34.61 26.6505C34.1541 26.8 33.6384 26.8747 33.0555 26.8747C32.4128 26.8747 31.8373 26.6356 31.3216 26.1572C30.8134 25.6864 30.4696 25.1633 30.2903 24.6102ZM29.8568 17.5253C29.0945 17.3683 28.5265 17.2936 28.1454 17.2936C24.6253 17.2936 22.8616 18.4445 22.8616 20.7539C22.8616 22.4653 23.8555 23.3248 25.8435 23.3248C28.519 23.3248 29.8568 21.987 29.8568 19.3115V17.5253Z" fill="#F7931E"/>
<path d="M43.6903 29.7672C43.212 31.0377 42.1956 32.099 40.6337 32.936C39.6172 33.4816 38.4962 33.8478 37.2631 34.0421C36.1645 34.214 35.163 33.362 35.163 32.2484C35.163 31.1797 35.9627 30.2829 37.0164 30.1484C39.2211 29.8718 40.3198 29.0423 40.3198 27.6671C40.3198 26.5237 39.8415 24.7749 38.8923 22.4207L33.758 9.68576C33.3544 8.68431 34.0943 7.58569 35.1705 7.58569H35.9702C36.9118 7.58569 37.7563 8.16116 38.1001 9.03556L42.7487 20.7915L46.9114 9.06546C47.2253 8.1761 48.0698 7.58569 49.0115 7.58569H50.3418C51.1714 7.58569 51.7468 8.41526 51.4554 9.19251L43.6903 29.7672Z" fill="#F7931E"/>
<path d="M53.7349 11.1729C52.7783 11.1729 52.0085 10.3957 52.0085 9.44655V9.4316C52.0085 8.4152 52.8306 7.58564 53.8545 7.58564H54.2207V5.32862C54.2207 4.34959 54.8335 3.46771 55.7528 3.1314L56.8738 2.72035C57.7482 2.39899 58.6824 3.04919 58.6824 3.98338V7.59311H62.0904C63.1068 7.59311 63.9289 8.4152 63.9289 9.4316C63.9289 10.3957 63.1441 11.1804 62.1801 11.1804H59.9305C59.2429 11.1804 58.6824 11.7409 58.6824 12.4285V19.5508C58.6824 20.9185 58.8992 21.8826 59.3252 22.4505C59.7511 23.0185 60.506 23.2951 61.5747 23.2951C62.053 23.2951 62.5089 23.2353 62.9573 23.1232C63.7719 22.9139 64.5716 23.5118 64.5716 24.3563V24.9318C64.5716 25.9407 63.8242 26.7852 62.8228 26.9123C62.053 27.0094 61.1637 27.0617 60.1398 27.0617C58.234 27.0617 56.7767 26.5236 55.7528 25.4474C54.7289 24.3712 54.2207 22.8392 54.2207 20.8512V11.6587C54.2207 11.3897 54.004 11.1729 53.7349 11.1729Z" fill="white"/>
<path d="M77.7699 9.87237C77.3514 10.7094 76.4097 11.1578 75.5054 10.9261C75.1243 10.829 74.7207 10.7767 74.3097 10.7767C73.2783 10.7767 72.3591 11.2475 71.5519 12.1892C70.7523 13.1308 70.3487 14.2743 70.3487 15.6345V25.0063C70.3487 25.8434 69.6686 26.5235 68.8315 26.5235H67.6134C66.6567 26.5235 65.887 25.7462 65.887 24.7971V9.25954C65.887 8.23566 66.7165 7.40609 67.7404 7.40609H68.6597C69.5938 7.40609 70.3487 8.16092 70.3487 9.09512V9.15491C71.5968 7.74988 73.2559 7.04736 75.3261 7.04736C75.9837 7.04736 76.5741 7.0922 77.1048 7.17441C78.024 7.32388 78.5322 8.32534 78.1212 9.16238L77.7699 9.87237Z" fill="white"/>
<path d="M81.4544 24.6702V11.8904C81.4544 11.4345 81.0807 11.0609 80.6248 11.0609C79.728 11.0609 79.0105 10.3359 79.0105 9.44658V8.95332C79.0105 8.10134 79.7055 7.4063 80.5575 7.4063H84.369C85.2509 7.4063 85.9684 8.12376 85.9684 9.00564V24.9467C85.9684 25.8137 85.2659 26.5237 84.3915 26.5237H83.2929C82.2764 26.5162 81.4544 25.6941 81.4544 24.6702ZM83.7562 0C84.4737 0 85.079 0.254101 85.5872 0.754829C86.0954 1.26303 86.3421 1.86839 86.3421 2.58585C86.3421 3.30331 86.088 3.90867 85.5872 4.41687C85.079 4.92507 84.4737 5.1717 83.7562 5.1717C83.0387 5.1717 82.4334 4.9176 81.9252 4.41687C81.417 3.90867 81.1704 3.30331 81.1704 2.58585C81.1704 1.86839 81.4245 1.26303 81.9252 0.754829C82.4334 0.254101 83.0462 0 83.7562 0Z" fill="white"/>
<path d="M87.4556 16.7407C87.4556 13.826 88.3001 11.4495 89.9816 9.61843C91.6632 7.78741 93.8903 6.86816 96.648 6.86816C99.5478 6.86816 101.805 7.75004 103.412 9.50633C105.018 11.2701 105.818 13.6766 105.818 16.7333C105.818 19.7825 105.003 22.1964 103.367 23.9976C101.73 25.7912 99.488 26.6955 96.648 26.6955C93.7483 26.6955 91.4913 25.7912 89.877 23.9751C88.2627 22.1591 87.4556 19.7451 87.4556 16.7407ZM92.0967 16.7407C92.0967 20.9483 93.6138 23.0559 96.648 23.0559C98.0381 23.0559 99.1442 22.5103 99.9588 21.4117C100.773 20.3206 101.184 18.7586 101.184 16.7333C101.184 12.578 99.6748 10.5078 96.6555 10.5078C95.2654 10.5078 94.1594 11.0534 93.3373 12.152C92.5077 13.2431 92.0967 14.7752 92.0967 16.7407Z" fill="white"/>
<path d="M107.066 11.1729C106.169 11.1729 105.437 10.448 105.437 9.54371V9.02803C105.437 8.22836 106.08 7.58564 106.879 7.58564H107.649V5.09694C107.649 4.25243 108.172 3.4976 108.972 3.20613L110.302 2.72035C111.184 2.39899 112.118 3.04919 112.118 3.98338V7.57816H115.668C116.602 7.57816 117.357 8.33299 117.357 9.26719V9.73055C117.357 10.5227 116.715 11.158 115.93 11.158H113.307C112.649 11.158 112.111 11.6961 112.111 12.3538V19.5284C112.111 20.896 112.328 21.8601 112.754 22.4281C113.18 22.9961 113.934 23.2726 115.003 23.2726C115.616 23.2726 116.206 23.1755 116.774 22.9812C117.372 22.7794 118 23.2203 118 23.8556V25.2382C118 26.0229 117.44 26.6955 116.662 26.8226C115.803 26.9646 114.779 27.0318 113.576 27.0318C111.67 27.0318 110.213 26.4937 109.189 25.4175C108.165 24.3414 107.657 22.8093 107.657 20.8213V11.7559C107.657 11.4345 107.395 11.1729 107.066 11.1729Z" fill="white"/>
<path d="M61.866 36.5604V38.7651C61.866 38.922 61.7389 39.0491 61.582 39.0491H61.1336C60.7225 39.0491 60.3862 38.7128 60.3862 38.3017V31.0225C60.3862 30.589 60.7375 30.2377 61.171 30.2377H61.6642C61.7688 30.2377 61.8585 30.3274 61.8585 30.4321V30.447C61.8585 30.5292 61.9482 30.5741 62.0155 30.5217C62.3592 30.2527 62.7628 30.1182 63.2262 30.1182C65.244 30.1182 66.253 31.2317 66.253 33.4514C66.253 34.4902 65.9765 35.2824 65.4159 35.8429C64.8554 36.4034 64.0931 36.6799 63.129 36.6799C62.718 36.6799 62.3368 36.6052 61.993 36.4632C61.9333 36.4408 61.866 36.4931 61.866 36.5604ZM61.866 31.8296V35.0657C61.866 35.0956 61.8809 35.1254 61.9034 35.1404C62.1649 35.3347 62.4639 35.4393 62.8077 35.4393C63.4878 35.4393 63.981 35.2749 64.28 34.9536C64.5789 34.6322 64.7284 34.1165 64.7284 33.414C64.7284 32.6666 64.5789 32.136 64.2874 31.8296C63.9885 31.5232 63.5027 31.3737 62.8226 31.3737C62.4788 31.3737 62.1724 31.5008 61.9034 31.7549C61.8735 31.7773 61.866 31.7997 61.866 31.8296Z" fill="#F7931E"/>
<path d="M70.909 36.0298C70.8791 35.97 70.7969 35.9625 70.7521 36.0148C70.6101 36.1792 70.4083 36.3138 70.1467 36.4259C69.8104 36.5679 69.4666 36.6351 69.1004 36.6351C68.4203 36.6351 67.8822 36.4632 67.4936 36.1269C67.105 35.7906 66.9106 35.3048 66.9106 34.677C66.9106 33.9446 67.1872 33.3692 67.7327 32.9581C68.2783 32.5471 69.063 32.3378 70.0794 32.3378C70.2214 32.3378 70.3858 32.3602 70.5727 32.3976C70.6399 32.4126 70.6997 32.3602 70.6923 32.293C70.64 31.6353 70.1691 31.3065 69.2872 31.3065C68.8239 31.3065 68.4203 31.3737 68.084 31.5008C67.9794 31.5382 67.8673 31.4858 67.8374 31.3812L67.7253 30.9926C67.6356 30.6637 67.8224 30.32 68.1513 30.2303C68.5249 30.1257 68.936 30.0808 69.3844 30.0808C70.3485 30.0808 71.0585 30.2975 71.5069 30.7385C71.9553 31.1794 72.1795 32.009 72.1795 33.2347V34.5874C72.1795 35.3721 72.329 35.8878 72.6204 36.1269C72.6578 36.1568 72.6653 36.2166 72.6429 36.254C72.5308 36.4184 72.4112 36.523 72.2841 36.5679C72.1347 36.6202 71.9628 36.6426 71.7685 36.6426C71.5592 36.6426 71.3649 36.5604 71.193 36.4034C71.0659 36.2764 70.9688 36.1568 70.909 36.0298ZM70.6997 33.6083C70.6997 33.5635 70.6698 33.5261 70.625 33.5112C70.4083 33.4738 70.2513 33.4514 70.1318 33.4514C68.9659 33.4514 68.3829 33.8325 68.3829 34.5948C68.3829 35.2226 68.779 35.4991 69.5787 35.4394C70.214 35.387 70.6997 34.8489 70.6997 34.2062V33.6083Z" fill="#F7931E"/>
<path d="M76.0733 37.5395C75.9163 37.958 75.58 38.3093 75.0569 38.5858C74.6533 38.8026 74.2049 38.9296 73.6967 38.9819C73.45 39.0043 73.2408 38.8175 73.2408 38.5709V38.2495C73.2408 37.9506 73.4725 37.6965 73.7714 37.6666C74.5561 37.5844 74.9522 37.3078 74.9522 36.837C74.9522 36.4559 74.7953 35.8804 74.4814 35.0957L72.6728 30.6041C72.5906 30.4023 72.7401 30.1855 72.9568 30.1855H73.5547C73.8387 30.1855 74.1002 30.3574 74.2049 30.6265L75.6622 34.3184C75.6921 34.4006 75.6323 34.4006 75.6622 34.3184L77.1644 30.6041C77.2541 30.35 77.4932 30.1855 77.7623 30.1855H77.9043C78.3602 30.1855 78.6815 30.6414 78.5171 31.0749L76.0733 37.5395Z" fill="#F7931E"/>
<path d="M86.7978 36.5677C86.6334 36.5677 86.5064 36.4332 86.5064 36.2763V32.5993C86.5064 31.7697 86.1327 31.3512 85.3853 31.3512C85.1611 31.3512 84.9519 31.4185 84.7501 31.5455C84.6006 31.6427 84.4885 31.7473 84.3988 31.8594C84.3465 31.9341 84.3166 32.0238 84.3166 32.1135V36.209C84.3166 36.4033 84.1597 36.5677 83.9579 36.5677H83.1582C82.9788 36.5677 82.8368 36.4258 82.8368 36.2464V32.3751C82.8368 32.0612 82.7397 31.8146 82.5454 31.6352C82.3511 31.4484 82.082 31.3587 81.7308 31.3587C81.5439 31.3587 81.3421 31.4259 81.1254 31.5679C80.9759 31.6651 80.8489 31.7697 80.7592 31.8744C80.6919 31.9566 80.6546 32.0537 80.6546 32.1658V36.2464C80.6546 36.4258 80.5051 36.5752 80.3257 36.5752H79.4737C79.3093 36.5752 79.1748 36.4407 79.1748 36.2763V30.6861C79.1748 30.4394 79.3766 30.2376 79.6232 30.2376H79.9296C80.0941 30.2376 80.2435 30.3273 80.3183 30.4693C80.4005 30.6263 80.6023 30.6711 80.7368 30.559C81.103 30.2675 81.5514 30.1181 82.082 30.1181C82.8742 30.1181 83.487 30.3199 83.913 30.7309C83.9504 30.7683 84.0102 30.7683 84.0476 30.7309C84.2269 30.5515 84.4661 30.4095 84.7575 30.2974C85.0864 30.1704 85.4227 30.1106 85.7515 30.1106C86.454 30.1106 87.0071 30.3124 87.3957 30.716C87.7843 31.1195 87.9861 31.6726 87.9861 32.3826V36.1866C87.9861 36.3884 87.8217 36.5603 87.6125 36.5603H86.7978V36.5677Z" fill="#F7931E"/>
<path d="M94.3087 33.7951H90.1534C90.1011 33.7951 90.0487 33.84 90.0562 33.8998C90.1011 34.3556 90.2729 34.7144 90.5719 34.9759C90.8933 35.2525 91.3192 35.3945 91.8573 35.3945C92.3954 35.3945 92.8364 35.2824 93.1652 35.0582C93.2923 34.9685 93.4716 35.0208 93.5389 35.1553L93.8229 35.7158C93.9126 35.8877 93.8453 36.097 93.6809 36.1941C93.1802 36.4856 92.4926 36.6276 91.6406 36.6276C90.6765 36.6276 89.9142 36.3436 89.3462 35.7756C88.7857 35.2076 88.5017 34.4229 88.5017 33.4065C88.5017 32.4125 88.8081 31.5979 89.4284 30.9851C90.0487 30.3648 90.7886 30.0583 91.6481 30.0583C92.5673 30.0583 93.2997 30.3349 93.8603 30.8804C94.4133 31.426 94.6973 32.1285 94.6973 32.973C94.6973 33.1076 94.6749 33.2944 94.63 33.5261C94.6001 33.683 94.4656 33.7951 94.3087 33.7951ZM90.2281 32.689H93.1054C93.1652 32.689 93.2101 32.6367 93.2026 32.5769C93.0755 31.725 92.5673 31.299 91.678 31.299C90.8708 31.299 90.3552 31.725 90.1384 32.5695C90.116 32.6218 90.1608 32.689 90.2281 32.689Z" fill="#F7931E"/>
<path d="M99.4056 36.68C99.2486 36.68 99.1216 36.5529 99.1216 36.396V33.018C99.1216 32.4799 99.0169 32.0838 98.8077 31.8371C98.5984 31.5905 98.2621 31.4635 97.7913 31.4635C97.5746 31.4635 97.3429 31.5232 97.0962 31.6503C96.8646 31.7699 96.6777 31.9119 96.5432 32.0763C96.5283 32.0912 96.5208 32.1137 96.5208 32.1361V36.3213C96.5208 36.5156 96.3638 36.68 96.162 36.68H95.34C95.1755 36.68 95.041 36.5455 95.041 36.3811V30.6787C95.041 30.4994 95.1905 30.3499 95.3699 30.3499H95.8855C96.0201 30.3499 96.1396 30.4246 96.1994 30.5517L96.319 30.8133C96.3489 30.873 96.4236 30.888 96.4759 30.8432C96.872 30.4396 97.4326 30.2378 98.1575 30.2378C98.9123 30.2378 99.5027 30.462 99.9362 30.9179C100.37 31.3663 100.586 32.0016 100.586 32.8087V36.3811C100.586 36.5529 100.452 36.6875 100.28 36.6875H99.4056V36.68Z" fill="#F7931E"/>
<path d="M101.618 31.5008H101.274C101.11 31.5008 100.975 31.3662 100.975 31.2018V30.6488C100.975 30.4619 101.125 30.3125 101.311 30.3125H101.61C101.663 30.3125 101.708 30.2676 101.708 30.2153V29.2737C101.708 29.1242 101.797 28.9897 101.939 28.9373L102.799 28.6235C102.985 28.5562 103.18 28.6907 103.18 28.8925V30.2228C103.18 30.2751 103.225 30.32 103.277 30.32H104.615C104.779 30.32 104.921 30.4545 104.921 30.6264V31.157C104.921 31.3513 104.764 31.5082 104.57 31.5082H103.284C103.232 31.5082 103.187 31.5531 103.187 31.6054V34.2809C103.187 34.7368 103.255 35.0507 103.397 35.245C103.583 35.4917 103.957 35.5739 104.518 35.4991C104.689 35.4767 104.772 35.4393 104.921 35.3571C104.988 35.3198 105.138 35.3347 105.138 35.4094V36.3287C105.138 36.4931 105.018 36.6426 104.861 36.6725C104.547 36.7397 104.151 36.7771 103.673 36.7771C103.045 36.7771 102.559 36.5977 102.216 36.239C101.879 35.8803 101.708 35.3721 101.708 34.7144V31.6054C101.715 31.5456 101.67 31.5008 101.618 31.5008Z" fill="#F7931E"/>
<path d="M105.825 35.8804L106.087 35.2974C106.154 35.1405 106.349 35.0882 106.491 35.1779C106.864 35.4021 107.275 35.5142 107.716 35.5142C108.292 35.5142 108.576 35.3124 108.576 34.9013C108.576 34.6622 108.486 34.4604 108.314 34.3109C108.142 34.154 107.806 33.9746 107.305 33.7654C106.214 33.3095 105.668 32.6742 105.668 31.8596C105.668 31.314 105.878 30.888 106.296 30.5816C106.715 30.2752 107.245 30.1257 107.896 30.1257C108.449 30.1257 108.979 30.2304 109.48 30.4396C109.637 30.5069 109.712 30.6788 109.652 30.8357L109.465 31.3439C109.398 31.5233 109.196 31.598 109.024 31.5083C108.74 31.3663 108.396 31.2916 107.978 31.2916C107.462 31.2916 107.201 31.4934 107.201 31.9044C107.201 32.0689 107.283 32.2109 107.455 32.3454C107.627 32.4724 107.985 32.6518 108.546 32.8685C109.099 33.0853 109.502 33.3543 109.749 33.6607C109.996 33.9746 110.115 34.3483 110.115 34.7892C110.115 35.3796 109.898 35.8355 109.465 36.1718C109.032 36.5082 108.434 36.68 107.686 36.68C107.268 36.68 106.924 36.6427 106.67 36.5754C106.476 36.5231 106.244 36.4334 105.975 36.2989C105.825 36.2316 105.758 36.0373 105.825 35.8804Z" fill="#F7931E"/>
</svg>
