<svg width="843" height="123" viewBox="0 0 843 123" fill="none" xmlns="http://www.w3.org/2000/svg">
<path d="M843 122.196H0V108.054C0 100.109 6.51518 93.5938 14.4605 93.5938H828.698C836.644 93.5938 843.159 100.109 843.159 108.054V122.196H843Z" fill="#EBEBEB"/>
<path d="M109.487 23.3588V32.734H118.862H726.521V15.7314H116.32L109.487 23.3588Z" fill="#EBEBEB"/>
<path d="M123.947 21.6106L118.862 32.7337L95.6618 82.3113H81.8369L109.487 23.1996L111.076 19.7037C112.347 17.0024 114.413 15.5723 116.479 15.5723C117.75 15.5723 119.021 16.2079 120.133 17.3202L123.947 21.6106Z" fill="#EBEBEB"/>
<path d="M761.163 82.3113H747.338L724.138 32.5748L719.053 21.4517L723.025 17.3202C724.138 16.2079 725.409 15.5723 726.68 15.5723C728.746 15.5723 730.812 17.0024 732.083 19.7037L761.163 82.3113Z" fill="#EBEBEB"/>
<path d="M481.964 47.6708H361.036C352.614 47.6708 345.781 40.838 345.781 32.4161V15.2546C345.781 6.83281 352.614 0 361.036 0H481.964C490.386 0 497.219 6.83281 497.219 15.2546V32.4161C497.219 40.838 490.386 47.6708 481.964 47.6708Z" fill="#EBEBEB"/>
</svg>
