<svg width="693" height="821" viewBox="0 0 693 821" fill="none" xmlns="http://www.w3.org/2000/svg">
<rect x="296.79" y="62" width="272.961" height="636" rx="36.3948" fill="url(#paint0_linear_848_1088)"/>
<g opacity="0.3">
<rect x="99.2555" y="228.812" width="198.464" height="198.464" rx="99.2318" stroke="#E4EBF2" stroke-width="1.71089"/>
</g>
<g opacity="0.2" filter="url(#filter0_f_848_1088)">
<rect x="219" y="151" width="269" height="519" rx="53.5737" fill="black"/>
</g>
<g filter="url(#filter1_d_848_1088)">
<g filter="url(#filter2_b_848_1088)">
<rect x="217.307" y="103.061" width="265.188" height="556.04" rx="36.3948" fill="white" fill-opacity="0.95"/>
</g>
<g opacity="0.1" filter="url(#filter3_f_848_1088)">
<rect x="241.358" y="260.81" width="224.609" height="54.0864" rx="16.1359" fill="black"/>
</g>
<g filter="url(#filter4_d_848_1088)">
<g clip-path="url(#clip0_848_1088)">
<rect x="233.68" y="122.737" width="233.623" height="160.772" rx="18.1974" fill="url(#paint1_linear_848_1088)"/>
<path opacity="0.1" d="M329.49 248.94C300.869 247.595 245.714 274.955 245.714 301.471L251.268 303.998H474.362V145.904C458.78 144.903 425.256 170.08 418.357 197.718C407.249 242.219 361.427 250.441 329.49 248.94Z" fill="#F6F6F7"/>
<path opacity="0.1" d="M356.335 232.895C327.454 232.422 282.742 259.193 282.742 285.892L288.341 288.437H513.241V129.248C497.533 128.24 454.45 151.723 449.784 185.669C443.495 231.424 384.798 233.361 356.335 232.895Z" fill="#F6F6F7"/>
<path opacity="0.5" d="M435.463 249.507C434.278 249.041 433.027 248.805 431.767 248.812C427.699 248.812 424.824 251.052 424.806 254.257C424.773 256.613 426.844 257.94 428.41 258.734C430.018 259.547 430.556 260.053 430.548 260.774C430.54 261.886 429.263 262.381 428.087 262.381C426.453 262.381 425.567 262.139 424.2 261.515L423.692 261.253L423.113 264.955C424.108 265.397 425.89 265.786 427.729 265.822C432.063 265.822 434.888 263.602 434.92 260.178C434.954 258.301 433.845 256.876 431.482 255.701C430.056 254.943 429.164 254.427 429.164 253.65C429.164 252.964 429.926 252.243 431.517 252.243C432.573 252.214 433.623 252.426 434.599 252.865L434.989 253.054L435.56 249.488L435.463 249.507ZM446.039 249.119H442.856C441.862 249.119 441.124 249.408 440.685 250.483L434.569 265.586H438.895L439.767 263.113L445.044 263.121C445.176 263.699 445.549 265.585 445.549 265.585H449.369L446.039 249.119ZM418.948 248.984H423.067L420.489 265.458H416.37L418.948 248.975V248.984ZM408.474 258.056L408.896 260.35L412.93 249.119H417.298L410.8 265.559H406.452L402.888 251.638C402.86 251.522 402.812 251.414 402.745 251.319C402.678 251.225 402.594 251.146 402.498 251.088C401.218 250.363 399.86 249.814 398.455 249.454L398.504 249.109H405.15C406.046 249.145 406.775 249.454 407.023 250.501L408.474 258.065V258.056ZM440.941 259.745L442.591 255.132C442.565 255.176 442.93 254.184 443.136 253.56L443.418 254.976L444.373 259.734H440.941V259.745Z" fill="white"/>
<rect x="252.38" y="150.966" width="73.5684" height="11.9762" rx="5.98812" fill="#F8F8F8"/>
<rect x="252.38" y="175.774" width="146.281" height="11.9762" rx="5.98812" fill="white"/>
<rect x="252" y="252" width="58" height="11" rx="5.5" fill="#FBFBFB"/>
<rect x="316" y="252" width="57" height="11" rx="5.5" fill="#FCFCFC"/>
</g>
</g>
</g>
<path d="M243.867 422.553V431.444H242.084V427.661H238.275V431.444H236.492V422.553H238.275V426.209H242.084V422.553H243.867ZM246.527 423.546C246.213 423.546 245.949 423.449 245.737 423.253C245.533 423.05 245.431 422.799 245.431 422.502C245.431 422.205 245.533 421.958 245.737 421.763C245.949 421.559 246.213 421.457 246.527 421.457C246.841 421.457 247.1 421.559 247.304 421.763C247.516 421.958 247.622 422.205 247.622 422.502C247.622 422.799 247.516 423.05 247.304 423.253C247.1 423.449 246.841 423.546 246.527 423.546ZM247.406 424.387V431.444H245.622V424.387H247.406ZM251.868 431.559C251.291 431.559 250.773 431.457 250.314 431.253C249.855 431.041 249.49 430.756 249.219 430.4C248.955 430.043 248.811 429.648 248.785 429.215H250.582C250.616 429.487 250.747 429.712 250.976 429.89C251.214 430.068 251.507 430.158 251.855 430.158C252.195 430.158 252.458 430.09 252.645 429.954C252.84 429.818 252.938 429.644 252.938 429.431C252.938 429.202 252.819 429.032 252.581 428.922C252.352 428.803 251.983 428.676 251.473 428.54C250.947 428.412 250.514 428.281 250.174 428.145C249.843 428.009 249.554 427.801 249.308 427.521C249.07 427.24 248.951 426.863 248.951 426.387C248.951 425.996 249.061 425.64 249.282 425.317C249.512 424.994 249.834 424.74 250.25 424.553C250.675 424.366 251.172 424.272 251.741 424.272C252.581 424.272 253.252 424.485 253.753 424.909C254.254 425.326 254.53 425.89 254.581 426.604H252.874C252.849 426.323 252.73 426.103 252.518 425.941C252.314 425.771 252.038 425.686 251.69 425.686C251.367 425.686 251.117 425.746 250.938 425.865C250.768 425.984 250.683 426.149 250.683 426.362C250.683 426.599 250.802 426.782 251.04 426.909C251.278 427.028 251.647 427.151 252.148 427.279C252.658 427.406 253.078 427.538 253.409 427.674C253.741 427.809 254.025 428.022 254.263 428.31C254.509 428.591 254.637 428.964 254.645 429.431C254.645 429.839 254.53 430.204 254.301 430.527C254.08 430.85 253.758 431.104 253.333 431.291C252.917 431.47 252.429 431.559 251.868 431.559ZM258.185 425.852V429.266C258.185 429.504 258.24 429.678 258.351 429.788C258.47 429.89 258.665 429.941 258.937 429.941H259.765V431.444H258.644C257.141 431.444 256.389 430.714 256.389 429.253V425.852H255.548V424.387H256.389V422.642H258.185V424.387H259.765V425.852H258.185ZM264.181 431.559C263.502 431.559 262.89 431.41 262.347 431.113C261.803 430.807 261.374 430.378 261.06 429.826C260.754 429.274 260.602 428.637 260.602 427.916C260.602 427.194 260.759 426.557 261.073 426.005C261.396 425.453 261.833 425.028 262.385 424.731C262.937 424.425 263.553 424.272 264.232 424.272C264.911 424.272 265.527 424.425 266.079 424.731C266.631 425.028 267.064 425.453 267.378 426.005C267.701 426.557 267.862 427.194 267.862 427.916C267.862 428.637 267.697 429.274 267.366 429.826C267.043 430.378 266.601 430.807 266.041 431.113C265.489 431.41 264.869 431.559 264.181 431.559ZM264.181 430.005C264.504 430.005 264.805 429.928 265.085 429.775C265.374 429.614 265.603 429.376 265.773 429.062C265.943 428.748 266.028 428.366 266.028 427.916C266.028 427.245 265.85 426.731 265.493 426.374C265.145 426.009 264.716 425.827 264.207 425.827C263.697 425.827 263.268 426.009 262.92 426.374C262.58 426.731 262.41 427.245 262.41 427.916C262.41 428.586 262.576 429.105 262.907 429.47C263.247 429.826 263.672 430.005 264.181 430.005ZM270.954 425.483C271.183 425.109 271.48 424.816 271.846 424.604C272.219 424.391 272.644 424.285 273.119 424.285V426.158H272.648C272.088 426.158 271.663 426.289 271.374 426.553C271.094 426.816 270.954 427.274 270.954 427.928V431.444H269.171V424.387H270.954V425.483ZM281.072 424.387L276.703 434.781H274.805L276.333 431.266L273.505 424.387H275.505L277.327 429.317L279.174 424.387H281.072Z" fill="black"/>
<g filter="url(#filter5_d_848_1088)">
<circle cx="254.977" cy="468.367" r="17.1395" fill="white"/>
</g>
<g filter="url(#filter6_d_848_1088)">
<rect x="290.875" y="454.65" width="78.7011" height="8.55446" rx="4.27723" fill="white"/>
</g>
<g filter="url(#filter7_d_848_1088)">
<rect x="290.875" y="471.759" width="130.028" height="8.55446" rx="4.27723" fill="white"/>
</g>
<g filter="url(#filter8_d_848_1088)">
<circle cx="254.977" cy="516.334" r="17.1395" fill="white"/>
<rect x="290.875" y="502.616" width="78.7011" height="8.55446" rx="4.27723" fill="white"/>
<rect x="290.875" y="519.725" width="130.028" height="8.55446" rx="4.27723" fill="white"/>
</g>
<g filter="url(#filter9_d_848_1088)">
<circle cx="254.977" cy="564.3" r="17.1395" fill="white"/>
<rect x="290.875" y="550.582" width="78.7011" height="8.55446" rx="4.27723" fill="white"/>
<rect x="290.875" y="567.691" width="130.028" height="8.55446" rx="4.27723" fill="white"/>
</g>
<g filter="url(#filter10_d_848_1088)">
<circle cx="254.977" cy="612.266" r="17.1395" fill="white"/>
<rect x="290.875" y="598.549" width="78.7011" height="8.55446" rx="4.27723" fill="white"/>
<rect x="290.875" y="615.657" width="130.028" height="8.55446" rx="4.27723" fill="white"/>
</g>
<rect x="425.35" y="419.157" width="33.5545" height="16.7521" rx="8.37603" fill="#03011C"/>
<circle cx="441.364" cy="427.438" r="3.63681" stroke="#F6F6F6" stroke-width="1.21381" stroke-linecap="round" stroke-linejoin="round"/>
<path d="M443.893 430.156L445.319 431.579" stroke="#F6F6F6" stroke-width="1.21381" stroke-linecap="round" stroke-linejoin="round"/>
<path d="M241.229 315.687V317.127H237.522V319.407H240.363V320.821H237.522V324.578H235.739V315.687H241.229ZM249.156 317.521V324.578H247.36V323.687C247.13 323.992 246.829 324.234 246.455 324.413C246.09 324.583 245.691 324.668 245.258 324.668C244.706 324.668 244.218 324.553 243.793 324.324C243.368 324.086 243.033 323.742 242.787 323.292C242.549 322.833 242.43 322.29 242.43 321.661V317.521H244.213V321.407C244.213 321.967 244.354 322.4 244.634 322.706C244.914 323.003 245.296 323.152 245.78 323.152C246.273 323.152 246.659 323.003 246.939 322.706C247.22 322.4 247.36 321.967 247.36 321.407V317.521H249.156ZM254.826 317.42C255.667 317.42 256.346 317.687 256.864 318.222C257.382 318.749 257.641 319.487 257.641 320.438V324.578H255.858V320.68C255.858 320.12 255.718 319.691 255.437 319.394C255.157 319.088 254.775 318.935 254.291 318.935C253.798 318.935 253.408 319.088 253.119 319.394C252.839 319.691 252.699 320.12 252.699 320.68V324.578H250.915V317.521H252.699V318.4C252.937 318.095 253.238 317.857 253.603 317.687C253.977 317.509 254.384 317.42 254.826 317.42ZM258.878 321.024C258.878 320.311 259.019 319.678 259.299 319.126C259.588 318.574 259.978 318.15 260.471 317.853C260.963 317.555 261.511 317.407 262.114 317.407C262.573 317.407 263.01 317.509 263.426 317.712C263.842 317.908 264.173 318.171 264.42 318.502V315.152H266.228V324.578H264.42V323.534C264.199 323.882 263.889 324.162 263.49 324.375C263.091 324.587 262.628 324.693 262.101 324.693C261.507 324.693 260.963 324.54 260.471 324.234C259.978 323.929 259.588 323.5 259.299 322.948C259.019 322.387 258.878 321.746 258.878 321.024ZM264.432 321.05C264.432 320.617 264.347 320.247 264.178 319.942C264.008 319.627 263.778 319.39 263.49 319.228C263.201 319.058 262.891 318.974 262.56 318.974C262.229 318.974 261.923 319.054 261.643 319.216C261.362 319.377 261.133 319.615 260.955 319.929C260.785 320.235 260.7 320.6 260.7 321.024C260.7 321.449 260.785 321.823 260.955 322.145C261.133 322.46 261.362 322.702 261.643 322.871C261.931 323.041 262.237 323.126 262.56 323.126C262.891 323.126 263.201 323.046 263.49 322.884C263.778 322.714 264.008 322.477 264.178 322.171C264.347 321.857 264.432 321.483 264.432 321.05ZM270.671 324.693C270.093 324.693 269.575 324.591 269.117 324.387C268.658 324.175 268.293 323.891 268.021 323.534C267.758 323.177 267.613 322.782 267.588 322.349H269.384C269.418 322.621 269.55 322.846 269.779 323.024C270.017 323.203 270.31 323.292 270.658 323.292C270.998 323.292 271.261 323.224 271.448 323.088C271.643 322.952 271.741 322.778 271.741 322.566C271.741 322.336 271.622 322.167 271.384 322.056C271.155 321.937 270.785 321.81 270.276 321.674C269.749 321.547 269.316 321.415 268.976 321.279C268.645 321.143 268.357 320.935 268.11 320.655C267.873 320.375 267.754 319.997 267.754 319.521C267.754 319.131 267.864 318.774 268.085 318.451C268.314 318.129 268.637 317.874 269.053 317.687C269.478 317.5 269.974 317.407 270.543 317.407C271.384 317.407 272.055 317.619 272.556 318.044C273.057 318.46 273.333 319.025 273.384 319.738H271.677C271.652 319.458 271.533 319.237 271.32 319.075C271.116 318.906 270.841 318.821 270.492 318.821C270.17 318.821 269.919 318.88 269.741 318.999C269.571 319.118 269.486 319.284 269.486 319.496C269.486 319.734 269.605 319.916 269.843 320.044C270.08 320.162 270.45 320.286 270.951 320.413C271.46 320.54 271.881 320.672 272.212 320.808C272.543 320.944 272.828 321.156 273.065 321.445C273.312 321.725 273.439 322.099 273.448 322.566C273.448 322.973 273.333 323.339 273.104 323.661C272.883 323.984 272.56 324.239 272.136 324.426C271.719 324.604 271.231 324.693 270.671 324.693Z" fill="#272727"/>
<g filter="url(#filter11_b_848_1088)">
<rect x="433.699" y="312.291" width="33.5545" height="16.7521" rx="8.37603" fill="#03011C"/>
</g>
<path d="M455.179 320.729H446.075" stroke="white" stroke-width="1.21381" stroke-linecap="round" stroke-linejoin="round"/>
<path d="M451.507 317.073L455.179 320.729L451.507 324.386" stroke="white" stroke-width="1.21381" stroke-linecap="round" stroke-linejoin="round"/>
<rect x="379.637" y="340.364" width="87.5901" height="49.961" rx="8.4967" fill="#03011C"/>
<path d="M380.131 375.603C383.592 379.613 394.818 389.21 403.717 384.399C414.842 378.384 415.195 369.015 430.416 369.021C434.388 369.022 437.802 369.021 438.573 369.021" stroke="white" stroke-width="1.51727" stroke-linecap="round"/>
<circle cx="438.529" cy="369.359" r="3.01327" fill="white"/>
<path d="M438.522 369.288L438.576 389.058" stroke="white" stroke-width="0.606907" stroke-linecap="round" stroke-dasharray="1.82 1.82"/>
<path fill-rule="evenodd" clip-rule="evenodd" d="M431.279 344.848C427.29 344.848 424.057 348.081 424.057 352.07C424.057 356.058 427.29 359.292 431.279 359.292H435.319L437.982 362.983C438.22 363.314 438.71 363.32 438.957 362.997L441.785 359.292H445.766C449.754 359.292 452.987 356.058 452.987 352.07C452.987 348.081 449.754 344.848 445.766 344.848H431.279Z" fill="url(#paint2_linear_848_1088)"/>
<path d="M432.284 352.809H430.87V354.258H430.128V352.809H428.714V352.137H430.128V350.688H430.87V352.137H432.284V352.809ZM436.707 350.583H434.362V351.976C434.46 351.845 434.605 351.736 434.796 351.647C434.992 351.558 435.2 351.514 435.419 351.514C435.811 351.514 436.128 351.598 436.371 351.766C436.618 351.934 436.793 352.146 436.896 352.403C437.003 352.66 437.057 352.93 437.057 353.215C437.057 353.56 436.989 353.868 436.854 354.139C436.723 354.405 436.525 354.615 436.259 354.769C435.998 354.923 435.676 355 435.293 355C434.784 355 434.376 354.874 434.068 354.622C433.76 354.37 433.576 354.036 433.515 353.621H434.292C434.343 353.84 434.458 354.015 434.635 354.146C434.812 354.272 435.034 354.335 435.3 354.335C435.631 354.335 435.879 354.235 436.042 354.034C436.21 353.833 436.294 353.567 436.294 353.236C436.294 352.9 436.21 352.643 436.042 352.466C435.874 352.284 435.627 352.193 435.3 352.193C435.071 352.193 434.878 352.251 434.719 352.368C434.565 352.48 434.453 352.634 434.383 352.83H433.627V349.883H436.707V350.583ZM438.315 355.049C438.17 355.049 438.049 355 437.951 354.902C437.853 354.804 437.804 354.683 437.804 354.538C437.804 354.393 437.853 354.272 437.951 354.174C438.049 354.076 438.17 354.027 438.315 354.027C438.455 354.027 438.574 354.076 438.672 354.174C438.77 354.272 438.819 354.393 438.819 354.538C438.819 354.683 438.77 354.804 438.672 354.902C438.574 355 438.455 355.049 438.315 355.049ZM439.576 352.382C439.576 351.575 439.712 350.945 439.982 350.492C440.258 350.035 440.729 349.806 441.396 349.806C442.064 349.806 442.533 350.035 442.803 350.492C443.079 350.945 443.216 351.575 443.216 352.382C443.216 353.199 443.079 353.838 442.803 354.3C442.533 354.757 442.064 354.986 441.396 354.986C440.729 354.986 440.258 354.757 439.982 354.3C439.712 353.838 439.576 353.199 439.576 352.382ZM442.432 352.382C442.432 352.004 442.407 351.684 442.355 351.423C442.309 351.162 442.211 350.949 442.061 350.786C441.912 350.618 441.69 350.534 441.396 350.534C441.102 350.534 440.881 350.618 440.731 350.786C440.582 350.949 440.482 351.162 440.43 351.423C440.384 351.684 440.36 352.004 440.36 352.382C440.36 352.774 440.384 353.103 440.43 353.369C440.477 353.635 440.575 353.85 440.724 354.013C440.878 354.176 441.102 354.258 441.396 354.258C441.69 354.258 441.912 354.176 442.061 354.013C442.215 353.85 442.316 353.635 442.362 353.369C442.409 353.103 442.432 352.774 442.432 352.382ZM443.935 351.129C443.935 350.788 444.033 350.522 444.229 350.331C444.429 350.135 444.686 350.037 444.999 350.037C445.311 350.037 445.566 350.135 445.762 350.331C445.962 350.522 446.063 350.788 446.063 351.129C446.063 351.47 445.962 351.738 445.762 351.934C445.566 352.13 445.311 352.228 444.999 352.228C444.686 352.228 444.429 352.13 444.229 351.934C444.033 351.738 443.935 351.47 443.935 351.129ZM448.205 350.128L445.412 355H444.628L447.421 350.128H448.205ZM444.999 350.52C444.705 350.52 444.558 350.723 444.558 351.129C444.558 351.54 444.705 351.745 444.999 351.745C445.139 351.745 445.246 351.696 445.321 351.598C445.4 351.495 445.44 351.339 445.44 351.129C445.44 350.723 445.293 350.52 444.999 350.52ZM446.784 353.992C446.784 353.651 446.882 353.385 447.078 353.194C447.278 352.998 447.535 352.9 447.848 352.9C448.156 352.9 448.408 352.998 448.604 353.194C448.804 353.385 448.905 353.651 448.905 353.992C448.905 354.333 448.804 354.601 448.604 354.797C448.408 354.993 448.156 355.091 447.848 355.091C447.535 355.091 447.278 354.993 447.078 354.797C446.882 354.601 446.784 354.333 446.784 353.992ZM447.841 353.383C447.547 353.383 447.4 353.586 447.4 353.992C447.4 354.398 447.547 354.601 447.841 354.601C448.135 354.601 448.282 354.398 448.282 353.992C448.282 353.586 448.135 353.383 447.841 353.383Z" fill="white"/>
<path d="M380.131 369.855L472.119 369.474" stroke="white" stroke-opacity="0.25" stroke-width="0.726638" stroke-linecap="round" stroke-linejoin="round" stroke-dasharray="1.82 3.63"/>
<g filter="url(#filter12_d_848_1088)">
<rect x="235.681" y="340.364" width="136.444" height="49.961" rx="8.4967" fill="white"/>
</g>
<path opacity="0.5" d="M245.831 376.267V376.945H244.484V381.329H243.654V376.945H242.299V376.267H245.831ZM248.413 381.394C248.034 381.394 247.692 381.309 247.386 381.14C247.08 380.965 246.839 380.722 246.665 380.411C246.49 380.096 246.402 379.731 246.402 379.319C246.402 378.911 246.492 378.549 246.672 378.234C246.852 377.918 247.097 377.675 247.408 377.505C247.718 377.335 248.065 377.25 248.449 377.25C248.833 377.25 249.18 377.335 249.49 377.505C249.801 377.675 250.046 377.918 250.226 378.234C250.406 378.549 250.495 378.911 250.495 379.319C250.495 379.727 250.403 380.088 250.219 380.404C250.034 380.72 249.782 380.965 249.461 381.14C249.146 381.309 248.796 381.394 248.413 381.394ZM248.413 380.673C248.626 380.673 248.825 380.622 249.01 380.52C249.199 380.418 249.352 380.266 249.469 380.062C249.585 379.858 249.643 379.61 249.643 379.319C249.643 379.027 249.588 378.782 249.476 378.583C249.364 378.379 249.216 378.226 249.032 378.124C248.847 378.022 248.648 377.971 248.434 377.971C248.221 377.971 248.022 378.022 247.837 378.124C247.658 378.226 247.514 378.379 247.408 378.583C247.301 378.782 247.247 379.027 247.247 379.319C247.247 379.751 247.357 380.086 247.575 380.324C247.798 380.557 248.078 380.673 248.413 380.673ZM252.285 377.993V380.215C252.285 380.365 252.319 380.474 252.387 380.542C252.46 380.605 252.581 380.637 252.751 380.637H253.261V381.329H252.605C252.231 381.329 251.945 381.241 251.746 381.067C251.547 380.892 251.447 380.608 251.447 380.215V377.993H250.974V377.316H251.447V376.318H252.285V377.316H253.261V377.993H252.285ZM253.749 379.304C253.749 378.901 253.832 378.544 253.997 378.234C254.167 377.923 254.395 377.683 254.681 377.513C254.973 377.338 255.293 377.25 255.643 377.25C255.958 377.25 256.233 377.314 256.466 377.44C256.704 377.561 256.893 377.714 257.034 377.899V377.316H257.871V381.329H257.034V380.732C256.893 380.921 256.701 381.079 256.458 381.205C256.216 381.331 255.939 381.394 255.628 381.394C255.283 381.394 254.968 381.307 254.681 381.132C254.395 380.953 254.167 380.705 253.997 380.389C253.832 380.069 253.749 379.707 253.749 379.304ZM257.034 379.319C257.034 379.042 256.976 378.802 256.859 378.598C256.747 378.394 256.599 378.238 256.415 378.132C256.23 378.025 256.031 377.971 255.818 377.971C255.604 377.971 255.405 378.025 255.22 378.132C255.036 378.234 254.885 378.387 254.769 378.59C254.657 378.79 254.601 379.027 254.601 379.304C254.601 379.581 254.657 379.824 254.769 380.033C254.885 380.241 255.036 380.402 255.22 380.513C255.41 380.62 255.609 380.673 255.818 380.673C256.031 380.673 256.23 380.62 256.415 380.513C256.599 380.406 256.747 380.251 256.859 380.047C256.976 379.838 257.034 379.596 257.034 379.319ZM259.792 375.94V381.329H258.962V375.94H259.792Z" fill="black"/>
<path d="M366.604 346.619L363.097 350.126" stroke="black" stroke-width="0.91036" stroke-linecap="round" stroke-linejoin="round"/>
<path d="M363.381 346.625L366.605 346.619L366.598 349.842" stroke="black" stroke-width="0.91036" stroke-linecap="round" stroke-linejoin="round"/>
<path d="M253.027 361.945C253.027 362.618 252.852 363.252 252.502 363.848C252.166 364.43 251.661 364.916 250.987 365.304C250.327 365.68 249.544 365.9 248.637 365.965V367.538H247.395V365.945C246.1 365.829 245.058 365.44 244.268 364.78C243.478 364.107 243.07 363.2 243.044 362.061H245.957C246.035 362.993 246.514 363.556 247.395 363.751V360.041C246.462 359.808 245.711 359.575 245.142 359.342C244.572 359.109 244.08 358.734 243.666 358.216C243.251 357.698 243.044 356.992 243.044 356.099C243.044 354.972 243.446 354.053 244.248 353.341C245.064 352.629 246.113 352.221 247.395 352.117V350.544H248.637V352.117C249.88 352.221 250.871 352.597 251.609 353.244C252.36 353.891 252.781 354.785 252.871 355.924H249.939C249.9 355.549 249.764 355.225 249.531 354.953C249.311 354.668 249.013 354.467 248.637 354.351V358.021C249.609 358.267 250.372 358.507 250.929 358.74C251.499 358.96 251.991 359.329 252.405 359.847C252.819 360.352 253.027 361.051 253.027 361.945ZM245.88 355.963C245.88 356.39 246.009 356.74 246.268 357.012C246.527 357.271 246.903 357.484 247.395 357.652V354.293C246.928 354.357 246.559 354.532 246.288 354.817C246.016 355.102 245.88 355.484 245.88 355.963ZM248.637 363.79C249.129 363.699 249.511 363.498 249.783 363.187C250.068 362.877 250.211 362.501 250.211 362.061C250.211 361.634 250.075 361.291 249.803 361.032C249.531 360.773 249.142 360.559 248.637 360.391V363.79ZM258.898 361.867C259.001 362.437 259.234 362.877 259.597 363.187C259.972 363.485 260.471 363.634 261.092 363.634C261.895 363.634 262.477 363.304 262.84 362.644C263.203 361.97 263.384 360.844 263.384 359.264C263.086 359.679 262.665 360.002 262.121 360.235C261.591 360.469 261.014 360.585 260.393 360.585C259.564 360.585 258.813 360.417 258.14 360.08C257.48 359.731 256.955 359.219 256.567 358.546C256.179 357.86 255.984 357.031 255.984 356.06C255.984 354.623 256.412 353.483 257.266 352.642C258.121 351.787 259.286 351.36 260.762 351.36C262.6 351.36 263.895 351.949 264.646 353.127C265.41 354.306 265.792 356.079 265.792 358.449C265.792 360.132 265.643 361.511 265.345 362.585C265.06 363.66 264.562 364.476 263.85 365.032C263.151 365.589 262.193 365.868 260.976 365.868C260.017 365.868 259.202 365.686 258.529 365.324C257.855 364.948 257.337 364.463 256.975 363.867C256.625 363.259 256.425 362.592 256.373 361.867H258.898ZM260.956 358.371C261.629 358.371 262.16 358.164 262.549 357.75C262.937 357.335 263.131 356.779 263.131 356.079C263.131 355.315 262.924 354.726 262.51 354.312C262.108 353.885 261.558 353.671 260.859 353.671C260.16 353.671 259.603 353.891 259.189 354.331C258.787 354.759 258.587 355.328 258.587 356.041C258.587 356.727 258.781 357.29 259.169 357.73C259.571 358.157 260.166 358.371 260.956 358.371ZM277.425 354.04H271.132V357.361C271.404 357.025 271.793 356.753 272.298 356.545C272.803 356.325 273.34 356.215 273.91 356.215C274.945 356.215 275.793 356.442 276.454 356.895C277.114 357.348 277.593 357.931 277.891 358.643C278.189 359.342 278.338 360.093 278.338 360.896C278.338 362.385 277.91 363.582 277.056 364.489C276.214 365.395 275.01 365.848 273.443 365.848C271.967 365.848 270.789 365.479 269.909 364.741C269.028 364.003 268.53 363.039 268.413 361.847H271.055C271.171 362.365 271.43 362.78 271.831 363.09C272.246 363.401 272.77 363.556 273.405 363.556C274.168 363.556 274.745 363.317 275.133 362.838C275.521 362.359 275.716 361.724 275.716 360.935C275.716 360.132 275.515 359.523 275.114 359.109C274.725 358.682 274.149 358.468 273.385 358.468C272.841 358.468 272.388 358.604 272.026 358.876C271.663 359.148 271.404 359.51 271.249 359.964H268.646V351.651H277.425V354.04ZM287.748 355.225C287.619 354.681 287.392 354.273 287.068 354.001C286.758 353.729 286.304 353.593 285.709 353.593C284.815 353.593 284.155 353.956 283.728 354.681C283.314 355.393 283.1 356.558 283.087 358.177C283.398 357.659 283.851 357.258 284.446 356.973C285.042 356.675 285.689 356.526 286.389 356.526C287.23 356.526 287.975 356.707 288.622 357.07C289.269 357.432 289.774 357.963 290.137 358.662C290.499 359.349 290.681 360.177 290.681 361.148C290.681 362.068 290.493 362.89 290.117 363.615C289.755 364.327 289.218 364.884 288.505 365.285C287.793 365.686 286.945 365.887 285.961 365.887C284.615 365.887 283.553 365.589 282.776 364.994C282.012 364.398 281.475 363.569 281.164 362.508C280.867 361.433 280.718 360.112 280.718 358.546C280.718 356.176 281.125 354.39 281.941 353.186C282.757 351.969 284.045 351.36 285.806 351.36C287.165 351.36 288.221 351.729 288.972 352.467C289.723 353.205 290.156 354.124 290.273 355.225H287.748ZM285.767 358.759C285.081 358.759 284.505 358.96 284.039 359.362C283.573 359.763 283.339 360.346 283.339 361.109C283.339 361.873 283.553 362.475 283.98 362.916C284.421 363.356 285.036 363.576 285.825 363.576C286.525 363.576 287.075 363.362 287.476 362.935C287.89 362.508 288.098 361.932 288.098 361.207C288.098 360.456 287.897 359.86 287.496 359.42C287.107 358.98 286.531 358.759 285.767 358.759Z" fill="black"/>
<rect x="293.562" y="647.125" width="117.196" height="4.27723" rx="2.13862" fill="#F6F6F6"/>
<g opacity="0.3" filter="url(#filter13_f_848_1088)">
<rect x="420.532" y="175.734" width="121.923" height="85.5279" rx="42.764" fill="black"/>
</g>
<g opacity="0.2" filter="url(#filter14_f_848_1088)">
<rect x="150.3" y="512.386" width="123.742" height="129.202" rx="53.5737" fill="black"/>
</g>
<rect x="139" y="498" width="135.252" height="135.252" rx="18.1974" fill="url(#paint3_linear_848_1088)"/>
<g opacity="0.75" filter="url(#filter15_b_848_1088)">
<rect x="189.338" y="574.229" width="38.297" height="15.4987" rx="7.74933" fill="white"/>
</g>
<path d="M201.012 582.069H199.649V583.465H198.933V582.069H197.57V581.421H198.933V580.024H199.649V581.421H201.012V582.069ZM205.275 579.923H203.015V581.266C203.109 581.14 203.249 581.034 203.433 580.948C203.622 580.863 203.822 580.82 204.034 580.82C204.412 580.82 204.717 580.901 204.951 581.063C205.19 581.225 205.359 581.43 205.457 581.677C205.561 581.925 205.613 582.186 205.613 582.46C205.613 582.793 205.547 583.09 205.417 583.351C205.291 583.607 205.1 583.81 204.843 583.958C204.592 584.106 204.281 584.181 203.912 584.181C203.422 584.181 203.028 584.059 202.731 583.816C202.434 583.573 202.257 583.252 202.198 582.851H202.947C202.997 583.063 203.107 583.231 203.278 583.357C203.449 583.479 203.663 583.54 203.919 583.54C204.238 583.54 204.477 583.443 204.634 583.249C204.796 583.056 204.877 582.8 204.877 582.48C204.877 582.156 204.796 581.909 204.634 581.738C204.472 581.563 204.234 581.475 203.919 581.475C203.699 581.475 203.512 581.531 203.359 581.644C203.21 581.751 203.103 581.9 203.035 582.089H202.306V579.248H205.275V579.923ZM206.825 584.228C206.686 584.228 206.569 584.181 206.474 584.086C206.38 583.992 206.332 583.875 206.332 583.735C206.332 583.596 206.38 583.479 206.474 583.384C206.569 583.29 206.686 583.243 206.825 583.243C206.96 583.243 207.075 583.29 207.169 583.384C207.264 583.479 207.311 583.596 207.311 583.735C207.311 583.875 207.264 583.992 207.169 584.086C207.075 584.181 206.96 584.228 206.825 584.228ZM208.041 581.657C208.041 580.879 208.172 580.271 208.432 579.835C208.698 579.394 209.152 579.174 209.796 579.174C210.439 579.174 210.891 579.394 211.152 579.835C211.417 580.271 211.55 580.879 211.55 581.657C211.55 582.444 211.417 583.061 211.152 583.506C210.891 583.947 210.439 584.167 209.796 584.167C209.152 584.167 208.698 583.947 208.432 583.506C208.172 583.061 208.041 582.444 208.041 581.657ZM210.794 581.657C210.794 581.293 210.769 580.984 210.72 580.733C210.675 580.481 210.58 580.276 210.437 580.119C210.293 579.957 210.079 579.876 209.796 579.876C209.512 579.876 209.298 579.957 209.154 580.119C209.011 580.276 208.914 580.481 208.864 580.733C208.819 580.984 208.797 581.293 208.797 581.657C208.797 582.035 208.819 582.352 208.864 582.608C208.909 582.865 209.004 583.072 209.148 583.229C209.296 583.387 209.512 583.465 209.796 583.465C210.079 583.465 210.293 583.387 210.437 583.229C210.585 583.072 210.682 582.865 210.727 582.608C210.772 582.352 210.794 582.035 210.794 581.657ZM212.242 580.449C212.242 580.121 212.337 579.864 212.526 579.68C212.719 579.491 212.967 579.396 213.268 579.396C213.569 579.396 213.815 579.491 214.004 579.68C214.197 579.864 214.294 580.121 214.294 580.449C214.294 580.778 214.197 581.036 214.004 581.225C213.815 581.414 213.569 581.509 213.268 581.509C212.967 581.509 212.719 581.414 212.526 581.225C212.337 581.036 212.242 580.778 212.242 580.449ZM216.359 579.484L213.666 584.181H212.91L215.603 579.484H216.359ZM213.268 579.862C212.985 579.862 212.843 580.058 212.843 580.449C212.843 580.845 212.985 581.043 213.268 581.043C213.403 581.043 213.506 580.996 213.578 580.901C213.655 580.802 213.693 580.652 213.693 580.449C213.693 580.058 213.551 579.862 213.268 579.862ZM214.989 583.209C214.989 582.881 215.083 582.624 215.272 582.44C215.466 582.251 215.713 582.156 216.014 582.156C216.311 582.156 216.554 582.251 216.743 582.44C216.937 582.624 217.033 582.881 217.033 583.209C217.033 583.537 216.937 583.796 216.743 583.985C216.554 584.174 216.311 584.268 216.014 584.268C215.713 584.268 215.466 584.174 215.272 583.985C215.083 583.796 214.989 583.537 214.989 583.209ZM216.008 582.622C215.724 582.622 215.583 582.818 215.583 583.209C215.583 583.6 215.724 583.796 216.008 583.796C216.291 583.796 216.433 583.6 216.433 583.209C216.433 582.818 216.291 582.622 216.008 582.622Z" fill="white"/>
<path d="M194.016 563.007C194.016 563.643 193.851 564.242 193.521 564.805C193.203 565.355 192.726 565.814 192.09 566.18C191.466 566.535 190.726 566.743 189.87 566.804V568.29H188.696V566.786C187.473 566.676 186.488 566.309 185.742 565.685C184.996 565.049 184.611 564.193 184.587 563.117H187.338C187.412 563.997 187.864 564.529 188.696 564.713V561.209C187.815 560.989 187.106 560.769 186.568 560.548C186.03 560.328 185.565 559.974 185.174 559.484C184.782 558.995 184.587 558.329 184.587 557.485C184.587 556.421 184.966 555.552 185.724 554.88C186.494 554.207 187.485 553.822 188.696 553.724V552.238H189.87V553.724C191.044 553.822 191.98 554.176 192.677 554.788C193.386 555.399 193.784 556.243 193.869 557.32H191.099C191.062 556.965 190.934 556.659 190.714 556.402C190.506 556.133 190.225 555.944 189.87 555.834V559.301C190.787 559.533 191.509 559.76 192.035 559.98C192.573 560.188 193.038 560.536 193.429 561.025C193.82 561.502 194.016 562.163 194.016 563.007ZM187.265 557.356C187.265 557.76 187.387 558.09 187.632 558.347C187.877 558.592 188.231 558.793 188.696 558.952V555.779C188.256 555.84 187.907 556.005 187.65 556.274C187.393 556.543 187.265 556.904 187.265 557.356ZM189.87 564.749C190.335 564.664 190.696 564.474 190.952 564.181C191.221 563.887 191.356 563.533 191.356 563.117C191.356 562.713 191.228 562.389 190.971 562.144C190.714 561.9 190.347 561.698 189.87 561.539V564.749ZM199.654 562.933C199.751 563.471 199.972 563.887 200.314 564.181C200.669 564.462 201.14 564.603 201.727 564.603C202.485 564.603 203.035 564.291 203.378 563.667C203.72 563.031 203.891 561.967 203.891 560.475C203.61 560.866 203.213 561.172 202.699 561.392C202.197 561.612 201.653 561.722 201.066 561.722C200.283 561.722 199.574 561.563 198.938 561.246C198.314 560.915 197.819 560.432 197.452 559.796C197.085 559.148 196.902 558.365 196.902 557.448C196.902 556.09 197.305 555.014 198.113 554.219C198.92 553.412 200.02 553.008 201.415 553.008C203.151 553.008 204.374 553.565 205.084 554.678C205.805 555.791 206.166 557.466 206.166 559.704C206.166 561.294 206.026 562.597 205.744 563.612C205.475 564.627 205.004 565.398 204.332 565.924C203.671 566.449 202.766 566.712 201.617 566.712C200.711 566.712 199.941 566.541 199.305 566.199C198.669 565.844 198.18 565.385 197.837 564.823C197.507 564.248 197.318 563.618 197.269 562.933H199.654ZM201.598 559.631C202.234 559.631 202.736 559.435 203.103 559.044C203.469 558.653 203.653 558.127 203.653 557.466C203.653 556.745 203.457 556.188 203.066 555.797C202.687 555.393 202.167 555.192 201.506 555.192C200.846 555.192 200.32 555.399 199.929 555.815C199.55 556.219 199.36 556.757 199.36 557.43C199.36 558.078 199.544 558.61 199.91 559.026C200.29 559.429 200.852 559.631 201.598 559.631ZM217.246 555.54H211.302V558.677C211.559 558.359 211.926 558.102 212.403 557.907C212.88 557.699 213.388 557.595 213.926 557.595C214.904 557.595 215.705 557.809 216.329 558.237C216.953 558.665 217.405 559.215 217.687 559.888C217.968 560.548 218.109 561.258 218.109 562.016C218.109 563.422 217.705 564.554 216.898 565.41C216.103 566.266 214.965 566.694 213.486 566.694C212.091 566.694 210.978 566.346 210.147 565.648C209.315 564.951 208.844 564.04 208.734 562.915H211.229C211.339 563.404 211.584 563.796 211.963 564.089C212.354 564.383 212.85 564.529 213.449 564.529C214.17 564.529 214.715 564.303 215.082 563.851C215.449 563.398 215.632 562.799 215.632 562.053C215.632 561.294 215.442 560.72 215.063 560.328C214.696 559.925 214.152 559.723 213.431 559.723C212.917 559.723 212.489 559.851 212.146 560.108C211.804 560.365 211.559 560.707 211.413 561.135H208.954V553.284H217.246V555.54ZM227.09 556.659C226.967 556.145 226.753 555.76 226.448 555.503C226.154 555.247 225.726 555.118 225.163 555.118C224.32 555.118 223.696 555.461 223.292 556.145C222.901 556.818 222.699 557.919 222.687 559.448C222.98 558.958 223.408 558.579 223.971 558.31C224.534 558.029 225.145 557.888 225.806 557.888C226.6 557.888 227.304 558.06 227.915 558.402C228.527 558.744 229.004 559.246 229.346 559.906C229.689 560.555 229.86 561.337 229.86 562.255C229.86 563.123 229.682 563.899 229.328 564.584C228.985 565.257 228.478 565.783 227.805 566.162C227.132 566.541 226.331 566.731 225.402 566.731C224.13 566.731 223.127 566.449 222.393 565.887C221.672 565.324 221.164 564.542 220.871 563.539C220.589 562.524 220.449 561.276 220.449 559.796C220.449 557.558 220.834 555.87 221.604 554.733C222.375 553.583 223.592 553.008 225.255 553.008C226.539 553.008 227.536 553.357 228.245 554.054C228.955 554.751 229.365 555.62 229.475 556.659H227.09ZM225.218 559.998C224.57 559.998 224.026 560.188 223.586 560.567C223.145 560.946 222.925 561.496 222.925 562.218C222.925 562.939 223.127 563.508 223.531 563.924C223.947 564.34 224.527 564.548 225.273 564.548C225.934 564.548 226.454 564.346 226.833 563.942C227.224 563.539 227.42 562.994 227.42 562.31C227.42 561.6 227.23 561.038 226.851 560.622C226.484 560.206 225.94 559.998 225.218 559.998Z" fill="white"/>
<path d="M253.816 567.232C253.816 593.294 232.688 614.422 206.626 614.422C180.563 614.422 159.435 593.294 159.435 567.232C159.435 541.169 180.563 520.041 206.626 520.041C232.688 520.041 253.816 541.169 253.816 567.232ZM169.829 567.232C169.829 587.554 186.303 604.029 206.626 604.029C226.948 604.029 243.423 587.554 243.423 567.232C243.423 546.909 226.948 530.434 206.626 530.434C186.303 530.434 169.829 546.909 169.829 567.232Z" fill="white" fill-opacity="0.3"/>
<path d="M209.132 525.312C209.303 522.448 207.114 519.956 204.248 520.101C195.839 520.525 187.663 523.194 180.588 527.874C172.064 533.514 165.6 541.769 162.171 551.398C158.741 561.027 158.531 571.509 161.571 581.268C164.611 591.027 170.738 599.535 179.03 605.512C187.321 611.489 197.329 614.613 207.549 614.413C217.768 614.213 227.647 610.7 235.698 604.403C243.749 598.106 249.539 589.365 252.195 579.495C254.399 571.304 254.347 562.703 252.092 554.592C251.323 551.827 248.268 550.537 245.604 551.605C242.94 552.673 241.686 555.695 242.368 558.483C243.836 564.48 243.778 570.779 242.159 576.794C240.087 584.491 235.573 591.306 229.295 596.217C223.017 601.127 215.314 603.866 207.345 604.022C199.377 604.178 191.573 601.742 185.107 597.081C178.642 592.42 173.865 585.786 171.494 578.177C169.123 570.567 169.287 562.393 171.962 554.885C174.636 547.377 179.676 540.94 186.323 536.542C191.518 533.105 197.476 531.059 203.629 530.556C206.49 530.323 208.96 528.177 209.132 525.312Z" fill="white"/>
<path d="M262.865 509.862L255.887 516.84" stroke="white" stroke-width="1.81141" stroke-linecap="round" stroke-linejoin="round"/>
<path d="M256.452 509.875L262.866 509.862L262.852 516.276" stroke="white" stroke-width="1.81141" stroke-linecap="round" stroke-linejoin="round"/>
<g filter="url(#filter16_d_848_1088)">
<rect x="58" y="317" width="187.607" height="147.355" rx="18.1974" fill="white" fill-opacity="0.95" shape-rendering="crispEdges"/>
</g>
<mask id="mask0_848_1088" style="mask-type:alpha" maskUnits="userSpaceOnUse" x="61" y="317" width="188" height="148">
<rect x="61" y="317" width="187.607" height="147.355" rx="10.8086" fill="white"/>
</mask>
<g mask="url(#mask0_848_1088)">
<path d="M53.2932 372.723L240.9 372.723" stroke="black" stroke-opacity="0.25" stroke-width="0.617637" stroke-linecap="round" stroke-linejoin="round" stroke-dasharray="1.54 3.09"/>
<path d="M53.2932 399.744L240.9 399.744" stroke="black" stroke-opacity="0.25" stroke-width="0.617637" stroke-linecap="round" stroke-linejoin="round" stroke-dasharray="1.54 3.09"/>
<path d="M53.2932 426.765L240.9 426.765" stroke="black" stroke-opacity="0.05" stroke-width="0.617637" stroke-linecap="round" stroke-linejoin="round" stroke-dasharray="1.54 3.09"/>
<path d="M193.814 372.795C192.789 372.796 188.251 372.796 182.971 372.795C162.74 372.788 165.951 394.556 147.951 397.556C134.906 399.73 133.701 422.056 119.951 422.056C102.579 422.056 105.036 391.696 88.9507 391.696C73.459 391.696 75.3972 428.056 53.9507 428.056" stroke="#1A1A1A" stroke-width="1.93011" stroke-linecap="round"/>
<path d="M193.806 372.705V427.134" stroke="#1A1A1A" stroke-width="0.772046" stroke-linecap="round" stroke-dasharray="2.32 2.32"/>
<circle cx="193.814" cy="372.795" r="3.83318" fill="#1A1A1A"/>
<path fill-rule="evenodd" clip-rule="evenodd" d="M184.591 341.241C179.517 341.241 175.404 345.354 175.404 350.428C175.404 355.502 179.517 359.615 184.591 359.615H189.732L193.119 364.311C193.422 364.731 194.045 364.74 194.359 364.328L197.957 359.615H203.02C208.094 359.615 212.207 355.502 212.207 350.428C212.207 345.354 208.094 341.241 203.02 341.241H184.591Z" fill="url(#paint4_linear_848_1088)"/>
<path d="M186.821 350.527H185.093V352.298H184.186V350.527H182.458V349.706H184.186V347.935H185.093V349.706H186.821V350.527ZM192.226 347.807H189.36V349.509C189.48 349.349 189.657 349.215 189.891 349.107C190.13 348.999 190.384 348.944 190.652 348.944C191.131 348.944 191.519 349.047 191.816 349.252C192.118 349.458 192.332 349.717 192.457 350.031C192.588 350.345 192.654 350.675 192.654 351.023C192.654 351.445 192.571 351.822 192.406 352.152C192.246 352.477 192.004 352.734 191.679 352.922C191.359 353.11 190.966 353.205 190.498 353.205C189.877 353.205 189.378 353.051 189.001 352.743C188.625 352.435 188.399 352.027 188.325 351.519H189.275C189.338 351.787 189.477 352.001 189.694 352.161C189.911 352.315 190.182 352.392 190.507 352.392C190.912 352.392 191.214 352.269 191.414 352.024C191.619 351.779 191.721 351.454 191.721 351.049C191.721 350.638 191.619 350.325 191.414 350.108C191.208 349.885 190.906 349.774 190.507 349.774C190.227 349.774 189.991 349.846 189.797 349.988C189.609 350.125 189.472 350.313 189.386 350.553H188.462V346.951H192.226V347.807ZM194.191 353.264C194.014 353.264 193.866 353.205 193.746 353.085C193.626 352.965 193.566 352.817 193.566 352.64C193.566 352.463 193.626 352.315 193.746 352.195C193.866 352.075 194.014 352.016 194.191 352.016C194.362 352.016 194.507 352.075 194.627 352.195C194.747 352.315 194.807 352.463 194.807 352.64C194.807 352.817 194.747 352.965 194.627 353.085C194.507 353.205 194.362 353.264 194.191 353.264ZM195.733 350.005C195.733 349.019 195.898 348.249 196.229 347.696C196.565 347.137 197.141 346.857 197.957 346.857C198.772 346.857 199.345 347.137 199.676 347.696C200.013 348.249 200.181 349.019 200.181 350.005C200.181 351.003 200.013 351.785 199.676 352.349C199.345 352.908 198.772 353.187 197.957 353.187C197.141 353.187 196.565 352.908 196.229 352.349C195.898 351.785 195.733 351.003 195.733 350.005ZM199.223 350.005C199.223 349.543 199.191 349.153 199.129 348.833C199.072 348.514 198.952 348.254 198.769 348.055C198.587 347.849 198.316 347.747 197.957 347.747C197.597 347.747 197.326 347.849 197.144 348.055C196.962 348.254 196.839 348.514 196.776 348.833C196.719 349.153 196.691 349.543 196.691 350.005C196.691 350.484 196.719 350.886 196.776 351.211C196.833 351.536 196.953 351.799 197.135 351.998C197.324 352.198 197.597 352.298 197.957 352.298C198.316 352.298 198.587 352.198 198.769 351.998C198.958 351.799 199.08 351.536 199.137 351.211C199.194 350.886 199.223 350.484 199.223 350.005ZM201.059 348.474C201.059 348.058 201.178 347.733 201.418 347.499C201.663 347.259 201.977 347.139 202.359 347.139C202.741 347.139 203.052 347.259 203.291 347.499C203.537 347.733 203.659 348.058 203.659 348.474C203.659 348.89 203.537 349.218 203.291 349.458C203.052 349.697 202.741 349.817 202.359 349.817C201.977 349.817 201.663 349.697 201.418 349.458C201.178 349.218 201.059 348.89 201.059 348.474ZM206.277 347.251L202.864 353.205H201.906L205.319 347.251H206.277ZM202.359 347.73C202 347.73 201.82 347.978 201.82 348.474C201.82 348.976 202 349.227 202.359 349.227C202.53 349.227 202.661 349.167 202.753 349.047C202.849 348.922 202.898 348.731 202.898 348.474C202.898 347.978 202.718 347.73 202.359 347.73ZM204.54 351.973C204.54 351.556 204.66 351.231 204.9 350.998C205.145 350.758 205.459 350.638 205.841 350.638C206.217 350.638 206.525 350.758 206.765 350.998C207.01 351.231 207.132 351.556 207.132 351.973C207.132 352.389 207.01 352.717 206.765 352.957C206.525 353.196 206.217 353.316 205.841 353.316C205.459 353.316 205.145 353.196 204.9 352.957C204.66 352.717 204.54 352.389 204.54 351.973ZM205.832 351.229C205.473 351.229 205.293 351.477 205.293 351.973C205.293 352.469 205.473 352.717 205.832 352.717C206.191 352.717 206.371 352.469 206.371 351.973C206.371 351.477 206.191 351.229 205.832 351.229Z" fill="white"/>
<path d="M189.027 446.24H186.331L185.868 447.556H184.766L187.073 441.108H188.295L190.602 447.556H189.491L189.027 446.24ZM188.731 445.379L187.684 442.386L186.628 445.379H188.731ZM196.228 442.451V447.556H195.172V446.954C195.005 447.164 194.786 447.33 194.514 447.454C194.249 447.571 193.965 447.63 193.662 447.63C193.261 447.63 192.899 447.547 192.578 447.38C192.263 447.213 192.013 446.966 191.828 446.639C191.649 446.311 191.559 445.916 191.559 445.453V442.451H192.606V445.295C192.606 445.752 192.72 446.104 192.949 446.352C193.177 446.592 193.489 446.713 193.884 446.713C194.28 446.713 194.592 446.592 194.82 446.352C195.055 446.104 195.172 445.752 195.172 445.295V442.451H196.228ZM199.679 442.368C200.074 442.368 200.423 442.448 200.726 442.609C201.034 442.763 201.275 442.958 201.448 443.192V442.451H202.514V447.639C202.514 448.109 202.415 448.526 202.217 448.89C202.019 449.261 201.732 449.551 201.356 449.761C200.985 449.971 200.54 450.076 200.021 450.076C199.33 450.076 198.755 449.912 198.298 449.585C197.841 449.264 197.582 448.825 197.52 448.269H198.567C198.647 448.535 198.817 448.748 199.076 448.909C199.342 449.075 199.657 449.159 200.021 449.159C200.448 449.159 200.79 449.029 201.05 448.77C201.315 448.51 201.448 448.133 201.448 447.639V446.787C201.269 447.028 201.025 447.232 200.716 447.398C200.414 447.559 200.068 447.639 199.679 447.639C199.234 447.639 198.826 447.528 198.456 447.306C198.091 447.077 197.801 446.762 197.585 446.361C197.375 445.953 197.27 445.493 197.27 444.98C197.27 444.468 197.375 444.014 197.585 443.618C197.801 443.223 198.091 442.917 198.456 442.701C198.826 442.479 199.234 442.368 199.679 442.368ZM201.448 444.999C201.448 444.647 201.374 444.341 201.226 444.082C201.084 443.822 200.895 443.625 200.661 443.489C200.426 443.353 200.173 443.285 199.901 443.285C199.629 443.285 199.376 443.353 199.141 443.489C198.907 443.618 198.715 443.813 198.567 444.072C198.425 444.326 198.354 444.628 198.354 444.98C198.354 445.332 198.425 445.641 198.567 445.907C198.715 446.172 198.907 446.376 199.141 446.518C199.382 446.654 199.635 446.722 199.901 446.722C200.173 446.722 200.426 446.654 200.661 446.518C200.895 446.382 201.084 446.185 201.226 445.925C201.374 445.66 201.448 445.351 201.448 444.999ZM204.327 447.621C204.136 447.621 203.975 447.556 203.845 447.426C203.716 447.297 203.651 447.136 203.651 446.944C203.651 446.753 203.716 446.592 203.845 446.463C203.975 446.333 204.136 446.268 204.327 446.268C204.512 446.268 204.67 446.333 204.799 446.463C204.929 446.592 204.994 446.753 204.994 446.944C204.994 447.136 204.929 447.297 204.799 447.426C204.67 447.556 204.512 447.621 204.327 447.621Z" fill="black"/>
<path d="M142.657 441.117V445.759C142.657 446.333 142.481 446.787 142.129 447.12C141.783 447.454 141.326 447.621 140.758 447.621C140.189 447.621 139.729 447.454 139.377 447.12C139.031 446.787 138.858 446.333 138.858 445.759H139.924C139.93 446.043 140.001 446.268 140.137 446.435C140.279 446.602 140.486 446.685 140.758 446.685C141.029 446.685 141.236 446.602 141.378 446.435C141.52 446.262 141.591 446.037 141.591 445.759V441.117H142.657ZM148.998 442.451V447.556H147.942V446.954C147.775 447.164 147.556 447.33 147.284 447.454C147.018 447.571 146.734 447.63 146.432 447.63C146.03 447.63 145.669 447.547 145.348 447.38C145.033 447.213 144.783 446.966 144.597 446.639C144.418 446.311 144.329 445.916 144.329 445.453V442.451H145.376V445.295C145.376 445.752 145.49 446.104 145.718 446.352C145.947 446.592 146.259 446.713 146.654 446.713C147.049 446.713 147.361 446.592 147.59 446.352C147.824 446.104 147.942 445.752 147.942 445.295V442.451H148.998ZM151.448 440.7V447.556H150.391V440.7H151.448ZM153.26 447.621C153.069 447.621 152.908 447.556 152.779 447.426C152.649 447.297 152.584 447.136 152.584 446.944C152.584 446.753 152.649 446.592 152.779 446.463C152.908 446.333 153.069 446.268 153.26 446.268C153.446 446.268 153.603 446.333 153.733 446.463C153.863 446.592 153.927 446.753 153.927 446.944C153.927 447.136 153.863 447.297 153.733 447.426C153.603 447.556 153.446 447.621 153.26 447.621Z" fill="black"/>
<path d="M92.6568 441.117V445.759C92.6568 446.333 92.4808 446.787 92.1287 447.12C91.7828 447.454 91.3258 447.621 90.7576 447.621C90.1893 447.621 89.7292 447.454 89.3771 447.12C89.0313 446.787 88.8583 446.333 88.8583 445.759H89.9237C89.9299 446.043 90.001 446.268 90.1368 446.435C90.2789 446.602 90.4858 446.685 90.7576 446.685C91.0293 446.685 91.2362 446.602 91.3783 446.435C91.5203 446.262 91.5914 446.037 91.5914 445.759V441.117H92.6568ZM98.9979 442.451V447.556H97.9418V446.954C97.775 447.164 97.5558 447.33 97.284 447.454C97.0184 447.571 96.7343 447.63 96.4317 447.63C96.0302 447.63 95.6689 447.547 95.3477 447.38C95.0327 447.213 94.7826 446.966 94.5973 446.639C94.4182 446.311 94.3286 445.916 94.3286 445.453V442.451H95.3755V445.295C95.3755 445.752 95.4898 446.104 95.7183 446.352C95.9468 446.592 96.2587 446.713 96.654 446.713C97.0493 446.713 97.3612 446.592 97.5897 446.352C97.8244 446.104 97.9418 445.752 97.9418 445.295V442.451H98.9979ZM102.967 442.368C103.368 442.368 103.727 442.451 104.042 442.618C104.363 442.785 104.613 443.032 104.792 443.359C104.971 443.686 105.061 444.082 105.061 444.545V447.556H104.014V444.702C104.014 444.245 103.9 443.896 103.671 443.656C103.443 443.408 103.131 443.285 102.735 443.285C102.34 443.285 102.025 443.408 101.79 443.656C101.562 443.896 101.448 444.245 101.448 444.702V447.556H100.391V442.451H101.448V443.035C101.621 442.825 101.84 442.661 102.105 442.544C102.377 442.426 102.664 442.368 102.967 442.368ZM106.834 447.621C106.643 447.621 106.482 447.556 106.352 447.426C106.223 447.297 106.158 447.136 106.158 446.944C106.158 446.753 106.223 446.592 106.352 446.463C106.482 446.333 106.643 446.268 106.834 446.268C107.019 446.268 107.177 446.333 107.307 446.463C107.436 446.592 107.501 446.753 107.501 446.944C107.501 447.136 107.436 447.297 107.307 447.426C107.177 447.556 107.019 447.621 106.834 447.621Z" fill="black"/>
</g>
<circle cx="83" cy="333" r="4" fill="#E66F65"/>
<circle cx="97" cy="333" r="4" fill="#F2BD4F"/>
<circle cx="112" cy="333" r="4" fill="#67C556"/>
<g filter="url(#filter17_b_848_1088)">
<rect x="438.868" y="138.99" width="111.208" height="102.654" rx="18.1974" fill="#03011C"/>
</g>
<rect x="456.833" y="189.461" width="39.3505" height="8.55446" rx="4.27723" fill="white"/>
<rect x="456.833" y="174.063" width="69.2912" height="8.55446" rx="4.27723" fill="white"/>
<rect x="457.688" y="216.836" width="27.3743" height="8.55446" rx="4.27723" fill="#24213F"/>
<circle cx="462.393" cy="153.96" r="2.99406" fill="#E66F65"/>
<circle cx="473.514" cy="153.96" r="2.99406" fill="#F2BD4F"/>
<circle cx="484.635" cy="153.96" r="2.99406" fill="#67C556"/>
<g filter="url(#filter18_d_848_1088)">
<circle cx="536.389" cy="652.258" r="10.2654" fill="white" fill-opacity="0.7" shape-rendering="crispEdges"/>
<circle cx="536.389" cy="652.258" r="9.83763" stroke="white" stroke-width="0.855446" shape-rendering="crispEdges"/>
</g>
<g opacity="0.7" filter="url(#filter19_d_848_1088)">
<circle cx="536.388" cy="627.45" r="5.98812" fill="white"/>
</g>
<defs>
<filter id="filter0_f_848_1088" x="68.9935" y="0.99353" width="569.013" height="819.013" filterUnits="userSpaceOnUse" color-interpolation-filters="sRGB">
<feFlood flood-opacity="0" result="BackgroundImageFix"/>
<feBlend mode="normal" in="SourceGraphic" in2="BackgroundImageFix" result="shape"/>
<feGaussianBlur stdDeviation="75.0032" result="effect1_foregroundBlur_848_1088"/>
</filter>
<filter id="filter1_d_848_1088" x="189.536" y="78.9931" width="320.73" height="611.582" filterUnits="userSpaceOnUse" color-interpolation-filters="sRGB">
<feFlood flood-opacity="0" result="BackgroundImageFix"/>
<feColorMatrix in="SourceAlpha" type="matrix" values="0 0 0 0 0 0 0 0 0 0 0 0 0 0 0 0 0 0 127 0" result="hardAlpha"/>
<feOffset dy="3.7028"/>
<feGaussianBlur stdDeviation="13.8855"/>
<feComposite in2="hardAlpha" operator="out"/>
<feColorMatrix type="matrix" values="0 0 0 0 0 0 0 0 0 0 0 0 0 0 0 0 0 0 0.1 0"/>
<feBlend mode="normal" in2="BackgroundImageFix" result="effect1_dropShadow_848_1088"/>
<feBlend mode="normal" in="SourceGraphic" in2="effect1_dropShadow_848_1088" result="shape"/>
</filter>
<filter id="filter2_b_848_1088" x="189.536" y="75.2903" width="320.73" height="611.582" filterUnits="userSpaceOnUse" color-interpolation-filters="sRGB">
<feFlood flood-opacity="0" result="BackgroundImageFix"/>
<feGaussianBlur in="BackgroundImage" stdDeviation="13.8855"/>
<feComposite in2="SourceAlpha" operator="in" result="effect1_backgroundBlur_848_1088"/>
<feBlend mode="normal" in="SourceGraphic" in2="effect1_backgroundBlur_848_1088" result="shape"/>
</filter>
<filter id="filter3_f_848_1088" x="176.814" y="196.266" width="353.696" height="183.174" filterUnits="userSpaceOnUse" color-interpolation-filters="sRGB">
<feFlood flood-opacity="0" result="BackgroundImageFix"/>
<feBlend mode="normal" in="SourceGraphic" in2="BackgroundImageFix" result="shape"/>
<feGaussianBlur stdDeviation="32.2718" result="effect1_foregroundBlur_848_1088"/>
</filter>
<filter id="filter4_d_848_1088" x="211.896" y="111.469" width="277.193" height="204.341" filterUnits="userSpaceOnUse" color-interpolation-filters="sRGB">
<feFlood flood-opacity="0" result="BackgroundImageFix"/>
<feColorMatrix in="SourceAlpha" type="matrix" values="0 0 0 0 0 0 0 0 0 0 0 0 0 0 0 0 0 0 127 0" result="hardAlpha"/>
<feMorphology radius="3.756" operator="erode" in="SourceAlpha" result="effect1_dropShadow_848_1088"/>
<feOffset dy="10.5168"/>
<feGaussianBlur stdDeviation="12.7704"/>
<feColorMatrix type="matrix" values="0 0 0 0 0.270588 0 0 0 0 0.305882 0 0 0 0 0.627451 0 0 0 0.07 0"/>
<feBlend mode="normal" in2="BackgroundImageFix" result="effect1_dropShadow_848_1088"/>
<feBlend mode="normal" in="SourceGraphic" in2="effect1_dropShadow_848_1088" result="shape"/>
</filter>
<filter id="filter5_d_848_1088" x="198.837" y="420.027" width="112.281" height="112.281" filterUnits="userSpaceOnUse" color-interpolation-filters="sRGB">
<feFlood flood-opacity="0" result="BackgroundImageFix"/>
<feColorMatrix in="SourceAlpha" type="matrix" values="0 0 0 0 0 0 0 0 0 0 0 0 0 0 0 0 0 0 127 0" result="hardAlpha"/>
<feOffset dy="7.80017"/>
<feGaussianBlur stdDeviation="19.5004"/>
<feColorMatrix type="matrix" values="0 0 0 0 0 0 0 0 0 0 0 0 0 0 0 0 0 0 0.05 0"/>
<feBlend mode="normal" in2="BackgroundImageFix" result="effect1_dropShadow_848_1088"/>
<feBlend mode="normal" in="SourceGraphic" in2="effect1_dropShadow_848_1088" result="shape"/>
</filter>
<filter id="filter6_d_848_1088" x="251.874" y="423.449" width="156.703" height="86.5561" filterUnits="userSpaceOnUse" color-interpolation-filters="sRGB">
<feFlood flood-opacity="0" result="BackgroundImageFix"/>
<feColorMatrix in="SourceAlpha" type="matrix" values="0 0 0 0 0 0 0 0 0 0 0 0 0 0 0 0 0 0 127 0" result="hardAlpha"/>
<feOffset dy="7.80017"/>
<feGaussianBlur stdDeviation="19.5004"/>
<feColorMatrix type="matrix" values="0 0 0 0 0 0 0 0 0 0 0 0 0 0 0 0 0 0 0.05 0"/>
<feBlend mode="normal" in2="BackgroundImageFix" result="effect1_dropShadow_848_1088"/>
<feBlend mode="normal" in="SourceGraphic" in2="effect1_dropShadow_848_1088" result="shape"/>
</filter>
<filter id="filter7_d_848_1088" x="251.874" y="440.558" width="208.029" height="86.5561" filterUnits="userSpaceOnUse" color-interpolation-filters="sRGB">
<feFlood flood-opacity="0" result="BackgroundImageFix"/>
<feColorMatrix in="SourceAlpha" type="matrix" values="0 0 0 0 0 0 0 0 0 0 0 0 0 0 0 0 0 0 127 0" result="hardAlpha"/>
<feOffset dy="7.80017"/>
<feGaussianBlur stdDeviation="19.5004"/>
<feColorMatrix type="matrix" values="0 0 0 0 0 0 0 0 0 0 0 0 0 0 0 0 0 0 0.05 0"/>
<feBlend mode="normal" in2="BackgroundImageFix" result="effect1_dropShadow_848_1088"/>
<feBlend mode="normal" in="SourceGraphic" in2="effect1_dropShadow_848_1088" result="shape"/>
</filter>
<filter id="filter8_d_848_1088" x="198.837" y="467.994" width="261.067" height="112.281" filterUnits="userSpaceOnUse" color-interpolation-filters="sRGB">
<feFlood flood-opacity="0" result="BackgroundImageFix"/>
<feColorMatrix in="SourceAlpha" type="matrix" values="0 0 0 0 0 0 0 0 0 0 0 0 0 0 0 0 0 0 127 0" result="hardAlpha"/>
<feOffset dy="7.80017"/>
<feGaussianBlur stdDeviation="19.5004"/>
<feColorMatrix type="matrix" values="0 0 0 0 0 0 0 0 0 0 0 0 0 0 0 0 0 0 0.05 0"/>
<feBlend mode="normal" in2="BackgroundImageFix" result="effect1_dropShadow_848_1088"/>
<feBlend mode="normal" in="SourceGraphic" in2="effect1_dropShadow_848_1088" result="shape"/>
</filter>
<filter id="filter9_d_848_1088" x="198.837" y="515.96" width="261.067" height="112.281" filterUnits="userSpaceOnUse" color-interpolation-filters="sRGB">
<feFlood flood-opacity="0" result="BackgroundImageFix"/>
<feColorMatrix in="SourceAlpha" type="matrix" values="0 0 0 0 0 0 0 0 0 0 0 0 0 0 0 0 0 0 127 0" result="hardAlpha"/>
<feOffset dy="7.80017"/>
<feGaussianBlur stdDeviation="19.5004"/>
<feColorMatrix type="matrix" values="0 0 0 0 0 0 0 0 0 0 0 0 0 0 0 0 0 0 0.05 0"/>
<feBlend mode="normal" in2="BackgroundImageFix" result="effect1_dropShadow_848_1088"/>
<feBlend mode="normal" in="SourceGraphic" in2="effect1_dropShadow_848_1088" result="shape"/>
</filter>
<filter id="filter10_d_848_1088" x="198.837" y="563.926" width="261.067" height="112.281" filterUnits="userSpaceOnUse" color-interpolation-filters="sRGB">
<feFlood flood-opacity="0" result="BackgroundImageFix"/>
<feColorMatrix in="SourceAlpha" type="matrix" values="0 0 0 0 0 0 0 0 0 0 0 0 0 0 0 0 0 0 127 0" result="hardAlpha"/>
<feOffset dy="7.80017"/>
<feGaussianBlur stdDeviation="19.5004"/>
<feColorMatrix type="matrix" values="0 0 0 0 0 0 0 0 0 0 0 0 0 0 0 0 0 0 0.05 0"/>
<feBlend mode="normal" in2="BackgroundImageFix" result="effect1_dropShadow_848_1088"/>
<feBlend mode="normal" in="SourceGraphic" in2="effect1_dropShadow_848_1088" result="shape"/>
</filter>
<filter id="filter11_b_848_1088" x="424.595" y="303.187" width="51.7618" height="34.9592" filterUnits="userSpaceOnUse" color-interpolation-filters="sRGB">
<feFlood flood-opacity="0" result="BackgroundImageFix"/>
<feGaussianBlur in="BackgroundImage" stdDeviation="4.5518"/>
<feComposite in2="SourceAlpha" operator="in" result="effect1_backgroundBlur_848_1088"/>
<feBlend mode="normal" in="SourceGraphic" in2="effect1_backgroundBlur_848_1088" result="shape"/>
</filter>
<filter id="filter12_d_848_1088" x="196.68" y="309.163" width="214.446" height="127.963" filterUnits="userSpaceOnUse" color-interpolation-filters="sRGB">
<feFlood flood-opacity="0" result="BackgroundImageFix"/>
<feColorMatrix in="SourceAlpha" type="matrix" values="0 0 0 0 0 0 0 0 0 0 0 0 0 0 0 0 0 0 127 0" result="hardAlpha"/>
<feOffset dy="7.80017"/>
<feGaussianBlur stdDeviation="19.5004"/>
<feColorMatrix type="matrix" values="0 0 0 0 0 0 0 0 0 0 0 0 0 0 0 0 0 0 0.05 0"/>
<feBlend mode="normal" in2="BackgroundImageFix" result="effect1_dropShadow_848_1088"/>
<feBlend mode="normal" in="SourceGraphic" in2="effect1_dropShadow_848_1088" result="shape"/>
</filter>
<filter id="filter13_f_848_1088" x="270.526" y="25.7274" width="421.936" height="385.541" filterUnits="userSpaceOnUse" color-interpolation-filters="sRGB">
<feFlood flood-opacity="0" result="BackgroundImageFix"/>
<feBlend mode="normal" in="SourceGraphic" in2="BackgroundImageFix" result="shape"/>
<feGaussianBlur stdDeviation="75.0032" result="effect1_foregroundBlur_848_1088"/>
</filter>
<filter id="filter14_f_848_1088" x="0.293945" y="362.38" width="423.755" height="429.215" filterUnits="userSpaceOnUse" color-interpolation-filters="sRGB">
<feFlood flood-opacity="0" result="BackgroundImageFix"/>
<feBlend mode="normal" in="SourceGraphic" in2="BackgroundImageFix" result="shape"/>
<feGaussianBlur stdDeviation="75.0032" result="effect1_foregroundBlur_848_1088"/>
</filter>
<filter id="filter15_b_848_1088" x="180.903" y="565.795" width="55.1664" height="32.3682" filterUnits="userSpaceOnUse" color-interpolation-filters="sRGB">
<feFlood flood-opacity="0" result="BackgroundImageFix"/>
<feGaussianBlur in="BackgroundImage" stdDeviation="4.21736"/>
<feComposite in2="SourceAlpha" operator="in" result="effect1_backgroundBlur_848_1088"/>
<feBlend mode="normal" in="SourceGraphic" in2="effect1_backgroundBlur_848_1088" result="shape"/>
</filter>
<filter id="filter16_d_848_1088" x="30.229" y="292.932" width="243.149" height="202.897" filterUnits="userSpaceOnUse" color-interpolation-filters="sRGB">
<feFlood flood-opacity="0" result="BackgroundImageFix"/>
<feColorMatrix in="SourceAlpha" type="matrix" values="0 0 0 0 0 0 0 0 0 0 0 0 0 0 0 0 0 0 127 0" result="hardAlpha"/>
<feOffset dy="3.7028"/>
<feGaussianBlur stdDeviation="13.8855"/>
<feComposite in2="hardAlpha" operator="out"/>
<feColorMatrix type="matrix" values="0 0 0 0 0 0 0 0 0 0 0 0 0 0 0 0 0 0 0.1 0"/>
<feBlend mode="normal" in2="BackgroundImageFix" result="effect1_dropShadow_848_1088"/>
<feBlend mode="normal" in="SourceGraphic" in2="effect1_dropShadow_848_1088" result="shape"/>
</filter>
<filter id="filter17_b_848_1088" x="427.288" y="127.41" width="134.369" height="125.815" filterUnits="userSpaceOnUse" color-interpolation-filters="sRGB">
<feFlood flood-opacity="0" result="BackgroundImageFix"/>
<feGaussianBlur in="BackgroundImage" stdDeviation="5.79034"/>
<feComposite in2="SourceAlpha" operator="in" result="effect1_backgroundBlur_848_1088"/>
<feBlend mode="normal" in="SourceGraphic" in2="effect1_backgroundBlur_848_1088" result="shape"/>
</filter>
<filter id="filter18_d_848_1088" x="521.846" y="641.137" width="29.0852" height="29.0852" filterUnits="userSpaceOnUse" color-interpolation-filters="sRGB">
<feFlood flood-opacity="0" result="BackgroundImageFix"/>
<feColorMatrix in="SourceAlpha" type="matrix" values="0 0 0 0 0 0 0 0 0 0 0 0 0 0 0 0 0 0 127 0" result="hardAlpha"/>
<feOffset dy="3.42179"/>
<feGaussianBlur stdDeviation="2.13862"/>
<feComposite in2="hardAlpha" operator="out"/>
<feColorMatrix type="matrix" values="0 0 0 0 0 0 0 0 0 0 0 0 0 0 0 0 0 0 0.1 0"/>
<feBlend mode="normal" in2="BackgroundImageFix" result="effect1_dropShadow_848_1088"/>
<feBlend mode="normal" in="SourceGraphic" in2="effect1_dropShadow_848_1088" result="shape"/>
</filter>
<filter id="filter19_d_848_1088" x="526.123" y="620.606" width="20.5307" height="20.5308" filterUnits="userSpaceOnUse" color-interpolation-filters="sRGB">
<feFlood flood-opacity="0" result="BackgroundImageFix"/>
<feColorMatrix in="SourceAlpha" type="matrix" values="0 0 0 0 0 0 0 0 0 0 0 0 0 0 0 0 0 0 127 0" result="hardAlpha"/>
<feOffset dy="3.42179"/>
<feGaussianBlur stdDeviation="2.13862"/>
<feComposite in2="hardAlpha" operator="out"/>
<feColorMatrix type="matrix" values="0 0 0 0 0 0 0 0 0 0 0 0 0 0 0 0 0 0 0.1 0"/>
<feBlend mode="normal" in2="BackgroundImageFix" result="effect1_dropShadow_848_1088"/>
<feBlend mode="normal" in="SourceGraphic" in2="effect1_dropShadow_848_1088" result="shape"/>
</filter>
<linearGradient id="paint0_linear_848_1088" x1="348.139" y1="-128.254" x2="861.056" y2="581.394" gradientUnits="userSpaceOnUse">
<stop stop-color="#FFE95D"/>
<stop offset="1" stop-color="#FF595D"/>
</linearGradient>
<linearGradient id="paint1_linear_848_1088" x1="234" y1="115.5" x2="273.67" y2="338.143" gradientUnits="userSpaceOnUse">
<stop stop-color="#AFB5FE"/>
<stop offset="1" stop-color="#6B5EFF"/>
</linearGradient>
<linearGradient id="paint2_linear_848_1088" x1="424.096" y1="344.02" x2="428.306" y2="369.599" gradientUnits="userSpaceOnUse">
<stop stop-color="#AFB5FE"/>
<stop offset="1" stop-color="#6B5EFF"/>
</linearGradient>
<linearGradient id="paint3_linear_848_1088" x1="116.858" y1="426" x2="110.911" y2="684.235" gradientUnits="userSpaceOnUse">
<stop stop-color="#702CB5"/>
<stop offset="1" stop-color="#8E1A9F"/>
</linearGradient>
<linearGradient id="paint4_linear_848_1088" x1="175.455" y1="340.188" x2="180.809" y2="372.728" gradientUnits="userSpaceOnUse">
<stop stop-color="#AFB5FE"/>
<stop offset="1" stop-color="#6B5EFF"/>
</linearGradient>
<clipPath id="clip0_848_1088">
<rect x="233.68" y="122.737" width="233.623" height="160.772" rx="18.1974" fill="white"/>
</clipPath>
</defs>
</svg>
