<svg width="118" height="40" viewBox="0 0 118 40" fill="none" xmlns="http://www.w3.org/2000/svg">
<path d="M4.46171 26.3219V32.4054C4.46171 33.3919 3.66204 34.1916 2.67553 34.1916H2.07765C0.926721 34.1916 0 33.2648 0 32.1139V10.1491C0 8.93093 0.98651 7.93695 2.21217 7.93695H3.19121C3.89372 7.93695 4.46171 8.50494 4.46171 9.20746C5.58275 8.13126 6.95041 7.58569 8.58712 7.58569C14.6781 7.58569 17.7273 10.8965 17.7273 17.5181C17.7273 20.6046 16.8828 22.9812 15.2012 24.6478C13.5197 26.3144 11.2178 27.1515 8.30312 27.1515C6.89062 27.144 5.61264 26.8675 4.46171 26.3219ZM4.46171 12.2567V22.3011C5.26886 22.9588 6.218 23.2802 7.30167 23.2802C9.35689 23.2802 10.8367 22.7869 11.7335 21.8079C12.6303 20.8288 13.0787 19.2743 13.0787 17.1593C13.0787 14.9023 12.6303 13.3104 11.741 12.3837C10.8516 11.4645 9.37184 11.0011 7.31661 11.0011C6.24789 11.0086 5.29128 11.4271 4.46171 12.2567Z" fill="#F7931E"/>
<path d="M30.2903 24.6102C29.8868 25.2754 29.1843 25.8209 28.1753 26.2395C27.1664 26.658 26.1201 26.8747 25.029 26.8747C22.9737 26.8747 21.352 26.359 20.1786 25.3277C18.9978 24.2963 18.4149 22.839 18.4149 20.9482C18.4149 18.736 19.2444 17.0021 20.9036 15.7541C22.5627 14.506 24.9243 13.8782 27.981 13.8782C28.5042 13.8782 29.1245 13.9679 29.8345 14.1472C29.8345 11.8977 28.4145 10.7767 25.5671 10.7767C24.6104 10.7767 23.736 10.8664 22.9588 11.0532C22.0321 11.2699 21.1053 10.7244 20.8512 9.80511C20.5747 8.81112 21.1577 7.7723 22.1591 7.50325C23.2801 7.19683 24.5133 7.04736 25.8735 7.04736C28.7882 7.04736 30.9256 7.71251 32.2783 9.03533C33.631 10.3656 34.3111 12.8767 34.3111 16.5761V20.6642C34.3111 23.2127 34.8193 24.812 35.8432 25.4622C35.477 26.1049 35.0659 26.501 34.6101 26.6505C34.1542 26.8 33.6385 26.8747 33.0556 26.8747C32.4128 26.8747 31.8374 26.6356 31.3217 26.1572C30.8135 25.6864 30.4697 25.1633 30.2903 24.6102ZM29.8569 17.5253C29.0946 17.3683 28.5266 17.2936 28.1454 17.2936C24.6254 17.2936 22.8616 18.4445 22.8616 20.7539C22.8616 22.4653 23.8556 23.3248 25.8436 23.3248C28.5191 23.3248 29.8569 21.987 29.8569 19.3115V17.5253Z" fill="#F7931E"/>
<path d="M43.6904 29.7672C43.2121 31.0377 42.1957 32.099 40.6337 32.936C39.6173 33.4816 38.4963 33.8478 37.2631 34.0421C36.1645 34.214 35.1631 33.362 35.1631 32.2484C35.1631 31.1797 35.9627 30.2829 37.0165 30.1484C39.2212 29.8718 40.3198 29.0423 40.3198 27.6671C40.3198 26.5237 39.8415 24.7749 38.8924 22.4207L33.758 9.68576C33.3545 8.68431 34.0943 7.58569 35.1705 7.58569H35.9702C36.9119 7.58569 37.7564 8.16116 38.1002 9.03556L42.7487 20.7915L46.9115 9.06546C47.2254 8.1761 48.0699 7.58569 49.0116 7.58569H50.3419C51.1714 7.58569 51.7469 8.41526 51.4554 9.19251L43.6904 29.7672Z" fill="#F7931E"/>
<path d="M53.7349 11.1729C52.7783 11.1729 52.0085 10.3957 52.0085 9.44655V9.4316C52.0085 8.4152 52.8306 7.58564 53.8544 7.58564H54.2207V5.32862C54.2207 4.34959 54.8335 3.46771 55.7527 3.1314L56.8738 2.72035C57.7482 2.39899 58.6824 3.04919 58.6824 3.98338V7.59311H62.0903C63.1067 7.59311 63.9288 8.4152 63.9288 9.4316C63.9288 10.3957 63.1441 11.1804 62.18 11.1804H59.9305C59.2429 11.1804 58.6824 11.7409 58.6824 12.4285V19.5508C58.6824 20.9185 58.8991 21.8826 59.3251 22.4505C59.7511 23.0185 60.5059 23.2951 61.5746 23.2951C62.0529 23.2951 62.5088 23.2353 62.9572 23.1232C63.7719 22.9139 64.5715 23.5118 64.5715 24.3563V24.9318C64.5715 25.9407 63.8242 26.7852 62.8227 26.9123C62.0529 27.0094 61.1636 27.0617 60.1397 27.0617C58.234 27.0617 56.7766 26.5236 55.7527 25.4474C54.7289 24.3712 54.2207 22.8392 54.2207 20.8512V11.6587C54.2207 11.3897 54.0039 11.1729 53.7349 11.1729Z" fill="#1B1464"/>
<path d="M77.7699 9.87237C77.3513 10.7094 76.4097 11.1578 75.5054 10.9261C75.1242 10.829 74.7206 10.7767 74.3096 10.7767C73.2783 10.7767 72.359 11.2475 71.5519 12.1892C70.7522 13.1308 70.3486 14.2743 70.3486 15.6345V25.0063C70.3486 25.8434 69.6685 26.5235 68.8315 26.5235H67.6133C66.6567 26.5235 65.8869 25.7462 65.8869 24.7971V9.25954C65.8869 8.23566 66.7165 7.40609 67.7403 7.40609H68.6596C69.5938 7.40609 70.3486 8.16092 70.3486 9.09512V9.15491C71.5967 7.74988 73.2558 7.04736 75.326 7.04736C75.9837 7.04736 76.5741 7.0922 77.1047 7.17441C78.024 7.32388 78.5322 8.32534 78.1211 9.16238L77.7699 9.87237Z" fill="#1B1464"/>
<path d="M81.4543 24.6702V11.8904C81.4543 11.4345 81.0806 11.0609 80.6247 11.0609C79.7279 11.0609 79.0104 10.3359 79.0104 9.44658V8.95332C79.0104 8.10134 79.7055 7.4063 80.5575 7.4063H84.369C85.2509 7.4063 85.9683 8.12376 85.9683 9.00564V24.9467C85.9683 25.8137 85.2658 26.5237 84.3914 26.5237H83.2928C82.2764 26.5162 81.4543 25.6941 81.4543 24.6702ZM83.7561 0C84.4736 0 85.079 0.254101 85.5872 0.754829C86.0954 1.26303 86.342 1.86839 86.342 2.58585C86.342 3.30331 86.0879 3.90867 85.5872 4.41687C85.079 4.92507 84.4736 5.1717 83.7561 5.1717C83.0387 5.1717 82.4333 4.9176 81.9251 4.41687C81.4169 3.90867 81.1703 3.30331 81.1703 2.58585C81.1703 1.86839 81.4244 1.26303 81.9251 0.754829C82.4333 0.254101 83.0462 0 83.7561 0Z" fill="#1B1464"/>
<path d="M87.4556 16.7407C87.4556 13.826 88.3001 11.4495 89.9816 9.61843C91.6632 7.78741 93.8903 6.86816 96.648 6.86816C99.5478 6.86816 101.805 7.75004 103.412 9.50633C105.018 11.2701 105.818 13.6766 105.818 16.7333C105.818 19.7825 105.003 22.1964 103.367 23.9976C101.73 25.7912 99.488 26.6955 96.648 26.6955C93.7483 26.6955 91.4913 25.7912 89.877 23.9751C88.2627 22.1591 87.4556 19.7451 87.4556 16.7407ZM92.0967 16.7407C92.0967 20.9483 93.6138 23.0559 96.648 23.0559C98.0381 23.0559 99.1442 22.5103 99.9588 21.4117C100.773 20.3206 101.184 18.7586 101.184 16.7333C101.184 12.578 99.6748 10.5078 96.6555 10.5078C95.2654 10.5078 94.1594 11.0534 93.3373 12.152C92.5077 13.2431 92.0967 14.7752 92.0967 16.7407Z" fill="#1B1464"/>
<path d="M107.066 11.1729C106.169 11.1729 105.437 10.448 105.437 9.54371V9.02803C105.437 8.22836 106.08 7.58564 106.879 7.58564H107.649V5.09694C107.649 4.25243 108.172 3.4976 108.972 3.20613L110.302 2.72035C111.184 2.39899 112.118 3.04919 112.118 3.98338V7.57816H115.668C116.602 7.57816 117.357 8.33299 117.357 9.26719V9.73055C117.357 10.5227 116.715 11.158 115.93 11.158H113.307C112.649 11.158 112.111 11.6961 112.111 12.3538V19.5284C112.111 20.896 112.328 21.8601 112.754 22.4281C113.18 22.9961 113.934 23.2726 115.003 23.2726C115.616 23.2726 116.206 23.1755 116.774 22.9812C117.372 22.7794 118 23.2203 118 23.8556V25.2382C118 26.0229 117.439 26.6955 116.662 26.8226C115.803 26.9646 114.779 27.0318 113.576 27.0318C111.67 27.0318 110.213 26.4937 109.189 25.4175C108.165 24.3414 107.657 22.8093 107.657 20.8213V11.7559C107.657 11.4345 107.395 11.1729 107.066 11.1729Z" fill="#1B1464"/>
<path d="M61.8661 36.5604V38.7651C61.8661 38.922 61.7391 39.0491 61.5821 39.0491H61.1337C60.7227 39.0491 60.3864 38.7128 60.3864 38.3017V31.0225C60.3864 30.589 60.7376 30.2377 61.1711 30.2377H61.6643C61.769 30.2377 61.8586 30.3274 61.8586 30.4321V30.447C61.8586 30.5292 61.9483 30.5741 62.0156 30.5217C62.3594 30.2527 62.7629 30.1182 63.2263 30.1182C65.2442 30.1182 66.2531 31.2317 66.2531 33.4514C66.2531 34.4902 65.9766 35.2824 65.4161 35.8429C64.8555 36.4034 64.0932 36.6799 63.1291 36.6799C62.7181 36.6799 62.337 36.6052 61.9932 36.4632C61.9334 36.4408 61.8661 36.4931 61.8661 36.5604ZM61.8661 31.8296V35.0657C61.8661 35.0956 61.8811 35.1254 61.9035 35.1404C62.1651 35.3347 62.464 35.4393 62.8078 35.4393C63.4879 35.4393 63.9811 35.2749 64.2801 34.9536C64.579 34.6322 64.7285 34.1165 64.7285 33.414C64.7285 32.6666 64.579 32.136 64.2876 31.8296C63.9886 31.5232 63.5028 31.3737 62.8227 31.3737C62.4789 31.3737 62.1725 31.5008 61.9035 31.7549C61.8736 31.7773 61.8661 31.7997 61.8661 31.8296Z" fill="#F7931E"/>
<path d="M70.9091 36.0298C70.8792 35.97 70.797 35.9625 70.7522 36.0148C70.6102 36.1792 70.4084 36.3138 70.1468 36.4259C69.8105 36.5679 69.4667 36.6351 69.1005 36.6351C68.4204 36.6351 67.8823 36.4632 67.4937 36.1269C67.1051 35.7906 66.9108 35.3048 66.9108 34.677C66.9108 33.9446 67.1873 33.3692 67.7329 32.9581C68.2784 32.5471 69.0632 32.3378 70.0796 32.3378C70.2216 32.3378 70.386 32.3602 70.5728 32.3976C70.6401 32.4126 70.6999 32.3602 70.6924 32.293C70.6401 31.6353 70.1692 31.3065 69.2874 31.3065C68.824 31.3065 68.4204 31.3737 68.0841 31.5008C67.9795 31.5382 67.8674 31.4858 67.8375 31.3812L67.7254 30.9926C67.6357 30.6637 67.8225 30.32 68.1514 30.2303C68.5251 30.1257 68.9361 30.0808 69.3845 30.0808C70.3486 30.0808 71.0586 30.2975 71.507 30.7385C71.9554 31.1794 72.1796 32.009 72.1796 33.2347V34.5874C72.1796 35.3721 72.3291 35.8878 72.6206 36.1269C72.6579 36.1568 72.6654 36.2166 72.643 36.254C72.5309 36.4184 72.4113 36.523 72.2843 36.5679C72.1348 36.6202 71.9629 36.6426 71.7686 36.6426C71.5593 36.6426 71.365 36.5604 71.1931 36.4034C71.0661 36.2764 70.9689 36.1568 70.9091 36.0298ZM70.6999 33.6083C70.6999 33.5635 70.67 33.5261 70.6251 33.5112C70.4084 33.4738 70.2514 33.4514 70.1319 33.4514C68.966 33.4514 68.3831 33.8325 68.3831 34.5948C68.3831 35.2226 68.7792 35.4991 69.5788 35.4394C70.2141 35.387 70.6999 34.8489 70.6999 34.2062V33.6083Z" fill="#F7931E"/>
<path d="M76.0733 37.5395C75.9164 37.958 75.5801 38.3093 75.0569 38.5858C74.6533 38.8026 74.2049 38.9296 73.6967 38.9819C73.4501 39.0043 73.2408 38.8175 73.2408 38.5709V38.2495C73.2408 37.9506 73.4725 37.6965 73.7715 37.6666C74.5562 37.5844 74.9523 37.3078 74.9523 36.837C74.9523 36.4559 74.7953 35.8804 74.4815 35.0957L72.6729 30.6041C72.5907 30.4023 72.7401 30.1855 72.9569 30.1855H73.5547C73.8387 30.1855 74.1003 30.3574 74.2049 30.6265L75.6623 34.3184C75.6922 34.4006 75.6324 34.4006 75.6623 34.3184L77.1645 30.6041C77.2541 30.35 77.4933 30.1855 77.7624 30.1855H77.9043C78.3602 30.1855 78.6816 30.6414 78.5172 31.0749L76.0733 37.5395Z" fill="#F7931E"/>
<path d="M86.7979 36.5677C86.6335 36.5677 86.5064 36.4332 86.5064 36.2763V32.5993C86.5064 31.7697 86.1327 31.3512 85.3854 31.3512C85.1612 31.3512 84.9519 31.4185 84.7501 31.5455C84.6007 31.6427 84.4886 31.7473 84.3989 31.8594C84.3466 31.9341 84.3167 32.0238 84.3167 32.1135V36.209C84.3167 36.4033 84.1597 36.5677 83.9579 36.5677H83.1583C82.9789 36.5677 82.8369 36.4258 82.8369 36.2464V32.3751C82.8369 32.0612 82.7398 31.8146 82.5454 31.6352C82.3511 31.4484 82.0821 31.3587 81.7308 31.3587C81.544 31.3587 81.3422 31.4259 81.1255 31.5679C80.976 31.6651 80.8489 31.7697 80.7593 31.8744C80.692 31.9566 80.6546 32.0537 80.6546 32.1658V36.2464C80.6546 36.4258 80.5052 36.5752 80.3258 36.5752H79.4738C79.3094 36.5752 79.1749 36.4407 79.1749 36.2763V30.6861C79.1749 30.4394 79.3767 30.2376 79.6233 30.2376H79.9297C80.0941 30.2376 80.2436 30.3273 80.3183 30.4693C80.4005 30.6263 80.6023 30.6711 80.7368 30.559C81.103 30.2675 81.5515 30.1181 82.0821 30.1181C82.8743 30.1181 83.4871 30.3199 83.9131 30.7309C83.9505 30.7683 84.0103 30.7683 84.0476 30.7309C84.227 30.5515 84.4661 30.4095 84.7576 30.2974C85.0864 30.1704 85.4228 30.1106 85.7516 30.1106C86.4541 30.1106 87.0072 30.3124 87.3958 30.716C87.7844 31.1195 87.9862 31.6726 87.9862 32.3826V36.1866C87.9862 36.3884 87.8218 36.5603 87.6125 36.5603H86.7979V36.5677Z" fill="#F7931E"/>
<path d="M94.3089 33.7951H90.1536C90.1012 33.7951 90.0489 33.84 90.0564 33.8998C90.1012 34.3556 90.2731 34.7144 90.5721 34.9759C90.8934 35.2525 91.3194 35.3945 91.8575 35.3945C92.3956 35.3945 92.8366 35.2824 93.1654 35.0582C93.2924 34.9685 93.4718 35.0208 93.5391 35.1553L93.8231 35.7158C93.9128 35.8877 93.8455 36.097 93.6811 36.1941C93.1803 36.4856 92.4928 36.6276 91.6408 36.6276C90.6767 36.6276 89.9144 36.3436 89.3464 35.7756C88.7859 35.2076 88.5019 34.4229 88.5019 33.4065C88.5019 32.4125 88.8083 31.5979 89.4286 30.9851C90.0489 30.3648 90.7888 30.0583 91.6483 30.0583C92.5675 30.0583 93.2999 30.3349 93.8604 30.8804C94.4135 31.426 94.6975 32.1285 94.6975 32.973C94.6975 33.1076 94.6751 33.2944 94.6302 33.5261C94.6003 33.683 94.4658 33.7951 94.3089 33.7951ZM90.2283 32.689H93.1056C93.1654 32.689 93.2102 32.6367 93.2028 32.5769C93.0757 31.725 92.5675 31.299 91.6782 31.299C90.871 31.299 90.3553 31.725 90.1386 32.5695C90.1162 32.6218 90.161 32.689 90.2283 32.689Z" fill="#F7931E"/>
<path d="M99.4058 36.68C99.2489 36.68 99.1218 36.5529 99.1218 36.396V33.018C99.1218 32.4799 99.0172 32.0838 98.8079 31.8371C98.5987 31.5905 98.2624 31.4635 97.7915 31.4635C97.5748 31.4635 97.3431 31.5232 97.0965 31.6503C96.8648 31.7699 96.678 31.9119 96.5435 32.0763C96.5285 32.0912 96.521 32.1137 96.521 32.1361V36.3213C96.521 36.5156 96.3641 36.68 96.1623 36.68H95.3402C95.1758 36.68 95.0413 36.5455 95.0413 36.3811V30.6787C95.0413 30.4994 95.1907 30.3499 95.3701 30.3499H95.8858C96.0203 30.3499 96.1399 30.4246 96.1997 30.5517L96.3192 30.8133C96.3491 30.873 96.4239 30.888 96.4762 30.8432C96.8723 30.4396 97.4328 30.2378 98.1577 30.2378C98.9126 30.2378 99.503 30.462 99.9364 30.9179C100.37 31.3663 100.587 32.0016 100.587 32.8087V36.3811C100.587 36.5529 100.452 36.6875 100.28 36.6875H99.4058V36.68Z" fill="#F7931E"/>
<path d="M101.618 31.5008H101.274C101.11 31.5008 100.975 31.3662 100.975 31.2018V30.6488C100.975 30.4619 101.125 30.3125 101.312 30.3125H101.61C101.663 30.3125 101.708 30.2676 101.708 30.2153V29.2737C101.708 29.1242 101.797 28.9897 101.939 28.9373L102.799 28.6235C102.986 28.5562 103.18 28.6907 103.18 28.8925V30.2228C103.18 30.2751 103.225 30.32 103.277 30.32H104.615C104.779 30.32 104.921 30.4545 104.921 30.6264V31.157C104.921 31.3513 104.764 31.5082 104.57 31.5082H103.285C103.232 31.5082 103.187 31.5531 103.187 31.6054V34.2809C103.187 34.7368 103.255 35.0507 103.397 35.245C103.583 35.4917 103.957 35.5739 104.518 35.4991C104.69 35.4767 104.772 35.4393 104.921 35.3571C104.989 35.3198 105.138 35.3347 105.138 35.4094V36.3287C105.138 36.4931 105.018 36.6426 104.861 36.6725C104.548 36.7397 104.151 36.7771 103.673 36.7771C103.045 36.7771 102.56 36.5977 102.216 36.239C101.88 35.8803 101.708 35.3721 101.708 34.7144V31.6054C101.715 31.5456 101.67 31.5008 101.618 31.5008Z" fill="#F7931E"/>
<path d="M105.826 35.8804L106.087 35.2974C106.154 35.1405 106.349 35.0882 106.491 35.1779C106.864 35.4021 107.275 35.5142 107.716 35.5142C108.292 35.5142 108.576 35.3124 108.576 34.9013C108.576 34.6622 108.486 34.4604 108.314 34.3109C108.142 34.154 107.806 33.9746 107.305 33.7654C106.214 33.3095 105.669 32.6742 105.669 31.8596C105.669 31.314 105.878 30.888 106.296 30.5816C106.715 30.2752 107.246 30.1257 107.896 30.1257C108.449 30.1257 108.979 30.2304 109.48 30.4396C109.637 30.5069 109.712 30.6788 109.652 30.8357L109.465 31.3439C109.398 31.5233 109.196 31.598 109.024 31.5083C108.74 31.3663 108.396 31.2916 107.978 31.2916C107.462 31.2916 107.201 31.4934 107.201 31.9044C107.201 32.0689 107.283 32.2109 107.455 32.3454C107.627 32.4724 107.985 32.6518 108.546 32.8685C109.099 33.0853 109.503 33.3543 109.749 33.6607C109.996 33.9746 110.115 34.3483 110.115 34.7892C110.115 35.3796 109.899 35.8355 109.465 36.1718C109.032 36.5082 108.434 36.68 107.687 36.68C107.268 36.68 106.924 36.6427 106.67 36.5754C106.476 36.5231 106.244 36.4334 105.975 36.2989C105.826 36.2316 105.758 36.0373 105.826 35.8804Z" fill="#F7931E"/>
</svg>
