<svg width="683" height="646" viewBox="0 0 683 646" fill="none" xmlns="http://www.w3.org/2000/svg">
<rect x="106" y="118" width="370" height="404" rx="35" fill="url(#paint0_linear_792_732)"/>
<g opacity="0.2" filter="url(#filter0_f_792_732)">
<rect x="151" y="151" width="346" height="344" rx="53.5737" fill="black"/>
</g>
<g filter="url(#filter1_b_792_732)">
<g filter="url(#filter2_b_792_732)">
<rect x="168.268" y="37.2598" width="390" height="410" rx="35" fill="white" fill-opacity="0.95"/>
</g>
<g filter="url(#filter3_d_792_732)">
<rect x="278" y="201" width="213.479" height="14.0447" rx="7.02233" fill="white"/>
</g>
</g>
<g filter="url(#filter4_d_792_732)">
<circle cx="229.139" cy="162.139" r="28.1395" fill="white"/>
</g>
<g filter="url(#filter5_d_792_732)">
<rect x="278" y="133.618" width="129.211" height="14.0447" rx="7.02233" fill="white"/>
</g>
<g filter="url(#filter6_d_792_732)">
<rect x="278" y="170" width="213.479" height="14.0447" rx="7.02233" fill="white"/>
</g>
<path d="M221.565 95.0432V96.9789H216.58V100.045H220.4V101.947H216.58V107H214.182V95.0432H221.565ZM232.225 97.51V107H229.809V105.801C229.501 106.212 229.096 106.537 228.593 106.777C228.102 107.006 227.565 107.12 226.983 107.12C226.241 107.12 225.584 106.966 225.013 106.657C224.442 106.338 223.991 105.875 223.66 105.27C223.34 104.653 223.18 103.922 223.18 103.077V97.51H225.578V102.735C225.578 103.488 225.767 104.071 226.143 104.482C226.52 104.882 227.034 105.081 227.685 105.081C228.347 105.081 228.867 104.882 229.244 104.482C229.621 104.071 229.809 103.488 229.809 102.735V97.51H232.225ZM239.85 97.3729C240.98 97.3729 241.894 97.7326 242.591 98.4521C243.287 99.1601 243.635 100.154 243.635 101.433V107H241.237V101.758C241.237 101.004 241.049 100.428 240.672 100.028C240.295 99.6169 239.781 99.4114 239.13 99.4114C238.468 99.4114 237.943 99.6169 237.554 100.028C237.177 100.428 236.989 101.004 236.989 101.758V107H234.591V97.51H236.989V98.6919C237.309 98.2808 237.714 97.961 238.205 97.7326C238.708 97.4928 239.256 97.3729 239.85 97.3729ZM245.299 102.221C245.299 101.261 245.488 100.411 245.865 99.6683C246.253 98.926 246.778 98.355 247.441 97.9553C248.103 97.5556 248.84 97.3558 249.65 97.3558C250.267 97.3558 250.855 97.4928 251.415 97.7669C251.974 98.0296 252.42 98.3836 252.751 98.829V94.3238H255.183V107H252.751V105.595C252.454 106.064 252.037 106.44 251.5 106.726C250.964 107.011 250.341 107.154 249.633 107.154C248.834 107.154 248.103 106.949 247.441 106.537C246.778 106.126 246.253 105.55 245.865 104.807C245.488 104.054 245.299 103.191 245.299 102.221ZM252.768 102.255C252.768 101.673 252.654 101.176 252.425 100.765C252.197 100.342 251.889 100.022 251.5 99.8054C251.112 99.577 250.695 99.4628 250.25 99.4628C249.805 99.4628 249.393 99.5713 249.017 99.7882C248.64 100.005 248.331 100.325 248.092 100.748C247.863 101.159 247.749 101.65 247.749 102.221C247.749 102.792 247.863 103.294 248.092 103.728C248.331 104.151 248.64 104.476 249.017 104.705C249.405 104.933 249.816 105.047 250.25 105.047C250.695 105.047 251.112 104.939 251.5 104.722C251.889 104.493 252.197 104.174 252.425 103.762C252.654 103.34 252.768 102.837 252.768 102.255ZM261.157 107.154C260.381 107.154 259.684 107.017 259.067 106.743C258.451 106.458 257.96 106.075 257.594 105.595C257.24 105.116 257.046 104.585 257.012 104.002H259.427C259.473 104.368 259.65 104.67 259.958 104.91C260.278 105.15 260.672 105.27 261.14 105.27C261.597 105.27 261.951 105.179 262.202 104.996C262.465 104.813 262.596 104.579 262.596 104.293C262.596 103.985 262.436 103.757 262.117 103.608C261.808 103.448 261.311 103.277 260.626 103.094C259.918 102.923 259.336 102.746 258.879 102.563C258.434 102.381 258.045 102.101 257.714 101.724C257.394 101.347 257.234 100.839 257.234 100.199C257.234 99.674 257.383 99.1944 257.68 98.7604C257.988 98.3265 258.422 97.9839 258.982 97.7326C259.553 97.4814 260.221 97.3558 260.986 97.3558C262.117 97.3558 263.019 97.6413 263.692 98.2123C264.366 98.7719 264.737 99.5313 264.806 100.491H262.511C262.476 100.114 262.316 99.8168 262.031 99.5998C261.757 99.3714 261.386 99.2572 260.917 99.2572C260.483 99.2572 260.147 99.3372 259.907 99.497C259.678 99.6569 259.564 99.8796 259.564 100.165C259.564 100.485 259.724 100.73 260.044 100.902C260.364 101.062 260.86 101.227 261.534 101.398C262.219 101.57 262.785 101.747 263.23 101.93C263.675 102.112 264.058 102.398 264.378 102.786C264.709 103.163 264.88 103.665 264.892 104.293C264.892 104.842 264.737 105.333 264.429 105.767C264.132 106.201 263.698 106.543 263.127 106.794C262.568 107.034 261.911 107.154 261.157 107.154Z" fill="#272727"/>
<g filter="url(#filter7_b_792_732)">
<rect x="480.394" y="90.3027" width="45.1234" height="22.5278" rx="11.2639" fill="#24213F"/>
</g>
<path d="M509.28 101.651H497.038" stroke="white" stroke-width="1.63231" stroke-linecap="round" stroke-linejoin="round"/>
<path d="M504.344 96.7335L509.281 101.65L504.344 106.567" stroke="white" stroke-width="1.63231" stroke-linecap="round" stroke-linejoin="round"/>
<g filter="url(#filter8_d_792_732)">
<rect x="581" y="315" width="92.7762" height="94.5267" rx="35" fill="white"/>
</g>
<g filter="url(#filter9_d_792_732)">
<rect x="107" y="4" width="92.7762" height="94.5267" rx="35" fill="white"/>
</g>
<rect x="200" y="252" width="322" height="156" rx="20" fill="url(#paint1_linear_792_732)"/>
<circle cx="246.526" cy="294.526" r="6.52632" fill="white" fill-opacity="0.5"/>
<circle cx="246.526" cy="342.526" r="6.52632" fill="white" fill-opacity="0.5"/>
<rect x="264" y="338" width="38" height="9" rx="4" fill="white"/>
<rect x="264" y="290" width="84" height="9" rx="4" fill="white"/>
<path d="M269.753 313.916H265.892V316.424C266.061 316.189 266.31 315.999 266.64 315.852C266.97 315.698 267.326 315.621 267.707 315.621C268.316 315.621 268.811 315.749 269.192 316.006C269.573 316.255 269.845 316.582 270.006 316.985C270.175 317.381 270.259 317.803 270.259 318.25C270.259 318.778 270.16 319.251 269.962 319.669C269.764 320.087 269.46 320.417 269.049 320.659C268.646 320.901 268.143 321.022 267.542 321.022C266.772 321.022 266.149 320.824 265.672 320.428C265.195 320.032 264.906 319.504 264.803 318.844H265.782C265.877 319.262 266.079 319.588 266.387 319.823C266.695 320.058 267.084 320.175 267.553 320.175C268.132 320.175 268.569 320.003 268.862 319.658C269.155 319.306 269.302 318.844 269.302 318.272C269.302 317.7 269.155 317.26 268.862 316.952C268.569 316.637 268.136 316.479 267.564 316.479C267.175 316.479 266.834 316.574 266.541 316.765C266.255 316.948 266.046 317.201 265.914 317.524H264.968V313.036H269.753V313.916ZM272.788 319.614L271.556 322.573H270.885L271.688 319.614H272.788ZM275.057 318.866C275.13 319.284 275.299 319.607 275.563 319.834C275.834 320.061 276.197 320.175 276.652 320.175C277.261 320.175 277.708 319.937 277.994 319.46C278.287 318.983 278.427 318.18 278.412 317.051C278.258 317.381 278.001 317.641 277.642 317.832C277.283 318.015 276.883 318.107 276.443 318.107C275.952 318.107 275.512 318.008 275.123 317.81C274.742 317.605 274.441 317.308 274.221 316.919C274.001 316.53 273.891 316.061 273.891 315.511C273.891 314.726 274.118 314.096 274.573 313.619C275.028 313.135 275.673 312.893 276.509 312.893C277.536 312.893 278.254 313.227 278.665 313.894C279.083 314.561 279.292 315.555 279.292 316.875C279.292 317.799 279.208 318.562 279.039 319.163C278.878 319.764 278.599 320.223 278.203 320.538C277.814 320.853 277.279 321.011 276.597 321.011C275.849 321.011 275.266 320.809 274.848 320.406C274.43 320.003 274.192 319.489 274.133 318.866H275.057ZM276.608 317.26C277.099 317.26 277.503 317.11 277.818 316.809C278.133 316.501 278.291 316.087 278.291 315.566C278.291 315.016 278.137 314.572 277.829 314.235C277.521 313.898 277.088 313.729 276.531 313.729C276.018 313.729 275.607 313.89 275.299 314.213C274.998 314.536 274.848 314.961 274.848 315.489C274.848 316.024 274.998 316.453 275.299 316.776C275.6 317.099 276.036 317.26 276.608 317.26ZM282.151 316.864C281.74 316.703 281.425 316.468 281.205 316.16C280.985 315.852 280.875 315.478 280.875 315.038C280.875 314.642 280.974 314.286 281.172 313.971C281.37 313.648 281.663 313.395 282.052 313.212C282.448 313.021 282.924 312.926 283.482 312.926C284.039 312.926 284.512 313.021 284.901 313.212C285.297 313.395 285.594 313.648 285.792 313.971C285.997 314.286 286.1 314.642 286.1 315.038C286.1 315.463 285.986 315.837 285.759 316.16C285.531 316.475 285.22 316.71 284.824 316.864C285.278 317.003 285.638 317.249 285.902 317.601C286.173 317.946 286.309 318.364 286.309 318.855C286.309 319.332 286.191 319.75 285.957 320.109C285.722 320.461 285.388 320.736 284.956 320.934C284.53 321.125 284.039 321.22 283.482 321.22C282.924 321.22 282.433 321.125 282.008 320.934C281.59 320.736 281.263 320.461 281.029 320.109C280.794 319.75 280.677 319.332 280.677 318.855C280.677 318.364 280.809 317.942 281.073 317.59C281.337 317.238 281.696 316.996 282.151 316.864ZM285.132 315.159C285.132 314.712 284.985 314.367 284.692 314.125C284.398 313.883 283.995 313.762 283.482 313.762C282.976 313.762 282.576 313.883 282.283 314.125C281.989 314.367 281.843 314.715 281.843 315.17C281.843 315.581 281.993 315.911 282.294 316.16C282.602 316.409 282.998 316.534 283.482 316.534C283.973 316.534 284.369 316.409 284.67 316.16C284.978 315.903 285.132 315.57 285.132 315.159ZM283.482 317.304C282.939 317.304 282.495 317.432 282.151 317.689C281.806 317.938 281.634 318.316 281.634 318.822C281.634 319.291 281.799 319.669 282.129 319.955C282.466 320.241 282.917 320.384 283.482 320.384C284.046 320.384 284.494 320.241 284.824 319.955C285.154 319.669 285.319 319.291 285.319 318.822C285.319 318.331 285.15 317.957 284.813 317.7C284.475 317.436 284.032 317.304 283.482 317.304ZM292.071 314.939C291.91 314.125 291.407 313.718 290.564 313.718C289.911 313.718 289.424 313.971 289.101 314.477C288.778 314.976 288.621 315.801 288.628 316.952C288.797 316.571 289.075 316.274 289.464 316.061C289.86 315.841 290.3 315.731 290.784 315.731C291.539 315.731 292.141 315.966 292.588 316.435C293.043 316.904 293.27 317.553 293.27 318.382C293.27 318.881 293.171 319.328 292.973 319.724C292.782 320.12 292.489 320.435 292.093 320.67C291.704 320.905 291.231 321.022 290.674 321.022C289.919 321.022 289.328 320.853 288.903 320.516C288.478 320.179 288.181 319.713 288.012 319.119C287.843 318.525 287.759 317.792 287.759 316.919C287.759 314.228 288.698 312.882 290.575 312.882C291.294 312.882 291.858 313.076 292.269 313.465C292.68 313.854 292.922 314.345 292.995 314.939H292.071ZM290.575 316.578C290.26 316.578 289.963 316.644 289.684 316.776C289.405 316.901 289.178 317.095 289.002 317.359C288.833 317.616 288.749 317.931 288.749 318.305C288.749 318.862 288.91 319.317 289.233 319.669C289.556 320.014 290.018 320.186 290.619 320.186C291.132 320.186 291.539 320.028 291.84 319.713C292.148 319.39 292.302 318.958 292.302 318.415C292.302 317.843 292.155 317.396 291.862 317.073C291.569 316.743 291.14 316.578 290.575 316.578ZM300.292 323.046C299.588 322.357 299.038 321.48 298.642 320.417C298.253 319.354 298.059 318.206 298.059 316.974C298.059 315.713 298.264 314.536 298.675 313.443C299.093 312.343 299.687 311.437 300.457 310.726H301.502V310.825C300.681 311.595 300.061 312.523 299.643 313.608C299.232 314.686 299.027 315.808 299.027 316.974C299.027 318.111 299.221 319.196 299.61 320.23C300.006 321.264 300.582 322.17 301.337 322.947V323.046H300.292ZM302.306 319.229V318.47L306.167 313.124H307.366V318.36H308.466V319.229H307.366V321H306.376V319.229H302.306ZM306.42 314.169L303.461 318.36H306.42V314.169ZM309.202 313.96V313.047H311.27V321H310.258V313.96H309.202ZM314.189 319.614L312.957 322.573H312.286L313.089 319.614H314.189ZM314.928 319.229V318.47L318.789 313.124H319.988V318.36H321.088V319.229H319.988V321H318.998V319.229H314.928ZM319.042 314.169L316.083 318.36H319.042V314.169ZM321.868 314.84C321.868 314.341 322.019 313.945 322.319 313.652C322.62 313.351 323.005 313.201 323.474 313.201C323.944 313.201 324.329 313.351 324.629 313.652C324.93 313.945 325.08 314.341 325.08 314.84C325.08 315.346 324.93 315.749 324.629 316.05C324.329 316.343 323.944 316.49 323.474 316.49C323.005 316.49 322.62 316.343 322.319 316.05C322.019 315.749 321.868 315.346 321.868 314.84ZM328.292 313.322L323.837 321H322.847L327.302 313.322H328.292ZM323.474 313.817C323.225 313.817 323.027 313.905 322.88 314.081C322.741 314.25 322.671 314.503 322.671 314.84C322.671 315.177 322.741 315.434 322.88 315.61C323.027 315.786 323.225 315.874 323.474 315.874C323.724 315.874 323.922 315.786 324.068 315.61C324.215 315.427 324.288 315.17 324.288 314.84C324.288 314.503 324.215 314.25 324.068 314.081C323.922 313.905 323.724 313.817 323.474 313.817ZM326.081 319.482C326.081 318.976 326.232 318.576 326.532 318.283C326.833 317.982 327.218 317.832 327.687 317.832C328.157 317.832 328.538 317.982 328.831 318.283C329.132 318.576 329.282 318.976 329.282 319.482C329.282 319.981 329.132 320.38 328.831 320.681C328.538 320.982 328.157 321.132 327.687 321.132C327.218 321.132 326.833 320.985 326.532 320.692C326.232 320.391 326.081 319.988 326.081 319.482ZM327.676 318.459C327.427 318.459 327.229 318.547 327.082 318.723C326.936 318.892 326.862 319.145 326.862 319.482C326.862 319.812 326.936 320.065 327.082 320.241C327.229 320.41 327.427 320.494 327.676 320.494C327.926 320.494 328.124 320.41 328.27 320.241C328.417 320.065 328.49 319.812 328.49 319.482C328.49 319.145 328.417 318.892 328.27 318.723C328.124 318.547 327.926 318.459 327.676 318.459ZM330.281 323.046V322.947C331.036 322.17 331.608 321.264 331.997 320.23C332.393 319.196 332.591 318.111 332.591 316.974C332.591 315.808 332.382 314.686 331.964 313.608C331.553 312.523 330.937 311.595 330.116 310.825V310.726H331.161C331.931 311.437 332.521 312.343 332.932 313.443C333.35 314.536 333.559 315.713 333.559 316.974C333.559 318.206 333.361 319.354 332.965 320.417C332.576 321.48 332.03 322.357 331.326 323.046H330.281Z" fill="white"/>
<path d="M264.561 367.197C265.492 366.449 266.222 365.837 266.75 365.36C267.278 364.876 267.722 364.374 268.081 363.853C268.448 363.325 268.631 362.808 268.631 362.302C268.631 361.825 268.514 361.451 268.279 361.18C268.052 360.901 267.681 360.762 267.168 360.762C266.669 360.762 266.281 360.92 266.002 361.235C265.731 361.543 265.584 361.957 265.562 362.478H264.594C264.623 361.657 264.873 361.022 265.342 360.575C265.811 360.128 266.416 359.904 267.157 359.904C267.912 359.904 268.51 360.113 268.95 360.531C269.397 360.949 269.621 361.525 269.621 362.258C269.621 362.867 269.438 363.461 269.071 364.04C268.712 364.612 268.301 365.118 267.839 365.558C267.377 365.991 266.787 366.497 266.068 367.076H269.852V367.912H264.561V367.197ZM272.208 366.614L270.976 369.573H270.305L271.108 366.614H272.208ZM277.623 361.939C277.461 361.125 276.959 360.718 276.116 360.718C275.463 360.718 274.975 360.971 274.653 361.477C274.33 361.976 274.172 362.801 274.18 363.952C274.348 363.571 274.627 363.274 275.016 363.061C275.412 362.841 275.852 362.731 276.336 362.731C277.091 362.731 277.692 362.966 278.14 363.435C278.594 363.904 278.822 364.553 278.822 365.382C278.822 365.881 278.723 366.328 278.525 366.724C278.334 367.12 278.041 367.435 277.645 367.67C277.256 367.905 276.783 368.022 276.226 368.022C275.47 368.022 274.88 367.853 274.455 367.516C274.029 367.179 273.732 366.713 273.564 366.119C273.395 365.525 273.311 364.792 273.311 363.919C273.311 361.228 274.249 359.882 276.127 359.882C276.845 359.882 277.41 360.076 277.821 360.465C278.231 360.854 278.473 361.345 278.547 361.939H277.623ZM276.127 363.578C275.811 363.578 275.514 363.644 275.236 363.776C274.957 363.901 274.73 364.095 274.554 364.359C274.385 364.616 274.301 364.931 274.301 365.305C274.301 365.862 274.462 366.317 274.785 366.669C275.107 367.014 275.569 367.186 276.171 367.186C276.684 367.186 277.091 367.028 277.392 366.713C277.7 366.39 277.854 365.958 277.854 365.415C277.854 364.843 277.707 364.396 277.414 364.073C277.12 363.743 276.691 363.578 276.127 363.578ZM279.93 366.229V365.47L283.791 360.124H284.99V365.36H286.09V366.229H284.99V368H284V366.229H279.93ZM284.044 361.169L281.085 365.36H284.044V361.169ZM286.969 367.197C287.901 366.449 288.63 365.837 289.158 365.36C289.686 364.876 290.13 364.374 290.489 363.853C290.856 363.325 291.039 362.808 291.039 362.302C291.039 361.825 290.922 361.451 290.687 361.18C290.46 360.901 290.09 360.762 289.576 360.762C289.078 360.762 288.689 360.92 288.41 361.235C288.139 361.543 287.992 361.957 287.97 362.478H287.002C287.032 361.657 287.281 361.022 287.75 360.575C288.22 360.128 288.825 359.904 289.565 359.904C290.321 359.904 290.918 360.113 291.358 360.531C291.806 360.949 292.029 361.525 292.029 362.258C292.029 362.867 291.846 363.461 291.479 364.04C291.12 364.612 290.709 365.118 290.247 365.558C289.785 365.991 289.195 366.497 288.476 367.076H292.26V367.912H286.969V367.197ZM299.089 370.046C298.385 369.357 297.835 368.48 297.439 367.417C297.05 366.354 296.856 365.206 296.856 363.974C296.856 362.713 297.061 361.536 297.472 360.443C297.89 359.343 298.484 358.437 299.254 357.726H300.299V357.825C299.478 358.595 298.858 359.523 298.44 360.608C298.029 361.686 297.824 362.808 297.824 363.974C297.824 365.111 298.018 366.196 298.407 367.23C298.803 368.264 299.379 369.17 300.134 369.947V370.046H299.089ZM301.323 362.049C301.374 361.374 301.635 360.846 302.104 360.465C302.573 360.084 303.182 359.893 303.93 359.893C304.429 359.893 304.858 359.985 305.217 360.168C305.584 360.344 305.859 360.586 306.042 360.894C306.233 361.202 306.328 361.55 306.328 361.939C306.328 362.394 306.196 362.786 305.932 363.116C305.675 363.446 305.338 363.659 304.92 363.754V363.809C305.397 363.926 305.774 364.157 306.053 364.502C306.332 364.847 306.471 365.298 306.471 365.855C306.471 366.273 306.376 366.651 306.185 366.988C305.994 367.318 305.708 367.578 305.327 367.769C304.946 367.96 304.487 368.055 303.952 368.055C303.175 368.055 302.537 367.853 302.038 367.45C301.539 367.039 301.261 366.46 301.202 365.712H302.17C302.221 366.152 302.401 366.511 302.709 366.79C303.017 367.069 303.428 367.208 303.941 367.208C304.454 367.208 304.843 367.076 305.107 366.812C305.378 366.541 305.514 366.192 305.514 365.767C305.514 365.217 305.331 364.821 304.964 364.579C304.597 364.337 304.044 364.216 303.303 364.216H303.05V363.38H303.314C303.989 363.373 304.498 363.263 304.843 363.05C305.188 362.83 305.36 362.493 305.36 362.038C305.36 361.649 305.232 361.338 304.975 361.103C304.726 360.868 304.366 360.751 303.897 360.751C303.442 360.751 303.076 360.868 302.797 361.103C302.518 361.338 302.353 361.653 302.302 362.049H301.323ZM312.894 360.916H309.033V363.424C309.201 363.189 309.451 362.999 309.781 362.852C310.111 362.698 310.466 362.621 310.848 362.621C311.456 362.621 311.951 362.749 312.333 363.006C312.714 363.255 312.985 363.582 313.147 363.985C313.315 364.381 313.4 364.803 313.4 365.25C313.4 365.778 313.301 366.251 313.103 366.669C312.905 367.087 312.6 367.417 312.19 367.659C311.786 367.901 311.284 368.022 310.683 368.022C309.913 368.022 309.289 367.824 308.813 367.428C308.336 367.032 308.046 366.504 307.944 365.844H308.923C309.018 366.262 309.22 366.588 309.528 366.823C309.836 367.058 310.224 367.175 310.694 367.175C311.273 367.175 311.709 367.003 312.003 366.658C312.296 366.306 312.443 365.844 312.443 365.272C312.443 364.7 312.296 364.26 312.003 363.952C311.709 363.637 311.277 363.479 310.705 363.479C310.316 363.479 309.975 363.574 309.682 363.765C309.396 363.948 309.187 364.201 309.055 364.524H308.109V360.036H312.894V360.916ZM315.929 366.614L314.697 369.573H314.026L314.829 366.614H315.929ZM316.911 363.941C316.911 362.68 317.116 361.697 317.527 360.993C317.937 360.282 318.656 359.926 319.683 359.926C320.702 359.926 321.417 360.282 321.828 360.993C322.238 361.697 322.444 362.68 322.444 363.941C322.444 365.224 322.238 366.222 321.828 366.933C321.417 367.644 320.702 368 319.683 368C318.656 368 317.937 367.644 317.527 366.933C317.116 366.222 316.911 365.224 316.911 363.941ZM321.454 363.941C321.454 363.303 321.41 362.764 321.322 362.324C321.241 361.877 321.069 361.517 320.805 361.246C320.548 360.975 320.174 360.839 319.683 360.839C319.184 360.839 318.803 360.975 318.539 361.246C318.282 361.517 318.11 361.877 318.022 362.324C317.941 362.764 317.901 363.303 317.901 363.941C317.901 364.601 317.941 365.155 318.022 365.602C318.11 366.049 318.282 366.409 318.539 366.68C318.803 366.951 319.184 367.087 319.683 367.087C320.174 367.087 320.548 366.951 320.805 366.68C321.069 366.409 321.241 366.049 321.322 365.602C321.41 365.155 321.454 364.601 321.454 363.941ZM323.598 361.84C323.598 361.341 323.748 360.945 324.049 360.652C324.349 360.351 324.734 360.201 325.204 360.201C325.673 360.201 326.058 360.351 326.359 360.652C326.659 360.945 326.81 361.341 326.81 361.84C326.81 362.346 326.659 362.749 326.359 363.05C326.058 363.343 325.673 363.49 325.204 363.49C324.734 363.49 324.349 363.343 324.049 363.05C323.748 362.749 323.598 362.346 323.598 361.84ZM330.022 360.322L325.567 368H324.577L329.032 360.322H330.022ZM325.204 360.817C324.954 360.817 324.756 360.905 324.61 361.081C324.47 361.25 324.401 361.503 324.401 361.84C324.401 362.177 324.47 362.434 324.61 362.61C324.756 362.786 324.954 362.874 325.204 362.874C325.453 362.874 325.651 362.786 325.798 362.61C325.944 362.427 326.018 362.17 326.018 361.84C326.018 361.503 325.944 361.25 325.798 361.081C325.651 360.905 325.453 360.817 325.204 360.817ZM327.811 366.482C327.811 365.976 327.961 365.576 328.262 365.283C328.562 364.982 328.947 364.832 329.417 364.832C329.886 364.832 330.267 364.982 330.561 365.283C330.861 365.576 331.012 365.976 331.012 366.482C331.012 366.981 330.861 367.38 330.561 367.681C330.267 367.982 329.886 368.132 329.417 368.132C328.947 368.132 328.562 367.985 328.262 367.692C327.961 367.391 327.811 366.988 327.811 366.482ZM329.406 365.459C329.156 365.459 328.958 365.547 328.812 365.723C328.665 365.892 328.592 366.145 328.592 366.482C328.592 366.812 328.665 367.065 328.812 367.241C328.958 367.41 329.156 367.494 329.406 367.494C329.655 367.494 329.853 367.41 330 367.241C330.146 367.065 330.22 366.812 330.22 366.482C330.22 366.145 330.146 365.892 330 365.723C329.853 365.547 329.655 365.459 329.406 365.459ZM332.01 370.046V369.947C332.766 369.17 333.338 368.264 333.726 367.23C334.122 366.196 334.32 365.111 334.32 363.974C334.32 362.808 334.111 361.686 333.693 360.608C333.283 359.523 332.667 358.595 331.845 357.825V357.726H332.89C333.66 358.437 334.251 359.343 334.661 360.443C335.079 361.536 335.288 362.713 335.288 363.974C335.288 365.206 335.09 366.354 334.694 367.417C334.306 368.48 333.759 369.357 333.055 370.046H332.01Z" fill="white"/>
<circle cx="378.526" cy="294.526" r="6.52632" fill="white" fill-opacity="0.5"/>
<circle cx="378.526" cy="342.526" r="6.52632" fill="white" fill-opacity="0.5"/>
<rect x="396" y="338" width="91" height="9" rx="4" fill="white"/>
<rect x="396" y="290" width="40" height="9" rx="4" fill="white"/>
<path d="M401.753 313.916H397.892V316.424C398.061 316.189 398.31 315.999 398.64 315.852C398.97 315.698 399.326 315.621 399.707 315.621C400.316 315.621 400.811 315.749 401.192 316.006C401.573 316.255 401.845 316.582 402.006 316.985C402.175 317.381 402.259 317.803 402.259 318.25C402.259 318.778 402.16 319.251 401.962 319.669C401.764 320.087 401.46 320.417 401.049 320.659C400.646 320.901 400.143 321.022 399.542 321.022C398.772 321.022 398.149 320.824 397.672 320.428C397.195 320.032 396.906 319.504 396.803 318.844H397.782C397.877 319.262 398.079 319.588 398.387 319.823C398.695 320.058 399.084 320.175 399.553 320.175C400.132 320.175 400.569 320.003 400.862 319.658C401.155 319.306 401.302 318.844 401.302 318.272C401.302 317.7 401.155 317.26 400.862 316.952C400.569 316.637 400.136 316.479 399.564 316.479C399.175 316.479 398.834 316.574 398.541 316.765C398.255 316.948 398.046 317.201 397.914 317.524H396.968V313.036H401.753V313.916ZM404.788 319.614L403.556 322.573H402.885L403.688 319.614H404.788ZM407.057 318.866C407.13 319.284 407.299 319.607 407.563 319.834C407.834 320.061 408.197 320.175 408.652 320.175C409.261 320.175 409.708 319.937 409.994 319.46C410.287 318.983 410.427 318.18 410.412 317.051C410.258 317.381 410.001 317.641 409.642 317.832C409.283 318.015 408.883 318.107 408.443 318.107C407.952 318.107 407.512 318.008 407.123 317.81C406.742 317.605 406.441 317.308 406.221 316.919C406.001 316.53 405.891 316.061 405.891 315.511C405.891 314.726 406.118 314.096 406.573 313.619C407.028 313.135 407.673 312.893 408.509 312.893C409.536 312.893 410.254 313.227 410.665 313.894C411.083 314.561 411.292 315.555 411.292 316.875C411.292 317.799 411.208 318.562 411.039 319.163C410.878 319.764 410.599 320.223 410.203 320.538C409.814 320.853 409.279 321.011 408.597 321.011C407.849 321.011 407.266 320.809 406.848 320.406C406.43 320.003 406.192 319.489 406.133 318.866H407.057ZM408.608 317.26C409.099 317.26 409.503 317.11 409.818 316.809C410.133 316.501 410.291 316.087 410.291 315.566C410.291 315.016 410.137 314.572 409.829 314.235C409.521 313.898 409.088 313.729 408.531 313.729C408.018 313.729 407.607 313.89 407.299 314.213C406.998 314.536 406.848 314.961 406.848 315.489C406.848 316.024 406.998 316.453 407.299 316.776C407.6 317.099 408.036 317.26 408.608 317.26ZM414.151 316.864C413.74 316.703 413.425 316.468 413.205 316.16C412.985 315.852 412.875 315.478 412.875 315.038C412.875 314.642 412.974 314.286 413.172 313.971C413.37 313.648 413.663 313.395 414.052 313.212C414.448 313.021 414.924 312.926 415.482 312.926C416.039 312.926 416.512 313.021 416.901 313.212C417.297 313.395 417.594 313.648 417.792 313.971C417.997 314.286 418.1 314.642 418.1 315.038C418.1 315.463 417.986 315.837 417.759 316.16C417.531 316.475 417.22 316.71 416.824 316.864C417.278 317.003 417.638 317.249 417.902 317.601C418.173 317.946 418.309 318.364 418.309 318.855C418.309 319.332 418.191 319.75 417.957 320.109C417.722 320.461 417.388 320.736 416.956 320.934C416.53 321.125 416.039 321.22 415.482 321.22C414.924 321.22 414.433 321.125 414.008 320.934C413.59 320.736 413.263 320.461 413.029 320.109C412.794 319.75 412.677 319.332 412.677 318.855C412.677 318.364 412.809 317.942 413.073 317.59C413.337 317.238 413.696 316.996 414.151 316.864ZM417.132 315.159C417.132 314.712 416.985 314.367 416.692 314.125C416.398 313.883 415.995 313.762 415.482 313.762C414.976 313.762 414.576 313.883 414.283 314.125C413.989 314.367 413.843 314.715 413.843 315.17C413.843 315.581 413.993 315.911 414.294 316.16C414.602 316.409 414.998 316.534 415.482 316.534C415.973 316.534 416.369 316.409 416.67 316.16C416.978 315.903 417.132 315.57 417.132 315.159ZM415.482 317.304C414.939 317.304 414.495 317.432 414.151 317.689C413.806 317.938 413.634 318.316 413.634 318.822C413.634 319.291 413.799 319.669 414.129 319.955C414.466 320.241 414.917 320.384 415.482 320.384C416.046 320.384 416.494 320.241 416.824 319.955C417.154 319.669 417.319 319.291 417.319 318.822C417.319 318.331 417.15 317.957 416.813 317.7C416.475 317.436 416.032 317.304 415.482 317.304ZM424.071 314.939C423.91 314.125 423.407 313.718 422.564 313.718C421.911 313.718 421.424 313.971 421.101 314.477C420.778 314.976 420.621 315.801 420.628 316.952C420.797 316.571 421.075 316.274 421.464 316.061C421.86 315.841 422.3 315.731 422.784 315.731C423.539 315.731 424.141 315.966 424.588 316.435C425.043 316.904 425.27 317.553 425.27 318.382C425.27 318.881 425.171 319.328 424.973 319.724C424.782 320.12 424.489 320.435 424.093 320.67C423.704 320.905 423.231 321.022 422.674 321.022C421.919 321.022 421.328 320.853 420.903 320.516C420.478 320.179 420.181 319.713 420.012 319.119C419.843 318.525 419.759 317.792 419.759 316.919C419.759 314.228 420.698 312.882 422.575 312.882C423.294 312.882 423.858 313.076 424.269 313.465C424.68 313.854 424.922 314.345 424.995 314.939H424.071ZM422.575 316.578C422.26 316.578 421.963 316.644 421.684 316.776C421.405 316.901 421.178 317.095 421.002 317.359C420.833 317.616 420.749 317.931 420.749 318.305C420.749 318.862 420.91 319.317 421.233 319.669C421.556 320.014 422.018 320.186 422.619 320.186C423.132 320.186 423.539 320.028 423.84 319.713C424.148 319.39 424.302 318.958 424.302 318.415C424.302 317.843 424.155 317.396 423.862 317.073C423.569 316.743 423.14 316.578 422.575 316.578ZM432.292 323.046C431.588 322.357 431.038 321.48 430.642 320.417C430.253 319.354 430.059 318.206 430.059 316.974C430.059 315.713 430.264 314.536 430.675 313.443C431.093 312.343 431.687 311.437 432.457 310.726H433.502V310.825C432.681 311.595 432.061 312.523 431.643 313.608C431.232 314.686 431.027 315.808 431.027 316.974C431.027 318.111 431.221 319.196 431.61 320.23C432.006 321.264 432.582 322.17 433.337 322.947V323.046H432.292ZM434.306 319.229V318.47L438.167 313.124H439.366V318.36H440.466V319.229H439.366V321H438.376V319.229H434.306ZM438.42 314.169L435.461 318.36H438.42V314.169ZM441.202 313.96V313.047H443.27V321H442.258V313.96H441.202ZM446.189 319.614L444.957 322.573H444.286L445.089 319.614H446.189ZM446.928 319.229V318.47L450.789 313.124H451.988V318.36H453.088V319.229H451.988V321H450.998V319.229H446.928ZM451.042 314.169L448.083 318.36H451.042V314.169ZM453.868 314.84C453.868 314.341 454.019 313.945 454.319 313.652C454.62 313.351 455.005 313.201 455.474 313.201C455.944 313.201 456.329 313.351 456.629 313.652C456.93 313.945 457.08 314.341 457.08 314.84C457.08 315.346 456.93 315.749 456.629 316.05C456.329 316.343 455.944 316.49 455.474 316.49C455.005 316.49 454.62 316.343 454.319 316.05C454.019 315.749 453.868 315.346 453.868 314.84ZM460.292 313.322L455.837 321H454.847L459.302 313.322H460.292ZM455.474 313.817C455.225 313.817 455.027 313.905 454.88 314.081C454.741 314.25 454.671 314.503 454.671 314.84C454.671 315.177 454.741 315.434 454.88 315.61C455.027 315.786 455.225 315.874 455.474 315.874C455.724 315.874 455.922 315.786 456.068 315.61C456.215 315.427 456.288 315.17 456.288 314.84C456.288 314.503 456.215 314.25 456.068 314.081C455.922 313.905 455.724 313.817 455.474 313.817ZM458.081 319.482C458.081 318.976 458.232 318.576 458.532 318.283C458.833 317.982 459.218 317.832 459.687 317.832C460.157 317.832 460.538 317.982 460.831 318.283C461.132 318.576 461.282 318.976 461.282 319.482C461.282 319.981 461.132 320.38 460.831 320.681C460.538 320.982 460.157 321.132 459.687 321.132C459.218 321.132 458.833 320.985 458.532 320.692C458.232 320.391 458.081 319.988 458.081 319.482ZM459.676 318.459C459.427 318.459 459.229 318.547 459.082 318.723C458.936 318.892 458.862 319.145 458.862 319.482C458.862 319.812 458.936 320.065 459.082 320.241C459.229 320.41 459.427 320.494 459.676 320.494C459.926 320.494 460.124 320.41 460.27 320.241C460.417 320.065 460.49 319.812 460.49 319.482C460.49 319.145 460.417 318.892 460.27 318.723C460.124 318.547 459.926 318.459 459.676 318.459ZM462.281 323.046V322.947C463.036 322.17 463.608 321.264 463.997 320.23C464.393 319.196 464.591 318.111 464.591 316.974C464.591 315.808 464.382 314.686 463.964 313.608C463.553 312.523 462.937 311.595 462.116 310.825V310.726H463.161C463.931 311.437 464.521 312.343 464.932 313.443C465.35 314.536 465.559 315.713 465.559 316.974C465.559 318.206 465.361 319.354 464.965 320.417C464.576 321.48 464.03 322.357 463.326 323.046H462.281Z" fill="white"/>
<path d="M396.561 367.197C397.492 366.449 398.222 365.837 398.75 365.36C399.278 364.876 399.722 364.374 400.081 363.853C400.448 363.325 400.631 362.808 400.631 362.302C400.631 361.825 400.514 361.451 400.279 361.18C400.052 360.901 399.681 360.762 399.168 360.762C398.669 360.762 398.281 360.92 398.002 361.235C397.731 361.543 397.584 361.957 397.562 362.478H396.594C396.623 361.657 396.873 361.022 397.342 360.575C397.811 360.128 398.416 359.904 399.157 359.904C399.912 359.904 400.51 360.113 400.95 360.531C401.397 360.949 401.621 361.525 401.621 362.258C401.621 362.867 401.438 363.461 401.071 364.04C400.712 364.612 400.301 365.118 399.839 365.558C399.377 365.991 398.787 366.497 398.068 367.076H401.852V367.912H396.561V367.197ZM404.208 366.614L402.976 369.573H402.305L403.108 366.614H404.208ZM409.623 361.939C409.461 361.125 408.959 360.718 408.116 360.718C407.463 360.718 406.975 360.971 406.653 361.477C406.33 361.976 406.172 362.801 406.18 363.952C406.348 363.571 406.627 363.274 407.016 363.061C407.412 362.841 407.852 362.731 408.336 362.731C409.091 362.731 409.692 362.966 410.14 363.435C410.594 363.904 410.822 364.553 410.822 365.382C410.822 365.881 410.723 366.328 410.525 366.724C410.334 367.12 410.041 367.435 409.645 367.67C409.256 367.905 408.783 368.022 408.226 368.022C407.47 368.022 406.88 367.853 406.455 367.516C406.029 367.179 405.732 366.713 405.564 366.119C405.395 365.525 405.311 364.792 405.311 363.919C405.311 361.228 406.249 359.882 408.127 359.882C408.845 359.882 409.41 360.076 409.821 360.465C410.231 360.854 410.473 361.345 410.547 361.939H409.623ZM408.127 363.578C407.811 363.578 407.514 363.644 407.236 363.776C406.957 363.901 406.73 364.095 406.554 364.359C406.385 364.616 406.301 364.931 406.301 365.305C406.301 365.862 406.462 366.317 406.785 366.669C407.107 367.014 407.569 367.186 408.171 367.186C408.684 367.186 409.091 367.028 409.392 366.713C409.7 366.39 409.854 365.958 409.854 365.415C409.854 364.843 409.707 364.396 409.414 364.073C409.12 363.743 408.691 363.578 408.127 363.578ZM411.93 366.229V365.47L415.791 360.124H416.99V365.36H418.09V366.229H416.99V368H416V366.229H411.93ZM416.044 361.169L413.085 365.36H416.044V361.169ZM418.969 367.197C419.901 366.449 420.63 365.837 421.158 365.36C421.686 364.876 422.13 364.374 422.489 363.853C422.856 363.325 423.039 362.808 423.039 362.302C423.039 361.825 422.922 361.451 422.687 361.18C422.46 360.901 422.09 360.762 421.576 360.762C421.078 360.762 420.689 360.92 420.41 361.235C420.139 361.543 419.992 361.957 419.97 362.478H419.002C419.032 361.657 419.281 361.022 419.75 360.575C420.22 360.128 420.825 359.904 421.565 359.904C422.321 359.904 422.918 360.113 423.358 360.531C423.806 360.949 424.029 361.525 424.029 362.258C424.029 362.867 423.846 363.461 423.479 364.04C423.12 364.612 422.709 365.118 422.247 365.558C421.785 365.991 421.195 366.497 420.476 367.076H424.26V367.912H418.969V367.197ZM431.089 370.046C430.385 369.357 429.835 368.48 429.439 367.417C429.05 366.354 428.856 365.206 428.856 363.974C428.856 362.713 429.061 361.536 429.472 360.443C429.89 359.343 430.484 358.437 431.254 357.726H432.299V357.825C431.478 358.595 430.858 359.523 430.44 360.608C430.029 361.686 429.824 362.808 429.824 363.974C429.824 365.111 430.018 366.196 430.407 367.23C430.803 368.264 431.379 369.17 432.134 369.947V370.046H431.089ZM433.323 362.049C433.374 361.374 433.635 360.846 434.104 360.465C434.573 360.084 435.182 359.893 435.93 359.893C436.429 359.893 436.858 359.985 437.217 360.168C437.584 360.344 437.859 360.586 438.042 360.894C438.233 361.202 438.328 361.55 438.328 361.939C438.328 362.394 438.196 362.786 437.932 363.116C437.675 363.446 437.338 363.659 436.92 363.754V363.809C437.397 363.926 437.774 364.157 438.053 364.502C438.332 364.847 438.471 365.298 438.471 365.855C438.471 366.273 438.376 366.651 438.185 366.988C437.994 367.318 437.708 367.578 437.327 367.769C436.946 367.96 436.487 368.055 435.952 368.055C435.175 368.055 434.537 367.853 434.038 367.45C433.539 367.039 433.261 366.46 433.202 365.712H434.17C434.221 366.152 434.401 366.511 434.709 366.79C435.017 367.069 435.428 367.208 435.941 367.208C436.454 367.208 436.843 367.076 437.107 366.812C437.378 366.541 437.514 366.192 437.514 365.767C437.514 365.217 437.331 364.821 436.964 364.579C436.597 364.337 436.044 364.216 435.303 364.216H435.05V363.38H435.314C435.989 363.373 436.498 363.263 436.843 363.05C437.188 362.83 437.36 362.493 437.36 362.038C437.36 361.649 437.232 361.338 436.975 361.103C436.726 360.868 436.366 360.751 435.897 360.751C435.442 360.751 435.076 360.868 434.797 361.103C434.518 361.338 434.353 361.653 434.302 362.049H433.323ZM444.894 360.916H441.033V363.424C441.201 363.189 441.451 362.999 441.781 362.852C442.111 362.698 442.466 362.621 442.848 362.621C443.456 362.621 443.951 362.749 444.333 363.006C444.714 363.255 444.985 363.582 445.147 363.985C445.315 364.381 445.4 364.803 445.4 365.25C445.4 365.778 445.301 366.251 445.103 366.669C444.905 367.087 444.6 367.417 444.19 367.659C443.786 367.901 443.284 368.022 442.683 368.022C441.913 368.022 441.289 367.824 440.813 367.428C440.336 367.032 440.046 366.504 439.944 365.844H440.923C441.018 366.262 441.22 366.588 441.528 366.823C441.836 367.058 442.224 367.175 442.694 367.175C443.273 367.175 443.709 367.003 444.003 366.658C444.296 366.306 444.443 365.844 444.443 365.272C444.443 364.7 444.296 364.26 444.003 363.952C443.709 363.637 443.277 363.479 442.705 363.479C442.316 363.479 441.975 363.574 441.682 363.765C441.396 363.948 441.187 364.201 441.055 364.524H440.109V360.036H444.894V360.916ZM447.929 366.614L446.697 369.573H446.026L446.829 366.614H447.929ZM448.911 363.941C448.911 362.68 449.116 361.697 449.527 360.993C449.937 360.282 450.656 359.926 451.683 359.926C452.702 359.926 453.417 360.282 453.828 360.993C454.238 361.697 454.444 362.68 454.444 363.941C454.444 365.224 454.238 366.222 453.828 366.933C453.417 367.644 452.702 368 451.683 368C450.656 368 449.937 367.644 449.527 366.933C449.116 366.222 448.911 365.224 448.911 363.941ZM453.454 363.941C453.454 363.303 453.41 362.764 453.322 362.324C453.241 361.877 453.069 361.517 452.805 361.246C452.548 360.975 452.174 360.839 451.683 360.839C451.184 360.839 450.803 360.975 450.539 361.246C450.282 361.517 450.11 361.877 450.022 362.324C449.941 362.764 449.901 363.303 449.901 363.941C449.901 364.601 449.941 365.155 450.022 365.602C450.11 366.049 450.282 366.409 450.539 366.68C450.803 366.951 451.184 367.087 451.683 367.087C452.174 367.087 452.548 366.951 452.805 366.68C453.069 366.409 453.241 366.049 453.322 365.602C453.41 365.155 453.454 364.601 453.454 363.941ZM455.598 361.84C455.598 361.341 455.748 360.945 456.049 360.652C456.349 360.351 456.734 360.201 457.204 360.201C457.673 360.201 458.058 360.351 458.359 360.652C458.659 360.945 458.81 361.341 458.81 361.84C458.81 362.346 458.659 362.749 458.359 363.05C458.058 363.343 457.673 363.49 457.204 363.49C456.734 363.49 456.349 363.343 456.049 363.05C455.748 362.749 455.598 362.346 455.598 361.84ZM462.022 360.322L457.567 368H456.577L461.032 360.322H462.022ZM457.204 360.817C456.954 360.817 456.756 360.905 456.61 361.081C456.47 361.25 456.401 361.503 456.401 361.84C456.401 362.177 456.47 362.434 456.61 362.61C456.756 362.786 456.954 362.874 457.204 362.874C457.453 362.874 457.651 362.786 457.798 362.61C457.944 362.427 458.018 362.17 458.018 361.84C458.018 361.503 457.944 361.25 457.798 361.081C457.651 360.905 457.453 360.817 457.204 360.817ZM459.811 366.482C459.811 365.976 459.961 365.576 460.262 365.283C460.562 364.982 460.947 364.832 461.417 364.832C461.886 364.832 462.267 364.982 462.561 365.283C462.861 365.576 463.012 365.976 463.012 366.482C463.012 366.981 462.861 367.38 462.561 367.681C462.267 367.982 461.886 368.132 461.417 368.132C460.947 368.132 460.562 367.985 460.262 367.692C459.961 367.391 459.811 366.988 459.811 366.482ZM461.406 365.459C461.156 365.459 460.958 365.547 460.812 365.723C460.665 365.892 460.592 366.145 460.592 366.482C460.592 366.812 460.665 367.065 460.812 367.241C460.958 367.41 461.156 367.494 461.406 367.494C461.655 367.494 461.853 367.41 462 367.241C462.146 367.065 462.22 366.812 462.22 366.482C462.22 366.145 462.146 365.892 462 365.723C461.853 365.547 461.655 365.459 461.406 365.459ZM464.01 370.046V369.947C464.766 369.17 465.338 368.264 465.726 367.23C466.122 366.196 466.32 365.111 466.32 363.974C466.32 362.808 466.111 361.686 465.693 360.608C465.283 359.523 464.667 358.595 463.845 357.825V357.726H464.89C465.66 358.437 466.251 359.343 466.661 360.443C467.079 361.536 467.288 362.713 467.288 363.974C467.288 365.206 467.09 366.354 466.694 367.417C466.306 368.48 465.759 369.357 465.055 370.046H464.01Z" fill="white"/>
<rect x="517" y="137" width="127" height="71" rx="8" fill="url(#paint2_linear_792_732)"/>
<circle cx="527.5" cy="146.5" r="2.5" fill="white"/>
<circle cx="534.5" cy="146.5" r="2.5" fill="white"/>
<circle cx="541.5" cy="146.5" r="2.5" fill="white"/>
<g filter="url(#filter10_d_792_732)">
<rect width="38" height="3" rx="1.5" transform="matrix(1 0 0 -1 525 177)" fill="white"/>
</g>
<g filter="url(#filter11_d_792_732)">
<rect width="52" height="3" rx="1.5" transform="matrix(1 0 0 -1 525 167)" fill="white"/>
</g>
<rect width="44" height="12" rx="6" transform="matrix(1 0 0 -1 592 198)" fill="white"/>
<path d="M518 154H643" stroke="white" stroke-width="1.15313" stroke-linecap="round"/>
<path d="M153.4 54.7131C161.21 54.7131 167.8 55.9821 167.8 60.8781C167.8 65.776 161.166 67 153.4 67C145.592 67 139 65.731 139 60.8349C139 55.9371 145.634 54.7131 153.4 54.7131ZM153.4 31C158.69 31 162.929 35.2372 162.929 40.5239C162.929 45.8105 158.69 50.0496 153.4 50.0496C148.111 50.0496 143.871 45.8105 143.871 40.5239C143.871 35.2372 148.111 31 153.4 31Z" fill="#F45A44"/>
<path fill-rule="evenodd" clip-rule="evenodd" d="M621.833 340.166C621.834 339.732 621.698 339.308 621.446 338.954C621.194 338.601 620.837 338.335 620.426 338.194C620.015 338.053 619.57 338.044 619.154 338.168C618.738 338.292 618.371 338.544 618.104 338.887L603.521 357.637C603.236 358.003 603.082 358.453 603.082 358.916C603.082 359.38 603.236 359.83 603.521 360.195L618.104 378.945C618.371 379.289 618.738 379.54 619.154 379.664C619.57 379.789 620.015 379.78 620.426 379.639C620.837 379.498 621.194 379.232 621.446 378.878C621.698 378.524 621.834 378.101 621.833 377.666V369.354C633.04 369.587 638.423 371.714 641.127 374.027C643.698 376.225 644.169 378.81 644.658 381.518L644.786 382.216C644.879 382.716 645.152 383.164 645.553 383.476C645.953 383.788 646.454 383.944 646.961 383.912C647.468 383.881 647.947 383.666 648.306 383.306C648.665 382.947 648.881 382.469 648.913 381.962C649.269 376.237 648.733 367.941 644.69 361.002C640.765 354.266 633.696 349.087 621.833 348.545V340.166Z" fill="#F79A1F"/>
<defs>
<filter id="filter0_f_792_732" x="0.99353" y="0.99353" width="646.013" height="644.013" filterUnits="userSpaceOnUse" color-interpolation-filters="sRGB">
<feFlood flood-opacity="0" result="BackgroundImageFix"/>
<feBlend mode="normal" in="SourceGraphic" in2="BackgroundImageFix" result="shape"/>
<feGaussianBlur stdDeviation="75.0032" result="effect1_foregroundBlur_792_732"/>
</filter>
<filter id="filter1_b_792_732" x="153.268" y="22.2598" width="420" height="440" filterUnits="userSpaceOnUse" color-interpolation-filters="sRGB">
<feFlood flood-opacity="0" result="BackgroundImageFix"/>
<feGaussianBlur in="BackgroundImage" stdDeviation="7.5"/>
<feComposite in2="SourceAlpha" operator="in" result="effect1_backgroundBlur_792_732"/>
<feBlend mode="normal" in="SourceGraphic" in2="effect1_backgroundBlur_792_732" result="shape"/>
</filter>
<filter id="filter2_b_792_732" x="153.268" y="22.2598" width="420" height="440" filterUnits="userSpaceOnUse" color-interpolation-filters="sRGB">
<feFlood flood-opacity="0" result="BackgroundImageFix"/>
<feGaussianBlur in="BackgroundImage" stdDeviation="7.5"/>
<feComposite in2="SourceAlpha" operator="in" result="effect1_backgroundBlur_792_732"/>
<feBlend mode="normal" in="SourceGraphic" in2="effect1_backgroundBlur_792_732" result="shape"/>
</filter>
<filter id="filter3_d_792_732" x="238.999" y="169.799" width="291.48" height="92.0466" filterUnits="userSpaceOnUse" color-interpolation-filters="sRGB">
<feFlood flood-opacity="0" result="BackgroundImageFix"/>
<feColorMatrix in="SourceAlpha" type="matrix" values="0 0 0 0 0 0 0 0 0 0 0 0 0 0 0 0 0 0 127 0" result="hardAlpha"/>
<feOffset dy="7.80017"/>
<feGaussianBlur stdDeviation="19.5004"/>
<feColorMatrix type="matrix" values="0 0 0 0 0 0 0 0 0 0 0 0 0 0 0 0 0 0 0.05 0"/>
<feBlend mode="normal" in2="BackgroundImageFix" result="effect1_dropShadow_792_732"/>
<feBlend mode="normal" in="SourceGraphic" in2="effect1_dropShadow_792_732" result="shape"/>
</filter>
<filter id="filter4_d_792_732" x="161.999" y="102.799" width="134.28" height="134.281" filterUnits="userSpaceOnUse" color-interpolation-filters="sRGB">
<feFlood flood-opacity="0" result="BackgroundImageFix"/>
<feColorMatrix in="SourceAlpha" type="matrix" values="0 0 0 0 0 0 0 0 0 0 0 0 0 0 0 0 0 0 127 0" result="hardAlpha"/>
<feOffset dy="7.80017"/>
<feGaussianBlur stdDeviation="19.5004"/>
<feColorMatrix type="matrix" values="0 0 0 0 0 0 0 0 0 0 0 0 0 0 0 0 0 0 0.05 0"/>
<feBlend mode="normal" in2="BackgroundImageFix" result="effect1_dropShadow_792_732"/>
<feBlend mode="normal" in="SourceGraphic" in2="effect1_dropShadow_792_732" result="shape"/>
</filter>
<filter id="filter5_d_792_732" x="238.999" y="102.417" width="207.213" height="92.0466" filterUnits="userSpaceOnUse" color-interpolation-filters="sRGB">
<feFlood flood-opacity="0" result="BackgroundImageFix"/>
<feColorMatrix in="SourceAlpha" type="matrix" values="0 0 0 0 0 0 0 0 0 0 0 0 0 0 0 0 0 0 127 0" result="hardAlpha"/>
<feOffset dy="7.80017"/>
<feGaussianBlur stdDeviation="19.5004"/>
<feColorMatrix type="matrix" values="0 0 0 0 0 0 0 0 0 0 0 0 0 0 0 0 0 0 0.05 0"/>
<feBlend mode="normal" in2="BackgroundImageFix" result="effect1_dropShadow_792_732"/>
<feBlend mode="normal" in="SourceGraphic" in2="effect1_dropShadow_792_732" result="shape"/>
</filter>
<filter id="filter6_d_792_732" x="238.999" y="138.799" width="291.48" height="92.0466" filterUnits="userSpaceOnUse" color-interpolation-filters="sRGB">
<feFlood flood-opacity="0" result="BackgroundImageFix"/>
<feColorMatrix in="SourceAlpha" type="matrix" values="0 0 0 0 0 0 0 0 0 0 0 0 0 0 0 0 0 0 127 0" result="hardAlpha"/>
<feOffset dy="7.80017"/>
<feGaussianBlur stdDeviation="19.5004"/>
<feColorMatrix type="matrix" values="0 0 0 0 0 0 0 0 0 0 0 0 0 0 0 0 0 0 0.05 0"/>
<feBlend mode="normal" in2="BackgroundImageFix" result="effect1_dropShadow_792_732"/>
<feBlend mode="normal" in="SourceGraphic" in2="effect1_dropShadow_792_732" result="shape"/>
</filter>
<filter id="filter7_b_792_732" x="468.151" y="78.0604" width="69.6077" height="47.012" filterUnits="userSpaceOnUse" color-interpolation-filters="sRGB">
<feFlood flood-opacity="0" result="BackgroundImageFix"/>
<feGaussianBlur in="BackgroundImage" stdDeviation="6.12116"/>
<feComposite in2="SourceAlpha" operator="in" result="effect1_backgroundBlur_792_732"/>
<feBlend mode="normal" in="SourceGraphic" in2="effect1_backgroundBlur_792_732" result="shape"/>
</filter>
<filter id="filter8_d_792_732" x="572.768" y="315" width="109.24" height="140.39" filterUnits="userSpaceOnUse" color-interpolation-filters="sRGB">
<feFlood flood-opacity="0" result="BackgroundImageFix"/>
<feColorMatrix in="SourceAlpha" type="matrix" values="0 0 0 0 0 0 0 0 0 0 0 0 0 0 0 0 0 0 127 0" result="hardAlpha"/>
<feMorphology radius="19.992" operator="erode" in="SourceAlpha" result="effect1_dropShadow_792_732"/>
<feOffset dy="37.632"/>
<feGaussianBlur stdDeviation="14.112"/>
<feComposite in2="hardAlpha" operator="out"/>
<feColorMatrix type="matrix" values="0 0 0 0 0 0 0 0 0 0 0 0 0 0 0 0 0 0 0.1 0"/>
<feBlend mode="normal" in2="BackgroundImageFix" result="effect1_dropShadow_792_732"/>
<feBlend mode="normal" in="SourceGraphic" in2="effect1_dropShadow_792_732" result="shape"/>
</filter>
<filter id="filter9_d_792_732" x="98.768" y="4" width="109.24" height="140.39" filterUnits="userSpaceOnUse" color-interpolation-filters="sRGB">
<feFlood flood-opacity="0" result="BackgroundImageFix"/>
<feColorMatrix in="SourceAlpha" type="matrix" values="0 0 0 0 0 0 0 0 0 0 0 0 0 0 0 0 0 0 127 0" result="hardAlpha"/>
<feMorphology radius="19.992" operator="erode" in="SourceAlpha" result="effect1_dropShadow_792_732"/>
<feOffset dy="37.632"/>
<feGaussianBlur stdDeviation="14.112"/>
<feComposite in2="hardAlpha" operator="out"/>
<feColorMatrix type="matrix" values="0 0 0 0 0 0 0 0 0 0 0 0 0 0 0 0 0 0 0.1 0"/>
<feBlend mode="normal" in2="BackgroundImageFix" result="effect1_dropShadow_792_732"/>
<feBlend mode="normal" in="SourceGraphic" in2="effect1_dropShadow_792_732" result="shape"/>
</filter>
<filter id="filter10_d_792_732" x="525" y="174" width="38" height="3" filterUnits="userSpaceOnUse" color-interpolation-filters="sRGB">
<feFlood flood-opacity="0" result="BackgroundImageFix"/>
<feColorMatrix in="SourceAlpha" type="matrix" values="0 0 0 0 0 0 0 0 0 0 0 0 0 0 0 0 0 0 127 0" result="hardAlpha"/>
<feMorphology radius="21.9095" operator="erode" in="SourceAlpha" result="effect1_dropShadow_792_732"/>
<feOffset dy="19.6032"/>
<feGaussianBlur stdDeviation="9.80162"/>
<feComposite in2="hardAlpha" operator="out"/>
<feColorMatrix type="matrix" values="0 0 0 0 0 0 0 0 0 0 0 0 0 0 0 0 0 0 0.08 0"/>
<feBlend mode="normal" in2="BackgroundImageFix" result="effect1_dropShadow_792_732"/>
<feBlend mode="normal" in="SourceGraphic" in2="effect1_dropShadow_792_732" result="shape"/>
</filter>
<filter id="filter11_d_792_732" x="525" y="164" width="52" height="3" filterUnits="userSpaceOnUse" color-interpolation-filters="sRGB">
<feFlood flood-opacity="0" result="BackgroundImageFix"/>
<feColorMatrix in="SourceAlpha" type="matrix" values="0 0 0 0 0 0 0 0 0 0 0 0 0 0 0 0 0 0 127 0" result="hardAlpha"/>
<feMorphology radius="21.9095" operator="erode" in="SourceAlpha" result="effect1_dropShadow_792_732"/>
<feOffset dy="19.6032"/>
<feGaussianBlur stdDeviation="9.80162"/>
<feComposite in2="hardAlpha" operator="out"/>
<feColorMatrix type="matrix" values="0 0 0 0 0 0 0 0 0 0 0 0 0 0 0 0 0 0 0.08 0"/>
<feBlend mode="normal" in2="BackgroundImageFix" result="effect1_dropShadow_792_732"/>
<feBlend mode="normal" in="SourceGraphic" in2="effect1_dropShadow_792_732" result="shape"/>
</filter>
<linearGradient id="paint0_linear_792_732" x1="145.781" y1="228.387" x2="438.61" y2="731.881" gradientUnits="userSpaceOnUse">
<stop stop-color="#FFB45C"/>
<stop offset="1" stop-color="#F7931E"/>
</linearGradient>
<linearGradient id="paint1_linear_792_732" x1="200.44" y1="244.978" x2="227.967" y2="464.419" gradientUnits="userSpaceOnUse">
<stop stop-color="#AFB5FE"/>
<stop offset="1" stop-color="#6B5EFF"/>
</linearGradient>
<linearGradient id="paint2_linear_792_732" x1="530.655" y1="156.4" x2="563.044" y2="265.17" gradientUnits="userSpaceOnUse">
<stop stop-color="#FFB45C"/>
<stop offset="1" stop-color="#F7931E"/>
</linearGradient>
</defs>
</svg>
