<svg width="619" height="546" viewBox="0 0 619 546" fill="none" xmlns="http://www.w3.org/2000/svg">
<g filter="url(#filter0_bd_1941_1232)">
<g clip-path="url(#clip0_1941_1232)">
<rect x="57" y="6" width="508" height="561" rx="20.5118" fill="#F1EDF5"/>
<rect x="57" y="-11" width="99" height="578" rx="11.721" fill="#6936F2"/>
<g filter="url(#filter1_d_1941_1232)">
<rect x="78" y="103" width="53" height="7" rx="3.5" fill="white"/>
</g>
<g filter="url(#filter2_d_1941_1232)">
<rect x="78" y="137" width="90.2099" height="21.5995" rx="10.7998" fill="#67C456"/>
</g>
<g filter="url(#filter3_d_1941_1232)">
<rect x="78" y="185.6" width="53" height="7" rx="3.5" fill="white"/>
</g>
<rect x="82" y="500" width="52.093" height="18.4231" rx="9.21157" fill="#E66F65"/>
<path d="M84.7214 57.11V59.8415C84.7214 60.2845 84.3656 60.6435 83.9267 60.6435H83.6607C83.1486 60.6435 82.7363 60.2274 82.7363 59.7107V49.8483C82.7363 49.3013 83.1752 48.855 83.7205 48.855H84.1561C84.4687 48.855 84.7214 49.11 84.7214 49.4255C85.2201 48.9422 85.8286 48.6973 86.5568 48.6973C89.2667 48.6973 90.6233 50.1838 90.6233 53.157C90.6233 54.5429 90.2475 55.61 89.4994 56.3583C88.7513 57.1066 87.7272 57.4825 86.4304 57.4825C85.802 57.4791 85.2334 57.355 84.7214 57.11ZM84.7214 50.7946V55.3046C85.0805 55.5999 85.5027 55.7442 85.9849 55.7442C86.8992 55.7442 87.5576 55.5228 87.9566 55.0832C88.3556 54.6436 88.5551 53.9456 88.5551 52.9959C88.5551 51.9825 88.3556 51.2677 87.9599 50.8516C87.5642 50.4389 86.9059 50.2308 85.9915 50.2308C85.516 50.2342 85.0904 50.4221 84.7214 50.7946Z" fill="white"/>
<path d="M96.2131 56.3419C96.0336 56.6406 95.721 56.8856 95.2722 57.0735C94.8233 57.2614 94.3578 57.3587 93.8723 57.3587C92.9579 57.3587 92.2364 57.1272 91.7144 56.6641C91.189 56.201 90.9297 55.5466 90.9297 54.6976C90.9297 53.7044 91.2988 52.9258 92.0369 52.3654C92.7751 51.805 93.8258 51.5232 95.1857 51.5232C95.4185 51.5232 95.6944 51.5634 96.0103 51.644C96.0103 50.6339 95.3786 50.1305 94.1117 50.1305C93.6861 50.1305 93.2971 50.1708 92.9513 50.2547C92.539 50.352 92.1267 50.1071 92.0136 49.6943C91.8906 49.248 92.15 48.7816 92.5955 48.6608C93.0943 48.5232 93.6429 48.4561 94.2481 48.4561C95.5448 48.4561 96.4958 48.7547 97.0976 49.3487C97.6994 49.946 98.002 51.0735 98.002 52.7346V54.5701C98.002 55.7144 98.2281 56.4325 98.6836 56.7245C98.5207 57.0131 98.3378 57.1909 98.135 57.258C97.9322 57.3252 97.7027 57.3587 97.4434 57.3587C97.1574 57.3587 96.9014 57.2513 96.672 57.0366C96.4459 56.8252 96.2929 56.5903 96.2131 56.3419ZM96.0203 53.1607C95.6811 53.0903 95.4284 53.0567 95.2589 53.0567C93.6928 53.0567 92.9081 53.5735 92.9081 54.6104C92.9081 55.3789 93.3503 55.7648 94.2348 55.7648C95.4251 55.7648 96.0203 55.1641 96.0203 53.9628V53.1607Z" fill="white"/>
<path d="M102.174 58.657C101.961 59.2274 101.509 59.7039 100.814 60.0798C100.362 60.3248 99.8628 60.4892 99.3142 60.5764C98.8254 60.6536 98.3799 60.2711 98.3799 59.7711C98.3799 59.2912 98.7357 58.8885 99.2045 58.8281C100.185 58.704 100.674 58.3315 100.674 57.714C100.674 57.2006 100.461 56.4154 100.039 55.3583L97.7548 49.6402C97.5752 49.1906 97.9044 48.6973 98.3832 48.6973H98.739C99.1579 48.6973 99.5337 48.9557 99.6866 49.3483L101.755 54.6268L103.607 49.3617C103.746 48.9624 104.122 48.6973 104.541 48.6973H105.133C105.502 48.6973 105.758 49.0697 105.628 49.4187L102.174 58.657Z" fill="white"/>
<path d="M106.643 50.3082C106.217 50.3082 105.875 49.9592 105.875 49.533V49.5263C105.875 49.07 106.241 48.6975 106.696 48.6975H106.859V47.6841C106.859 47.2445 107.132 46.8485 107.541 46.6975L108.04 46.5129C108.429 46.3686 108.844 46.6606 108.844 47.08V48.7008H110.36C110.813 48.7008 111.178 49.07 111.178 49.5263C111.178 49.9592 110.829 50.3116 110.4 50.3116H109.4C109.094 50.3116 108.844 50.5632 108.844 50.872V54.0699C108.844 54.684 108.941 55.1169 109.13 55.372C109.32 55.627 109.656 55.7511 110.131 55.7511C110.344 55.7511 110.547 55.7243 110.746 55.674C111.109 55.58 111.464 55.8485 111.464 56.2277V56.486C111.464 56.9391 111.132 57.3183 110.686 57.3753C110.344 57.4189 109.948 57.4424 109.493 57.4424C108.645 57.4424 107.996 57.2008 107.541 56.7176C107.085 56.2344 106.859 55.5465 106.859 54.6538V50.5263C106.859 50.4055 106.763 50.3082 106.643 50.3082Z" fill="white"/>
<path d="M117.338 49.7245C117.151 50.1003 116.732 50.3017 116.33 50.1977C116.16 50.154 115.981 50.1305 115.798 50.1305C115.339 50.1305 114.93 50.342 114.571 50.7648C114.215 51.1876 114.036 51.701 114.036 52.3117V56.5198C114.036 56.8956 113.733 57.201 113.361 57.201H112.819C112.393 57.201 112.051 56.852 112.051 56.4258V49.4493C112.051 48.9896 112.42 48.6171 112.875 48.6171H113.284C113.7 48.6171 114.036 48.9561 114.036 49.3755V49.4024C114.591 48.7715 115.329 48.4561 116.25 48.4561C116.543 48.4561 116.806 48.4762 117.042 48.5131C117.451 48.5802 117.677 49.0299 117.494 49.4057L117.338 49.7245Z" fill="white"/>
<path d="M118.976 56.3687V50.6304C118.976 50.4257 118.81 50.2579 118.607 50.2579C118.208 50.2579 117.889 49.9324 117.889 49.5331V49.3116C117.889 48.9291 118.198 48.617 118.577 48.617H120.273C120.665 48.617 120.984 48.9391 120.984 49.3351V56.4928C120.984 56.8821 120.672 57.2009 120.283 57.2009H119.794C119.342 57.1975 118.976 56.8284 118.976 56.3687ZM120 45.2915C120.319 45.2915 120.589 45.4056 120.815 45.6304C121.041 45.8586 121.151 46.1304 121.151 46.4526C121.151 46.7747 121.037 47.0465 120.815 47.2747C120.589 47.5029 120.319 47.6136 120 47.6136C119.681 47.6136 119.412 47.4996 119.185 47.2747C118.959 47.0465 118.85 46.7747 118.85 46.4526C118.85 46.1304 118.963 45.8586 119.185 45.6304C119.412 45.4056 119.684 45.2915 120 45.2915Z" fill="white"/>
<path d="M121.646 52.8079C121.646 51.4992 122.022 50.432 122.77 49.6099C123.518 48.7878 124.509 48.375 125.736 48.375C127.026 48.375 128.031 48.771 128.745 49.5596C129.46 50.3515 129.816 51.432 129.816 52.8045C129.816 54.1736 129.454 55.2575 128.725 56.0663C127.997 56.8716 127 57.2777 125.736 57.2777C124.446 57.2777 123.442 56.8716 122.724 56.0562C122.006 55.2408 121.646 54.1569 121.646 52.8079ZM123.711 52.8079C123.711 54.6971 124.386 55.6434 125.736 55.6434C126.355 55.6434 126.847 55.3985 127.209 54.9052C127.572 54.4153 127.755 53.7139 127.755 52.8045C127.755 50.9388 127.083 50.0092 125.74 50.0092C125.121 50.0092 124.629 50.2542 124.263 50.7475C123.894 51.2374 123.711 51.9253 123.711 52.8079Z" fill="white"/>
<path d="M130.371 50.3082C129.972 50.3082 129.646 49.9827 129.646 49.5767V49.3451C129.646 48.9861 129.932 48.6975 130.288 48.6975H130.631V47.58C130.631 47.2008 130.863 46.8619 131.219 46.731L131.811 46.5129C132.203 46.3686 132.619 46.6606 132.619 47.08V48.6941H134.198C134.614 48.6941 134.95 49.033 134.95 49.4525V49.6606C134.95 50.0163 134.664 50.3015 134.315 50.3015H133.148C132.855 50.3015 132.616 50.5431 132.616 50.8384V54.0599C132.616 54.674 132.712 55.1069 132.902 55.3619C133.091 55.6169 133.427 55.7411 133.903 55.7411C134.175 55.7411 134.438 55.6975 134.691 55.6102C134.957 55.5196 135.236 55.7176 135.236 56.0028V56.6236C135.236 56.976 134.986 57.278 134.641 57.335C134.258 57.3988 133.803 57.429 133.267 57.429C132.42 57.429 131.771 57.1874 131.316 56.7042C130.86 56.2209 130.634 55.533 130.634 54.6404V50.57C130.634 50.4257 130.518 50.3082 130.371 50.3082Z" fill="white"/>
<path d="M110.262 61.7071V62.697C110.262 62.7675 110.205 62.8245 110.136 62.8245H109.936C109.753 62.8245 109.604 62.6735 109.604 62.4889V59.2205C109.604 59.0259 109.76 58.8681 109.953 58.8681H110.172C110.219 58.8681 110.259 58.9084 110.259 58.9554V58.9621C110.259 58.999 110.298 59.0192 110.328 58.9957C110.481 58.8749 110.661 58.8145 110.867 58.8145C111.765 58.8145 112.214 59.3145 112.214 60.3111C112.214 60.7775 112.091 61.1332 111.841 61.3849C111.592 61.6366 111.253 61.7608 110.824 61.7608C110.641 61.7608 110.471 61.7272 110.318 61.6634C110.292 61.6534 110.262 61.6769 110.262 61.7071ZM110.262 59.5829V61.0359C110.262 61.0493 110.269 61.0628 110.278 61.0695C110.395 61.1567 110.528 61.2037 110.681 61.2037C110.983 61.2037 111.203 61.1299 111.336 60.9856C111.469 60.8413 111.535 60.6098 111.535 60.2943C111.535 59.9587 111.469 59.7205 111.339 59.5829C111.206 59.4453 110.99 59.3782 110.687 59.3782C110.535 59.3782 110.398 59.4353 110.278 59.5494C110.265 59.5594 110.262 59.5695 110.262 59.5829Z" fill="white"/>
<path d="M114.285 61.469C114.271 61.4421 114.235 61.4388 114.215 61.4623C114.152 61.5361 114.062 61.5965 113.946 61.6468C113.796 61.7106 113.643 61.7408 113.48 61.7408C113.178 61.7408 112.938 61.6636 112.765 61.5126C112.592 61.3616 112.506 61.1435 112.506 60.8616C112.506 60.5327 112.629 60.2744 112.872 60.0898C113.114 59.9052 113.463 59.8113 113.916 59.8113C113.979 59.8113 114.052 59.8213 114.135 59.8381C114.165 59.8448 114.192 59.8213 114.188 59.7911C114.165 59.4958 113.956 59.3482 113.563 59.3482C113.357 59.3482 113.178 59.3784 113.028 59.4354C112.981 59.4522 112.931 59.4287 112.918 59.3817L112.868 59.2072C112.828 59.0596 112.912 58.9052 113.058 58.865C113.224 58.818 113.407 58.7979 113.606 58.7979C114.035 58.7979 114.351 58.8952 114.551 59.0932C114.75 59.2911 114.85 59.6636 114.85 60.214V60.8213C114.85 61.1737 114.916 61.4052 115.046 61.5126C115.063 61.526 115.066 61.5529 115.056 61.5697C115.006 61.6435 114.953 61.6905 114.897 61.7106C114.83 61.7341 114.754 61.7442 114.667 61.7442C114.574 61.7442 114.488 61.7072 114.411 61.6368C114.355 61.5797 114.311 61.526 114.285 61.469ZM114.192 60.3817C114.192 60.3616 114.178 60.3448 114.158 60.3381C114.062 60.3213 113.992 60.3113 113.939 60.3113C113.42 60.3113 113.161 60.4824 113.161 60.8247C113.161 61.1066 113.337 61.2307 113.693 61.2039C113.976 61.1804 114.192 60.9388 114.192 60.6502V60.3817Z" fill="white"/>
<path d="M116.584 62.1467C116.514 62.3346 116.364 62.4924 116.131 62.6165C115.952 62.7138 115.752 62.7709 115.526 62.7944C115.417 62.8044 115.323 62.7206 115.323 62.6098V62.4655C115.323 62.3313 115.427 62.2172 115.56 62.2038C115.909 62.1669 116.085 62.0427 116.085 61.8313C116.085 61.6602 116.015 61.4018 115.875 61.0494L115.071 59.0326C115.034 58.942 115.101 58.8447 115.197 58.8447H115.463C115.589 58.8447 115.706 58.9219 115.752 59.0427L116.401 60.7004C116.414 60.7373 116.387 60.7373 116.401 60.7004L117.069 59.0326C117.109 58.9186 117.215 58.8447 117.335 58.8447H117.398C117.601 58.8447 117.744 59.0494 117.671 59.2441L116.584 62.1467Z" fill="white"/>
<path d="M121.354 61.7108C121.281 61.7108 121.225 61.6504 121.225 61.58V59.929C121.225 59.5565 121.058 59.3686 120.726 59.3686C120.626 59.3686 120.533 59.3988 120.443 59.4558C120.377 59.4994 120.327 59.5464 120.287 59.5968C120.264 59.6303 120.25 59.6706 120.25 59.7109V61.5498C120.25 61.637 120.181 61.7108 120.091 61.7108H119.735C119.655 61.7108 119.592 61.6471 119.592 61.5666V59.8283C119.592 59.6874 119.549 59.5766 119.462 59.4961C119.376 59.4122 119.256 59.3719 119.1 59.3719C119.017 59.3719 118.927 59.4021 118.831 59.4659C118.764 59.5095 118.708 59.5565 118.668 59.6035C118.638 59.6404 118.621 59.684 118.621 59.7343V61.5666C118.621 61.6471 118.555 61.7142 118.475 61.7142H118.096C118.023 61.7142 117.963 61.6538 117.963 61.58V59.0699C117.963 58.9592 118.053 58.8686 118.162 58.8686H118.299C118.372 58.8686 118.438 58.9088 118.472 58.9726C118.508 59.0431 118.598 59.0632 118.658 59.0129C118.821 58.882 119.02 58.8149 119.256 58.8149C119.609 58.8149 119.881 58.9055 120.071 59.09C120.088 59.1068 120.114 59.1068 120.131 59.09C120.211 59.0095 120.317 58.9458 120.447 58.8954C120.593 58.8384 120.743 58.8115 120.889 58.8115C121.201 58.8115 121.448 58.9021 121.62 59.0833C121.793 59.2645 121.883 59.5129 121.883 59.8317V61.5397C121.883 61.6303 121.81 61.7075 121.717 61.7075H121.354V61.7108Z" fill="white"/>
<path d="M124.697 60.4659H122.848C122.825 60.4659 122.802 60.4861 122.805 60.5129C122.825 60.7176 122.901 60.8787 123.034 60.9961C123.177 61.1203 123.367 61.1841 123.606 61.1841C123.846 61.1841 124.042 61.1337 124.188 61.033C124.245 60.9928 124.324 61.0163 124.354 61.0767L124.481 61.3283C124.521 61.4055 124.491 61.4995 124.418 61.5431C124.195 61.674 123.889 61.7377 123.51 61.7377C123.081 61.7377 122.742 61.6102 122.489 61.3552C122.24 61.1002 122.113 60.7478 122.113 60.2914C122.113 59.8451 122.25 59.4794 122.526 59.2042C122.802 58.9257 123.131 58.7881 123.513 58.7881C123.922 58.7881 124.248 58.9122 124.497 59.1572C124.743 59.4022 124.87 59.7176 124.87 60.0968C124.87 60.1572 124.86 60.2411 124.84 60.3451C124.826 60.4156 124.767 60.4659 124.697 60.4659ZM122.881 59.9693H124.161C124.188 59.9693 124.208 59.9458 124.205 59.919C124.148 59.5364 123.922 59.3451 123.526 59.3451C123.167 59.3451 122.938 59.5364 122.841 59.9156C122.831 59.9391 122.851 59.9693 122.881 59.9693Z" fill="white"/>
<path d="M126.963 61.7608C126.893 61.7608 126.837 61.7037 126.837 61.6333V60.1165C126.837 59.8749 126.79 59.697 126.697 59.5863C126.604 59.4755 126.455 59.4185 126.245 59.4185C126.149 59.4185 126.046 59.4453 125.936 59.5024C125.833 59.5561 125.75 59.6198 125.69 59.6937C125.683 59.7004 125.68 59.7104 125.68 59.7205V61.5997C125.68 61.6869 125.61 61.7608 125.52 61.7608H125.154C125.081 61.7608 125.021 61.7004 125.021 61.6265V59.0661C125.021 58.9856 125.088 58.9185 125.168 58.9185H125.397C125.457 58.9185 125.51 58.9521 125.537 59.0091L125.59 59.1266C125.603 59.1534 125.637 59.1601 125.66 59.14C125.836 58.9588 126.085 58.8682 126.408 58.8682C126.744 58.8682 127.007 58.9688 127.199 59.1735C127.392 59.3749 127.489 59.6601 127.489 60.0225V61.6265C127.489 61.7037 127.429 61.7641 127.352 61.7641H126.963V61.7608Z" fill="white"/>
<path d="M127.948 59.4355H127.795C127.722 59.4355 127.662 59.3751 127.662 59.3013V59.053C127.662 58.9691 127.729 58.902 127.812 58.902H127.945C127.968 58.902 127.988 58.8819 127.988 58.8584V58.4355C127.988 58.3684 128.028 58.308 128.091 58.2845L128.473 58.1436C128.557 58.1134 128.643 58.1738 128.643 58.2644V58.8617C128.643 58.8852 128.663 58.9053 128.686 58.9053H129.281C129.355 58.9053 129.418 58.9657 129.418 59.0429V59.2812C129.418 59.3684 129.348 59.4389 129.261 59.4389H128.69C128.666 59.4389 128.646 59.459 128.646 59.4825V60.6839C128.646 60.8886 128.676 61.0295 128.739 61.1167C128.823 61.2275 128.989 61.2644 129.238 61.2308C129.315 61.2208 129.351 61.204 129.418 61.1671C129.448 61.1503 129.514 61.157 129.514 61.1906V61.6033C129.514 61.6771 129.461 61.7443 129.391 61.7577C129.251 61.7879 129.075 61.8047 128.862 61.8047C128.583 61.8047 128.367 61.7241 128.214 61.5631C128.064 61.402 127.988 61.1738 127.988 60.8785V59.4825C127.991 59.4557 127.971 59.4355 127.948 59.4355Z" fill="white"/>
<path d="M129.822 61.4018L129.938 61.14C129.968 61.0695 130.055 61.0461 130.118 61.0863C130.284 61.187 130.467 61.2373 130.663 61.2373C130.919 61.2373 131.045 61.1467 131.045 60.9622C131.045 60.8548 131.005 60.7642 130.929 60.6971C130.853 60.6266 130.703 60.5461 130.48 60.4521C129.995 60.2474 129.752 59.9622 129.752 59.5964C129.752 59.3514 129.845 59.1602 130.031 59.0226C130.217 58.885 130.454 58.8179 130.743 58.8179C130.989 58.8179 131.225 58.8649 131.448 58.9588C131.518 58.989 131.551 59.0662 131.524 59.1367L131.441 59.3648C131.411 59.4454 131.321 59.4789 131.245 59.4387C131.119 59.3749 130.966 59.3414 130.779 59.3414C130.55 59.3414 130.434 59.432 130.434 59.6165C130.434 59.6904 130.47 59.7541 130.547 59.8145C130.623 59.8716 130.783 59.9521 131.032 60.0494C131.278 60.1467 131.458 60.2675 131.567 60.4051C131.677 60.5461 131.73 60.7138 131.73 60.9118C131.73 61.1769 131.634 61.3816 131.441 61.5326C131.248 61.6836 130.982 61.7608 130.65 61.7608C130.464 61.7608 130.311 61.744 130.198 61.7138C130.111 61.6903 130.008 61.6501 129.888 61.5897C129.822 61.5595 129.792 61.4722 129.822 61.4018Z" fill="white"/>
<g opacity="0.6" filter="url(#filter4_d_1941_1232)">
<rect x="191" y="46" width="342" height="83" rx="8.89393" fill="white"/>
</g>
<path opacity="0.5" d="M230.962 66.4188V67.2994H229.21V73H228.131V67.2994H226.369V66.4188H230.962ZM234.318 73.0852C233.826 73.0852 233.381 72.9747 232.983 72.7538C232.586 72.5265 232.273 72.2109 232.046 71.8069C231.818 71.3965 231.705 70.923 231.705 70.3864C231.705 69.8562 231.822 69.3858 232.055 68.9755C232.289 68.5652 232.608 68.2495 233.012 68.0286C233.416 67.8076 233.867 67.6971 234.366 67.6971C234.864 67.6971 235.316 67.8076 235.72 68.0286C236.124 68.2495 236.443 68.5652 236.676 68.9755C236.91 69.3858 237.027 69.8562 237.027 70.3864C237.027 70.9167 236.907 71.387 236.667 71.7974C236.427 72.2077 236.099 72.5265 235.682 72.7538C235.272 72.9747 234.817 73.0852 234.318 73.0852ZM234.318 72.1478C234.596 72.1478 234.855 72.0815 235.095 71.9489C235.341 71.8163 235.54 71.6175 235.691 71.3523C235.843 71.0872 235.919 70.7652 235.919 70.3864C235.919 70.0077 235.846 69.6889 235.701 69.43C235.556 69.1649 235.363 68.966 235.123 68.8335C234.883 68.7009 234.625 68.6346 234.347 68.6346C234.069 68.6346 233.81 68.7009 233.57 68.8335C233.337 68.966 233.151 69.1649 233.012 69.43C232.873 69.6889 232.803 70.0077 232.803 70.3864C232.803 70.9483 232.945 71.3839 233.229 71.6932C233.52 71.9962 233.883 72.1478 234.318 72.1478ZM239.353 68.663V71.5512C239.353 71.7469 239.397 71.8889 239.486 71.9773C239.581 72.0594 239.738 72.1004 239.959 72.1004H240.622V73H239.77C239.284 73 238.911 72.8864 238.653 72.6591C238.394 72.4318 238.264 72.0625 238.264 71.5512V68.663H237.649V67.7824H238.264V66.4851H239.353V67.7824H240.622V68.663H239.353ZM241.257 70.3675C241.257 69.8435 241.365 69.3795 241.579 68.9755C241.8 68.5715 242.097 68.259 242.469 68.038C242.848 67.8108 243.265 67.6971 243.719 67.6971C244.13 67.6971 244.486 67.7792 244.789 67.9433C245.099 68.1012 245.345 68.3 245.528 68.5399V67.7824H246.617V73H245.528V72.2235C245.345 72.4697 245.096 72.6749 244.78 72.839C244.464 73.0032 244.104 73.0852 243.7 73.0852C243.252 73.0852 242.842 72.9716 242.469 72.7443C242.097 72.5107 241.8 72.1888 241.579 71.7784C241.365 71.3618 241.257 70.8915 241.257 70.3675ZM245.528 70.3864C245.528 70.0266 245.452 69.7141 245.301 69.449C245.155 69.1838 244.963 68.9818 244.723 68.8429C244.483 68.7041 244.224 68.6346 243.947 68.6346C243.669 68.6346 243.41 68.7041 243.17 68.8429C242.93 68.9755 242.734 69.1744 242.583 69.4395C242.438 69.6983 242.365 70.0077 242.365 70.3675C242.365 70.7273 242.438 71.043 242.583 71.3144C242.734 71.5859 242.93 71.7942 243.17 71.9394C243.416 72.0783 243.675 72.1478 243.947 72.1478C244.224 72.1478 244.483 72.0783 244.723 71.9394C244.963 71.8005 245.155 71.5985 245.301 71.3334C245.452 71.0619 245.528 70.7463 245.528 70.3864ZM249.114 65.9927V73H248.035V65.9927H249.114Z" fill="#03011C"/>
<path d="M227.057 98.8064V96.3326L234.411 85.8073H238.077V96.0627H240.056V98.8064H238.077V102H234.928V98.8064H227.057ZM235.131 89.1808L230.52 96.0627H235.131V89.1808ZM253.081 88.3262H245.794V92.172C246.109 91.7821 246.559 91.4673 247.143 91.2274C247.728 90.9725 248.35 90.8451 249.01 90.8451C250.21 90.8451 251.192 91.1074 251.956 91.6322C252.721 92.157 253.276 92.8317 253.62 93.6563C253.965 94.4659 254.138 95.3355 254.138 96.2651C254.138 97.9893 253.643 99.3762 252.653 100.426C251.679 101.475 250.284 102 248.47 102C246.761 102 245.397 101.573 244.377 100.718C243.358 99.8635 242.78 98.7465 242.645 97.3671H245.704C245.839 97.9668 246.139 98.4466 246.604 98.8064C247.083 99.1663 247.691 99.3462 248.425 99.3462C249.31 99.3462 249.977 99.0688 250.427 98.5141C250.877 97.9593 251.102 97.2247 251.102 96.3101C251.102 95.3805 250.869 94.6758 250.404 94.196C249.955 93.7013 249.287 93.4539 248.403 93.4539C247.773 93.4539 247.248 93.6113 246.829 93.9262C246.409 94.241 246.109 94.6608 245.929 95.1856H242.915V85.56H253.081V88.3262ZM256.579 89.923C256.654 88.4237 257.179 87.2692 258.153 86.4595C259.143 85.6349 260.44 85.2226 262.044 85.2226C263.139 85.2226 264.076 85.4175 264.855 85.8073C265.635 86.1822 266.22 86.6994 266.61 87.3591C267.014 88.0038 267.217 88.7385 267.217 89.5631C267.217 90.5077 266.969 91.3098 266.475 91.9696C265.995 92.6143 265.418 93.0491 264.743 93.274V93.3639C265.612 93.6338 266.287 94.1136 266.767 94.8033C267.262 95.493 267.509 96.3776 267.509 97.4571C267.509 98.3567 267.299 99.1588 266.879 99.8635C266.475 100.568 265.867 101.123 265.058 101.528C264.263 101.918 263.304 102.112 262.179 102.112C260.485 102.112 259.105 101.685 258.041 100.831C256.976 99.9759 256.414 98.7165 256.354 97.0522H259.413C259.443 97.7869 259.69 98.3791 260.155 98.8289C260.635 99.2637 261.287 99.4811 262.112 99.4811C262.876 99.4811 263.461 99.2712 263.866 98.8514C264.286 98.4166 264.496 97.8619 264.496 97.1872C264.496 96.2876 264.211 95.6429 263.641 95.2531C263.071 94.8632 262.187 94.6683 260.987 94.6683H260.335V92.082H260.987C263.116 92.082 264.181 91.3698 264.181 89.9455C264.181 89.3008 263.986 88.7985 263.596 88.4387C263.221 88.0788 262.674 87.8989 261.954 87.8989C261.249 87.8989 260.702 88.0938 260.312 88.4836C259.938 88.8585 259.72 89.3382 259.66 89.923H256.579Z" fill="#03011C"/>
<g filter="url(#filter5_d_1941_1232)">
<rect x="318" y="68" width="30" height="6" rx="3" fill="#5E5D6D"/>
</g>
<g filter="url(#filter6_d_1941_1232)">
<rect x="318" y="84" width="61" height="21.6056" rx="10.8028" fill="#5E5D6D"/>
</g>
<g filter="url(#filter7_d_1941_1232)">
<rect x="422" y="68" width="30" height="6" rx="3" fill="#5E5D6D" fill-opacity="0.5" shape-rendering="crispEdges"/>
</g>
<g filter="url(#filter8_d_1941_1232)">
<rect x="422" y="84" width="61" height="21.6056" rx="10.8028" fill="#5E5D6D" fill-opacity="0.5" shape-rendering="crispEdges"/>
</g>
</g>
<rect x="54.5" y="3.5" width="513" height="566" rx="23.0118" stroke="url(#paint0_linear_1941_1232)" stroke-width="5"/>
</g>
<g filter="url(#filter9_d_1941_1232)">
<rect x="192" y="312" width="341" height="179" rx="9.63591" fill="#F9F8FB"/>
</g>
<g filter="url(#filter10_d_1941_1232)">
<rect x="192" y="148" width="341" height="141" rx="9.63591" fill="#F9F8FB"/>
</g>
<mask id="mask0_1941_1232" style="mask-type:alpha" maskUnits="userSpaceOnUse" x="210" y="308" width="313" height="183">
<rect x="210" y="308" width="313" height="183" rx="13.4239" fill="white"/>
</mask>
<g mask="url(#mask0_1941_1232)">
<path d="M200 377H533" stroke="black" stroke-opacity="0.25" stroke-width="0.767078" stroke-linecap="round" stroke-linejoin="round" stroke-dasharray="1.92 3.84"/>
<path d="M200 411H533" stroke="black" stroke-opacity="0.25" stroke-width="0.767078" stroke-linecap="round" stroke-linejoin="round" stroke-dasharray="1.92 3.84"/>
<path d="M200 444H533" stroke="black" stroke-opacity="0.05" stroke-width="0.767078" stroke-linecap="round" stroke-linejoin="round" stroke-dasharray="1.92 3.84"/>
<path d="M506.631 377.433C504.393 377.434 494.485 377.435 482.956 377.433C438.781 377.425 445.793 404.46 406.491 408.185C378.008 410.886 375.377 438.613 345.354 438.613C307.423 438.613 312.788 400.908 277.667 400.908C243.842 400.908 248.074 446.065 201.246 446.065" stroke="#1A1A1A" stroke-width="2.39712" stroke-linecap="round"/>
<path d="M506.613 377.322V444.92" stroke="#1A1A1A" stroke-width="0.958848" stroke-linecap="round" stroke-dasharray="2.88 2.88"/>
<circle cx="506.5" cy="377.5" r="4.5" fill="#1A1A1A"/>
<path fill-rule="evenodd" clip-rule="evenodd" d="M480.41 334C474.108 334 469 339.108 469 345.41C469 351.711 474.108 356.819 480.41 356.819H486.794L491.001 362.652C491.378 363.173 492.151 363.184 492.541 362.672L497.009 356.819H503.298C509.599 356.819 514.707 351.711 514.707 345.41C514.707 339.108 509.599 334 503.298 334H480.41Z" fill="url(#paint1_linear_1941_1232)"/>
<path d="M483.18 346.355H481.034V348.554H479.908V346.355H477.761V345.335H479.908V343.136H481.034V345.335H483.18V346.355ZM489.893 342.977H486.334V345.091C486.483 344.893 486.702 344.726 486.992 344.592C487.29 344.457 487.605 344.39 487.938 344.39C488.533 344.39 489.015 344.517 489.383 344.772C489.758 345.027 490.024 345.35 490.18 345.739C490.343 346.129 490.424 346.539 490.424 346.971C490.424 347.496 490.321 347.963 490.116 348.374C489.918 348.778 489.617 349.096 489.213 349.33C488.816 349.564 488.328 349.681 487.747 349.681C486.975 349.681 486.355 349.489 485.888 349.107C485.42 348.724 485.14 348.218 485.048 347.588H486.228C486.305 347.921 486.479 348.186 486.748 348.385C487.017 348.576 487.354 348.671 487.757 348.671C488.26 348.671 488.636 348.519 488.884 348.215C489.139 347.91 489.266 347.506 489.266 347.003C489.266 346.493 489.139 346.104 488.884 345.835C488.629 345.558 488.253 345.42 487.757 345.42C487.41 345.42 487.116 345.509 486.876 345.686C486.642 345.856 486.472 346.09 486.366 346.387H485.218V341.914H489.893V342.977ZM492.333 349.755C492.113 349.755 491.929 349.681 491.781 349.532C491.632 349.383 491.557 349.199 491.557 348.979C491.557 348.76 491.632 348.576 491.781 348.427C491.929 348.278 492.113 348.204 492.333 348.204C492.546 348.204 492.726 348.278 492.875 348.427C493.024 348.576 493.098 348.76 493.098 348.979C493.098 349.199 493.024 349.383 492.875 349.532C492.726 349.681 492.546 349.755 492.333 349.755ZM494.248 345.707C494.248 344.482 494.453 343.526 494.864 342.839C495.282 342.145 495.997 341.797 497.01 341.797C498.023 341.797 498.735 342.145 499.145 342.839C499.563 343.526 499.772 344.482 499.772 345.707C499.772 346.947 499.563 347.917 499.145 348.618C498.735 349.312 498.023 349.659 497.01 349.659C495.997 349.659 495.282 349.312 494.864 348.618C494.453 347.917 494.248 346.947 494.248 345.707ZM498.582 345.707C498.582 345.133 498.543 344.648 498.465 344.252C498.395 343.855 498.246 343.533 498.019 343.285C497.793 343.03 497.456 342.902 497.01 342.902C496.564 342.902 496.227 343.03 496.001 343.285C495.774 343.533 495.622 343.855 495.544 344.252C495.473 344.648 495.438 345.133 495.438 345.707C495.438 346.302 495.473 346.801 495.544 347.205C495.615 347.609 495.763 347.935 495.99 348.183C496.224 348.431 496.564 348.554 497.01 348.554C497.456 348.554 497.793 348.431 498.019 348.183C498.253 347.935 498.405 347.609 498.476 347.205C498.547 346.801 498.582 346.302 498.582 345.707ZM500.863 343.805C500.863 343.288 501.011 342.885 501.309 342.594C501.613 342.297 502.003 342.148 502.477 342.148C502.952 342.148 503.338 342.297 503.636 342.594C503.94 342.885 504.092 343.288 504.092 343.805C504.092 344.322 503.94 344.73 503.636 345.027C503.338 345.325 502.952 345.473 502.477 345.473C502.003 345.473 501.613 345.325 501.309 345.027C501.011 344.73 500.863 344.322 500.863 343.805ZM507.343 342.286L503.104 349.681H501.914L506.153 342.286H507.343ZM502.477 342.881C502.031 342.881 501.808 343.189 501.808 343.805C501.808 344.429 502.031 344.74 502.477 344.74C502.69 344.74 502.853 344.666 502.966 344.517C503.087 344.361 503.147 344.124 503.147 343.805C503.147 343.189 502.924 342.881 502.477 342.881ZM505.187 348.151C505.187 347.634 505.335 347.23 505.633 346.94C505.937 346.642 506.327 346.493 506.802 346.493C507.269 346.493 507.651 346.642 507.949 346.94C508.254 347.23 508.406 347.634 508.406 348.151C508.406 348.668 508.254 349.075 507.949 349.373C507.651 349.67 507.269 349.819 506.802 349.819C506.327 349.819 505.937 349.67 505.633 349.373C505.335 349.075 505.187 348.668 505.187 348.151ZM506.791 347.226C506.345 347.226 506.122 347.535 506.122 348.151C506.122 348.767 506.345 349.075 506.791 349.075C507.237 349.075 507.46 348.767 507.46 348.151C507.46 347.535 507.237 347.226 506.791 347.226Z" fill="white"/>
<path d="M369.006 469.229H365.658L365.083 470.863H363.713L366.579 462.855H368.097L370.962 470.863H369.582L369.006 469.229ZM368.638 468.159L367.338 464.443L366.026 468.159H368.638ZM377.95 464.523V470.863H376.638V470.115C376.431 470.376 376.159 470.583 375.821 470.737C375.491 470.882 375.138 470.955 374.762 470.955C374.264 470.955 373.815 470.852 373.416 470.645C373.025 470.438 372.714 470.131 372.484 469.724C372.262 469.318 372.151 468.827 372.151 468.251V464.523H373.451V468.056C373.451 468.623 373.593 469.061 373.876 469.367C374.16 469.667 374.548 469.816 375.039 469.816C375.53 469.816 375.917 469.667 376.201 469.367C376.492 469.061 376.638 468.623 376.638 468.056V464.523H377.95ZM382.235 464.42C382.726 464.42 383.159 464.52 383.535 464.719C383.918 464.911 384.218 465.152 384.432 465.444V464.523H385.756V470.967C385.756 471.55 385.633 472.068 385.387 472.52C385.142 472.98 384.785 473.341 384.317 473.602C383.857 473.863 383.305 473.993 382.66 473.993C381.801 473.993 381.088 473.79 380.52 473.383C379.953 472.984 379.63 472.44 379.554 471.749H380.854C380.954 472.079 381.165 472.344 381.487 472.543C381.817 472.75 382.208 472.854 382.66 472.854C383.19 472.854 383.615 472.693 383.938 472.371C384.267 472.048 384.432 471.58 384.432 470.967V469.908C384.21 470.207 383.907 470.461 383.523 470.668C383.148 470.867 382.718 470.967 382.235 470.967C381.682 470.967 381.176 470.829 380.716 470.553C380.263 470.269 379.903 469.878 379.634 469.379C379.374 468.873 379.243 468.301 379.243 467.665C379.243 467.028 379.374 466.464 379.634 465.973C379.903 465.482 380.263 465.103 380.716 464.834C381.176 464.558 381.682 464.42 382.235 464.42ZM384.432 467.688C384.432 467.25 384.34 466.871 384.156 466.548C383.98 466.226 383.746 465.981 383.454 465.812C383.163 465.643 382.848 465.559 382.511 465.559C382.173 465.559 381.859 465.643 381.567 465.812C381.276 465.973 381.038 466.215 380.854 466.537C380.678 466.851 380.589 467.227 380.589 467.665C380.589 468.102 380.678 468.485 380.854 468.815C381.038 469.145 381.276 469.398 381.567 469.575C381.867 469.743 382.181 469.828 382.511 469.828C382.848 469.828 383.163 469.743 383.454 469.575C383.746 469.406 383.98 469.16 384.156 468.838C384.34 468.508 384.432 468.125 384.432 467.688ZM388.008 470.944C387.77 470.944 387.571 470.863 387.409 470.702C387.248 470.541 387.168 470.342 387.168 470.104C387.168 469.866 387.248 469.667 387.409 469.506C387.571 469.344 387.77 469.264 388.008 469.264C388.238 469.264 388.433 469.344 388.595 469.506C388.756 469.667 388.836 469.866 388.836 470.104C388.836 470.342 388.756 470.541 388.595 470.702C388.433 470.863 388.238 470.944 388.008 470.944Z" fill="black"/>
<path d="M311.415 462.866V468.631C311.415 469.344 311.197 469.908 310.759 470.322C310.33 470.737 309.762 470.944 309.056 470.944C308.351 470.944 307.779 470.737 307.342 470.322C306.912 469.908 306.698 469.344 306.698 468.631H308.021C308.029 468.984 308.117 469.264 308.286 469.471C308.462 469.678 308.719 469.782 309.056 469.782C309.394 469.782 309.651 469.678 309.827 469.471C310.004 469.256 310.092 468.976 310.092 468.631V462.866H311.415ZM319.291 464.523V470.863H317.979V470.115C317.772 470.376 317.5 470.583 317.162 470.737C316.832 470.882 316.479 470.955 316.103 470.955C315.605 470.955 315.156 470.852 314.757 470.645C314.366 470.438 314.055 470.131 313.825 469.724C313.603 469.318 313.492 468.827 313.492 468.251V464.523H314.792V468.056C314.792 468.623 314.934 469.061 315.217 469.367C315.501 469.667 315.889 469.816 316.38 469.816C316.871 469.816 317.258 469.667 317.542 469.367C317.833 469.061 317.979 468.623 317.979 468.056V464.523H319.291ZM322.333 462.349V470.863H321.021V462.349H322.333ZM324.584 470.944C324.347 470.944 324.147 470.863 323.986 470.702C323.825 470.541 323.745 470.342 323.745 470.104C323.745 469.866 323.825 469.667 323.986 469.506C324.147 469.344 324.347 469.264 324.584 469.264C324.815 469.264 325.01 469.344 325.171 469.506C325.332 469.667 325.413 469.866 325.413 470.104C325.413 470.342 325.332 470.541 325.171 470.702C325.01 470.863 324.815 470.944 324.584 470.944Z" fill="black"/>
<path d="M249.318 462.866V468.631C249.318 469.344 249.099 469.908 248.662 470.322C248.232 470.737 247.664 470.944 246.959 470.944C246.253 470.944 245.682 470.737 245.244 470.322C244.815 469.908 244.6 469.344 244.6 468.631H245.923C245.931 468.984 246.019 469.264 246.188 469.471C246.364 469.678 246.621 469.782 246.959 469.782C247.296 469.782 247.553 469.678 247.73 469.471C247.906 469.256 247.994 468.976 247.994 468.631V462.866H249.318ZM257.193 464.523V470.863H255.881V470.115C255.674 470.376 255.402 470.583 255.064 470.737C254.735 470.882 254.382 470.955 254.006 470.955C253.507 470.955 253.058 470.852 252.66 470.645C252.268 470.438 251.958 470.131 251.728 469.724C251.505 469.318 251.394 468.827 251.394 468.251V464.523H252.694V468.056C252.694 468.623 252.836 469.061 253.12 469.367C253.404 469.667 253.791 469.816 254.282 469.816C254.773 469.816 255.16 469.667 255.444 469.367C255.736 469.061 255.881 468.623 255.881 468.056V464.523H257.193ZM262.122 464.42C262.621 464.42 263.066 464.523 263.457 464.73C263.856 464.938 264.167 465.244 264.389 465.651C264.612 466.058 264.723 466.548 264.723 467.124V470.863H263.423V467.319C263.423 466.752 263.281 466.318 262.997 466.019C262.713 465.712 262.326 465.559 261.835 465.559C261.344 465.559 260.953 465.712 260.661 466.019C260.377 466.318 260.235 466.752 260.235 467.319V470.863H258.924V464.523H260.235V465.248C260.45 464.987 260.722 464.784 261.052 464.638C261.39 464.493 261.747 464.42 262.122 464.42ZM266.925 470.944C266.687 470.944 266.488 470.863 266.327 470.702C266.166 470.541 266.085 470.342 266.085 470.104C266.085 469.866 266.166 469.667 266.327 469.506C266.488 469.344 266.687 469.264 266.925 469.264C267.155 469.264 267.351 469.344 267.512 469.506C267.673 469.667 267.754 469.866 267.754 470.104C267.754 470.342 267.673 470.541 267.512 470.702C267.351 470.863 267.155 470.944 266.925 470.944Z" fill="black"/>
</g>
<g filter="url(#filter11_d_1941_1232)">
<rect x="438" y="177" width="30" height="12" rx="6" fill="#5E5D6D"/>
</g>
<g filter="url(#filter12_d_1941_1232)">
<rect x="438" y="204" width="26" height="4" rx="2" fill="#5E5D6D" fill-opacity="0.5" shape-rendering="crispEdges"/>
</g>
<g filter="url(#filter13_d_1941_1232)">
<rect x="438" y="223" width="61" height="4" rx="2" fill="#5E5D6D" fill-opacity="0.5" shape-rendering="crispEdges"/>
</g>
<g filter="url(#filter14_d_1941_1232)">
<rect x="438" y="242" width="61" height="4" rx="2" fill="#5E5D6D" fill-opacity="0.5" shape-rendering="crispEdges"/>
</g>
<g filter="url(#filter15_d_1941_1232)">
<rect x="438" y="261" width="61" height="4" rx="2" fill="#5E5D6D" fill-opacity="0.5" shape-rendering="crispEdges"/>
</g>
<g filter="url(#filter16_d_1941_1232)">
<rect x="226" y="265" width="80" height="14" rx="7" transform="rotate(-90 226 265)" fill="#67C456"/>
</g>
<g filter="url(#filter17_d_1941_1232)">
<rect x="259" y="265" width="49" height="14" rx="7" transform="rotate(-90 259 265)" fill="#67C456"/>
</g>
<g filter="url(#filter18_d_1941_1232)">
<rect x="292" y="265" width="25" height="14" rx="7" transform="rotate(-90 292 265)" fill="#67C456"/>
</g>
<g filter="url(#filter19_d_1941_1232)">
<rect x="391" y="266" width="25" height="14" rx="7" transform="rotate(-90 391 266)" fill="#67C456"/>
</g>
<g filter="url(#filter20_d_1941_1232)">
<rect x="325" y="265" width="70" height="14" rx="7" transform="rotate(-90 325 265)" fill="#67C456"/>
</g>
<g filter="url(#filter21_d_1941_1232)">
<rect x="358" y="265" width="49" height="14" rx="7" transform="rotate(-90 358 265)" fill="#67C456"/>
</g>
<defs>
<filter id="filter0_bd_1941_1232" x="0.720619" y="-9.25588" width="620.559" height="683.082" filterUnits="userSpaceOnUse" color-interpolation-filters="sRGB">
<feFlood flood-opacity="0" result="BackgroundImageFix"/>
<feGaussianBlur in="BackgroundImage" stdDeviation="5.12794"/>
<feComposite in2="SourceAlpha" operator="in" result="effect1_backgroundBlur_1941_1232"/>
<feColorMatrix in="SourceAlpha" type="matrix" values="0 0 0 0 0 0 0 0 0 0 0 0 0 0 0 0 0 0 127 0" result="hardAlpha"/>
<feMorphology radius="27.8374" operator="erode" in="SourceAlpha" result="effect2_dropShadow_1941_1232"/>
<feOffset dy="50.5468"/>
<feGaussianBlur stdDeviation="39.5584"/>
<feComposite in2="hardAlpha" operator="out"/>
<feColorMatrix type="matrix" values="0 0 0 0 0 0 0 0 0 0 0 0 0 0 0 0 0 0 0.1 0"/>
<feBlend mode="normal" in2="effect1_backgroundBlur_1941_1232" result="effect2_dropShadow_1941_1232"/>
<feBlend mode="normal" in="SourceGraphic" in2="effect2_dropShadow_1941_1232" result="shape"/>
</filter>
<filter id="filter1_d_1941_1232" x="78" y="103" width="53" height="17.9884" filterUnits="userSpaceOnUse" color-interpolation-filters="sRGB">
<feFlood flood-opacity="0" result="BackgroundImageFix"/>
<feColorMatrix in="SourceAlpha" type="matrix" values="0 0 0 0 0 0 0 0 0 0 0 0 0 0 0 0 0 0 127 0" result="hardAlpha"/>
<feMorphology radius="13.9187" operator="erode" in="SourceAlpha" result="effect1_dropShadow_1941_1232"/>
<feOffset dy="12.4536"/>
<feGaussianBlur stdDeviation="6.22678"/>
<feComposite in2="hardAlpha" operator="out"/>
<feColorMatrix type="matrix" values="0 0 0 0 0 0 0 0 0 0 0 0 0 0 0 0 0 0 0.08 0"/>
<feBlend mode="normal" in2="BackgroundImageFix" result="effect1_dropShadow_1941_1232"/>
<feBlend mode="normal" in="SourceGraphic" in2="effect1_dropShadow_1941_1232" result="shape"/>
</filter>
<filter id="filter2_d_1941_1232" x="78" y="137" width="90.209" height="29.223" filterUnits="userSpaceOnUse" color-interpolation-filters="sRGB">
<feFlood flood-opacity="0" result="BackgroundImageFix"/>
<feColorMatrix in="SourceAlpha" type="matrix" values="0 0 0 0 0 0 0 0 0 0 0 0 0 0 0 0 0 0 127 0" result="hardAlpha"/>
<feMorphology radius="5.08225" operator="erode" in="SourceAlpha" result="effect1_dropShadow_1941_1232"/>
<feOffset dy="7.62337"/>
<feGaussianBlur stdDeviation="2.54112"/>
<feComposite in2="hardAlpha" operator="out"/>
<feColorMatrix type="matrix" values="0 0 0 0 0 0 0 0 0 0 0 0 0 0 0 0 0 0 0.34 0"/>
<feBlend mode="normal" in2="BackgroundImageFix" result="effect1_dropShadow_1941_1232"/>
<feBlend mode="normal" in="SourceGraphic" in2="effect1_dropShadow_1941_1232" result="shape"/>
</filter>
<filter id="filter3_d_1941_1232" x="78" y="185.6" width="53" height="17.9884" filterUnits="userSpaceOnUse" color-interpolation-filters="sRGB">
<feFlood flood-opacity="0" result="BackgroundImageFix"/>
<feColorMatrix in="SourceAlpha" type="matrix" values="0 0 0 0 0 0 0 0 0 0 0 0 0 0 0 0 0 0 127 0" result="hardAlpha"/>
<feMorphology radius="13.9187" operator="erode" in="SourceAlpha" result="effect1_dropShadow_1941_1232"/>
<feOffset dy="12.4536"/>
<feGaussianBlur stdDeviation="6.22678"/>
<feComposite in2="hardAlpha" operator="out"/>
<feColorMatrix type="matrix" values="0 0 0 0 0 0 0 0 0 0 0 0 0 0 0 0 0 0 0.08 0"/>
<feBlend mode="normal" in2="BackgroundImageFix" result="effect1_dropShadow_1941_1232"/>
<feBlend mode="normal" in="SourceGraphic" in2="effect1_dropShadow_1941_1232" result="shape"/>
</filter>
<filter id="filter4_d_1941_1232" x="185.77" y="46" width="352.459" height="112.137" filterUnits="userSpaceOnUse" color-interpolation-filters="sRGB">
<feFlood flood-opacity="0" result="BackgroundImageFix"/>
<feColorMatrix in="SourceAlpha" type="matrix" values="0 0 0 0 0 0 0 0 0 0 0 0 0 0 0 0 0 0 127 0" result="hardAlpha"/>
<feMorphology radius="12.7005" operator="erode" in="SourceAlpha" result="effect1_dropShadow_1941_1232"/>
<feOffset dy="23.9069"/>
<feGaussianBlur stdDeviation="8.96508"/>
<feComposite in2="hardAlpha" operator="out"/>
<feColorMatrix type="matrix" values="0 0 0 0 0.396078 0 0 0 0 0.227451 0 0 0 0 0.776471 0 0 0 0.3 0"/>
<feBlend mode="normal" in2="BackgroundImageFix" result="effect1_dropShadow_1941_1232"/>
<feBlend mode="normal" in="SourceGraphic" in2="effect1_dropShadow_1941_1232" result="shape"/>
</filter>
<filter id="filter5_d_1941_1232" x="297.476" y="68" width="50.5235" height="43.3725" filterUnits="userSpaceOnUse" color-interpolation-filters="sRGB">
<feFlood flood-opacity="0" result="BackgroundImageFix"/>
<feColorMatrix in="SourceAlpha" type="matrix" values="0 0 0 0 0 0 0 0 0 0 0 0 0 0 0 0 0 0 127 0" result="hardAlpha"/>
<feMorphology radius="13.9187" operator="erode" in="SourceAlpha" result="effect1_dropShadow_1941_1232"/>
<feOffset dx="-15.3838" dy="32.2328"/>
<feGaussianBlur stdDeviation="9.52921"/>
<feComposite in2="hardAlpha" operator="out"/>
<feColorMatrix type="matrix" values="0 0 0 0 0.394434 0 0 0 0 0.226042 0 0 0 0 0.775 0 0 0 0.16 0"/>
<feBlend mode="normal" in2="BackgroundImageFix" result="effect1_dropShadow_1941_1232"/>
<feBlend mode="normal" in="SourceGraphic" in2="effect1_dropShadow_1941_1232" result="shape"/>
</filter>
<filter id="filter6_d_1941_1232" x="297.476" y="84" width="81.5235" height="58.978" filterUnits="userSpaceOnUse" color-interpolation-filters="sRGB">
<feFlood flood-opacity="0" result="BackgroundImageFix"/>
<feColorMatrix in="SourceAlpha" type="matrix" values="0 0 0 0 0 0 0 0 0 0 0 0 0 0 0 0 0 0 127 0" result="hardAlpha"/>
<feMorphology radius="13.9187" operator="erode" in="SourceAlpha" result="effect1_dropShadow_1941_1232"/>
<feOffset dx="-15.3838" dy="32.2328"/>
<feGaussianBlur stdDeviation="9.52921"/>
<feComposite in2="hardAlpha" operator="out"/>
<feColorMatrix type="matrix" values="0 0 0 0 0.394434 0 0 0 0 0.226042 0 0 0 0 0.775 0 0 0 0.16 0"/>
<feBlend mode="normal" in2="BackgroundImageFix" result="effect1_dropShadow_1941_1232"/>
<feBlend mode="normal" in="SourceGraphic" in2="effect1_dropShadow_1941_1232" result="shape"/>
</filter>
<filter id="filter7_d_1941_1232" x="401.476" y="68" width="50.5235" height="43.3725" filterUnits="userSpaceOnUse" color-interpolation-filters="sRGB">
<feFlood flood-opacity="0" result="BackgroundImageFix"/>
<feColorMatrix in="SourceAlpha" type="matrix" values="0 0 0 0 0 0 0 0 0 0 0 0 0 0 0 0 0 0 127 0" result="hardAlpha"/>
<feMorphology radius="13.9187" operator="erode" in="SourceAlpha" result="effect1_dropShadow_1941_1232"/>
<feOffset dx="-15.3838" dy="32.2328"/>
<feGaussianBlur stdDeviation="9.52921"/>
<feComposite in2="hardAlpha" operator="out"/>
<feColorMatrix type="matrix" values="0 0 0 0 0.394434 0 0 0 0 0.226042 0 0 0 0 0.775 0 0 0 0.16 0"/>
<feBlend mode="normal" in2="BackgroundImageFix" result="effect1_dropShadow_1941_1232"/>
<feBlend mode="normal" in="SourceGraphic" in2="effect1_dropShadow_1941_1232" result="shape"/>
</filter>
<filter id="filter8_d_1941_1232" x="401.476" y="84" width="81.5235" height="58.978" filterUnits="userSpaceOnUse" color-interpolation-filters="sRGB">
<feFlood flood-opacity="0" result="BackgroundImageFix"/>
<feColorMatrix in="SourceAlpha" type="matrix" values="0 0 0 0 0 0 0 0 0 0 0 0 0 0 0 0 0 0 127 0" result="hardAlpha"/>
<feMorphology radius="13.9187" operator="erode" in="SourceAlpha" result="effect1_dropShadow_1941_1232"/>
<feOffset dx="-15.3838" dy="32.2328"/>
<feGaussianBlur stdDeviation="9.52921"/>
<feComposite in2="hardAlpha" operator="out"/>
<feColorMatrix type="matrix" values="0 0 0 0 0.394434 0 0 0 0 0.226042 0 0 0 0 0.775 0 0 0 0.16 0"/>
<feBlend mode="normal" in2="BackgroundImageFix" result="effect1_dropShadow_1941_1232"/>
<feBlend mode="normal" in="SourceGraphic" in2="effect1_dropShadow_1941_1232" result="shape"/>
</filter>
<filter id="filter9_d_1941_1232" x="186.334" y="312" width="352.332" height="210.567" filterUnits="userSpaceOnUse" color-interpolation-filters="sRGB">
<feFlood flood-opacity="0" result="BackgroundImageFix"/>
<feColorMatrix in="SourceAlpha" type="matrix" values="0 0 0 0 0 0 0 0 0 0 0 0 0 0 0 0 0 0 127 0" result="hardAlpha"/>
<feMorphology radius="13.7601" operator="erode" in="SourceAlpha" result="effect1_dropShadow_1941_1232"/>
<feOffset dy="25.9013"/>
<feGaussianBlur stdDeviation="9.713"/>
<feComposite in2="hardAlpha" operator="out"/>
<feColorMatrix type="matrix" values="0 0 0 0 0.396078 0 0 0 0 0.227451 0 0 0 0 0.776471 0 0 0 0.3 0"/>
<feBlend mode="normal" in2="BackgroundImageFix" result="effect1_dropShadow_1941_1232"/>
<feBlend mode="normal" in="SourceGraphic" in2="effect1_dropShadow_1941_1232" result="shape"/>
</filter>
<filter id="filter10_d_1941_1232" x="186.334" y="148" width="352.332" height="172.567" filterUnits="userSpaceOnUse" color-interpolation-filters="sRGB">
<feFlood flood-opacity="0" result="BackgroundImageFix"/>
<feColorMatrix in="SourceAlpha" type="matrix" values="0 0 0 0 0 0 0 0 0 0 0 0 0 0 0 0 0 0 127 0" result="hardAlpha"/>
<feMorphology radius="13.7601" operator="erode" in="SourceAlpha" result="effect1_dropShadow_1941_1232"/>
<feOffset dy="25.9013"/>
<feGaussianBlur stdDeviation="9.713"/>
<feComposite in2="hardAlpha" operator="out"/>
<feColorMatrix type="matrix" values="0 0 0 0 0.396078 0 0 0 0 0.227451 0 0 0 0 0.776471 0 0 0 0.3 0"/>
<feBlend mode="normal" in2="BackgroundImageFix" result="effect1_dropShadow_1941_1232"/>
<feBlend mode="normal" in="SourceGraphic" in2="effect1_dropShadow_1941_1232" result="shape"/>
</filter>
<filter id="filter11_d_1941_1232" x="417.476" y="177" width="50.5235" height="49.3725" filterUnits="userSpaceOnUse" color-interpolation-filters="sRGB">
<feFlood flood-opacity="0" result="BackgroundImageFix"/>
<feColorMatrix in="SourceAlpha" type="matrix" values="0 0 0 0 0 0 0 0 0 0 0 0 0 0 0 0 0 0 127 0" result="hardAlpha"/>
<feMorphology radius="13.9187" operator="erode" in="SourceAlpha" result="effect1_dropShadow_1941_1232"/>
<feOffset dx="-15.3838" dy="32.2328"/>
<feGaussianBlur stdDeviation="9.52921"/>
<feComposite in2="hardAlpha" operator="out"/>
<feColorMatrix type="matrix" values="0 0 0 0 0.394434 0 0 0 0 0.226042 0 0 0 0 0.775 0 0 0 0.16 0"/>
<feBlend mode="normal" in2="BackgroundImageFix" result="effect1_dropShadow_1941_1232"/>
<feBlend mode="normal" in="SourceGraphic" in2="effect1_dropShadow_1941_1232" result="shape"/>
</filter>
<filter id="filter12_d_1941_1232" x="417.476" y="204" width="46.5235" height="41.3725" filterUnits="userSpaceOnUse" color-interpolation-filters="sRGB">
<feFlood flood-opacity="0" result="BackgroundImageFix"/>
<feColorMatrix in="SourceAlpha" type="matrix" values="0 0 0 0 0 0 0 0 0 0 0 0 0 0 0 0 0 0 127 0" result="hardAlpha"/>
<feMorphology radius="13.9187" operator="erode" in="SourceAlpha" result="effect1_dropShadow_1941_1232"/>
<feOffset dx="-15.3838" dy="32.2328"/>
<feGaussianBlur stdDeviation="9.52921"/>
<feComposite in2="hardAlpha" operator="out"/>
<feColorMatrix type="matrix" values="0 0 0 0 0.394434 0 0 0 0 0.226042 0 0 0 0 0.775 0 0 0 0.16 0"/>
<feBlend mode="normal" in2="BackgroundImageFix" result="effect1_dropShadow_1941_1232"/>
<feBlend mode="normal" in="SourceGraphic" in2="effect1_dropShadow_1941_1232" result="shape"/>
</filter>
<filter id="filter13_d_1941_1232" x="417.476" y="223" width="81.5235" height="41.3725" filterUnits="userSpaceOnUse" color-interpolation-filters="sRGB">
<feFlood flood-opacity="0" result="BackgroundImageFix"/>
<feColorMatrix in="SourceAlpha" type="matrix" values="0 0 0 0 0 0 0 0 0 0 0 0 0 0 0 0 0 0 127 0" result="hardAlpha"/>
<feMorphology radius="13.9187" operator="erode" in="SourceAlpha" result="effect1_dropShadow_1941_1232"/>
<feOffset dx="-15.3838" dy="32.2328"/>
<feGaussianBlur stdDeviation="9.52921"/>
<feComposite in2="hardAlpha" operator="out"/>
<feColorMatrix type="matrix" values="0 0 0 0 0.394434 0 0 0 0 0.226042 0 0 0 0 0.775 0 0 0 0.16 0"/>
<feBlend mode="normal" in2="BackgroundImageFix" result="effect1_dropShadow_1941_1232"/>
<feBlend mode="normal" in="SourceGraphic" in2="effect1_dropShadow_1941_1232" result="shape"/>
</filter>
<filter id="filter14_d_1941_1232" x="417.476" y="242" width="81.5235" height="41.3725" filterUnits="userSpaceOnUse" color-interpolation-filters="sRGB">
<feFlood flood-opacity="0" result="BackgroundImageFix"/>
<feColorMatrix in="SourceAlpha" type="matrix" values="0 0 0 0 0 0 0 0 0 0 0 0 0 0 0 0 0 0 127 0" result="hardAlpha"/>
<feMorphology radius="13.9187" operator="erode" in="SourceAlpha" result="effect1_dropShadow_1941_1232"/>
<feOffset dx="-15.3838" dy="32.2328"/>
<feGaussianBlur stdDeviation="9.52921"/>
<feComposite in2="hardAlpha" operator="out"/>
<feColorMatrix type="matrix" values="0 0 0 0 0.394434 0 0 0 0 0.226042 0 0 0 0 0.775 0 0 0 0.16 0"/>
<feBlend mode="normal" in2="BackgroundImageFix" result="effect1_dropShadow_1941_1232"/>
<feBlend mode="normal" in="SourceGraphic" in2="effect1_dropShadow_1941_1232" result="shape"/>
</filter>
<filter id="filter15_d_1941_1232" x="417.476" y="261" width="81.5235" height="41.3725" filterUnits="userSpaceOnUse" color-interpolation-filters="sRGB">
<feFlood flood-opacity="0" result="BackgroundImageFix"/>
<feColorMatrix in="SourceAlpha" type="matrix" values="0 0 0 0 0 0 0 0 0 0 0 0 0 0 0 0 0 0 127 0" result="hardAlpha"/>
<feMorphology radius="13.9187" operator="erode" in="SourceAlpha" result="effect1_dropShadow_1941_1232"/>
<feOffset dx="-15.3838" dy="32.2328"/>
<feGaussianBlur stdDeviation="9.52921"/>
<feComposite in2="hardAlpha" operator="out"/>
<feColorMatrix type="matrix" values="0 0 0 0 0.394434 0 0 0 0 0.226042 0 0 0 0 0.775 0 0 0 0.16 0"/>
<feBlend mode="normal" in2="BackgroundImageFix" result="effect1_dropShadow_1941_1232"/>
<feBlend mode="normal" in="SourceGraphic" in2="effect1_dropShadow_1941_1232" result="shape"/>
</filter>
<filter id="filter16_d_1941_1232" x="226" y="185" width="14" height="87.6234" filterUnits="userSpaceOnUse" color-interpolation-filters="sRGB">
<feFlood flood-opacity="0" result="BackgroundImageFix"/>
<feColorMatrix in="SourceAlpha" type="matrix" values="0 0 0 0 0 0 0 0 0 0 0 0 0 0 0 0 0 0 127 0" result="hardAlpha"/>
<feMorphology radius="5.08225" operator="erode" in="SourceAlpha" result="effect1_dropShadow_1941_1232"/>
<feOffset dy="7.62337"/>
<feGaussianBlur stdDeviation="2.54112"/>
<feComposite in2="hardAlpha" operator="out"/>
<feColorMatrix type="matrix" values="0 0 0 0 0 0 0 0 0 0 0 0 0 0 0 0 0 0 0.34 0"/>
<feBlend mode="normal" in2="BackgroundImageFix" result="effect1_dropShadow_1941_1232"/>
<feBlend mode="normal" in="SourceGraphic" in2="effect1_dropShadow_1941_1232" result="shape"/>
</filter>
<filter id="filter17_d_1941_1232" x="259" y="216" width="14" height="56.6234" filterUnits="userSpaceOnUse" color-interpolation-filters="sRGB">
<feFlood flood-opacity="0" result="BackgroundImageFix"/>
<feColorMatrix in="SourceAlpha" type="matrix" values="0 0 0 0 0 0 0 0 0 0 0 0 0 0 0 0 0 0 127 0" result="hardAlpha"/>
<feMorphology radius="5.08225" operator="erode" in="SourceAlpha" result="effect1_dropShadow_1941_1232"/>
<feOffset dy="7.62337"/>
<feGaussianBlur stdDeviation="2.54112"/>
<feComposite in2="hardAlpha" operator="out"/>
<feColorMatrix type="matrix" values="0 0 0 0 0 0 0 0 0 0 0 0 0 0 0 0 0 0 0.34 0"/>
<feBlend mode="normal" in2="BackgroundImageFix" result="effect1_dropShadow_1941_1232"/>
<feBlend mode="normal" in="SourceGraphic" in2="effect1_dropShadow_1941_1232" result="shape"/>
</filter>
<filter id="filter18_d_1941_1232" x="292" y="240" width="14" height="32.6234" filterUnits="userSpaceOnUse" color-interpolation-filters="sRGB">
<feFlood flood-opacity="0" result="BackgroundImageFix"/>
<feColorMatrix in="SourceAlpha" type="matrix" values="0 0 0 0 0 0 0 0 0 0 0 0 0 0 0 0 0 0 127 0" result="hardAlpha"/>
<feMorphology radius="5.08225" operator="erode" in="SourceAlpha" result="effect1_dropShadow_1941_1232"/>
<feOffset dy="7.62337"/>
<feGaussianBlur stdDeviation="2.54112"/>
<feComposite in2="hardAlpha" operator="out"/>
<feColorMatrix type="matrix" values="0 0 0 0 0 0 0 0 0 0 0 0 0 0 0 0 0 0 0.34 0"/>
<feBlend mode="normal" in2="BackgroundImageFix" result="effect1_dropShadow_1941_1232"/>
<feBlend mode="normal" in="SourceGraphic" in2="effect1_dropShadow_1941_1232" result="shape"/>
</filter>
<filter id="filter19_d_1941_1232" x="391" y="241" width="14" height="32.6234" filterUnits="userSpaceOnUse" color-interpolation-filters="sRGB">
<feFlood flood-opacity="0" result="BackgroundImageFix"/>
<feColorMatrix in="SourceAlpha" type="matrix" values="0 0 0 0 0 0 0 0 0 0 0 0 0 0 0 0 0 0 127 0" result="hardAlpha"/>
<feMorphology radius="5.08225" operator="erode" in="SourceAlpha" result="effect1_dropShadow_1941_1232"/>
<feOffset dy="7.62337"/>
<feGaussianBlur stdDeviation="2.54112"/>
<feComposite in2="hardAlpha" operator="out"/>
<feColorMatrix type="matrix" values="0 0 0 0 0 0 0 0 0 0 0 0 0 0 0 0 0 0 0.34 0"/>
<feBlend mode="normal" in2="BackgroundImageFix" result="effect1_dropShadow_1941_1232"/>
<feBlend mode="normal" in="SourceGraphic" in2="effect1_dropShadow_1941_1232" result="shape"/>
</filter>
<filter id="filter20_d_1941_1232" x="325" y="195" width="14" height="77.6234" filterUnits="userSpaceOnUse" color-interpolation-filters="sRGB">
<feFlood flood-opacity="0" result="BackgroundImageFix"/>
<feColorMatrix in="SourceAlpha" type="matrix" values="0 0 0 0 0 0 0 0 0 0 0 0 0 0 0 0 0 0 127 0" result="hardAlpha"/>
<feMorphology radius="5.08225" operator="erode" in="SourceAlpha" result="effect1_dropShadow_1941_1232"/>
<feOffset dy="7.62337"/>
<feGaussianBlur stdDeviation="2.54112"/>
<feComposite in2="hardAlpha" operator="out"/>
<feColorMatrix type="matrix" values="0 0 0 0 0 0 0 0 0 0 0 0 0 0 0 0 0 0 0.34 0"/>
<feBlend mode="normal" in2="BackgroundImageFix" result="effect1_dropShadow_1941_1232"/>
<feBlend mode="normal" in="SourceGraphic" in2="effect1_dropShadow_1941_1232" result="shape"/>
</filter>
<filter id="filter21_d_1941_1232" x="358" y="216" width="14" height="56.6234" filterUnits="userSpaceOnUse" color-interpolation-filters="sRGB">
<feFlood flood-opacity="0" result="BackgroundImageFix"/>
<feColorMatrix in="SourceAlpha" type="matrix" values="0 0 0 0 0 0 0 0 0 0 0 0 0 0 0 0 0 0 127 0" result="hardAlpha"/>
<feMorphology radius="5.08225" operator="erode" in="SourceAlpha" result="effect1_dropShadow_1941_1232"/>
<feOffset dy="7.62337"/>
<feGaussianBlur stdDeviation="2.54112"/>
<feComposite in2="hardAlpha" operator="out"/>
<feColorMatrix type="matrix" values="0 0 0 0 0 0 0 0 0 0 0 0 0 0 0 0 0 0 0.34 0"/>
<feBlend mode="normal" in2="BackgroundImageFix" result="effect1_dropShadow_1941_1232"/>
<feBlend mode="normal" in="SourceGraphic" in2="effect1_dropShadow_1941_1232" result="shape"/>
</filter>
<linearGradient id="paint0_linear_1941_1232" x1="28.0966" y1="-27.6016" x2="736.615" y2="260.072" gradientUnits="userSpaceOnUse">
<stop stop-color="white"/>
<stop offset="1" stop-color="white"/>
</linearGradient>
<linearGradient id="paint1_linear_1941_1232" x1="469.063" y1="332.692" x2="475.713" y2="373.104" gradientUnits="userSpaceOnUse">
<stop stop-color="#AFB5FE"/>
<stop offset="1" stop-color="#6B5EFF"/>
</linearGradient>
<clipPath id="clip0_1941_1232">
<rect x="57" y="6" width="508" height="561" rx="20.5118" fill="white"/>
</clipPath>
</defs>
</svg>
