<svg width="135" height="21" viewBox="0 0 135 21" fill="none" xmlns="http://www.w3.org/2000/svg">
<path fill-rule="evenodd" clip-rule="evenodd" d="M5.05446 20.919C4.51411 21.1962 3.90096 20.7104 4.01015 20.0903L5.17205 13.4689L0.240293 8.77091C-0.220265 8.33135 0.0191131 7.52782 0.636457 7.44103L7.49304 6.46671L10.5504 0.409463C10.8261 -0.136488 11.5723 -0.136488 11.848 0.409463L14.9054 6.46671L21.7619 7.44103C22.3793 7.52782 22.6187 8.33135 22.1567 8.77091L17.2264 13.4689L18.3882 20.0903C18.4974 20.7104 17.8843 21.1962 17.3439 20.919L11.1971 17.7609L5.05306 20.919H5.05446ZM32.0075 20.0903C31.8983 20.7104 32.5114 21.1962 33.0518 20.919H33.0504L39.1944 17.7609L45.3412 20.919C45.8816 21.1962 46.4947 20.7104 46.3855 20.0903L45.2237 13.4689L50.154 8.77091C50.616 8.33135 50.3766 7.52782 49.7592 7.44103L42.9027 6.46671L39.8453 0.409463C39.5696 -0.136488 38.8234 -0.136488 38.5477 0.409463L35.4903 6.46671L28.6338 7.44103C28.0164 7.52782 27.777 8.33135 28.2376 8.77091L33.1693 13.4689L32.0075 20.0903ZM61.0492 20.919C60.5089 21.1962 59.8957 20.7104 60.0049 20.0903L61.1668 13.4689L56.2351 8.77091C55.7745 8.33135 56.0139 7.52782 56.6312 7.44103L63.4878 6.46671L66.5451 0.409463C66.8209 -0.136488 67.567 -0.136488 67.8428 0.409463L70.9001 6.46671L77.7567 7.44103C78.374 7.52782 78.6134 8.33135 78.1515 8.77091L73.2211 13.4689L74.383 20.0903C74.4922 20.7104 73.8791 21.1962 73.3387 20.919L67.1919 17.7609L61.0478 20.919H61.0492ZM89.0466 20.919C88.5062 21.1962 87.8931 20.7104 88.0023 20.0903L89.1641 13.4689L84.2324 8.77091C83.7718 8.33135 84.0112 7.52782 84.6286 7.44103L91.4851 6.46671L94.5425 0.409463C94.8182 -0.136488 95.5644 -0.136488 95.8401 0.409463L98.8975 6.46671L105.754 7.44103C106.371 7.52782 106.611 8.33135 106.149 8.77091L101.218 13.4689L102.38 20.0903C102.49 20.7104 101.876 21.1962 101.336 20.919L95.1892 17.7609L89.0452 20.919H89.0466ZM122.54 0.410521L119.483 6.46777L112.626 7.44208C112.52 7.45683 112.418 7.4953 112.328 7.55466C112.238 7.61403 112.163 7.69276 112.108 7.78505C112.03 7.91237 111.989 8.05864 111.989 8.20781C111.988 8.31333 112.009 8.41785 112.051 8.5149C112.092 8.61195 112.153 8.69945 112.23 8.77196L117.16 13.4699L115.998 20.0913C115.903 20.6345 116.36 21.074 116.838 20.9901C116.909 20.977 116.978 20.9534 117.043 20.9201L123.187 17.7619L129.334 20.9201C129.874 21.1972 130.487 20.7115 130.378 20.0913L129.216 13.4699L134.148 8.77196C134.232 8.69273 134.297 8.59556 134.338 8.4877C134.379 8.37984 134.395 8.26407 134.386 8.14902C134.377 7.97621 134.31 7.81152 134.194 7.68273C134.079 7.55395 133.922 7.46895 133.752 7.44208L126.895 6.46777L123.838 0.410521C123.699 0.137545 123.443 0.00175756 123.187 0.00175756C123.051 0.00250409 122.919 0.0412143 122.805 0.113481C122.69 0.185747 122.599 0.288667 122.54 0.410521ZM123.511 16.2165C123.411 16.1645 123.3 16.1376 123.187 16.1381V16.1367V2.41794L123.188 2.41374L125.774 7.53447C125.826 7.64113 125.903 7.73353 125.999 7.80374C126.095 7.87396 126.206 7.9199 126.324 7.93764L131.996 8.74397L127.927 12.6216C127.834 12.7119 127.765 12.8236 127.725 12.9468C127.686 13.0701 127.677 13.2012 127.7 13.3286L128.671 18.8678L123.511 16.2165Z" fill="url(#paint0_linear_641_449)"/>
<defs>
<linearGradient id="paint0_linear_641_449" x1="14.449" y1="5.73805" x2="17.3443" y2="40.522" gradientUnits="userSpaceOnUse">
<stop stop-color="#FFB45C"/>
<stop offset="1" stop-color="#F7931E"/>
</linearGradient>
</defs>
</svg>
