<svg width="106" height="29" viewBox="0 0 106 29" fill="none" xmlns="http://www.w3.org/2000/svg">
<path d="M16.9986 13.4205C16.9706 10.3193 19.5385 8.81061 19.6559 8.74037C18.2016 6.62065 15.9476 6.33103 15.1555 6.30794C13.2623 6.10876 11.426 7.44044 10.4616 7.44044C9.47796 7.44044 7.9929 6.32718 6.39235 6.3599C4.3327 6.39165 2.40588 7.58381 1.3491 9.43508C-0.831809 13.2098 0.794733 18.7568 2.88421 21.808C3.92944 23.3032 5.15079 24.9707 6.74942 24.912C8.3134 24.8485 8.89761 23.9161 10.785 23.9161C12.655 23.9161 13.2036 24.912 14.834 24.8745C16.5125 24.8485 17.5693 23.3734 18.5779 21.8657C19.7858 20.1539 20.2709 18.4662 20.2901 18.3797C20.2516 18.3662 17.0313 17.1365 16.9986 13.4205ZM13.9187 4.3008C14.7599 3.24912 15.3354 1.81833 15.1757 0.366379C13.9582 0.420262 12.4356 1.2083 11.5588 2.23689C10.783 3.14328 10.0901 4.62891 10.2691 6.02602C11.6367 6.12801 13.041 5.33612 13.9187 4.3008Z" fill="#021639"/>
<path d="M39.6515 24.6977H37.4657L36.2684 20.9365H32.1068L30.9663 24.6977H28.8383L32.9624 11.8928H35.5091L39.6515 24.6977ZM35.9075 19.3585L34.8248 16.0149C34.7102 15.6733 34.4946 14.8689 34.179 13.6027H34.1405C34.0134 14.1473 33.8103 14.9517 33.5322 16.0149L32.4677 19.3585H35.9075ZM50.2365 19.9676C50.2365 21.5379 49.8101 22.7791 48.9564 23.6903C48.1922 24.5015 47.2423 24.9065 46.1095 24.9065C44.8862 24.9065 44.0065 24.4707 43.4724 23.597V28.4417H41.4204V18.4993C41.4204 17.513 41.3945 16.5018 41.3444 15.4645H43.149L43.2635 16.928H43.302C43.9863 15.8253 45.0248 15.274 46.4184 15.274C47.5079 15.274 48.4175 15.7041 49.1451 16.5653C49.8717 17.4284 50.2365 18.5618 50.2365 19.9676ZM48.146 20.0426C48.146 19.144 47.9439 18.4031 47.5378 17.819C47.0941 17.2119 46.4983 16.9078 45.7515 16.9078C45.2452 16.9078 44.7852 17.0772 44.3742 17.411C43.9623 17.7478 43.6928 18.1875 43.5667 18.7321C43.5104 18.9358 43.4784 19.1454 43.4714 19.3566V20.8971C43.4714 21.5677 43.6774 22.1345 44.0893 22.5982C44.5012 23.0601 45.0364 23.292 45.6947 23.292C46.4675 23.292 47.0691 22.9927 47.4993 22.3991C47.9305 21.8035 48.146 21.0183 48.146 20.0426ZM60.8591 19.9676C60.8591 21.5379 60.4327 22.7791 59.579 23.6903C58.8139 24.5015 57.8649 24.9065 56.7311 24.9065C55.5078 24.9065 54.6281 24.4707 54.094 23.597V28.4417H52.042V18.4993C52.042 17.513 52.0161 16.5018 51.966 15.4645H53.7706L53.8851 16.928H53.9236C54.607 15.8253 55.6455 15.274 57.0401 15.274C58.1286 15.274 59.0381 15.7041 59.7676 16.5653C60.4933 17.4284 60.8591 18.5618 60.8591 19.9676ZM58.7677 20.0426C58.7677 19.144 58.5646 18.4031 58.1584 17.819C57.7147 17.2119 57.1209 16.9078 56.374 16.9078C55.8678 16.9078 55.4077 17.0772 54.9948 17.411C54.5829 17.7478 54.3144 18.1875 54.1883 18.7321C54.1257 18.9862 54.0921 19.193 54.0921 19.3566V20.8971C54.0921 21.5677 54.299 22.1345 54.709 22.5982C55.1209 23.0591 55.6561 23.292 56.3163 23.292C57.0901 23.292 57.6916 22.9927 58.1209 22.3991C58.5521 21.8035 58.7677 21.0183 58.7677 20.0426ZM72.7357 21.1059C72.7357 22.196 72.3546 23.0822 71.5971 23.7663C70.7636 24.513 69.6 24.8873 68.1082 24.8873C66.73 24.8873 65.6251 24.6217 64.7916 24.0896L65.2661 22.3798C66.166 22.9129 67.1544 23.1784 68.2305 23.1784C69.0043 23.1784 69.6058 23.0033 70.0351 22.656C70.4653 22.3077 70.6828 21.842 70.6828 21.2608C70.6828 20.7402 70.5028 20.3044 70.1496 19.9493C69.7944 19.5952 69.2074 19.2652 68.3825 18.9621C66.14 18.1259 65.0178 16.903 65.0178 15.2942C65.0178 14.2435 65.4143 13.3833 66.2055 12.7107C66.9966 12.0391 68.0457 11.7033 69.3508 11.7033C70.5163 11.7033 71.4874 11.9063 72.2583 12.3114L71.7434 13.9837C71.0177 13.5911 70.1987 13.3948 69.2824 13.3948C68.5587 13.3948 67.9908 13.5728 67.5847 13.9269C67.243 14.2435 67.0698 14.6293 67.0698 15.0873C67.0698 15.5925 67.2671 16.012 67.6597 16.3411C68.0004 16.6442 68.6222 16.9742 69.5211 17.3283C70.6241 17.7728 71.4345 18.2905 71.9532 18.8851C72.4758 19.4798 72.7357 20.2216 72.7357 21.1059ZM79.5373 17.004H77.2756V21.4869C77.2756 22.6271 77.674 23.1958 78.4729 23.1958C78.8396 23.1958 79.1437 23.165 79.3843 23.1005L79.4411 24.6583C79.0369 24.8094 78.5046 24.8854 77.8454 24.8854C77.035 24.8854 76.4017 24.6381 75.9445 24.1435C75.4893 23.649 75.2602 22.8205 75.2602 21.6543V17.0002H73.9128V15.4607H75.2602V13.7701L77.2756 13.162V15.4607H79.5373V17.004ZM89.722 20.0051C89.722 21.4244 89.3158 22.5896 88.5055 23.5008C87.6575 24.4389 86.5295 24.9065 85.1234 24.9065C83.7664 24.9065 82.6874 24.4572 81.8828 23.5595C81.0782 22.6598 80.6759 21.5264 80.6759 20.1591C80.6759 18.7283 81.0917 17.5563 81.9204 16.6451C82.751 15.733 83.8693 15.2769 85.2755 15.2769C86.6306 15.2769 87.7191 15.7272 88.543 16.6259C89.3303 17.4976 89.722 18.6234 89.722 20.0051ZM87.595 20.0523C87.595 19.2065 87.4121 18.481 87.0454 17.8739C86.6152 17.1407 85.9992 16.7741 85.2014 16.7741C84.3794 16.7741 83.749 17.1407 83.3198 17.8739C82.9521 18.481 82.7692 19.219 82.7692 20.0908C82.7692 20.9375 82.9521 21.6649 83.3198 22.2701C83.7635 23.0033 84.3823 23.3699 85.184 23.3699C85.9684 23.3699 86.5834 22.9956 87.0281 22.2518C87.4054 21.6303 87.595 20.9 87.595 20.0523ZM96.3947 17.2686C96.1813 17.2301 95.9648 17.2111 95.7479 17.2119C95.0261 17.2119 94.4678 17.4832 94.0752 18.0297C93.7345 18.5108 93.5631 19.1189 93.5631 19.8531V24.6977H91.5112V18.3723C91.513 17.403 91.4931 16.4338 91.4515 15.4655H93.2388L93.3139 17.2321H93.3707C93.5882 16.6249 93.9289 16.1352 94.3966 15.7686C94.8248 15.4482 95.345 15.2748 95.8798 15.274C96.0694 15.274 96.2407 15.2875 96.3927 15.3115L96.3947 17.2686ZM105.572 19.6443C105.577 19.9561 105.552 20.2678 105.497 20.5747H99.3407C99.3638 21.4869 99.6622 22.1855 100.234 22.6666C100.753 23.0957 101.423 23.3112 102.247 23.3112C103.159 23.3112 103.99 23.1669 104.738 22.8754L105.06 24.2984C104.186 24.6795 103.154 24.869 101.963 24.869C100.531 24.869 99.4071 24.4476 98.5891 23.6066C97.7729 22.7647 97.3639 21.6332 97.3639 20.2158C97.3639 18.8245 97.744 17.6651 98.5053 16.7404C99.3022 15.7532 100.379 15.2596 101.734 15.2596C103.065 15.2596 104.073 15.7532 104.757 16.7404C105.299 17.5227 105.572 18.4925 105.572 19.6443ZM103.615 19.1122C103.629 18.5031 103.495 17.9787 103.217 17.5352C102.861 16.9636 102.315 16.6788 101.582 16.6788C100.911 16.6788 100.365 16.9569 99.949 17.515C99.6073 17.9585 99.4043 18.4916 99.3417 19.1103L103.615 19.1122Z" fill="#021639"/>
<path d="M31.5149 7.36509C30.9442 7.36509 30.4505 7.33719 30.0395 7.29004V1.09927C30.6143 1.01051 31.1951 0.966752 31.7767 0.968414C34.1299 0.968414 35.2136 2.12594 35.2136 4.0128C35.2136 6.18929 33.9336 7.36509 31.5149 7.36509ZM31.8595 1.76223C31.5419 1.76223 31.2714 1.78147 31.0472 1.82765V6.53375C31.1684 6.553 31.4014 6.56166 31.7286 6.56166C33.2704 6.56166 34.1482 5.68414 34.1482 4.04071C34.1482 2.57528 33.3542 1.76223 31.8595 1.76223ZM38.5909 7.41224C37.2646 7.41224 36.4051 6.42214 36.4051 5.07795C36.4051 3.677 37.2829 2.67824 38.6659 2.67824C39.9729 2.67824 40.8517 3.62119 40.8517 5.00386C40.8517 6.42214 39.946 7.41224 38.5909 7.41224ZM38.6294 3.41528C37.9008 3.41528 37.434 4.09651 37.434 5.04909C37.434 5.98338 37.9104 6.66461 38.6197 6.66461C39.3291 6.66461 39.8055 5.93623 39.8055 5.02984C39.8055 4.10613 39.3387 3.41528 38.6294 3.41528ZM48.4146 2.77157L46.995 7.30928H46.0701L45.482 5.33871C45.3358 4.85669 45.2141 4.36759 45.1172 3.87328H45.098C45.0239 4.36785 44.8834 4.86338 44.7342 5.33871L44.1086 7.30928H43.1741L41.8382 2.77157H42.8747L43.3887 4.92881C43.51 5.44262 43.612 5.92757 43.6967 6.38558H43.7159C43.79 6.00358 43.9113 5.52634 44.0893 4.93843L44.7342 2.77253H45.5561L46.1731 4.89225C46.3222 5.40606 46.4435 5.91025 46.5378 6.38654H46.5648C46.6302 5.91987 46.7332 5.42434 46.8728 4.89225L47.4242 2.77253L48.4146 2.77157ZM53.6407 7.30928H52.6321V4.70366C52.6321 3.90119 52.3241 3.49899 51.7168 3.49899C51.1191 3.49899 50.7081 4.0128 50.7081 4.61033V7.30928H49.6995V4.06861C49.6995 3.66737 49.6898 3.23727 49.6619 2.77061H50.5493L50.5965 3.47109H50.6244C50.8958 2.98614 51.4463 2.67824 52.0632 2.67824C53.0161 2.67824 53.6417 3.40662 53.6417 4.59204L53.6407 7.30928ZM56.4222 7.30928H55.4126V0.689377H56.4222V7.30928ZM60.0997 7.41224C58.7744 7.41224 57.914 6.42214 57.914 5.07795C57.914 3.677 58.7917 2.67824 60.1738 2.67824C61.4818 2.67824 62.3596 3.62119 62.3596 5.00386C62.3605 6.42214 61.4539 7.41224 60.0997 7.41224ZM60.1372 3.41528C59.4087 3.41528 58.9419 4.09651 58.9419 5.04909C58.9419 5.98338 59.4193 6.66461 60.1267 6.66461C60.837 6.66461 61.3124 5.93623 61.3124 5.02984C61.3134 4.10613 60.8475 3.41528 60.1372 3.41528ZM66.3364 7.30928L66.2633 6.78681H66.2363C65.9283 7.20729 65.4789 7.41224 64.9091 7.41224C64.0958 7.41224 63.5183 6.84262 63.5183 6.07671C63.5183 4.95672 64.4895 4.37747 66.1709 4.37747V4.29376C66.1709 3.69624 65.8542 3.397 65.2286 3.397C64.7811 3.397 64.3884 3.50957 64.0429 3.73376L63.8379 3.07081C64.2575 2.80909 64.7811 2.67824 65.3961 2.67824C66.5818 2.67824 67.1805 3.30366 67.1805 4.55548V6.22681C67.1805 6.68482 67.2007 7.03987 67.2459 7.31025L66.3364 7.30928ZM66.1978 5.04909C65.0775 5.04909 64.5154 5.32043 64.5154 5.96413C64.5154 6.44042 64.8051 6.67327 65.2074 6.67327C65.7204 6.67327 66.1978 6.28166 66.1978 5.74957V5.04909ZM72.0784 7.30928L72.0312 6.5809H72.0033C71.7136 7.13128 71.2266 7.41224 70.5462 7.41224C69.4519 7.41224 68.6415 6.45004 68.6415 5.09623C68.6415 3.677 69.4817 2.67727 70.6289 2.67727C71.2362 2.67727 71.6665 2.88222 71.909 3.29404H71.9292V0.689377H72.9388V6.08633C72.9388 6.52509 72.9494 6.93595 72.9763 7.30928H72.0784ZM71.9292 4.63919C71.9292 4.00414 71.5086 3.46243 70.8667 3.46243C70.1188 3.46243 69.6617 4.12538 69.6617 5.05871C69.6617 5.97376 70.1362 6.60015 70.8464 6.60015C71.4807 6.60015 71.9292 6.04881 71.9292 5.39548V4.63919ZM79.3401 7.41224C78.0148 7.41224 77.1553 6.42214 77.1553 5.07795C77.1553 3.677 78.0331 2.67824 79.4151 2.67824C80.7231 2.67824 81.6009 3.62119 81.6009 5.00386C81.6018 6.42214 80.6962 7.41224 79.3401 7.41224ZM79.3776 3.41528C78.65 3.41528 78.1832 4.09651 78.1832 5.04909C78.1832 5.98338 78.6596 6.66461 79.368 6.66461C80.0783 6.66461 80.5537 5.93623 80.5537 5.02984C80.5556 4.10613 80.0889 3.41528 79.3776 3.41528ZM87.0252 7.30928H86.0156V4.70366C86.0156 3.90119 85.7076 3.49899 85.1003 3.49899C84.5027 3.49899 84.0927 4.0128 84.0927 4.61033V7.30928H83.083V4.06861C83.083 3.66737 83.0734 3.23727 83.0455 2.77061H83.9329L83.98 3.47109H84.008C84.2784 2.98614 84.8299 2.67727 85.4459 2.67727C86.3987 2.67727 87.0252 3.40566 87.0252 4.59108V7.30928ZM93.8115 3.52785H92.7018V5.73128C92.7018 6.29224 92.8962 6.57224 93.2889 6.57224C93.4669 6.57224 93.6161 6.553 93.7364 6.52509L93.7643 7.291C93.5689 7.36605 93.3072 7.40358 92.9818 7.40358C92.1869 7.40358 91.7114 6.96482 91.7114 5.81596V3.52785H91.0492V2.77157H91.7114V1.94023L92.7018 1.64099V2.77061H93.8115V3.52785ZM99.1512 7.30928H98.1435V4.7229C98.1435 3.91081 97.8364 3.49995 97.2282 3.49995C96.7056 3.49995 96.2186 3.855 96.2186 4.57376V7.30928H95.2109V0.689377H96.2186V3.41528H96.2388C96.5564 2.92071 97.0164 2.67727 97.6035 2.67727C98.5641 2.67727 99.1512 3.42394 99.1512 4.61033V7.30928ZM104.622 5.2829H101.595C101.614 6.14214 102.183 6.62709 103.025 6.62709C103.473 6.62709 103.884 6.55204 104.248 6.41252L104.405 7.113C103.976 7.29966 103.471 7.393 102.883 7.393C101.463 7.393 100.623 6.49623 100.623 5.10586C100.623 3.71452 101.483 2.66861 102.769 2.66861C103.929 2.66861 104.656 3.52785 104.656 4.82586C104.663 4.97904 104.651 5.13245 104.622 5.2829ZM103.697 4.56414C103.697 3.86366 103.344 3.36909 102.699 3.36909C102.119 3.36909 101.661 3.87328 101.596 4.56414H103.697Z" fill="#021639"/>
</svg>
