<svg width="110" height="27" viewBox="0 0 110 27" fill="none" xmlns="http://www.w3.org/2000/svg">
<path fill-rule="evenodd" clip-rule="evenodd" d="M16.7082 16.9645L12.745 13.0143L1.04279 24.6783C1.47117 25.1356 2.18983 25.1869 2.99276 24.7413L16.7082 16.9645Z" fill="url(#paint0_linear_848_2710)"/>
<path d="M58.2827 6.68193C57.433 6.68193 56.7167 6.3856 56.1502 5.80228C55.5884 5.2353 55.2747 4.45365 55.2887 3.65568C55.2887 2.80403 55.579 2.08305 56.1502 1.5114C56.7143 0.928085 57.4307 0.63176 58.2804 0.63176C59.1208 0.63176 59.8371 0.928085 60.413 1.5114C60.9842 2.10172 61.2744 2.8227 61.2744 3.65568C61.2651 4.50965 60.9748 5.23063 60.413 5.79995C59.8488 6.38794 59.1325 6.68193 58.2827 6.68193ZM32.9986 6.68193C32.1676 6.68193 31.4466 6.39027 30.8566 5.81395C30.2714 5.23997 29.9741 4.51432 29.9741 3.65801C29.9741 2.8017 30.2714 2.07605 30.8566 1.50207C31.4348 0.925752 32.1558 0.634093 32.9986 0.634093C33.4106 0.634093 33.8109 0.715758 34.1948 0.88142C34.5717 1.04242 34.8783 1.26174 35.1054 1.53007L35.1616 1.59773L34.5272 2.21838L34.4616 2.14139C34.1035 1.71673 33.6236 1.50907 32.9892 1.50907C32.4227 1.50907 31.9288 1.70973 31.5215 2.10639C31.1118 2.50538 30.9035 3.02803 30.9035 3.66034C30.9035 4.29266 31.1118 4.81531 31.5215 5.2143C31.9288 5.61096 32.4227 5.81162 32.9892 5.81162C33.5932 5.81162 34.1011 5.61096 34.4968 5.2143C34.7308 4.98097 34.876 4.65432 34.9275 4.24133H32.8932V3.36869H35.8006L35.8123 3.44802C35.8334 3.59501 35.8545 3.74667 35.8545 3.88667C35.8545 4.69165 35.611 5.34263 35.1288 5.82328C34.581 6.3926 33.8647 6.68193 32.9986 6.68193ZM66.6164 6.55826H65.7198L62.9739 2.17872L62.9973 2.96736V6.55593H62.1008V0.757757H63.1237L63.1518 0.802089L65.7339 4.92731L65.7104 4.141V0.757757H66.6164V6.55826ZM51.5456 6.55826H50.6373V1.6304H49.0619V0.757757H53.1187V1.6304H51.5433V6.55826H51.5456ZM48.3222 6.55826H47.4162V0.757757H48.3222V6.55826ZM43.2307 6.55826H42.3248V1.6304H40.7493V0.757757H44.8061V1.6304H43.2307V6.55826ZM40.1758 6.54893H36.7019V0.757757H40.1758V1.6304H37.6102V3.22169H39.9253V4.085H37.6102V5.67629H40.1758V6.54893ZM56.815 5.20263C57.22 5.60629 57.7116 5.80928 58.2827 5.80928C58.8703 5.80928 59.3502 5.61096 59.7505 5.20263C60.1485 4.80598 60.3498 4.28566 60.3498 3.65801C60.3498 3.03036 60.1484 2.50771 59.7528 2.11339C59.3479 1.70973 58.8539 1.50674 58.2851 1.50674C57.6975 1.50674 57.2176 1.70506 56.8197 2.11339C56.4217 2.51004 56.2204 3.03036 56.2204 3.65801C56.2204 4.28566 56.4194 4.80831 56.815 5.20263Z" fill="#021639"/>
<path fill-rule="evenodd" clip-rule="evenodd" d="M55.2044 14.6568C52.9922 14.6568 51.1991 16.3297 51.1991 18.6373C51.1991 20.9239 53.0039 22.6179 55.2044 22.6179C57.4165 22.6179 59.2097 20.9333 59.2097 18.6373C59.2097 16.3297 57.4165 14.6568 55.2044 14.6568ZM55.2044 21.0406C53.9941 21.0406 52.9524 20.042 52.9524 18.628C52.9524 17.193 53.9965 16.2154 55.2044 16.2154C56.4146 16.2154 57.4563 17.193 57.4563 18.628C57.4587 20.0513 56.4146 21.0406 55.2044 21.0406ZM46.4658 14.6568C44.2536 14.6568 42.4605 16.3297 42.4605 18.6373C42.4605 20.9239 44.2653 22.6179 46.4658 22.6179C48.6779 22.6179 50.4711 20.9333 50.4711 18.6373C50.4711 16.3297 48.6756 14.6568 46.4658 14.6568ZM46.4658 21.0406C45.2555 21.0406 44.2138 20.042 44.2138 18.628C44.2138 17.193 45.2579 16.2154 46.4658 16.2154C47.676 16.2154 48.7177 17.193 48.7177 18.628C48.7177 20.0513 47.676 21.0406 46.4658 21.0406ZM36.0674 15.8724V17.557H40.1242C40.0002 18.502 39.6865 19.1996 39.2066 19.678C38.612 20.2706 37.6944 20.9146 36.0768 20.9146C33.5837 20.9146 31.6338 18.908 31.6338 16.4231C31.6338 13.9381 33.5837 11.9315 36.0768 11.9315C37.4228 11.9315 38.4037 12.4612 39.1317 13.1378L40.3302 11.9432C39.319 10.9772 37.9729 10.2376 36.0862 10.2376C32.6661 10.2376 29.7961 13.0141 29.7961 16.4137C29.7961 19.8226 32.6638 22.5899 36.0862 22.5899C37.9331 22.5899 39.319 21.9879 40.4145 20.8539C41.5311 19.741 41.8846 18.1707 41.8846 16.9037C41.8846 16.5094 41.8542 16.1547 41.791 15.8537H36.0651C36.0674 15.8514 36.0674 15.8724 36.0674 15.8724ZM78.5994 17.1837C78.2647 16.2901 77.2534 14.6474 75.1794 14.6474C73.1241 14.6474 71.4152 16.2597 71.4152 18.628C71.4152 20.8633 73.1053 22.6085 75.3784 22.6085C77.2043 22.6085 78.267 21.4956 78.7048 20.8423L77.3494 19.937C76.8999 20.6019 76.2749 21.0383 75.3877 21.0383C74.4911 21.0383 73.8638 20.6323 73.4471 19.832L78.7867 17.627C78.7867 17.6294 78.5994 17.1837 78.5994 17.1837ZM73.1545 18.5137C73.1124 16.976 74.353 16.1944 75.2402 16.1944C75.9402 16.1944 76.5231 16.5374 76.722 17.0367L73.1545 18.5137ZM68.8168 22.3706H70.5701V10.6762H68.8168V22.3706ZM65.9375 15.5411H65.8743C65.4786 15.0721 64.7272 14.6474 63.7674 14.6474C61.7753 14.6474 59.94 16.3951 59.94 18.6397C59.94 20.8749 61.766 22.6016 63.7674 22.6016C64.7155 22.6016 65.4786 22.1746 65.8743 21.6962H65.9375V22.2679C65.9375 23.7869 65.1228 24.6058 63.8096 24.6058C62.7351 24.6058 62.0679 23.8358 61.7964 23.1919L60.2725 23.8265C60.7102 24.8765 61.8783 26.1761 63.8072 26.1761C65.8626 26.1761 67.6042 24.9698 67.6042 22.0276V14.8854H65.9468V15.5411C65.9492 15.5411 65.9375 15.5411 65.9375 15.5411ZM63.9243 21.0406C62.714 21.0406 61.7028 20.0326 61.7028 18.6397C61.7028 17.235 62.714 16.2177 63.9243 16.2177C65.1228 16.2177 66.0522 17.2467 66.0522 18.6397C66.0639 20.0326 65.1252 21.0406 63.9243 21.0406ZM86.809 10.6762H82.6165V22.3706H84.3698V17.942H86.8114C88.752 17.942 90.6598 16.5397 90.6598 14.3138C90.6598 12.0878 88.759 10.6762 86.809 10.6762ZM86.8605 16.3087H84.3675V12.2955H86.8605C88.1738 12.2955 88.9158 13.3758 88.9158 14.3021C88.9158 15.2191 88.1644 16.3087 86.8605 16.3087ZM97.6872 14.6358C96.4138 14.6358 95.1005 15.1981 94.5574 16.4231L96.1118 17.067C96.4465 16.4231 97.0599 16.2037 97.7083 16.2037C98.6166 16.2037 99.5342 16.745 99.5553 17.711V17.8347C99.2416 17.6574 98.5534 17.3867 97.7294 17.3867C96.0509 17.3867 94.3491 18.3013 94.3491 20.0163C94.3491 21.5866 95.7256 22.5946 97.2589 22.5946C98.4363 22.5946 99.0848 22.0649 99.4897 21.4512H99.5529V22.3566H101.243V17.8767C101.243 15.7907 99.6887 14.6358 97.6872 14.6358ZM97.4672 21.0406C96.8937 21.0406 96.0907 20.7606 96.0907 20.042C96.0907 19.1366 97.0926 18.7937 97.9471 18.7937C98.7196 18.7937 99.0848 18.9593 99.5436 19.188C99.4172 20.2379 98.5276 21.0313 97.4672 21.0406ZM107.409 14.8854L105.396 19.958H105.333L103.247 14.8854H101.36L104.49 21.9762L102.706 25.9171H104.532L109.347 14.8854H107.409ZM91.6266 22.3706H93.38V10.6762H91.6266V22.3706Z" fill="#021639"/>
<path fill-rule="evenodd" clip-rule="evenodd" d="M1.04289 1.35034C0.771343 1.642 0.614502 2.08765 0.614502 2.67097V23.3601C0.614502 23.9434 0.771342 24.389 1.05225 24.669L1.12482 24.732L12.7545 13.1403V12.8814L1.11546 1.28734L1.04289 1.35034Z" fill="url(#paint1_linear_848_2710)"/>
<path fill-rule="evenodd" clip-rule="evenodd" d="M16.6238 17.0159L12.7449 13.1497V12.879L16.6238 9.01281L16.7081 9.06414L21.2963 11.6634C22.6095 12.4007 22.6095 13.6187 21.2963 14.3653L16.7081 16.9646L16.6238 17.0159Z" fill="url(#paint2_linear_848_2710)"/>
<path fill-rule="evenodd" clip-rule="evenodd" d="M16.7082 9.06447L2.99276 1.29935C2.18983 0.842029 1.46883 0.905028 1.04279 1.36235L12.745 13.0147L16.7082 9.06447Z" fill="url(#paint3_linear_848_2710)"/>
<path opacity="0.2" fill-rule="evenodd" clip-rule="evenodd" d="M16.6238 16.8805L3.00204 24.5943C2.24125 25.0306 1.56238 25.0003 1.12463 24.6036L1.05206 24.676L1.12463 24.739C1.56238 25.1333 2.24125 25.1659 3.00204 24.7296L16.7174 16.9645L16.6238 16.8805Z" fill="black"/>
<defs>
<linearGradient id="paint0_linear_848_2710" x1="14.5531" y1="15.1637" x2="-0.329701" y2="40.2948" gradientUnits="userSpaceOnUse">
<stop stop-color="#FF3A44"/>
<stop offset="1" stop-color="#C31162"/>
</linearGradient>
<linearGradient id="paint1_linear_848_2710" x1="11.7113" y1="2.44775" x2="-6.90928" y2="7.42548" gradientUnits="userSpaceOnUse">
<stop stop-color="#00A0FF"/>
<stop offset="0.00657" stop-color="#00A1FF"/>
<stop offset="0.2601" stop-color="#00BEFF"/>
<stop offset="0.5122" stop-color="#00D2FF"/>
<stop offset="0.7604" stop-color="#00DFFF"/>
<stop offset="1" stop-color="#00E3FF"/>
</linearGradient>
<linearGradient id="paint2_linear_848_2710" x1="23.0089" y1="13.0144" x2="0.29516" y2="13.0144" gradientUnits="userSpaceOnUse">
<stop stop-color="#FFE000"/>
<stop offset="0.4087" stop-color="#FFBD00"/>
<stop offset="0.7754" stop-color="#FFA500"/>
<stop offset="1" stop-color="#FF9C00"/>
</linearGradient>
<linearGradient id="paint3_linear_848_2710" x1="-1.90396" y1="-5.53084" x2="4.73586" y2="5.69307" gradientUnits="userSpaceOnUse">
<stop stop-color="#32A071"/>
<stop offset="0.0685" stop-color="#2DA771"/>
<stop offset="0.4762" stop-color="#15CF74"/>
<stop offset="0.8009" stop-color="#06E775"/>
<stop offset="1" stop-color="#00F076"/>
</linearGradient>
</defs>
</svg>
