<svg width="86" height="86" viewBox="0 0 86 86" fill="none" xmlns="http://www.w3.org/2000/svg">
<path d="M62.5112 30.8926C60.5098 30.1691 58.3964 29.8043 56.2682 29.8149C49.3963 29.8149 44.5399 33.2872 44.5104 38.2564C44.4539 41.9087 47.9531 43.9673 50.5976 45.1982C53.3146 46.4586 54.223 47.2434 54.2096 48.3614C54.1961 50.0841 52.0381 50.8527 50.052 50.8527C47.2919 50.8527 45.795 50.4764 43.4864 49.5089L42.6291 49.1031L41.6509 54.8436C43.3306 55.5289 46.3406 56.1309 49.4473 56.1874C56.7681 56.1874 61.5411 52.7447 61.5948 47.4369C61.6513 44.5263 59.7781 42.3172 55.7871 40.4951C53.3791 39.3206 51.8714 38.5197 51.8714 37.3157C51.8714 36.2515 53.1588 35.1335 55.8463 35.1335C57.6298 35.0888 59.4029 35.4174 61.0519 36.0983L61.7104 36.3912L62.6752 30.863L62.5112 30.8926ZM80.3751 30.2906H75.0001C73.3204 30.2906 72.0734 30.7394 71.3316 32.4057L61.0009 55.8219H68.3082L69.7809 51.9868L78.6954 52.0002C78.9184 52.8952 79.5473 55.8192 79.5473 55.8192H86L80.3751 30.2906ZM34.615 30.081H41.5729L37.2192 55.623H30.2613L34.615 30.0675V30.081ZM16.9232 44.1474L17.6354 47.7029L24.4509 30.2906H31.8281L20.8523 55.7789H13.5074L7.48738 34.1955C7.44125 34.0163 7.35908 33.8483 7.24588 33.7018C7.13267 33.5553 6.99081 33.4334 6.82894 33.3436C4.66653 32.2189 2.3726 31.3676 0 30.8093L0.0833125 30.2745H11.309C12.8221 30.3309 14.0529 30.8093 14.4722 32.4325L16.9232 44.1608V44.1474ZM71.7643 46.765L74.5512 39.6136C74.5082 39.6807 75.1237 38.1435 75.4731 37.176L75.9488 39.3717L77.5612 46.7489H71.7643V46.765Z" fill="#03011C"/>
</svg>
