<svg width="58" height="46" viewBox="0 0 58 46" fill="none" xmlns="http://www.w3.org/2000/svg">
<path d="M10.5444 44.8618V41.8778C10.5444 40.7336 9.8479 39.9878 8.65414 39.9878C8.05737 39.9878 7.41077 40.1867 6.96308 40.8333C6.61508 40.2862 6.11777 39.9878 5.3717 39.9878C4.87417 39.9878 4.37709 40.1369 3.97902 40.684V40.0872H2.93457V44.8618H3.97902V42.2258C3.97902 41.3805 4.42671 40.9824 5.12316 40.9824C5.81916 40.9824 6.16762 41.4301 6.16762 42.2258V44.8618H7.21207V42.2258C7.21207 41.3805 7.70915 40.9824 8.35576 40.9824C9.05221 40.9824 9.40021 41.4301 9.40021 42.2258V44.8618H10.5444ZM26.012 40.0872H24.3212V38.645H23.2767V40.0872H22.3317V41.032H23.2765V43.2206C23.2765 44.3149 23.7242 44.9613 24.9179 44.9613C25.3656 44.9613 25.8627 44.8122 26.2111 44.6133L25.9125 43.7179C25.6142 43.9168 25.2662 43.9667 25.0174 43.9667C24.5201 43.9667 24.3212 43.6683 24.3212 43.1708V41.032H26.012V40.0872ZM34.8652 39.9876C34.2684 39.9876 33.8705 40.2862 33.6218 40.684V40.0872H32.5773V44.8618H33.6218V42.1762C33.6218 41.3805 33.9698 40.9328 34.6164 40.9328C34.8153 40.9328 35.0641 40.9826 35.263 41.0322L35.5614 40.0376C35.3625 39.9878 35.0641 39.9878 34.8652 39.9878V39.9876ZM21.4862 40.4851C20.9887 40.1369 20.2924 39.9878 19.5464 39.9878C18.3528 39.9878 17.5571 40.5846 17.5571 41.5295C17.5571 42.3255 18.1539 42.7729 19.1984 42.9222L19.6957 42.9721C20.2428 43.0713 20.5412 43.2206 20.5412 43.4694C20.5412 43.8174 20.1434 44.0661 19.4469 44.0661C18.7507 44.0661 18.2035 43.8174 17.8553 43.5688L17.358 44.3645C17.9051 44.7624 18.6512 44.9613 19.3971 44.9613C20.7897 44.9613 21.5856 44.3149 21.5856 43.4195C21.5856 42.574 20.939 42.1263 19.9442 41.9772L19.4469 41.9274C18.9992 41.8775 18.6512 41.7783 18.6512 41.4799C18.6512 41.1317 18.9992 40.9328 19.5464 40.9328C20.1434 40.9328 20.7401 41.1813 21.0385 41.3306L21.4862 40.4851ZM49.239 39.9878C48.642 39.9878 48.2441 40.2862 47.9954 40.684V40.0872H46.9509V44.8618H47.9954V42.1762C47.9954 41.3805 48.3436 40.9328 48.99 40.9328C49.1891 40.9328 49.4379 40.9826 49.6368 41.0322L49.9352 40.0376C49.7363 39.9878 49.4379 39.9878 49.239 39.9878ZM35.9096 42.4745C35.9096 43.9168 36.9042 44.9613 38.4462 44.9613C39.1424 44.9613 39.6397 44.8122 40.137 44.4144L39.6397 43.5688C39.2419 43.8672 38.844 44.0163 38.3964 44.0163C37.5508 44.0163 36.9541 43.4195 36.9541 42.4745C36.9541 41.5794 37.5508 40.9824 38.3964 40.9328C38.844 40.9328 39.2419 41.0819 39.6397 41.3805L40.137 40.5349C39.6397 40.1369 39.1424 39.9878 38.4462 39.9878C36.9042 39.9878 35.9096 41.0322 35.9096 42.4745ZM45.5585 42.4745V40.0872H44.514V40.684C44.1658 40.2366 43.6685 39.9878 43.0219 39.9878C41.679 39.9878 40.6346 41.0322 40.6346 42.4745C40.6346 43.9168 41.679 44.9613 43.0219 44.9613C43.7181 44.9613 44.2156 44.7127 44.514 44.2651V44.8618H45.5585V42.4745ZM41.7286 42.4745C41.7286 41.629 42.2758 40.9328 43.1709 40.9328C44.0165 40.9328 44.6135 41.5794 44.6135 42.4745C44.6135 43.3201 44.0165 44.0163 43.1709 44.0163C42.2758 43.9665 41.7286 43.3201 41.7286 42.4745ZM29.245 39.9878C27.8524 39.9878 26.8575 40.9824 26.8575 42.4745C26.8575 43.9667 27.8521 44.9613 29.2947 44.9613C29.9909 44.9613 30.6873 44.7624 31.2345 44.3149L30.737 43.5688C30.3391 43.8672 29.8418 44.0661 29.3445 44.0661C28.6979 44.0661 28.0513 43.7678 27.902 42.922H31.4334V42.5244C31.4833 40.9824 30.5879 39.9878 29.2448 39.9878H29.245ZM29.245 40.8829C29.8914 40.8829 30.3393 41.281 30.4386 42.0271H27.9518C28.0513 41.3805 28.499 40.8829 29.245 40.8829ZM55.1575 42.4745V38.1973H54.113V40.684C53.7648 40.2366 53.2675 39.9878 52.6209 39.9878C51.278 39.9878 50.2336 41.0322 50.2336 42.4745C50.2336 43.9168 51.278 44.9613 52.6209 44.9613C53.3173 44.9613 53.8146 44.7127 54.113 44.2651V44.8618H55.1575V42.4745ZM51.3279 42.4745C51.3279 41.629 51.8748 40.9328 52.7702 40.9328C53.6157 40.9328 54.2125 41.5794 54.2125 42.4745C54.2125 43.3201 53.6157 44.0163 52.7702 44.0163C51.8748 43.9665 51.3279 43.3201 51.3279 42.4745ZM16.413 42.4745V40.0872H15.3685V40.684C15.0203 40.2366 14.523 39.9878 13.8764 39.9878C12.5336 39.9878 11.4891 41.0322 11.4891 42.4745C11.4891 43.9168 12.5336 44.9613 13.8764 44.9613C14.5729 44.9613 15.0702 44.7127 15.3685 44.2651V44.8618H16.413V42.4745ZM12.5336 42.4745C12.5336 41.629 13.0807 40.9328 13.9759 40.9328C14.8214 40.9328 15.4184 41.5794 15.4184 42.4745C15.4184 43.3201 14.8214 44.0163 13.9759 44.0163C13.0807 43.9665 12.5336 43.3201 12.5336 42.4745Z" fill="white"/>
<path d="M21.1377 3.82959H36.8045V31.9802H21.1377V3.82959Z" fill="#FF5F00"/>
<path d="M22.1327 17.905C22.1327 12.1854 24.8183 7.11225 28.9463 3.82959C25.9126 1.4423 22.083 0 17.9052 0C8.0074 0 0 8.0074 0 17.905C0 27.8024 8.0074 35.81 17.905 35.81C22.0828 35.81 25.9124 34.3677 28.9463 31.9802C24.8183 28.7474 22.1327 23.6246 22.1327 17.905Z" fill="#EB001B"/>
<path d="M57.9424 17.905C57.9424 27.8024 49.935 35.81 40.0374 35.81C35.8596 35.81 32.03 34.3677 28.9961 31.9802C33.1739 28.6978 35.81 23.6246 35.81 17.905C35.81 12.1854 33.1241 7.11225 28.9961 3.82959C32.0298 1.4423 35.8596 0 40.0374 0C49.935 0 57.9426 8.05724 57.9426 17.905H57.9424Z" fill="#F79E1B"/>
</svg>
